<svg xmlns="http://www.w3.org/2000/svg" viewBox="0 0 305 400">
<title>A call graph for a program that is a molar mass calculator</title>
<style>
@import url('https://fonts.googleapis.com/css?family=Open+Sans');
.bk{fill:#fff}
.start{stroke-width:2;stroke:#000;fill:none}

.std>rect,.user>rect{stroke-width:1;stroke:#000;rx:4}
.std>rect{fill:#cfe2fe}
.user>rect{fill:#fce5cd}
text{font:13px "Open Sans",sans-serif;text-anchor:middle;fill:#000}

.call,.return{stroke-width:1;stroke:#444}
.shaft{fill:none}
.return>.shaft{stroke-dasharray:4 3}
.tip{fill:#444}
</style>

<rect class="bk" x="0" y="0" width="305" height="400"/>
<circle class="start" cx="16" cy="16" r="8"/>

<g class="user">
<rect x="16" y="48" width="56" height="24"/>
<text x="44" y="65">main</text>
</g>
<g class="call">
<path class="shaft" d="m24 16c5 0 10 4 13.75 10c1.88 3 3.44 6.5 4.53 10.25c.27.94.52 1.89.73 2.86c.11.48.2.97.29 1.46c.05.24.09.49.13.73l.11.72"/>
<path class="tip" d="m41.9 42.14l1.99 4.4l1.31-4.65z"/>
</g>

<g class="std">
<rect x="152" y="48" width="56" height="24"/>
<text x="180" y="65">input</text>
</g>
<g class="call">
<path class="shaft" d="m72 52c20 0 30.13-6.9 40-14.5c9.87-7.6 19.47-15.9 34-14.5c7.27.7 15.77 3.83 22.45 8.34c3.34 2.26 6.23 4.86 8.28 7.68c.51.71.97 1.42 1.38 2.15c.1.18.2.37.29.55c.05.09.09.18.14.28l.08.16"/>
<path class="tip" d="m177.01 42.54l2.66 4.03l.56-4.8z"/>
</g>
<g class="return">
<path class="shaft" d="m180 72c0 12.5-19.47 23.6-34 25c-14.53 1.4-24.13-6.9-34-14.5c-4.93-3.8-9.93-7.43-16.2-10.1c-3.13-1.34-6.58-2.44-10.5-3.2c-1.96-.38-4.03-.68-6.24-.89c-.28-.03-.55-.05-.84-.07l-.23-.02"/>
<path class="tip" d="m78.06 66.57l-4.6 1.48l4.47 1.82z"/>
</g>

<g class="std">
<rect x="152" y="112" width="56" height="24"/>
<text x="180" y="129">float</text>
</g>
<g class="call">
<path class="shaft" d="m72 52c27 0 54 7.5 74.25 18.75c10.13 5.63 18.56 12.19 24.47 19.22c2.95 3.52 5.27 7.15 6.86 10.84c.4.92.74 1.85 1.05 2.78c.15.46.29.93.42 1.4c.06.23.12.47.18.7c.03.12.06.23.08.35l0.01"/>
<path class="tip" d="m177.66 106.23l2.17 4.32l1.11-4.7z"/>
</g>
<g class="return">
<path class="shaft" d="m180 136c0 12.5-19.47 27.87-34 25c-14.53-2.87-24.13-23.97-34-46.5c-4.93-11.27-9.93-22.89-16.2-31.7c-3.13-4.4-6.58-8.1-10.5-10.7c-1.96-1.3-4.03-2.32-6.24-3.02c-.28-.09-.55-.17-.84-.25l-.27-.07"/>
<path class="tip" d="m78.16 67.12l-4.71 1.07l4.29 2.21z"/>
</g>

<g class="user">
<rect x="152" y="176" width="136" height="24"/>
<text x="220" y="193">make_periodic_table</text>
</g>

<g class="user">
<rect x="152" y="240" width="104" height="24"/>
<text x="200" y="257">parse_formula</text>
</g>

<g class="user">
<rect x="152" y="304" width="144" height="24"/>
<text x="220" y="321">compute_molar_mass</text>
</g>

<g class="user">
<rect x="152" y="176" width="136" height="24"/>
<text x="220" y="193">make_periodic_table</text>
</g>
<g class="call">
<path class="shaft" d="m72 52c37.14 0 74.28 15.5 102.14 38.75c13.93 11.63 25.53 25.19 33.66 39.72c4.06 7.27 7.25 14.77 9.43 22.4c1.09 3.81 1.92 7.66 2.48 11.52c.14.96.26 1.93.37 2.9c.05.48.1.97.15 1.45c.02.24.04.48.06.73l.04.54"/>
<path class="tip" d="m218.69 170.07l1.82 4.47l1.48-4.6z"/>
</g>
<g class="return">
<path class="shaft" d="m220.55 200c0 12.5-30.15 32.13-54 25c-23.85-7.13-41.4-41.03-54-78.5c-6.3-18.73-11.37-38.36-17.39-53.3c-3.01-7.47-6.26-13.77-10.03-18.2c-1.88-2.22-3.89-3.97-6.07-5.16c-.27-.15-.55-.29-.82-.42l-.35-.16"/>
<path class="tip" d="m78.23 67.64l-4.78.67l4.09 2.56z"/>
</g>

<g class="user">
<rect x="152" y="240" width="104" height="24"/>
<text x="204" y="257">parse_formula</text>
</g>
<g class="call">
<path class="shaft" d="m72 52c33 0 66 23.5 90.75 58.75c12.38 17.63 22.69 38.19 29.91 60.22c3.61 11.02 6.45 22.4 8.38 33.96c.97 5.78 1.71 11.61 2.21 17.46c.25 2.93.44 5.86.57 8.79c.03.73.06 1.47.08 2.2l.02.61"/>
<path class="tip" d="m202.26 234.03l1.72 4.51l1.58-4.56z"/>
</g>
<g class="return">
<path class="shaft" d="m204 264c0 12.5-25.87 36.4-46 25c-20.13-11.4-34.53-58.1-46-110.5c-5.73-26.2-10.73-53.82-16.8-74.9c-3.03-10.54-6.33-19.44-10.12-25.7c-1.9-3.13-3.91-5.61-6.08-7.3c-.27-.21-.54-.41-.82-.6c-.14-.09-.28-.18-.42-.27l-.01 0"/>
<path class="tip" d="m78.22 68.14l-4.82.28l3.87 2.89z"/>
</g>

<g class="user">
<rect x="152" y="304" width="144" height="24"/>
<text x="224" y="321">compute_molar_mass</text>
</g>
<g class="call">
<path class="shaft" d="m72 52c38 0 76 31.5 104.5 78.75c14.25 23.63 26.13 51.19 34.44 80.72c4.16 14.77 7.42 30.02 9.65 45.53c1.11 7.75 1.97 15.57 2.54 23.41c.29 3.92.51 7.85.65 11.79c.04.98.07 1.97.1 2.95c.01.49.03.98.04 1.48l.03 1.38"/>
<path class="tip" d="m222.29 298.02l1.7 4.52l1.61-4.55z"/>
</g>
<g class="return">
<path class="shaft" d="m224 328c0 12.5-31.2 40.67-56 25c-24.8-15.67-43.2-75.17-56-142.5c-6.4-33.67-11.4-69.29-17.3-96.5c-2.95-13.6-6.13-25.1-9.81-33.2c-1.84-4.05-3.82-7.25-5.95-9.44c-.27-.27-.54-.53-.81-.77c-.14-.12-.27-.24-.41-.35l-.11-.09"/>
<path class="tip" d="m78.19 68.6l-4.83-.08l3.65 3.17z"/>
</g>

<g class="std">
<rect x="152" y="368" width="56" height="24"/>
<text x="180" y="385">print</text>
</g>
<g class="call">
<path class="shaft" d="m72 52c27 0 54 39.5 74.25 98.75c10.13 29.63 18.56 64.19 24.47 101.22c2.95 18.52 5.27 37.65 6.86 57.09c.79 9.72 1.4 19.52 1.81 29.35c.2 4.92.36 9.85.46 14.78c.05 2.47.09 4.93.12 7.4l.01 1.41"/>
<path class="tip" d="m178.32 362.01l1.67 4.53l1.63-4.55z"/>
</g>
</svg>
