<svg xmlns="http://www.w3.org/2000/svg" viewBox="0 0 358 462">
<title>A call graph for a program that computes pressure within a water distribution system</title>
<style>
@import url('https://fonts.googleapis.com/css?family=Open+Sans');
.bk{fill:#fff}
.start{stroke-width:2;stroke:#000;fill:none}

.std>rect,.user>rect{stroke-width:1;stroke:#000;rx:4}
.std>rect{fill:#cfe2fe}
.user>rect{fill:#fce5cd}
text{font:13.5px"Open Sans",sans-serif;text-anchor:middle;fill:#000}

.call,.return{stroke-width:1;stroke:#444}
.shaft{fill:none}
.return>.shaft{stroke-dasharray:4 3}
.tip{fill:#444}
</style>

<rect class="bk" x="0" y="0" width="358" height="462"/>
<circle class="start" cx="16" cy="16" r="8"/>

<g class="user">
<rect x="16" y="48" width="40" height="24"/>
<text x="36" y="64">main</text>
</g>
<g class="call">
<path class="shaft" d="m24 16c3 0 6 4 8.25 10c1.13 3 2.06 6.5 2.72 10.25c.16.94.31 1.89.44 2.86c.06.48.12.97.18 1.46c.03.24.05.49.08.73l.07.71"/>
<path class="tip" d="m34.08 42.08l1.86 4.46l1.44-4.61z"/>
</g>

<g class="std">
<rect x="120" y="48" width="40" height="24"/>
<text x="140" y="64">input</text>
</g>
<g class="call">
<path class="shaft" d="m56 52c16 0 24.27-5.27 32-11c7.73-5.73 14.93-11.93 26-11c5.53.47 12.03 2.72 17.15 5.97c2.56 1.63 4.77 3.51 6.34 5.55c.2.25 .38.51 .56.77l.02.03"/>
<path class="tip" d="m136.51 42.85l3.02 3.77l.1-4.83z"/>
</g>
<g class="return">
<path class="shaft" d="m140 72c0 8.88-14.93 16.83-26 17.75c-11.07.92-18.27-5.21-26-10.88c-3.87-2.83-7.87-5.55-12.9-7.56c-2.52-1.01-5.29-1.83-8.44-2.41c-.79-.14-1.6-.27-2.43-.38c-.42-.06-.84-.11-1.27-.15c-.21-.02-.43-.05-.65-.07l-.32-.03"/>
<path class="tip" d="m62.07 66.62l-4.61 1.45l4.46 1.85z"/>
</g>

<g class="std">
<rect x="120" y="96" width="40" height="24"/>
<text x="140" y="112">float</text>
</g>
<g class="call">
<path class="shaft" d="m56 52c21 0 42 5.5 57.75 13.75c7.88 4.13 14.44 8.94 19.03 14.09c2.3 2.58 4.1 5.24 5.33 7.95c.31.68 .58 1.36.81 2.04l.08.25"/>
<path class="tip" d="m137.38 90.35l2.38 4.2l.88-4.75z"/>
</g>
<g class="return">
<path class="shaft" d="m140 120c0 4.67-14.93 12.18-26 9.33c-11.07-2.84-18.27-16.04-26-30.67c-3.87-7.31-7.87-14.98-12.9-20.82c-2.52-2.92-5.29-5.38-8.44-7.11c-.79-.43-1.6-.82-2.43-1.16c-.42-.17-.84-.33-1.27-.47c-.21-.07-.43-.14-.65-.21c-.11-.03-.22-.06-.33-.1l-.04-.01"/>
<path class="tip" d="m62.17 67.16l-4.72 1.03l4.28 2.24z"/>
</g>

<g class="user">
<rect x="120" y="144" width="144" height="24"/>
<text x="192" y="160">water_column_height</text>
</g>
<g class="call">
<path class="shaft" d="m56 52c33 0 66 11.5 90.75 28.75c12.38 8.63 22.69 18.69 29.91 29.47c3.61 5.39 6.45 10.96 8.38 16.62c.97 2.83 1.71 5.68 2.21 8.55c.12.72 .23 1.43.33 2.15l.06.48"/>
<path class="tip" d="m185.98 138.11l1.93 4.43l1.37-4.63z"/>
</g>
<g class="return">
<path class="shaft" d="m188 168c0 7.5-27.73 20.67-50 15c-22.27-5.67-39.07-30.17-50-57.5c-5.47-13.67-9.47-28.04-14.1-39c-2.32-5.48-4.79-10.1-7.69-13.36c-.72-.81-1.47-1.54-2.25-2.18c-.39-.32-.79-.61-1.19-.88c-.2-.13-.41-.26-.62-.39c-.1-.06-.21-.12-.31-.18l-.03-.01"/>
<path class="tip" d="m62.22 67.91l-4.81.46l3.98 2.74z"/>
</g>

<g class="user">
<rect x="120" y="192" width="220" height="24"/>
<text x="230" y="208">pressure_gain_from_water_height</text>
</g>
<g class="call">
<path class="shaft" d="m56 52c43 0 86 17.5 118.25 43.75c16.13 13.13 29.56 28.44 38.97 44.84c4.7 8.2 8.4 16.68 10.92 25.29c1.26 4.31 2.23 8.65 2.88 13.01c.33 2.18.57 4.36.74 6.55l.04.56"/>
<path class="tip" d="m226.14 186.06l1.81 4.48l1.49-4.59z"/>
</g>
<g class="return">
<path class="shaft" d="m228 216c0 7.62-38.4 24.1-70 15.25c-31.6-8.85-56.4-43.02-70-81.62c-6.8-19.3-10.8-39.71-15.1-55.29c-2.15-7.79-4.38-14.37-7.06-19.01c-.67-1.16-1.37-2.2-2.11-3.1c-.37-.45-.74-.87-1.13-1.25c-.19-.19-.39-.38-.59-.55c-.1-.09-.2-.17-.3-.25l-.09-.07"/>
<path class="tip" d="m62.2 68.55l-4.83-.04l3.68 3.13z"/>
</g>

<g class="user">
<rect x="120" y="240" width="164" height="24"/>
<text x="202" y="256">pressure_loss_from_pipe</text>
</g>
<g class="call">
<path class="shaft" d="m56 52c36 0 72 23.5 99 58.75c13.5 17.63 24.75 38.19 32.63 60.22c3.94 11.02 7.03 22.4 9.14 33.96c1.05 5.78 1.86 11.61 2.41 17.46c.27 2.93.48 5.86.62 8.79c.03.73 .06 1.47.09 2.2l.02.61"/>
<path class="tip" d="m198.25 234.03l1.73 4.51l1.58-4.56z"/>
</g>
<g class="return">
<path class="shaft" d="m200 264c0 7-30.93 26.13-56 14c-25.07-12.13-44.27-55.53-56-105c-5.87-24.73-9.87-50.98-14.4-71.05c-2.27-10.03-4.67-18.52-7.5-24.5c-1.42-2.99-2.94-5.35-4.61-6.97l-.02-.02"/>
<path class="tip" d="m62.15 68.96l-4.82-.36l3.46 3.37z"/>
</g>

<g class="user">
<rect x="120" y="288" width="180" height="24"/>
<text x="210" y="304">pressure_loss_from_fittings</text>
</g>
<g class="call">
<path class="shaft" d="m56 52c38 0 76 29.5 104.5 73.75c14.25 22.13 26.13 47.94 34.44 75.59c4.16 13.83 7.42 28.12 9.65 42.64c1.11 7.26 1.97 14.58 2.54 21.92c.29 3.67.51 7.35.65 11.04c.04.92 .07 1.84.1 2.76c.01.46 .03.92 .04 1.38l.02.91"/>
<path class="tip" d="m206.28 282.02l1.7 4.52l1.6-4.56z"/>
</g>
<g class="return">
<path class="shaft" d="m208 312c0 5.62-33.07 26.77-60 11.25c-26.93-15.52-47.73-67.69-60-127.62c-6.13-29.97-10.13-61.87-14.6-86.29c-2.23-12.21-4.58-22.54-7.38-29.82c-1.4-3.64-2.9-6.52-4.56-8.49c-.05-.06-.1-.12-.16-.18l-.02-.02"/>
<path class="tip" d="m62.07 69.37l-4.78-.68l3.23 3.59z"/>
</g>

<g class="user">
<rect x="120" y="336" width="120" height="24"/>
<text x="180" y="352">reynolds_number</text>
</g>
<g class="call">
<path class="shaft" d="m56 52c31 0 62 35.5 85.25 88.75c11.63 26.63 21.31 57.69 28.09 90.97c3.39 16.64 6.05 33.84 7.87 51.31c.91 8.74 1.6 17.54 2.07 26.38c.23 4.42.41 8.85.53 13.28c.06 2.22.1 4.43.13 6.65l.01.66"/>
<path class="tip" d="m178.31 330.01l1.68 4.53l1.62-4.55z"/>
</g>
<g class="return">
<path class="shaft" d="m180 360c0 5-25.6 28.8-46 10c-20.4-18.8-35.6-80.2-46-151c-5.2-35.4-9.2-73.15-13.9-102.05c-2.35-14.45-4.87-26.69-7.81-35.31c-1.47-4.31-3.04-7.72-4.75-10.05c-.11-.15-.21-.29-.32-.42l-.07-.09"/>
<path class="tip" d="m62 69.66l-4.74-.91l3.05 3.74z"/>
</g>

<g class="user">
<rect x="120" y="384" width="230" height="24"/>
<text x="235" y="400">pressure_loss_from_pipe_reduction</text>
</g>
<g class="call">
<path class="shaft" d="m56 52c44 0 88 41.5 121 103.75c16.5 31.13 30.25 67.44 39.88 106.34c4.81 19.45 8.59 39.55 11.17 59.98c1.29 10.21 2.28 20.51 2.94 30.84c.33 5.17.59 10.34.75 15.53c.08 2.59.15 5.18.19 7.78l.03 1.78"/>
<path class="tip" d="m230.31 378.01l1.68 4.53l1.62-4.55z"/>
</g>
<g class="return">
<path class="shaft" d="m232 408c0 4.33-39.47 30.76-72 8.67c-32.53-22.09-58.13-92.69-72-174.33c-6.93-40.82-10.93-84.41-15.2-117.78c-2.13-16.69-4.33-30.83-7-40.79c-1.33-4.98-2.78-8.92-4.4-11.62c-.1-.17-.2-.33-.31-.49c-.05-.08-.1-.16-.15-.23l0-.01"/>
<path class="tip" d="m61.88 70.05l-4.67-1.22l2.79 3.94z"/>
</g>

<g class="std">
<rect x="120" y="432" width="40" height="24"/>
<text x="140" y="448">print</text>
</g>
<g class="call">
<path class="shaft" d="m56 52c21 0 42 47.5 57.75 118.75c7.88 35.63 14.44 77.19 19.03 121.72c2.3 22.27 4.1 45.27 5.33 68.65c.62 11.69 1.09 23.47 1.4 35.3c.16 5.91.28 11.84.36 17.77c.04 2.97.07 5.93.09 8.9l.01 2.91
"/>
<path class="tip" d="m138.33 426l1.66 4.53l1.64-4.54z"/>
</g>
</svg>
