<svg xmlns="http://www.w3.org/2000/svg"
	id="BYU-Idaho_logo"
	viewBox="0 0 88.48 52.39">
<defs>
	<style>path{fill:white;}</style>
</defs>
<path id="B" d="M 2.45,2.02 v 21.07 c 0,0.68 0,0.92 -0.45,1.23 a 4.79,4.79 0 0 1 -1.73,0.47 c -0.08,0 -0.06,0.32 0,0.32 h 17 c 7.18,0 10.21,-2.86 10.21,-7.3 c 0,-3.3 -1.53,-5.31 -4.57,-6.06 a 0.05,0.05 0 0 1 0,-0.1 c 1.93,-0.6 3.72,-2 3.72,-5.43 c 0,-4.64 -3.15,-6.21 -10,-6.21 h -16.36 c -0.08,0 -0.09,0.3 0,0.32 a 4.77,4.77 0 0 1 1.74,0.48 c 0.49,0.3 0.44,0.53 0.44,1.22 m 8,17.68 v -5 a 3.52,3.52 0 0 0 0,-0.6 a 4.18,4.18 0 0 0 0.6,0.05 h 2.79 c 2.22,0 4.94,0 4.94,3.08 c 0,2.27 -2,3.08 -4.57,3.08 h -3.16 a 4.92,4.92 0 0 0 -0.59,0 a 5.44,5.44 0 0 0 0,-0.6 m 0,-10 v -4.42 a 3.68,3.68 0 0 0 0,-0.6 a 4.18,4.18 0 0 0 0.6,0.05 h 3.3 c 2.51,0 4,0.39 4,2.67 c 0,1.48 -0.91,2.81 -3.88,2.81 h -3.4 a 4.92,4.92 0 0 0 -0.59,0 a 4.92,4.92 0 0 0 0,-0.59"/>
<path id="Y" d="M 48,25.11 c 0.09,0 0.1,-0.3 0,-0.32 a 4.79,4.79 0 0 1 -1.74,-0.47 c -0.48,-0.31 -0.45,-0.55 -0.45,-1.23 v -8 l 8.7,-12.9 a 6.09,6.09 0 0 1 1.17,-1.41 a 3,3 0 0 1 0.32,-0.22 a 1.65,1.65 0 0 1 0.94,-0.24 c 0.08,0 0.1,-0.31 0,-0.31 h -11.68 c -0.1,0 -0.08,0.31 0,0.32 c 0.58,0 1.28,0 1.16,0.83 l -5.01,7.96 l -5.02,-7.96 c -0.08,-0.99 0.59,-0.83 1.15,-0.83 c 0.09,0 0.11,-0.32 0,-0.32 h -12.3 c -0.08,0 -0.07,0.28 0,0.31 a 3.24,3.24 0 0 1 1.43,0.32 a 1.41,1.41 0 0 1 0.31,0.21 a 5.52,5.52 0 0 1 1.11,1.34 l 8.67,12.85 v 8.05 c 0,0.68 0.05,0.92 -0.44,1.23 a 4.79,4.79 0 0 1 -1.74,0.47 c -0.08,0 -0.06,0.32 0,0.32 Z"/>
<path id="U" d="M 86.1,2.02 c 0,-0.69 0,-0.93 0.44,-1.23 a 4.79,4.79 0 0 1 1.74,-0.47 c 0.08,0 0.07,-0.31 0,-0.31 h -12.57 c -0.08,0 -0.1,0.3 0,0.32 a 3.63,3.63 0 0 1 1.64,0.47 c 0.48,0.3 0.44,0.55 0.44,1.23 v 12.66 c 0,2.89 -1.66,5.11 -4.94,5.11 s -4.94,-2.22 -4.94,-5.11 v -12.67 c 0,-0.68 0,-0.93 0.45,-1.23 a 4,4 0 0 1 1.64,-0.47 c 0.08,0 0.07,-0.31 0,-0.31 h -11.87 c -0.09,0 -0.07,0.29 0,0.31 a 1.53,1.53 0 0 1 1,0.28 c 0.39,0.33 0.46,0.73 0.46,1.42 v 12.45 c 0,6 3.28,11.09 13.24,11.09 s 13.25,-5.1 13.25,-11.09 Z"/>
<path id="sep" d="M 88.02,31.15 h -87.67 a 0.36,0.36 0 0 1 0,-0.72 h 87.67 a 0.36,0.36 0 0 1 0,0.72"/>
<path id="I" d="M 0.2,52.3 c -0.07,0 -0.07,-0.29 0,-0.32 a 5.59,5.59 0 0 0 1.88,-0.41 c 0.28,-0.17 0.51,-0.59 0.51,-5.38 v -3.55 c 0,-4.8 -0.23,-5.24 -0.51,-5.39 a 5.59,5.59 0 0 0 -1.88,-0.41 c -0.1,0 -0.1,-0.32 0,-0.32 h 6.58 c 0.07,0 0.1,0.29 0,0.32 a 5.49,5.49 0 0 0 -1.85,0.41 c -0.31,0.15 -0.53,0.59 -0.53,5.39 v 3.55 c 0,4.79 0.22,5.21 0.53,5.38 a 5.49,5.49 0 0 0 1.85,0.41 c 0.13,0 0.1,0.32 0,0.32 Z"/>
<path id="D" d="M 18.56,37.3 c -1.46,0 -2.07,0.19 -2.24,0.41 s -0.37,1.27 -0.37,4.82 v 3.63 c 0,3.12 0.23,4.34 0.54,4.68 s 1,0.63 2.27,0.63 c 4.76,0 7,-2.27 7,-6.85 a 7,7 0 0 0 -7.16,-7.32 m 6.87,12.56 c -1.68,1.68 -3.53,2.41 -6.65,2.41 c -1.07,0 -2.8,-0.05 -3.7,-0.05 s -2,0.05 -3.09,0.05 c -0.08,0 -0.1,-0.29 0,-0.31 a 3.87,3.87 0 0 0 1.65,-0.42 c 0.32,-0.17 0.52,-0.58 0.52,-5.38 v -3.56 c 0,-4.79 -0.2,-5.23 -0.52,-5.38 a 3.92,3.92 0 0 0 -1.65,-0.41 c -0.12,0 -0.1,-0.32 0,-0.32 c 1.07,0 2.19,0.06 3.09,0.06 s 3.14,-0.06 4.23,-0.06 c 4.9,0 8.43,3.29 8.43,7.69 a 8.16,8.16 0 0 1 -2.31,5.68"/>
<path id="A" d="M 38.3,39.47 l -2.09,5.83 h 4.31 Z m 3,12.78 c -0.07,0 -0.1,-0.29 0,-0.31 c 0.75,-0.08 1.22,-0.22 1.22,-0.59 s -0.32,-1.51 -1.71,-5 h -5 c -1.14,3.13 -1.41,4.33 -1.41,4.84 s 0.34,0.66 1.39,0.76 c 0.09,0 0.07,0.31 0,0.31 h -5 c -0.07,0 -0.13,-0.29 0,-0.31 a 3.18,3.18 0 0 0 1.53,-0.47 c 0.24,-0.19 0.68,-0.53 2.44,-5.33 l 1.29,-3.55 c 0.75,-2.05 1.55,-4.17 2.16,-6.06 c 0.06,-0.18 0.78,-0.18 0.83,0 c 0.74,2.11 1.37,3.84 2.22,6.06 l 1.38,3.55 c 1.9,4.8 2.22,5.16 2.56,5.38 a 2.91,2.91 0 0 0 1.47,0.42 c 0.09,0 0.06,0.31 0,0.31 Z"/>
<path id="H" d="M 61.94,52.3 c -0.09,0 -0.09,-0.29 0,-0.31 a 3.87,3.87 0 0 0 1.65,-0.42 c 0.3,-0.17 0.52,-0.58 0.52,-5.38 v -1.51 h -9.17 v 1.51 c 0,4.8 0.22,5.21 0.51,5.38 a 3.94,3.94 0 0 0 1.66,0.42 c 0.12,0 0.12,0.31 0.05,0.31 h -6.22 c -0.08,0 -0.1,-0.29 0,-0.31 a 4,4 0 0 0 1.65,-0.42 c 0.32,-0.17 0.51,-0.58 0.51,-5.38 v -3.55 c 0,-4.8 -0.19,-5.24 -0.51,-5.39 a 4,4 0 0 0 -1.65,-0.41 c -0.12,0 -0.1,-0.32 0,-0.32 h 6.18 c 0.07,0 0.07,0.3 -0.05,0.32 a 4,4 0 0 0 -1.66,0.41 c -0.29,0.15 -0.51,0.59 -0.51,5.39 v 1.14 h 9.21 v -1.14 c 0,-4.8 -0.22,-5.24 -0.52,-5.39 a 3.92,3.92 0 0 0 -1.65,-0.41 c -0.12,0 -0.12,-0.32 0,-0.32 h 6.17 c 0.09,0 0.09,0.3 0,0.32 a 4.09,4.09 0 0 0 -1.66,0.41 c -0.29,0.15 -0.51,0.59 -0.51,5.39 v 3.55 c 0,4.8 0.22,5.21 0.51,5.38 a 4,4 0 0 0 1.66,0.42 c 0.12,0 0.12,0.31 0,0.31 Z"/>
<path id="O" d="M 79.82,37.23 c -4.36,0 -5.8,3.48 -5.8,6.62 c 0,4 2.51,7.64 6.41,7.64 c 4.33,0 5.77,-3.47 5.77,-6.62 c 0,-4 -2.48,-7.64 -6.38,-7.64 m 0.12,15.17 a 7.7,7.7 0 0 1 -7.94,-7.84 a 8.22,8.22 0 0 1 8.28,-8.23 a 7.68,7.68 0 0 1 7.94,7.83 a 8.21,8.21 0 0 1 -8.28,8.24"/>
</svg>
