<svg version="1.1" viewBox="0 0 519.8293963254594 290.244094488189" fill="none" stroke="none" stroke-linecap="square" stroke-miterlimit="10" xmlns="http://www.w3.org/2000/svg"><clipPath id="p"><path d="m0 0l519.8294 0l0 290.24408l-519.8294 0l0-290.24408z" clip-rule="nonzero"/></clipPath><g clip-path="url(#p)"><path fill="#fff" d="m0 0l519.8294 0l0 290.24408l-519.8294 0z" fill-rule="evenodd"/><path fill="#000" fill-opacity="0" d="m152 140.00008l0 0c0-2.2091827 1.7908936-4.0000763 4.0000763-4.0000763l167.99983 0c1.0609131 0 2.0783386.4214325 2.8284912 1.1716003c0.7501526.7501526 1.1716003 1.7675934 1.1716003 2.828476l0 15.999847c0 2.2091827-1.7908936 4.0000763-4.0000916 4.0000763l-167.99983 0c-2.2091827 0-4.0000763-1.7908936-4.0000763-4.0000763z" fill-rule="evenodd"/><path fill="#000" fill-opacity="0" d="m152 156.00008l0 0c0-2.2091827 1.7908936-4.0000763 4.0000763-4.0000763l167.99983 0c1.0609131 0 2.0783386.4214325 2.8284912 1.1716003c0.7501526.7501526 1.1716003 1.7675934 1.1716003 2.828476l0 15.999847c0 2.2091827-1.7908936 4.0000763-4.0000916 4.0000763l-167.99983 0c-2.2091827 0-4.0000763-1.7908936-4.0000763-4.0000763z" fill-rule="evenodd"/><path fill="#000" fill-opacity="0" d="m160 52.00008l0 0c0-2.2091827 1.7908936-4.00008 4.0000763-4.00008l143.99983 0c1.0609131 0 2.0783386.4214363 2.8284912 1.1715965c0.7501526.7501602 1.1716003 1.7675972 1.1716003 2.8284836l0 15.999844c0 2.2091827-1.7908936 4.0000763-4.0000916 4.0000763l-143.99983 0c-2.2091827 0-4.0000763-1.7908936-4.0000763-4.0000763z" fill-rule="evenodd"/><path fill="#000" fill-opacity="0" d="m160 68.00008l0 0c0-2.2091827 1.7908936-4.0000763 4.0000763-4.0000763l143.99983 0c1.0609131 0 2.0783386.4214325 2.8284912 1.1715927c0.7501526.75016785 1.1716003 1.767601 1.1716003 2.8284836l0 15.999847c0 2.2091827-1.7908936 4.0000763-4.0000916 4.0000763l-143.99983 0c-2.2091827 0-4.0000763-1.7908936-4.0000763-4.0000763z" fill-rule="evenodd"/><path fill="#000" fill-opacity="0" d="m16 52.00008l0 0c0-2.2091827 1.7908974-4.00008 4.00008-4.00008l87.99985 0c1.0608826 0 2.0783157.4214363 2.8284836 1.1715965c0.7501602.7501602 1.1715927 1.7675972 1.1715927 2.8284836l0 15.999844c0 2.2091827-1.7908936 4.0000763-4.0000763 4.0000763l-87.99985 0c-2.2091827 0-4.00008-1.7908936-4.00008-4.0000763z" fill-rule="evenodd"/><path fill="#000" fill-opacity="0" d="m16 68.00008l0 0c0-2.2091827 1.7908974-4.0000763 4.00008-4.0000763l87.99985 0c1.0608826 0 2.0783157.4214325 2.8284836 1.1715927c0.7501602.75016785 1.1715927 1.767601 1.1715927 2.8284836l0 15.999847c0 2.2091827-1.7908936 4.0000763-4.0000763 4.0000763l-87.99985 0c-2.2091827 0-4.00008-1.7908936-4.00008-4.0000763z" fill-rule="evenodd"/><path fill="#cfe2f3" d="m16 60.00008l0 0c0-2.2091827 1.7908974-4.00008 4.00008-4.00008l87.99985 0c1.0608826 0 2.0783157.4214363 2.8284836 1.1715965c0.7501602.7501602 1.1715927 1.7675972 1.1715927 2.8284836l0 15.999844c0 2.2091827-1.7908936 4.0000763-4.0000763 4.0000763l-87.99985 0c-2.2091827 0-4.00008-1.7908936-4.00008-4.0000763z" fill-rule="evenodd"/><path stroke="#000" stroke-width="1" stroke-linejoin="round" stroke-linecap="butt" d="m16 60.00008l0 0c0-2.2091827 1.7908974-4.00008 4.00008-4.00008l87.99985 0c1.0608826 0 2.0783157.4214363 2.8284836 1.1715965c0.7501602.7501602 1.1715927 1.7675972 1.1715927 2.8284836l0 15.999844c0 2.2091827-1.7908936 4.0000763-4.0000763 4.0000763l-87.99985 0c-2.2091827 0-4.00008-1.7908936-4.00008-4.0000763z" fill-rule="evenodd"/><path fill="#000" d="m30.799742 75.45625l0-9.5625l1.078125 0l0 .890625q0.3750019-.53125.8437519-.78125q0.484375-.265625 1.15625-.265625q0.875 0 1.546875.453125q0.6875.453125 1.03125 1.28125q0.34375.828125.34375 1.828125q0 1.046875-.375 1.90625q-.375.84375-1.109375 1.296875q-.71875.453125-1.53125.453125q-.578125 0-1.046875-.25q-.46875-.25-.7656269-.625l0 3.375l-1.171875 0zm1.0625-6.078125q0 1.34375.5312519 1.984375q0.546875.625 1.3125.625q0.78125 0 1.34375-.65625q0.5625-.65625.5625-2.046875q0-1.3125-.546875-1.96875q-.546875-.671875-1.296875-.671875q-.75 0-1.328125.703125q-.5781269.703125-.5781269 2.03125zm6.3031025 6.078125l-.125-1.09375q0.375.109375.65625.109375q0.390625 0 .625-.140625q0.234375-.125.390625-.359375q0.109375-.171875.359375-.875q0.03125-.09375.109375-.28125l-2.625-6.921875l1.265625 0l1.4375 4.0q0.28125.765625.5 1.59375q0.203125-.796875.46875-1.578125l1.484375-4.015625l1.171875 0l-2.625 7.015625q-.421875 1.140625-.65625 1.578125q-.3125.578125-.71875.84375q-.40625.28125-.96875.28125q-.328125 0-.75-.15625zm9.2734375-3.703125l0.171875 1.03125q-.5.109375-.890625.109375q-.640625 0-1-.203125q-.34375-.203125-.484375-.53125q-.140625-.328125-.140625-1.390625l0-3.96875l-.859375 0l0-.90625l0.859375 0l0-1.71875l1.171875-.7031288l0 2.4218788l1.171875 0l0 .90625l-1.171875 0l0 4.046875q0 .5.046875.640625q0.0625.140625.203125.234375q0.140625.078125.40625.078125q0.203125 0 .515625-.046875zm5.8748627-1.171875l1.203125.140625q-.28125 1.0625-1.0625 1.65625q-.765625.578125-1.96875.578125q-1.515625 0-2.40625-.9375q-.890625-.9375-.890625-2.609375q0-1.75.890625-2.703125q0.90625-.96875 2.34375-.96875q1.390625 0 2.265625.9375q0.875.9375.875 2.65625q0 .109375 0 .3125l-5.15625 0q0.0625 1.140625.640625 1.75q0.578125.59375 1.4375.59375q0.65625 0 1.109375-.328125q0.453125-.34375.71875-1.078125zm-3.84375-1.90625l3.859375 0q-.078125-.859375-.4375-1.296875q-.5625-.6875-1.453125-.6875q-.8125 0-1.359375.546875q-.546875.53125-.609375 1.4375zm6.0531006 2.0625l1.15625-.1875q0.109375.703125.546875 1.078125q0.453125.359375 1.25.359375q0.8125 0 1.203125-.328125q0.390625-.328125.390625-.765625q0-.390625-.359375-.625q-.234375-.15625-1.1875-.390625q-1.296875-.328125-1.796875-.5625q-.484375-.25-.75-.65625q-.25-.421875-.25-.9375q0-.453125.203125-.84375q0.21875-.40625.578125-.671875q0.28125-.1875.75-.328125q0.46875-.140625 1.015625-.140625q0.8125 0 1.421875.234375q0.609375.234375.90625.640625q0.296875.390625.40625 1.0625l-1.140625.15625q-.078125-.53125-.453125-.828125q-.375-.3125-1.0625-.3125q-.8125 0-1.15625.265625q-.34375.265625-.34375.625q0 .234375.140625.421875q0.15625.1875.453125.3125q0.171875.0625 1.03125.296875q1.25.328125 1.734375.546875q0.5.203125.78125.609375q0.28125.40625.28125 1.0q0 .59375-.34375 1.109375q-.34375.515625-1 .796875q-.640625.28125-1.453125.28125q-1.34375 0-2.046875-.5625q-.703125-.5625-.90625-1.65625zm9.6953125 1.015625l0.171875 1.03125q-.5.109375-.890625.109375q-.640625 0-1-.203125q-.34375-.203125-.484375-.53125q-.140625-.328125-.140625-1.390625l0-3.96875l-.859375 0l0-.90625l0.859375 0l0-1.71875l1.171875-.7031288l0 2.4218788l1.171875 0l0 .90625l-1.171875 0l0 4.046875q0 .5.046875.640625q0.0625.140625.203125.234375q0.140625.078125.40625.078125q0.203125 0 .515625-.046875zm1.4686127 1.046875l0-1.328125l1.34375 0l0 1.328125l-1.34375 0zm3.3748627 0l0-6.90625l1.046875 0l0 .96875q0.328125-.515625.859375-.8125q0.546875-.3125 1.234375-.3125q0.78125 0 1.265625.3125q0.484375.3125.6875.890625q0.828125-1.203125 2.140625-1.203125q1.03125 0 1.578125.578125q0.5625.5625.5625 1.734375l0 4.75l-1.171875 0l0-4.359375q0-.703125-.125-1.0q-.109375-.3125-.40625-.5q-.296875-.1875-.703125-.1875q-.71875 0-1.203125.484375q-.484375.484375-.484375 1.546875l0 4.015625l-1.171875 0l0-4.484375q0-.78125-.296875-1.171875q-.28125-.390625-.921875-.390625q-.5 0-.921875.265625q-.421875.25-.609375.75q-.1875.5-.1875 1.453125l0 3.578125l-1.171875 0zm15.618057-.859375q-.65625.5625-1.265625.796875q-.59375.21875-1.28125.21875q-1.140625 0-1.75-.546875q-.609375-.5625-.609375-1.4375q0-.5.21875-.921875q0.234375-.421875.609375-.671875q0.375-.25.84375-.390625q0.34375-.078125 1.046875-.171875q1.421875-.171875 2.09375-.40625q0-.234375 0-.296875q0-.71875-.328125-1.015625q-.453125-.390625-1.34375-.390625q-.8125 0-1.21875.296875q-.390625.28125-.578125 1.015625l-1.140625-.15625q0.15625-.734375.515625-1.1875q0.359375-.453125 1.03125-.6875q0.671875-.25 1.5625-.25q0.890625 0 1.4375.203125q0.5625.203125.8125.53125q0.265625.3125.375.796875q0.046875.296875.046875 1.078125l0 1.5625q0 1.625.078125 2.0625q0.078125.4375.296875.828125l-1.21875 0q-.1875-.359375-.234375-.859375zm-.09375-2.609375q-.640625.265625-1.921875.4375q-.71875.109375-1.015625.25q-.296875.125-.46875.375q-.15625.25-.15625.546875q0 .46875.34375.78125q0.359375.3125 1.046875.3125q0.671875 0 1.203125-.296875q0.53125-.296875.78125-.8125q0.1875-.390625.1875-1.171875l0-.421875zm3.0062256-4.71875l0-1.3593788l1.171875 0l0 1.3593788l-1.171875 0zm0 8.1875l0-6.90625l1.171875 0l0 6.90625l-1.171875 0zm2.945465 0l0-6.90625l1.0625 0l0 .984375q0.75-1.140625 2.1875-1.140625q0.625 0 1.15625.21875q0.53125.21875.78125.59375q0.265625.359375.375.859375q0.0625.328125.0625 1.140625l0 4.25l-1.171875 0l0-4.203125q0-.71875-.140625-1.0625q-.140625-.359375-.484375-.5625q-.34375-.21875-.8125-.21875q-.75 0-1.296875.46875q-.546875.46875-.546875 1.796875l0 3.78125l-1.171875 0z" fill-rule="nonzero"/><path fill="#fce5cd" d="m160 60.00008l0 0c0-2.2091827 1.7908936-4.00008 4.0000763-4.00008l143.99983 0c1.0609131 0 2.0783386.4214363 2.8284912 1.1715965c0.7501526.7501602 1.1716003 1.7675972 1.1716003 2.8284836l0 15.999844c0 2.2091827-1.7908936 4.0000763-4.0000916 4.0000763l-143.99983 0c-2.2091827 0-4.0000763-1.7908936-4.0000763-4.0000763z" fill-rule="evenodd"/><path stroke="#000" stroke-width="1" stroke-linejoin="round" stroke-linecap="butt" d="m160 60.00008l0 0c0-2.2091827 1.7908936-4.00008 4.0000763-4.00008l143.99983 0c1.0609131 0 2.0783386.4214363 2.8284912 1.1715965c0.7501526.7501602 1.1716003 1.7675972 1.1716003 2.8284836l0 15.999844c0 2.2091827-1.7908936 4.0000763-4.0000916 4.0000763l-143.99983 0c-2.2091827 0-4.0000763-1.7908936-4.0000763-4.0000763z" fill-rule="evenodd"/><path fill="#000" d="m176.09305 71.75313l0.171875 1.03125q-.5.109375-.890625.109375q-.640625 0-1-.203125q-.34375-.203125-.484375-.53125q-.140625-.328125-.140625-1.390625l0-3.96875l-.859375 0l0-.90625l0.859375 0l0-1.71875l1.171875-.7031288l0 2.4218788l1.171875 0l0 .90625l-1.171875 0l0 4.046875q0 .5.046875.640625q0.0625.140625.203125.234375q0.140625.078125.40625.078125q0.203125 0 .515625-.046875zm5.8748627-1.171875l1.203125.140625q-.28125 1.0625-1.0625 1.65625q-.765625.578125-1.96875.578125q-1.515625 0-2.40625-.9375q-.890625-.9375-.890625-2.609375q0-1.75.890625-2.703125q0.90625-.96875 2.34375-.96875q1.390625 0 2.265625.9375q0.875.9375.875 2.65625q0 .109375 0 .3125l-5.15625 0q0.0625 1.140625.640625 1.75q0.578125.59375 1.4375.59375q0.65625 0 1.109375-.328125q0.453125-.34375.71875-1.078125zm-3.84375-1.90625l3.859375 0q-.078125-.859375-.4375-1.296875q-.5625-.6875-1.453125-.6875q-.8125 0-1.359375.546875q-.546875.53125-.609375 1.4375zm6.0531006 2.0625l1.15625-.1875q0.109375.703125.546875 1.078125q0.453125.359375 1.25.359375q0.8125 0 1.203125-.328125q0.390625-.328125.390625-.765625q0-.390625-.359375-.625q-.234375-.15625-1.1875-.390625q-1.296875-.328125-1.796875-.5625q-.484375-.25-.75-.65625q-.25-.421875-.25-.9375q0-.453125.203125-.84375q0.21875-.40625.578125-.671875q0.28125-.1875.75-.328125q0.46875-.140625 1.015625-.140625q0.8125 0 1.421875.234375q0.609375.234375.90625.640625q0.296875.390625.40625 1.0625l-1.140625.15625q-.078125-.53125-.453125-.828125q-.375-.3125-1.0625-.3125q-.8125 0-1.15625.265625q-.34375.265625-.34375.625q0 .234375.140625.421875q0.15625.1875.453125.3125q0.171875.0625 1.03125.296875q1.25.328125 1.734375.546875q0.5.203125.78125.609375q0.28125.40625.28125 1.0q0 .59375-.34375 1.109375q-.34375.515625-1 .796875q-.640625.28125-1.453125.28125q-1.34375 0-2.046875-.5625q-.703125-.5625-.90625-1.65625zm9.6953125 1.015625l0.171875 1.03125q-.5.109375-.890625.109375q-.640625 0-1-.203125q-.34375-.203125-.484375-.53125q-.140625-.328125-.140625-1.390625l0-3.96875l-.859375 0l0-.90625l0.859375 0l0-1.71875l1.171875-.7031288l0 2.4218788l1.171875 0l0 .90625l-1.171875 0l0 4.046875q0 .5.046875.640625q0.0625.140625.203125.234375q0.140625.078125.40625.078125q0.203125 0 .515625-.046875zm0.06236267 3.703125l0-.859375l7.765625 0l0 .859375l-7.765625 0zm8.490601-2.65625l0-6.90625l1.046875 0l0 .96875q0.328125-.515625.859375-.8125q0.546875-.3125 1.234375-.3125q0.78125 0 1.265625.3125q0.484375.3125.6875.890625q0.828125-1.203125 2.140625-1.203125q1.03125 0 1.578125.578125q0.5625.5625.5625 1.734375l0 4.75l-1.171875 0l0-4.359375q0-.703125-.125-1.0q-.109375-.3125-.40625-.5q-.296875-.1875-.703125-.1875q-.71875 0-1.203125.484375q-.484375.484375-.484375 1.546875l0 4.015625l-1.171875 0l0-4.484375q0-.78125-.296875-1.171875q-.28125-.390625-.921875-.390625q-.5 0-.921875.265625q-.421875.25-.609375.75q-.1875.5-.1875 1.453125l0 3.578125l-1.171875 0zm15.618057-.859375q-.65625.5625-1.265625.796875q-.59375.21875-1.28125.21875q-1.140625 0-1.75-.546875q-.609375-.5625-.609375-1.4375q0-.5.21875-.921875q0.234375-.421875.609375-.671875q0.375-.25.84375-.390625q0.34375-.078125 1.046875-.171875q1.421875-.171875 2.09375-.40625q0-.234375 0-.296875q0-.71875-.328125-1.015625q-.453125-.390625-1.34375-.390625q-.8125 0-1.21875.296875q-.390625.28125-.578125 1.015625l-1.140625-.15625q0.15625-.734375.515625-1.1875q0.359375-.453125 1.03125-.6875q0.671875-.25 1.5625-.25q0.890625 0 1.4375.203125q0.5625.203125.8125.53125q0.265625.3125.375.796875q0.046875.296875.046875 1.078125l0 1.5625q0 1.625.078125 2.0625q0.078125.4375.296875.828125l-1.21875 0q-.1875-.359375-.234375-.859375zm-.09375-2.609375q-.640625.265625-1.921875.4375q-.71875.109375-1.015625.25q-.296875.125-.46875.375q-.15625.25-.15625.546875q0 .46875.34375.78125q0.359375.3125 1.046875.3125q0.671875 0 1.203125-.296875q0.53125-.296875.78125-.8125q0.1875-.390625.1875-1.171875l0-.421875zm3.0062256 3.46875l0-9.546879l1.171875 0l0 5.453129l2.765625-2.8125l1.515625 0l-2.640625 2.5625l2.90625 4.34375l-1.4375 0l-2.28125-3.53125l-.828125.796875l0 2.734375l-1.171875 0zm11.3828125-2.21875l1.203125.140625q-.28125 1.0625-1.0625 1.65625q-.765625.578125-1.96875.578125q-1.515625 0-2.40625-.9375q-.890625-.9375-.890625-2.609375q0-1.75.890625-2.703125q0.90625-.96875 2.34375-.96875q1.390625 0 2.265625.9375q0.875.9375.875 2.65625q0 .109375 0 .3125l-5.15625 0q0.0625 1.140625.640625 1.75q0.578125.59375 1.4375.59375q0.65625 0 1.109375-.328125q0.453125-.34375.71875-1.078125zm-3.84375-1.90625l3.859375 0q-.078125-.859375-.4375-1.296875q-.5625-.6875-1.453125-.6875q-.8125 0-1.359375.546875q-.546875.53125-.609375 1.4375zm5.4437256 6.78125l0-.859375l7.765625 0l0 .859375l-7.765625 0zm8.771851-2.65625l0-6.0l-1.03125 0l0-.90625l1.03125 0l0-.734375q0-.703125.125-1.046875q0.171875-.4531288.59375-.7343788q0.421875-.28125 1.203125-.28125q0.484375 0 1.09375.109375l-.1875 1.0312538q-.359375-.0625-.6875-.0625q-.53125 0-.75.234375q-.21875.21875-.21875.84375l0 .640625l1.34375 0l0 .90625l-1.34375 0l0 6.0l-1.171875 0zm7.9529877 0l0-1.015625q-.8125 1.171875-2.1875 1.171875q-.609375 0-1.140625-.234375q-.53125-.234375-.796875-.578125q-.25-.359375-.359375-.875q-.0625-.34375-.0625-1.09375l0-4.28125l1.171875 0l0 3.828125q0 .921875.0625 1.234375q0.109375.46875.46875.734375q0.359375.25.890625.25q0.515625 0 .984375-.265625q0.46875-.265625.65625-.734375q0.1875-.46875.1875-1.34375l0-3.703125l1.171875 0l0 6.90625l-1.046875 0zm2.8656006 0l0-9.546879l1.171875 0l0 9.546879l-1.171875 0zm2.96109 0l0-9.546879l1.171875 0l0 9.546879l-1.171875 0zm1.8985901 2.65625l0-.859375l7.765625 0l0 .859375l-7.765625 0zm8.490601-2.65625l0-6.90625l1.0625 0l0 .984375q0.75-1.140625 2.1875-1.140625q0.625 0 1.15625.21875q0.53125.21875.78125.59375q0.265625.359375.375.859375q0.0625.328125.0625 1.140625l0 4.25l-1.171875 0l0-4.203125q0-.71875-.140625-1.0625q-.140625-.359375-.484375-.5625q-.34375-.21875-.8125-.21875q-.75 0-1.296875.46875q-.546875.46875-.546875 1.796875l0 3.78125l-1.171875 0zm11.928101-.859375q-.65625.5625-1.265625.796875q-.59375.21875-1.28125.21875q-1.140625 0-1.75-.546875q-.609375-.5625-.609375-1.4375q0-.5.21875-.921875q0.234375-.421875.609375-.671875q0.375-.25.84375-.390625q0.34375-.078125 1.046875-.171875q1.421875-.171875 2.09375-.40625q0-.234375 0-.296875q0-.71875-.328125-1.015625q-.453125-.390625-1.34375-.390625q-.8125 0-1.21875.296875q-.390625.28125-.578125 1.015625l-1.140625-.15625q0.15625-.734375.515625-1.1875q0.359375-.453125 1.03125-.6875q0.671875-.25 1.5625-.25q0.890625 0 1.4375.203125q0.5625.203125.8125.53125q0.265625.3125.375.796875q0.046875.296875.046875 1.078125l0 1.5625q0 1.625.078125 2.0625q0.078125.4375.296875.828125l-1.21875 0q-.1875-.359375-.234375-.859375zm-.09375-2.609375q-.640625.265625-1.921875.4375q-.71875.109375-1.015625.25q-.296875.125-.46875.375q-.15625.25-.15625.546875q0 .46875.34375.78125q0.359375.3125 1.046875.3125q0.671875 0 1.203125-.296875q0.53125-.296875.78125-.8125q0.1875-.390625.1875-1.171875l0-.421875zm2.9906006 3.46875l0-6.90625l1.046875 0l0 .96875q0.328125-.515625.859375-.8125q0.546875-.3125 1.234375-.3125q0.78125 0 1.265625.3125q0.484375.3125.6875.890625q0.828125-1.203125 2.140625-1.203125q1.03125 0 1.578125.578125q0.5625.5625.5625 1.734375l0 4.75l-1.171875 0l0-4.359375q0-.703125-.125-1.0q-.109375-.3125-.40625-.5q-.296875-.1875-.703125-.1875q-.71875 0-1.203125.484375q-.484375.484375-.484375 1.546875l0 4.015625l-1.171875 0l0-4.484375q0-.78125-.296875-1.171875q-.28125-.390625-.921875-.390625q-.5 0-.921875.265625q-.421875.25-.609375.75q-.1875.5-.1875 1.453125l0 3.578125l-1.171875 0zm15.836792-2.21875l1.203125.140625q-.28125 1.0625-1.0625 1.65625q-.765625.578125-1.96875.578125q-1.515625 0-2.40625-.9375q-.890625-.9375-.890625-2.609375q0-1.75.890625-2.703125q0.90625-.96875 2.34375-.96875q1.390625 0 2.265625.9375q0.875.9375.875 2.65625q0 .109375 0 .3125l-5.15625 0q0.0625 1.140625.640625 1.75q0.578125.59375 1.4375.59375q0.65625 0 1.109375-.328125q0.453125-.34375.71875-1.078125zm-3.84375-1.90625l3.859375 0q-.078125-.859375-.4375-1.296875q-.5625-.6875-1.453125-.6875q-.8125 0-1.359375.546875q-.546875.53125-.609375 1.4375z" fill-rule="nonzero"/><path fill="#fce5cd" d="m152 148.00008l0 0c0-2.2091827 1.7908936-4.0000763 4.0000763-4.0000763l167.99983 0c1.0609131 0 2.0783386.4214325 2.8284912 1.1716003c0.7501526.7501526 1.1716003 1.7675934 1.1716003 2.828476l0 15.999847c0 2.2091827-1.7908936 4.0000763-4.0000916 4.0000763l-167.99983 0c-2.2091827 0-4.0000763-1.7908936-4.0000763-4.0000763z" fill-rule="evenodd"/><path stroke="#000" stroke-width="1" stroke-linejoin="round" stroke-linecap="butt" d="m152 148.00008l0 0c0-2.2091827 1.7908936-4.0000763 4.0000763-4.0000763l167.99983 0c1.0609131 0 2.0783386.4214325 2.8284912 1.1716003c0.7501526.7501526 1.1716003 1.7675934 1.1716003 2.828476l0 15.999847c0 2.2091827-1.7908936 4.0000763-4.0000916 4.0000763l-167.99983 0c-2.2091827 0-4.0000763-1.7908936-4.0000763-4.0000763z" fill-rule="evenodd"/><path fill="#000" d="m167.50682 159.75313l0.171875 1.03125q-.5.109375-.890625.109375q-.640625 0-1-.203125q-.34375-.203125-.484375-.53125q-.140625-.328125-.140625-1.390625l0-3.96875l-.859375 0l0-.90625l0.859375 0l0-1.71875l1.171875-.703125l0 2.421875l1.171875 0l0 .90625l-1.171875 0l0 4.046875q0 .5.046875.640625q0.0625.140625.203125.234375q0.140625.078125.40625.078125q0.203125 0 .515625-.046875zm5.8748627-1.171875l1.203125.140625q-.28125 1.0625-1.0625 1.65625q-.765625.578125-1.96875.578125q-1.515625 0-2.40625-.9375q-.890625-.9375-.890625-2.609375q0-1.75.890625-2.703125q0.90625-.96875 2.34375-.96875q1.390625 0 2.265625.9375q0.875.9375.875 2.65625q0 .109375 0 .3125l-5.15625 0q0.0625 1.140625.640625 1.75q0.578125.59375 1.4375.59375q0.65625 0 1.109375-.328125q0.453125-.34375.71875-1.078125zm-3.84375-1.90625l3.859375 0q-.078125-.859375-.4375-1.296875q-.5625-.6875-1.453125-.6875q-.8125 0-1.359375.546875q-.546875.53125-.609375 1.4375zm6.0531006 2.0625l1.15625-.1875q0.109375.703125.546875 1.078125q0.453125.359375 1.25.359375q0.8125 0 1.203125-.328125q0.390625-.328125.390625-.765625q0-.390625-.359375-.625q-.234375-.15625-1.1875-.390625q-1.296875-.328125-1.796875-.5625q-.484375-.25-.75-.65625q-.25-.421875-.25-.9375q0-.453125.203125-.84375q0.21875-.40625.578125-.671875q0.28125-.1875.75-.328125q0.46875-.140625 1.015625-.140625q0.8125 0 1.421875.234375q0.609375.234375.90625.640625q0.296875.390625.40625 1.0625l-1.140625.15625q-.078125-.53125-.453125-.828125q-.375-.3125-1.0625-.3125q-.8125 0-1.15625.265625q-.34375.265625-.34375.625q0 .234375.140625.421875q0.15625.1875.453125.3125q0.171875.0625 1.03125.296875q1.25.328125 1.734375.546875q0.5.203125.78125.609375q0.28125.40625.28125 1.0q0 .59375-.34375 1.109375q-.34375.515625-1 .796875q-.640625.28125-1.453125.28125q-1.34375 0-2.046875-.5625q-.703125-.5625-.90625-1.65625zm9.6953125 1.015625l0.171875 1.03125q-.5.109375-.890625.109375q-.640625 0-1-.203125q-.34375-.203125-.484375-.53125q-.140625-.328125-.140625-1.390625l0-3.96875l-.859375 0l0-.90625l0.859375 0l0-1.71875l1.171875-.703125l0 2.421875l1.171875 0l0 .90625l-1.171875 0l0 4.046875q0 .5.046875.640625q0.0625.140625.203125.234375q0.140625.078125.40625.078125q0.203125 0 .515625-.046875zm0.06236267 3.703125l0-.859375l7.765625 0l0 .859375l-7.765625 0zm13.224976-4.875l1.203125.140625q-.28125 1.0625-1.0625 1.65625q-.765625.578125-1.96875.578125q-1.515625 0-2.40625-.9375q-.890625-.9375-.890625-2.609375q0-1.75.890625-2.703125q0.90625-.96875 2.34375-.96875q1.390625 0 2.265625.9375q0.875.9375.875 2.65625q0 .109375 0 .3125l-5.15625 0q0.0625 1.140625.640625 1.75q0.578125.59375 1.4375.59375q0.65625 0 1.109375-.328125q0.453125-.34375.71875-1.078125zm-3.84375-1.90625l3.859375 0q-.078125-.859375-.4375-1.296875q-.5625-.6875-1.453125-.6875q-.8125 0-1.359375.546875q-.546875.53125-.609375 1.4375zm5.7406006 4.125l2.53125-3.59375l-2.34375-3.3125l1.46875 0l1.0625 1.609375q0.296875.46875.484375.78125q0.28125-.4375.515625-.765625l1.171875-1.625l1.40625 0l-2.390625 3.25l2.5625 3.65625l-1.4375 0l-1.421875-2.140625l-.375-.59375l-1.8125 2.734375l-1.421875 0zm10.0078125-1.046875l0.171875 1.03125q-.5.109375-.890625.109375q-.640625 0-1-.203125q-.34375-.203125-.484375-.53125q-.140625-.328125-.140625-1.390625l0-3.96875l-.859375 0l0-.90625l0.859375 0l0-1.71875l1.171875-.703125l0 2.421875l1.171875 0l0 .90625l-1.171875 0l0 4.046875q0 .5.046875.640625q0.0625.140625.203125.234375q0.140625.078125.40625.078125q0.203125 0 .515625-.046875zm1.1248627 1.046875l0-6.90625l1.0625 0l0 1.046875q0.40625-.734375.734375-.96875q0.34375-.234375.765625-.234375q0.59375 0 1.203125.375l-.40625 1.078125q-.4375-.25-.859375-.25q-.390625 0-.703125.234375q-.296875.234375-.421875.640625q-.203125.625-.203125 1.359375l0 3.625l-1.171875 0zm8.96962-.859375q-.65625.5625-1.265625.796875q-.59375.21875-1.28125.21875q-1.140625 0-1.75-.546875q-.609375-.5625-.609375-1.4375q0-.5.21875-.921875q0.234375-.421875.609375-.671875q0.375-.25.84375-.390625q0.34375-.078125 1.046875-.171875q1.421875-.171875 2.09375-.40625q0-.234375 0-.296875q0-.71875-.328125-1.015625q-.453125-.390625-1.34375-.390625q-.8125 0-1.21875.296875q-.390625.28125-.578125 1.015625l-1.140625-.15625q0.15625-.734375.515625-1.1875q0.359375-.453125 1.03125-.6875q0.671875-.25 1.5625-.25q0.890625 0 1.4375.203125q0.5625.203125.8125.53125q0.265625.3125.375.796875q0.046875.296875.046875 1.078125l0 1.5625q0 1.625.078125 2.0625q0.078125.4375.296875.828125l-1.21875 0q-.1875-.359375-.234375-.859375zm-.09375-2.609375q-.640625.265625-1.921875.4375q-.71875.109375-1.015625.25q-.296875.125-.46875.375q-.15625.25-.15625.546875q0 .46875.34375.78125q0.359375.3125 1.046875.3125q0.671875 0 1.203125-.296875q0.53125-.296875.78125-.8125q0.1875-.390625.1875-1.171875l0-.421875zm7.5062256.9375l1.15625.15625q-.1875 1.1875-.96875 1.859375q-.78125.671875-1.921875.671875q-1.40625 0-2.28125-.921875q-.859375-.9375-.859375-2.65625q0-1.125.375-1.96875q0.375-.84375 1.125-1.25q0.765625-.421875 1.65625-.421875q1.125 0 1.84375.578125q0.71875.5625.921875 1.609375l-1.140625.171875q-.171875-.703125-.59375-1.046875q-.40625-.359375-.984375-.359375q-.890625 0-1.453125.640625q-.546875.640625-.546875 2.0q0 1.40625.53125 2.03125q0.546875.625 1.40625.625q0.6875 0 1.140625-.421875q0.46875-.421875.59375-1.296875zm4.7109375 1.484375l0.171875 1.03125q-.5.109375-.890625.109375q-.640625 0-1-.203125q-.34375-.203125-.484375-.53125q-.140625-.328125-.140625-1.390625l0-3.96875l-.859375 0l0-.90625l0.859375 0l0-1.71875l1.171875-.703125l0 2.421875l1.171875 0l0 .90625l-1.171875 0l0 4.046875q0 .5.046875.640625q0.0625.140625.203125.234375q0.140625.078125.40625.078125q0.203125 0 .515625-.046875zm0.06236267 3.703125l0-.859375l7.765625 0l0 .859375l-7.765625 0zm8.771851-2.65625l0-6.0l-1.03125 0l0-.90625l1.03125 0l0-.734375q0-.703125.125-1.046875q0.171875-.453125.59375-.734375q0.421875-.28125 1.203125-.28125q0.484375 0 1.09375.109375l-.1875 1.03125q-.359375-.0625-.6875-.0625q-.53125 0-.75.234375q-.21875.21875-.21875.84375l0 .640625l1.34375 0l0 .90625l-1.34375 0l0 6.0l-1.171875 0zm7.9373627-.859375q-.65625.5625-1.265625.796875q-.59375.21875-1.28125.21875q-1.140625 0-1.75-.546875q-.609375-.5625-.609375-1.4375q0-.5.21875-.921875q0.234375-.421875.609375-.671875q0.375-.25.84375-.390625q0.34375-.078125 1.046875-.171875q1.421875-.171875 2.09375-.40625q0-.234375 0-.296875q0-.71875-.328125-1.015625q-.453125-.390625-1.34375-.390625q-.8125 0-1.21875.296875q-.390625.28125-.578125 1.015625l-1.140625-.15625q0.15625-.734375.515625-1.1875q0.359375-.453125 1.03125-.6875q0.671875-.25 1.5625-.25q0.890625 0 1.4375.203125q0.5625.203125.8125.53125q0.265625.3125.375.796875q0.046875.296875.046875 1.078125l0 1.5625q0 1.625.078125 2.0625q0.078125.4375.296875.828125l-1.21875 0q-.1875-.359375-.234375-.859375zm-.09375-2.609375q-.640625.265625-1.921875.4375q-.71875.109375-1.015625.25q-.296875.125-.46875.375q-.15625.25-.15625.546875q0 .46875.34375.78125q0.359375.3125 1.046875.3125q0.671875 0 1.203125-.296875q0.53125-.296875.78125-.8125q0.1875-.390625.1875-1.171875l0-.421875zm2.9906006 3.46875l0-6.90625l1.046875 0l0 .96875q0.328125-.515625.859375-.8125q0.546875-.3125 1.234375-.3125q0.78123474 0 1.2656097.3125q0.484375.3125.6875.890625q0.828125-1.203125 2.140625-1.203125q1.03125 0 1.578125.578125q0.5625.5625.5625 1.734375l0 4.75l-1.171875 0l0-4.359375q0-.703125-.125-1.0q-.109375-.3125-.40625-.5q-.296875-.1875-.703125-.1875q-.71875 0-1.203125.484375q-.484375.484375-.484375 1.546875l0 4.015625l-1.171875 0l0-4.484375q0-.78125-.296875-1.171875q-.28123474-.390625-.92185974-.390625q-.5 0-.921875.265625q-.421875.25-.609375.75q-.1875.5-.1875 1.453125l0 3.578125l-1.171875 0zm11.118057-8.1875l0-1.359375l1.171875 0l0 1.359375l-1.171875 0zm0 8.1875l0-6.90625l1.171875 0l0 6.90625l-1.171875 0zm2.92984 0l0-9.546875l1.171875 0l0 9.546875l-1.171875 0zm2.92984 2.65625l-.125-1.09375q0.375.109375.65625.109375q0.390625 0 .625-.140625q0.234375-.125.390625-.359375q0.109375-.171875.359375-.875q0.03125-.09375.109375-.28125l-2.625-6.921875l1.265625 0l1.4375 4.0q0.28125.765625.5 1.59375q0.203125-.796875.46875-1.578125l1.484375-4.015625l1.171875 0l-2.625 7.015625q-.421875 1.140625-.65625 1.578125q-.3125.578125-.71875.84375q-.40625.28125-.96875.28125q-.328125 0-.75-.15625zm5.6328125 0l0-.859375l7.765625 0l0 .859375l-7.765625 0zm8.490601-2.65625l0-6.90625l1.0625 0l0 .984375q0.75-1.140625 2.1875-1.140625q0.625 0 1.15625.21875q0.53125.21875.78125.59375q0.265625.359375.375.859375q0.0625.328125.0625 1.140625l0 4.25l-1.171875 0l0-4.203125q0-.71875-.140625-1.0625q-.140625-.359375-.484375-.5625q-.34375-.21875-.8125-.21875q-.75 0-1.296875.46875q-.546875.46875-.546875 1.796875l0 3.78125l-1.171875 0zm11.928101-.859375q-.65625.5625-1.265625.796875q-.59375.21875-1.28125.21875q-1.140625 0-1.75-.546875q-.609375-.5625-.609375-1.4375q0-.5.21875-.921875q0.234375-.421875.609375-.671875q0.375-.25.84375-.390625q0.34375-.078125 1.046875-.171875q1.421875-.171875 2.09375-.40625q0-.234375 0-.296875q0-.71875-.328125-1.015625q-.453125-.390625-1.34375-.390625q-.8125 0-1.21875.296875q-.390625.28125-.578125 1.015625l-1.140625-.15625q0.15625-.734375.515625-1.1875q0.359375-.453125 1.03125-.6875q0.671875-.25 1.5625-.25q0.890625 0 1.4375.203125q0.5625.203125.8125.53125q0.265625.3125.375.796875q0.046875.296875.046875 1.078125l0 1.5625q0 1.625.078125 2.0625q0.078125.4375.296875.828125l-1.21875 0q-.1875-.359375-.234375-.859375zm-.09375-2.609375q-.640625.265625-1.921875.4375q-.71875.109375-1.015625.25q-.296875.125-.46875.375q-.15625.25-.15625.546875q0 .46875.34375.78125q0.359375.3125 1.046875.3125q0.671875 0 1.203125-.296875q0.53125-.296875.78125-.8125q0.1875-.390625.1875-1.171875l0-.421875zm2.9906006 3.46875l0-6.90625l1.046875 0l0 .96875q0.328125-.515625.859375-.8125q0.546875-.3125 1.234375-.3125q0.78125 0 1.265625.3125q0.484375.3125.6875.890625q0.828125-1.203125 2.140625-1.203125q1.03125 0 1.578125.578125q0.5625.5625.5625 1.734375l0 4.75l-1.171875 0l0-4.359375q0-.703125-.125-1.0q-.109375-.3125-.40625-.5q-.296875-.1875-.703125-.1875q-.71875 0-1.203125.484375q-.484375.484375-.484375 1.546875l0 4.015625l-1.171875 0l0-4.484375q0-.78125-.296875-1.171875q-.28125-.390625-.921875-.390625q-.5 0-.921875.265625q-.421875.25-.609375.75q-.1875.5-.1875 1.453125l0 3.578125l-1.171875 0zm15.836792-2.21875l1.203125.140625q-.28125 1.0625-1.0625 1.65625q-.765625.578125-1.96875.578125q-1.515625 0-2.40625-.9375q-.890625-.9375-.890625-2.609375q0-1.75.890625-2.703125q0.90625-.96875 2.34375-.96875q1.390625 0 2.265625.9375q0.875.9375.875 2.65625q0 .109375 0 .3125l-5.15625 0q0.0625 1.140625.640625 1.75q0.578125.59375 1.4375.59375q0.65625 0 1.109375-.328125q0.453125-.34375.71875-1.078125zm-3.84375-1.90625l3.859375 0q-.078125-.859375-.4375-1.296875q-.5625-.6875-1.453125-.6875q-.8125 0-1.359375.546875q-.546875.53125-.609375 1.4375z" fill-rule="nonzero"/><path fill="#fce5cd" d="m360 148.00008l0 0c0-2.2091827 1.7908936-4.0000763 4.0000916-4.0000763l143.99982 0c1.0609131 0 2.0783386.4214325 2.8284912 1.1716003c0.7501526.7501526 1.1716003 1.7675934 1.1716003 2.828476l0 15.999847c0 2.2091827-1.7908936 4.0000763-4.0000916 4.0000763l-143.99982 0c-2.209198 0-4.0000916-1.7908936-4.0000916-4.0000763z" fill-rule="evenodd"/><path stroke="#000" stroke-width="1" stroke-linejoin="round" stroke-linecap="butt" d="m360 148.00008l0 0c0-2.2091827 1.7908936-4.0000763 4.0000916-4.0000763l143.99982 0c1.0609131 0 2.0783386.4214325 2.8284912 1.1716003c0.7501526.7501526 1.1716003 1.7675934 1.1716003 2.828476l0 15.999847c0 2.2091827-1.7908936 4.0000763-4.0000916 4.0000763l-143.99982 0c-2.209198 0-4.0000916-1.7908936-4.0000916-4.0000763z" fill-rule="evenodd"/><path fill="#000" d="m380.1262 158.58125l1.203125.140625q-.28125 1.0625-1.0625 1.65625q-.765625.578125-1.96875.578125q-1.515625 0-2.40625-.9375q-.890625-.9375-.890625-2.609375q0-1.75.890625-2.703125q0.90625-.96875 2.34375-.96875q1.390625 0 2.265625.9375q0.875.9375.875 2.65625q0 .109375 0 .3125l-5.15625 0q0.0625 1.140625.640625 1.75q0.578125.59375 1.4375.59375q0.65625 0 1.109375-.328125q0.453125-.34375.71875-1.078125zm-3.84375-1.90625l3.859375 0q-.078125-.859375-.4375-1.296875q-.5625-.6875-1.453125-.6875q-.8125 0-1.359375.546875q-.546875.53125-.609375 1.4375zm5.7406006 4.125l2.53125-3.59375l-2.34375-3.3125l1.46875 0l1.0625 1.609375q0.296875.46875.484375.78125q0.28125-.4375.515625-.765625l1.171875-1.625l1.40625 0l-2.390625 3.25l2.5625 3.65625l-1.4375 0l-1.421875-2.140625l-.375-.59375l-1.8125 2.734375l-1.421875 0zm10.0078125-1.046875l0.171875 1.03125q-.5.109375-.890625.109375q-.640625 0-1-.203125q-.34375-.203125-.484375-.53125q-.140625-.328125-.140625-1.390625l0-3.96875l-.859375 0l0-.90625l0.859375 0l0-1.71875l1.171875-.703125l0 2.421875l1.171875 0l0 .90625l-1.171875 0l0 4.046875q0 .5.046875.640625q0.0625.140625.203125.234375q0.140625.078125.40625.078125q0.203125 0 .515625-.046875zm1.1248474 1.046875l0-6.90625l1.0625 0l0 1.046875q0.40625-.734375.734375-.96875q0.34375-.234375.765625-.234375q0.59375 0 1.203125.375l-.40625 1.078125q-.4375-.25-.859375-.25q-.390625 0-.703125.234375q-.296875.234375-.421875.640625q-.203125.625-.203125 1.359375l0 3.625l-1.171875 0zm8.969635-.859375q-.65625.5625-1.265625.796875q-.59375.21875-1.28125.21875q-1.140625 0-1.75-.546875q-.609375-.5625-.609375-1.4375q0-.5.21875-.921875q0.234375-.421875.609375-.671875q0.375-.25.84375-.390625q0.34375-.078125 1.046875-.171875q1.421875-.171875 2.09375-.40625q0-.234375 0-.296875q0-.71875-.328125-1.015625q-.453125-.390625-1.34375-.390625q-.8125 0-1.21875.296875q-.390625.28125-.578125 1.015625l-1.140625-.15625q0.15625-.734375.515625-1.1875q0.359375-.453125 1.03125-.6875q0.671875-.25 1.5625-.25q0.890625 0 1.4375.203125q0.5625.203125.8125.53125q0.265625.3125.375.796875q0.046875.296875.046875 1.078125l0 1.5625q0 1.625.078125 2.0625q0.078125.4375.296875.828125l-1.21875 0q-.1875-.359375-.234375-.859375zm-.09375-2.609375q-.640625.265625-1.921875.4375q-.71875.109375-1.015625.25q-.296875.125-.46875.375q-.15625.25-.15625.546875q0 .46875.34375.78125q0.359375.3125 1.046875.3125q0.671875 0 1.203125-.296875q0.53125-.296875.78125-.8125q0.1875-.390625.1875-1.171875l0-.421875zm7.5062256.9375l1.15625.15625q-.1875 1.1875-.96875 1.859375q-.78125.671875-1.921875.671875q-1.40625 0-2.28125-.921875q-.859375-.9375-.859375-2.65625q0-1.125.375-1.96875q0.375-.84375 1.125-1.25q0.765625-.421875 1.65625-.421875q1.125 0 1.84375.578125q0.71875.5625.921875 1.609375l-1.140625.171875q-.171875-.703125-.59375-1.046875q-.40625-.359375-.984375-.359375q-.890625 0-1.453125.640625q-.546875.640625-.546875 2.0q0 1.40625.53125 2.03125q0.546875.625 1.40625.625q0.6875 0 1.140625-.421875q0.46875-.421875.59375-1.296875zm4.7109375 1.484375l0.171875 1.03125q-.5.109375-.890625.109375q-.640625 0-1-.203125q-.34375-.203125-.484375-.53125q-.140625-.328125-.140625-1.390625l0-3.96875l-.859375 0l0-.90625l0.859375 0l0-1.71875l1.171875-.703125l0 2.421875l1.171875 0l0 .90625l-1.171875 0l0 4.046875q0 .5.046875.640625q0.0625.140625.203125.234375q0.140625.078125.40625.078125q0.203125 0 .515625-.046875zm0.062347412 3.703125l0-.859375l7.765625 0l0 .859375l-7.765625 0zm8.771851-2.65625l0-6.0l-1.03125 0l0-.90625l1.03125 0l0-.734375q0-.703125.125-1.046875q0.171875-.453125.59375-.734375q0.421875-.28125 1.203125-.28125q0.484375 0 1.09375.109375l-.1875 1.03125q-.359375-.0625-.6875-.0625q-.53125 0-.75.234375q-.21875.21875-.21875.84375l0 .640625l1.34375 0l0 .90625l-1.34375 0l0 6.0l-1.171875 0zm7.937378-.859375q-.65625.5625-1.265625.796875q-.59375.21875-1.28125.21875q-1.140625 0-1.75-.546875q-.609375-.5625-.609375-1.4375q0-.5.21875-.921875q0.234375-.421875.609375-.671875q0.375-.25.84375-.390625q0.34375-.078125 1.046875-.171875q1.421875-.171875 2.09375-.40625q0-.234375 0-.296875q0-.71875-.328125-1.015625q-.453125-.390625-1.34375-.390625q-.8125 0-1.21875.296875q-.390625.28125-.578125 1.015625l-1.140625-.15625q0.15625-.734375.515625-1.1875q0.359375-.453125 1.03125-.6875q0.671875-.25 1.5625-.25q0.890625 0 1.4375.203125q0.5625.203125.8125.53125q0.265625.3125.375.796875q0.046875.296875.046875 1.078125l0 1.5625q0 1.625.078125 2.0625q0.078125.4375.296875.828125l-1.21875 0q-.1875-.359375-.234375-.859375zm-.09375-2.609375q-.640625.265625-1.921875.4375q-.71875.109375-1.015625.25q-.296875.125-.46875.375q-.15625.25-.15625.546875q0 .46875.34375.78125q0.359375.3125 1.046875.3125q0.671875 0 1.203125-.296875q0.53125-.296875.78125-.8125q0.1875-.390625.1875-1.171875l0-.421875zm2.9906006 3.46875l0-6.90625l1.046875 0l0 .96875q0.328125-.515625.859375-.8125q0.546875-.3125 1.234375-.3125q0.78125 0 1.265625.3125q0.484375.3125.6875.890625q0.828125-1.203125 2.140625-1.203125q1.03125 0 1.578125.578125q0.5625.5625.5625 1.734375l0 4.75l-1.171875 0l0-4.359375q0-.703125-.125-1.0q-.109375-.3125-.40625-.5q-.296875-.1875-.703125-.1875q-.71875 0-1.203125.484375q-.484375.484375-.484375 1.546875l0 4.015625l-1.171875 0l0-4.484375q0-.78125-.296875-1.171875q-.28125-.390625-.921875-.390625q-.5 0-.921875.265625q-.421875.25-.609375.75q-.1875.5-.1875 1.453125l0 3.578125l-1.171875 0zm11.118042-8.1875l0-1.359375l1.171875 0l0 1.359375l-1.171875 0zm0 8.1875l0-6.90625l1.171875 0l0 6.90625l-1.171875 0zm2.92984 0l0-9.546875l1.171875 0l0 9.546875l-1.171875 0zm2.92984 2.65625l-.125-1.09375q0.375.109375.65625.109375q0.390625 0 .625-.140625q0.234375-.125.390625-.359375q0.109375-.171875.359375-.875q0.03125-.09375.109375-.28125l-2.625-6.921875l1.265625 0l1.4375 4.0q0.28125.765625.5 1.59375q0.203125-.796875.46875-1.578125l1.484375-4.015625l1.171875 0l-2.625 7.015625q-.421875 1.140625-.65625 1.578125q-.3125.578125-.71875.84375q-.40625.28125-.96875.28125q-.328125 0-.75-.15625zm5.6328125 0l0-.859375l7.765625 0l0 .859375l-7.765625 0zm8.490601-2.65625l0-6.90625l1.0625 0l0 .984375q0.75-1.140625 2.1875-1.140625q0.625 0 1.15625.21875q0.53125.21875.78125.59375q0.265625.359375.375.859375q0.0625.328125.0625 1.140625l0 4.25l-1.171875 0l0-4.203125q0-.71875-.140625-1.0625q-.140625-.359375-.484375-.5625q-.34375-.21875-.8125-.21875q-.75 0-1.296875.46875q-.546875.46875-.546875 1.796875l0 3.78125l-1.171875 0zm11.928101-.859375q-.65625.5625-1.265625.796875q-.59375.21875-1.28125.21875q-1.140625 0-1.75-.546875q-.609375-.5625-.609375-1.4375q0-.5.21875-.921875q0.234375-.421875.609375-.671875q0.375-.25.84375-.390625q0.34375-.078125 1.046875-.171875q1.421875-.171875 2.09375-.40625q0-.234375 0-.296875q0-.71875-.328125-1.015625q-.453125-.390625-1.34375-.390625q-.8125 0-1.21875.296875q-.390625.28125-.578125 1.015625l-1.140625-.15625q0.15625-.734375.515625-1.1875q0.359375-.453125 1.03125-.6875q0.671875-.25 1.5625-.25q0.890625 0 1.4375.203125q0.5625.203125.8125.53125q0.265625.3125.375.796875q0.046875.296875.046875 1.078125l0 1.5625q0 1.625.078125 2.0625q0.078125.4375.296875.828125l-1.21875 0q-.1875-.359375-.234375-.859375zm-.09375-2.609375q-.640625.265625-1.921875.4375q-.71875.109375-1.015625.25q-.296875.125-.46875.375q-.15625.25-.15625.546875q0 .46875.34375.78125q0.359375.3125 1.046875.3125q0.671875 0 1.203125-.296875q0.53125-.296875.78125-.8125q0.1875-.390625.1875-1.171875l0-.421875zm2.9906006 3.46875l0-6.90625l1.046875 0l0 .96875q0.328125-.515625.859375-.8125q0.546875-.3125 1.234375-.3125q0.78125 0 1.265625.3125q0.484375.3125.6875.890625q0.828125-1.203125 2.140625-1.203125q1.03125 0 1.578125.578125q0.5625.5625.5625 1.734375l0 4.75l-1.171875 0l0-4.359375q0-.703125-.125-1.0q-.109375-.3125-.40625-.5q-.296875-.1875-.703125-.1875q-.71875 0-1.203125.484375q-.484375.484375-.484375 1.546875l0 4.015625l-1.171875 0l0-4.484375q0-.78125-.296875-1.171875q-.28125-.390625-.921875-.390625q-.5 0-.921875.265625q-.421875.25-.609375.75q-.1875.5-.1875 1.453125l0 3.578125l-1.171875 0zm15.8368225-2.21875l1.203125.140625q-.28125 1.0625-1.0625 1.65625q-.765625.578125-1.96875.578125q-1.515625 0-2.40625-.9375q-.890625-.9375-.890625-2.609375q0-1.75.890625-2.703125q0.90625-.96875 2.34375-.96875q1.390625 0 2.265625.9375q0.875.9375.875 2.65625q0 .109375 0 .3125l-5.15625 0q0.0625 1.140625.640625 1.75q0.578125.59375 1.4375.59375q0.65625 0 1.109375-.328125q0.453125-.34375.71875-1.078125zm-3.84375-1.90625l3.859375 0q-.078125-.859375-.4375-1.296875q-.5625-.6875-1.453125-.6875q-.8125 0-1.359375.546875q-.546875.53125-.609375 1.4375z" fill-rule="nonzero"/><path fill="#fce5cd" d="m376 60.00008l0 0c0-2.2091827 1.7908936-4.00008 4.0000916-4.00008l111.99982 0c1.0609131 0 2.0783386.4214363 2.8284912 1.1715965c0.7501526.7501602 1.1716003 1.7675972 1.1716003 2.8284836l0 15.999844c0 2.2091827-1.7908936 4.0000763-4.0000916 4.0000763l-111.99982 0l0 0c-2.209198 0-4.0000916-1.7908936-4.0000916-4.0000763z" fill-rule="evenodd"/><path stroke="#000" stroke-width="1" stroke-linejoin="round" stroke-linecap="butt" d="m376 60.00008l0 0c0-2.2091827 1.7908936-4.00008 4.0000916-4.00008l111.99982 0c1.0609131 0 2.0783386.4214363 2.8284912 1.1715965c0.7501526.7501602 1.1716003 1.7675972 1.1716003 2.8284836l0 15.999844c0 2.2091827-1.7908936 4.0000763-4.0000916 4.0000763l-111.99982 0l0 0c-2.209198 0-4.0000916-1.7908936-4.0000916-4.0000763z" fill-rule="evenodd"/><path fill="#000" d="m387.97806 72.8l0-6.90625l1.046875 0l0 .96875q0.328125-.515625.859375-.8125q0.546875-.3125 1.234375-.3125q0.78125 0 1.265625.3125q0.484375.3125.6875.890625q0.828125-1.203125 2.140625-1.203125q1.03125 0 1.578125.578125q0.5625.5625.5625 1.734375l0 4.75l-1.171875 0l0-4.359375q0-.703125-.125-1.0q-.109375-.3125-.40625-.5q-.296875-.1875-.703125-.1875q-.71875 0-1.203125.484375q-.484375.484375-.484375 1.546875l0 4.015625l-1.171875 0l0-4.484375q0-.78125-.296875-1.171875q-.28125-.390625-.921875-.390625q-.5 0-.921875.265625q-.421875.25-.609375.75q-.1875.5-.1875 1.453125l0 3.578125l-1.171875 0zm15.618042-.859375q-.65625.5625-1.265625.796875q-.59375.21875-1.28125.21875q-1.140625 0-1.75-.546875q-.609375-.5625-.609375-1.4375q0-.5.21875-.921875q0.234375-.421875.609375-.671875q0.375-.25.84375-.390625q0.34375-.078125 1.046875-.171875q1.421875-.171875 2.09375-.40625q0-.234375 0-.296875q0-.71875-.328125-1.015625q-.453125-.390625-1.34375-.390625q-.8125 0-1.21875.296875q-.390625.28125-.578125 1.015625l-1.140625-.15625q0.15625-.734375.515625-1.1875q0.359375-.453125 1.03125-.6875q0.671875-.25 1.5625-.25q0.890625 0 1.4375.203125q0.5625.203125.8125.53125q0.265625.3125.375.796875q0.046875.296875.046875 1.078125l0 1.5625q0 1.625.078125 2.0625q0.078125.4375.296875.828125l-1.21875 0q-.1875-.359375-.234375-.859375zm-.09375-2.609375q-.640625.265625-1.921875.4375q-.71875.109375-1.015625.25q-.296875.125-.46875.375q-.15625.25-.15625.546875q0 .46875.34375.78125q0.359375.3125 1.046875.3125q0.671875 0 1.203125-.296875q0.53125-.296875.78125-.8125q0.1875-.390625.1875-1.171875l0-.421875zm3.0062256 3.46875l0-9.546879l1.171875 0l0 5.453129l2.765625-2.8125l1.515625 0l-2.640625 2.5625l2.90625 4.34375l-1.4375 0l-2.28125-3.53125l-.828125.796875l0 2.734375l-1.171875 0zm11.3828125-2.21875l1.203125.140625q-.28125 1.0625-1.0625 1.65625q-.765625.578125-1.96875.578125q-1.515625 0-2.40625-.9375q-.890625-.9375-.890625-2.609375q0-1.75.890625-2.703125q0.90625-.96875 2.34375-.96875q1.390625 0 2.265625.9375q0.875.9375.875 2.65625q0 .109375 0 .3125l-5.15625 0q0.0625 1.140625.640625 1.75q0.578125.59375 1.4375.59375q0.65625 0 1.109375-.328125q0.453125-.34375.71875-1.078125zm-3.84375-1.90625l3.859375 0q-.078125-.859375-.4375-1.296875q-.5625-.6875-1.453125-.6875q-.8125 0-1.359375.546875q-.546875.53125-.609375 1.4375zm5.4437256 6.78125l0-.859375l7.765625 0l0 .859375l-7.765625 0zm8.771851-2.65625l0-6.0l-1.03125 0l0-.90625l1.03125 0l0-.734375q0-.703125.125-1.046875q0.171875-.4531288.59375-.7343788q0.421875-.28125 1.203125-.28125q0.484375 0 1.09375.109375l-.1875 1.0312538q-.359375-.0625-.6875-.0625q-.53125 0-.75.234375q-.21875.21875-.21875.84375l0 .640625l1.34375 0l0 .90625l-1.34375 0l0 6.0l-1.171875 0zm7.953003 0l0-1.015625q-.8125 1.171875-2.1875 1.171875q-.609375 0-1.140625-.234375q-.53125-.234375-.796875-.578125q-.25-.359375-.359375-.875q-.0625-.34375-.0625-1.09375l0-4.28125l1.171875 0l0 3.828125q0 .921875.0625 1.234375q0.109375.46875.46875.734375q0.359375.25.890625.25q0.515625 0 .984375-.265625q0.46875-.265625.65625-.734375q0.1875-.46875.1875-1.34375l0-3.703125l1.171875 0l0 6.90625l-1.046875 0zm2.8656006 0l0-9.546879l1.171875 0l0 9.546879l-1.171875 0zm2.96109 0l0-9.546879l1.171875 0l0 9.546879l-1.171875 0zm1.8985901 2.65625l0-.859375l7.765625 0l0 .859375l-7.765625 0zm8.490601-2.65625l0-6.90625l1.0625 0l0 .984375q0.75-1.140625 2.1875-1.140625q0.625 0 1.15625.21875q0.53125.21875.78125.59375q0.265625.359375.375.859375q0.0625.328125.0625 1.140625l0 4.25l-1.171875 0l0-4.203125q0-.71875-.140625-1.0625q-.140625-.359375-.484375-.5625q-.34375-.21875-.8125-.21875q-.75 0-1.296875.46875q-.546875.46875-.546875 1.796875l0 3.78125l-1.171875 0zm11.928101-.859375q-.65625.5625-1.265625.796875q-.59375.21875-1.28125.21875q-1.140625 0-1.75-.546875q-.609375-.5625-.609375-1.4375q0-.5.21875-.921875q0.234375-.421875.609375-.671875q0.375-.25.84375-.390625q0.34375-.078125 1.046875-.171875q1.421875-.171875 2.09375-.40625q0-.234375 0-.296875q0-.71875-.328125-1.015625q-.453125-.390625-1.34375-.390625q-.8125 0-1.21875.296875q-.390625.28125-.578125 1.015625l-1.140625-.15625q0.15625-.734375.515625-1.1875q0.359375-.453125 1.03125-.6875q0.671875-.25 1.5625-.25q0.890625 0 1.4375.203125q0.5625.203125.8125.53125q0.265625.3125.375.796875q0.046875.296875.046875 1.078125l0 1.5625q0 1.625.078125 2.0625q0.078125.4375.296875.828125l-1.21875 0q-.1875-.359375-.234375-.859375zm-.09375-2.609375q-.640625.265625-1.921875.4375q-.71875.109375-1.015625.25q-.296875.125-.46875.375q-.15625.25-.15625.546875q0 .46875.34375.78125q0.359375.3125 1.046875.3125q0.671875 0 1.203125-.296875q0.53125-.296875.78125-.8125q0.1875-.390625.1875-1.171875l0-.421875zm2.9906006 3.46875l0-6.90625l1.046875 0l0 .96875q0.328125-.515625.859375-.8125q0.546875-.3125 1.234375-.3125q0.78125 0 1.265625.3125q0.484375.3125.6875.890625q0.828125-1.203125 2.140625-1.203125q1.03125 0 1.578125.578125q0.5625.5625.5625 1.734375l0 4.75l-1.171875 0l0-4.359375q0-.703125-.125-1.0q-.109375-.3125-.40625-.5q-.296875-.1875-.703125-.1875q-.71875 0-1.203125.484375q-.484375.484375-.484375 1.546875l0 4.015625l-1.171875 0l0-4.484375q0-.78125-.296875-1.171875q-.28125-.390625-.921875-.390625q-.5 0-.921875.265625q-.421875.25-.609375.75q-.1875.5-.1875 1.453125l0 3.578125l-1.171875 0zm15.836792-2.21875l1.203125.140625q-.28125 1.0625-1.0625 1.65625q-.765625.578125-1.96875.578125q-1.515625 0-2.40625-.9375q-.890625-.9375-.890625-2.609375q0-1.75.890625-2.703125q0.90625-.96875 2.34375-.96875q1.390625 0 2.265625.9375q0.875.9375.875 2.65625q0 .109375 0 .3125l-5.15625 0q0.0625 1.140625.640625 1.75q0.578125.59375 1.4375.59375q0.65625 0 1.109375-.328125q0.453125-.34375.71875-1.078125zm-3.84375-1.90625l3.859375 0q-.078125-.859375-.4375-1.296875q-.5625-.6875-1.453125-.6875q-.8125 0-1.359375.546875q-.546875.53125-.609375 1.4375z" fill-rule="nonzero"/><path fill="#000" fill-opacity="0" d="m112 60.0c12.000099 0 14.133522-6.9000015 24.000198-14.5c9.866684-7.5999985 27.466629-15.9 49.99991-14.5c22.53328 1.4000015 49.999893 12.5 49.999893 25" fill-rule="evenodd"/><path stroke="#000" stroke-width="1" stroke-linejoin="round" stroke-linecap="butt" d="m112 60.0c12.000099 0 14.133522-6.9000015 24.000198-14.5c9.866684-7.5999985 27.466629-15.900002 49.99991-14.5c11.266632.70000076 23.766602 3.8250008 33.44992 8.337502c4.8416595 2.2562485 8.979141 4.859375 11.906235 7.6796875c0.73176575.7050781 1.3878937 1.423729 1.960434 2.1539268c0.2862854.36510086.5516815.73308945.7951813 1.1037102l0.01586914.0247612" fill-rule="evenodd"/><path fill="#000" stroke="#000" stroke-width="1" stroke-linecap="butt" d="m232.5585 50.814995l2.985321 3.7960968l0.15319824-4.826912z" fill-rule="evenodd"/><path fill="#000" fill-opacity="0" d="m112 60.0c64 0 128 42 128 84" fill-rule="evenodd"/><path stroke="#000" stroke-width="1" stroke-linejoin="round" stroke-linecap="butt" d="m112 60.0c32 0 64 10.5 88 26.25c12 7.875 22 17.0625 29 26.90625c3.5 4.921875 6.25 10.0078125 8.125 15.175781c0.9375 2.5839844 1.65625 5.1884766 2.140625 7.8032227c0.060546875.32684326.11743164.65385437.17062378.98098755c0.02659607.16357422.052261353.32717896.07701111.4908142l0.059417725.4081726" fill-rule="evenodd"/><path fill="#000" stroke="#000" stroke-width="1" stroke-linecap="butt" d="m237.92513 138.13287l1.9707489 4.4089355l1.3243256-4.644211z" fill-rule="evenodd"/><path fill="#000" fill-opacity="0" d="m328 148.0c8.000092 0 7.7335205-6.899994 16.000214-14.5c8.266663-7.5999985 25.06662-15.900002 45.999878-14.5c20.933289 1.4000015 45.99991 12.5 45.99991 25" fill-rule="evenodd"/><path stroke="#000" stroke-width="1" stroke-linejoin="round" stroke-linecap="butt" d="m328 148.0c8.000092 0 7.7335205-6.899994 16.000214-14.5c8.266693-7.600006 25.06659-15.899994 45.999878-14.5c10.466644.69999695 21.966614 3.824997 30.849945 8.337494c4.441681 2.256256 8.2291565 4.859375 10.90625 7.6796875c0.6692505.7050781 1.269104 1.4237366 1.7924194 2.1539307c0.1308899.18255615.25689697.36582947.37808228.5497894c0.060577393.09197998.11993408.18414307.17803955.27645874l0.15939331.25920105" fill-rule="evenodd"/><path fill="#000" stroke="#000" stroke-width="1" stroke-linecap="butt" d="m432.68314 138.7344l2.8939514 3.866211l0.2682495-4.8218994z" fill-rule="evenodd"/><path fill="#000" fill-opacity="0" d="m312 60.0c15.999725 0 21.599487-6.9000015 31.99945-14.5c10.399963-7.5999985 25.600128-15.9 46.000275-14.5c20.400146 1.4000015 46.000275 12.5 46.000275 25" fill-rule="evenodd"/><path stroke="#000" stroke-width="1" stroke-linejoin="round" stroke-linecap="butt" d="m312 60.0c15.999725 0 21.599457-6.9000015 31.99945-14.5c10.399963-7.5999985 25.600128-15.900002 46.000275-14.5c10.200073.70000076 21.700104 3.8250008 30.650177 8.337502c4.475006 2.2562485 8.312561 4.859375 11.031311 7.6796875c0.679718.7050781 1.2894592 1.423729 1.8217773 2.1539268c0.13311768.18255234.26135254.36582565.38464355.5497856c0.061645508.091983795.122039795.18413544.18118286.27645874l0.16757202.26769638" fill-rule="evenodd"/><path fill="#000" stroke="#000" stroke-width="1" stroke-linecap="butt" d="m432.6576 50.750565l2.9126892 3.8521156l0.24484253-4.8231354z" fill-rule="evenodd"/><path fill="#000" fill-opacity="0" d="m436 168.0c0 12.5-25.06662 23.600006-45.99991 25.0c-20.933258 1.3999939-37.733215-6.899994-45.999878-14.5c-8.266693-7.600006-8.000122-14.5-16.000214-14.5" fill-rule="evenodd"/><path stroke="#000" stroke-width="1" stroke-linejoin="round" stroke-linecap="butt" stroke-dasharray="4,3" d="m436 168.0c0 12.5-25.06659 23.600006-45.99991 25.0c-20.933289 1.3999939-37.733185-6.899994-45.999878-14.5c-4.133362-3.7999878-6.133362-7.425003-8.100067-10.100006c-.4916687-.66874695-.9812927-1.278122-1.5016174-1.8160095c-.13006592-.13447571-.26205444-.2644806-.39648438-.38983154c-.067230225-.06266785-.1350708-.124176025-.20358276-.18450928l-.11193848-.09565735" fill-rule="evenodd"/><path fill="#000" stroke="#000" stroke-width="1" stroke-linecap="butt" d="m334.21344 164.34856l-4.8279114.11778259l3.774109 3.013092z" fill-rule="evenodd"/><path fill="#fff" d="m8 24.0l0 0c0-4.4182777 3.5817223-8 8-8.0l0 0c2.1217327 0 4.156563.84285545 5.6568546 2.3431454c1.5002899 1.5002918 2.3431454 3.535122 2.3431454 5.6568546l0 0c0 4.4182777-3.5817223 8-8 8.0l0 0c-4.4182777 0-8-3.5817223-8-8.0z" fill-rule="evenodd"/><path stroke="#000" stroke-width="2" stroke-linejoin="round" stroke-linecap="butt" d="m8 24.0l0 0c0-4.4182777 3.5817223-8 8-8.0l0 0c2.1217327 0 4.156563.84285545 5.6568546 2.3431454c1.5002899 1.5002918 2.3431454 3.535122 2.3431454 5.6568546l0 0c0 4.4182777-3.5817223 8-8 8.0l0 0c-4.4182777 0-8-3.5817223-8-8.0z" fill-rule="evenodd"/><path fill="#000" fill-opacity="0" d="m24 24.0c20 0 40 16 40 32" fill-rule="evenodd"/><path stroke="#000" stroke-width="1" stroke-linejoin="round" stroke-linecap="butt" d="m24 24.0c10 0 20 4 27.5 10.0c3.75 3 6.875 6.5 9.0625 10.25c1.09375 1.875 1.953125 3.8125 2.5390625 5.78125l0.010066986.034877777" fill-rule="evenodd"/><path fill="#000" stroke="#000" stroke-width="1" stroke-linecap="butt" d="m61.478104 50.310688l2.3054466 4.2435226l0.9616051-4.7326393z" fill-rule="evenodd"/><path fill="#000" fill-opacity="0" d="m436 80.0c0 12.5-25.600128 23.599998-46.000275 25.0c-20.400146 1.4000015-35.60031-6.9000015-46.000275-14.5c-10.399963-7.5999985-15.999725-14.5-31.99945-14.5" fill-rule="evenodd"/><path stroke="#000" stroke-width="1" stroke-linejoin="round" stroke-linecap="butt" stroke-dasharray="4,3" d="m436 80.0c0 12.5-25.600159 23.600006-46.000275 25.0c-20.400146 1.3999939-35.60031-6.899994-46.000275-14.5c-5.1999817-3.800003-9.199921-7.425003-13.899841-10.099998c-2.349945-1.3375015-4.874878-2.4375-7.812317-3.203125c-.7343445-.19140625-1.4945068-.3619156-2.2841492-.51000977c-.3948059-.074043274-.7969971-.1424942-1.2070007-.20514679c-.20501709-.031326294-.4119873-.061203003-.6209717-.08961487l-.18649292-.023788452" fill-rule="evenodd"/><path fill="#000" stroke="#000" stroke-width="1" stroke-linecap="butt" d="m318.0901 74.719696l-4.630951 1.3700409l4.4281616 1.9271927z" fill-rule="evenodd"/><path fill="#000" fill-opacity="0" d="m152 228.00008l0 0c0-2.2091827 1.7908936-4.0000763 4.0000763-4.0000763l167.99983 0c1.0609131 0 2.0783386.4214325 2.8284912 1.1716003c0.7501526.7501526 1.1716003 1.7675934 1.1716003 2.828476l0 15.999847c0 2.2091827-1.7908936 4.0000763-4.0000916 4.0000763l-167.99983 0c-2.2091827 0-4.0000763-1.7908936-4.0000763-4.0000763z" fill-rule="evenodd"/><path fill="#000" fill-opacity="0" d="m152 244.00008l0 0c0-2.2091827 1.7908936-4.0000763 4.0000763-4.0000763l167.99983 0c1.0609131 0 2.0783386.4214325 2.8284912 1.1716003c0.7501526.7501526 1.1716003 1.7675934 1.1716003 2.828476l0 15.999832c0 2.209198-1.7908936 4.0000916-4.0000916 4.0000916l-167.99983 0c-2.2091827 0-4.0000763-1.7908936-4.0000763-4.0000916z" fill-rule="evenodd"/><path fill="#fce5cd" d="m152 236.00008l0 0c0-2.2091827 1.7908936-4.0000763 4.0000763-4.0000763l167.99983 0c1.0609131 0 2.0783386.4214325 2.8284912 1.1716003c0.7501526.7501526 1.1716003 1.7675934 1.1716003 2.828476l0 15.999847c0 2.2091827-1.7908936 4.0000763-4.0000916 4.0000763l-167.99983 0c-2.2091827 0-4.0000763-1.7908936-4.0000763-4.0000763z" fill-rule="evenodd"/><path stroke="#000" stroke-width="1" stroke-linejoin="round" stroke-linecap="butt" d="m152 236.00008l0 0c0-2.2091827 1.7908936-4.0000763 4.0000763-4.0000763l167.99983 0c1.0609131 0 2.0783386.4214325 2.8284912 1.1716003c0.7501526.7501526 1.1716003 1.7675934 1.1716003 2.828476l0 15.999847c0 2.2091827-1.7908936 4.0000763-4.0000916 4.0000763l-167.99983 0c-2.2091827 0-4.0000763-1.7908936-4.0000763-4.0000763z" fill-rule="evenodd"/><path fill="#000" d="m168.9776 247.75313l0.171875 1.03125q-.5.109375-.890625.109375q-.640625 0-1-.203125q-.34375-.203125-.484375-.53125q-.140625-.328125-.140625-1.390625l0-3.96875l-.859375 0l0-.90625l0.859375 0l0-1.71875l1.171875-.703125l0 2.421875l1.171875 0l0 .90625l-1.171875 0l0 4.046875q0 .5.046875.640625q0.0625.140625.203125.234375q0.140625.078125.40625.078125q0.203125 0 .515625-.046875zm5.8748627-1.171875l1.203125.140625q-.28125 1.0625-1.0625 1.65625q-.765625.578125-1.96875.578125q-1.515625 0-2.40625-.9375q-.890625-.9375-.890625-2.609375q0-1.75.890625-2.703125q0.90625-.96875 2.34375-.96875q1.390625 0 2.265625.9375q0.875.9375.875 2.65625q0 .109375 0 .3125l-5.15625 0q0.0625 1.140625.640625 1.75q0.578125.59375 1.4375.59375q0.65625 0 1.109375-.328125q0.453125-.34375.71875-1.078125zm-3.84375-1.90625l3.859375 0q-.078125-.859375-.4375-1.296875q-.5625-.6875-1.453125-.6875q-.8125 0-1.359375.546875q-.546875.53125-.609375 1.4375zm6.0531006 2.0625l1.15625-.1875q0.109375.703125.546875 1.078125q0.453125.359375 1.25.359375q0.8125 0 1.203125-.328125q0.390625-.328125.390625-.765625q0-.390625-.359375-.625q-.234375-.15625-1.1875-.390625q-1.296875-.328125-1.796875-.5625q-.484375-.25-.75-.65625q-.25-.421875-.25-.9375q0-.453125.203125-.84375q0.21875-.40625.578125-.671875q0.28125-.1875.75-.328125q0.46875-.140625 1.015625-.140625q0.8125 0 1.421875.234375q0.609375.234375.90625.640625q0.296875.390625.40625 1.0625l-1.140625.15625q-.078125-.53125-.453125-.828125q-.375-.3125-1.0625-.3125q-.8125 0-1.15625.265625q-.34375.265625-.34375.625q0 .234375.140625.421875q0.15625.1875.453125.3125q0.171875.0625 1.03125.296875q1.25.328125 1.734375.546875q0.5.203125.78125.609375q0.28125.40625.28125 1.0q0 .59375-.34375 1.109375q-.34375.515625-1 .796875q-.640625.28125-1.453125.28125q-1.34375 0-2.046875-.5625q-.703125-.5625-.90625-1.65625zm9.6953125 1.015625l0.171875 1.03125q-.5.109375-.890625.109375q-.640625 0-1-.203125q-.34375-.203125-.484375-.53125q-.140625-.328125-.140625-1.390625l0-3.96875l-.859375 0l0-.90625l0.859375 0l0-1.71875l1.171875-.703125l0 2.421875l1.171875 0l0 .90625l-1.171875 0l0 4.046875q0 .5.046875.640625q0.0625.140625.203125.234375q0.140625.078125.40625.078125q0.203125 0 .515625-.046875zm0.06236267 3.703125l0-.859375l7.765625 0l0 .859375l-7.765625 0zm13.224976-4.875l1.203125.140625q-.28125 1.0625-1.0625 1.65625q-.765625.578125-1.96875.578125q-1.515625 0-2.40625-.9375q-.890625-.9375-.890625-2.609375q0-1.75.890625-2.703125q0.90625-.96875 2.34375-.96875q1.390625 0 2.265625.9375q0.875.9375.875 2.65625q0 .109375 0 .3125l-5.15625 0q0.0625 1.140625.640625 1.75q0.578125.59375 1.4375.59375q0.65625 0 1.109375-.328125q0.453125-.34375.71875-1.078125zm-3.84375-1.90625l3.859375 0q-.078125-.859375-.4375-1.296875q-.5625-.6875-1.453125-.6875q-.8125 0-1.359375.546875q-.546875.53125-.609375 1.4375zm5.7406006 4.125l2.53125-3.59375l-2.34375-3.3125l1.46875 0l1.0625 1.609375q0.296875.46875.484375.78125q0.28125-.4375.515625-.765625l1.171875-1.625l1.40625 0l-2.390625 3.25l2.5625 3.65625l-1.4375 0l-1.421875-2.140625l-.375-.59375l-1.8125 2.734375l-1.421875 0zm10.0078125-1.046875l0.171875 1.03125q-.5.109375-.890625.109375q-.640625 0-1-.203125q-.34375-.203125-.484375-.53125q-.140625-.328125-.140625-1.390625l0-3.96875l-.859375 0l0-.90625l0.859375 0l0-1.71875l1.171875-.703125l0 2.421875l1.171875 0l0 .90625l-1.171875 0l0 4.046875q0 .5.046875.640625q0.0625.140625.203125.234375q0.140625.078125.40625.078125q0.203125 0 .515625-.046875zm1.1248627 1.046875l0-6.90625l1.0625 0l0 1.046875q0.40625-.734375.734375-.96875q0.34375-.234375.765625-.234375q0.59375 0 1.203125.375l-.40625 1.078125q-.4375-.25-.859375-.25q-.390625 0-.703125.234375q-.296875.234375-.421875.640625q-.203125.625-.203125 1.359375l0 3.625l-1.171875 0zm8.96962-.859375q-.65625.5625-1.265625.796875q-.59375.21875-1.28125.21875q-1.140625 0-1.75-.546875q-.609375-.5625-.609375-1.4375q0-.5.21875-.921875q0.234375-.421875.609375-.671875q0.375-.25.84375-.390625q0.34375-.078125 1.046875-.171875q1.421875-.171875 2.09375-.40625q0-.234375 0-.296875q0-.71875-.328125-1.015625q-.453125-.390625-1.34375-.390625q-.8125 0-1.21875.296875q-.390625.28125-.578125 1.015625l-1.140625-.15625q0.15625-.734375.515625-1.1875q0.359375-.453125 1.03125-.6875q0.671875-.25 1.5625-.25q0.890625 0 1.4375.203125q0.5625.203125.8125.53125q0.265625.3125.375.796875q0.046875.296875.046875 1.078125l0 1.5625q0 1.625.078125 2.0625q0.078125.4375.296875.828125l-1.21875 0q-.1875-.359375-.234375-.859375zm-.09375-2.609375q-.640625.265625-1.921875.4375q-.71875.109375-1.015625.25q-.296875.125-.46875.375q-.15625.25-.15625.546875q0 .46875.34375.78125q0.359375.3125 1.046875.3125q0.671875 0 1.203125-.296875q0.53125-.296875.78125-.8125q0.1875-.390625.1875-1.171875l0-.421875zm7.5062256.9375l1.15625.15625q-.1875 1.1875-.96875 1.859375q-.78125.671875-1.921875.671875q-1.40625 0-2.28125-.921875q-.859375-.9375-.859375-2.65625q0-1.125.375-1.96875q0.375-.84375 1.125-1.25q0.765625-.421875 1.65625-.421875q1.125 0 1.84375.578125q0.71875.5625.921875 1.609375l-1.140625.171875q-.171875-.703125-.59375-1.046875q-.40625-.359375-.984375-.359375q-.890625 0-1.453125.640625q-.546875.640625-.546875 2.0q0 1.40625.53125 2.03125q0.546875.625 1.40625.625q0.6875 0 1.140625-.421875q0.46875-.421875.59375-1.296875zm4.7109375 1.484375l0.171875 1.03125q-.5.109375-.890625.109375q-.640625 0-1-.203125q-.34375-.203125-.484375-.53125q-.140625-.328125-.140625-1.390625l0-3.96875l-.859375 0l0-.90625l0.859375 0l0-1.71875l1.171875-.703125l0 2.421875l1.171875 0l0 .90625l-1.171875 0l0 4.046875q0 .5.046875.640625q0.0625.140625.203125.234375q0.140625.078125.40625.078125q0.203125 0 .515625-.046875zm0.06236267 3.703125l0-.859375l7.765625 0l0 .859375l-7.765625 0zm8.271851-2.078125l1.140625.15625q0.078125.53125.40625.78125q0.4375.3125 1.1875.3125q0.8125 0 1.25-.328125q0.453125-.3125.609375-.90625q0.09375-.359375.078125-1.5q-.765625.90625-1.90625.90625q-1.4375 0-2.21875-1.03125q-.78125-1.03125-.78125-2.46875q0-.984375.359375-1.8125q0.359375-.84375 1.03125-1.296875q0.6875-.453125 1.609375-.453125q1.21875 0 2.015625.984375l0-.828125l1.078125 0l0 5.96875q0 1.609375-.328125 2.28125q-.328125.6875-1.046875 1.078125q-.703125.390625-1.75.390625q-1.234375 0-2-.5625q-.75-.5625-.734375-1.671875zm0.984375-4.15625q0 1.359375.53125 1.984375q0.546875.625 1.359375.625q0.796875 0 1.34375-.625q0.546875-.625.546875-1.953125q0-1.265625-.5625-1.90625q-.5625-.640625-1.359375-.640625q-.765625 0-1.3125.640625q-.546875.625-.546875 1.875zm6.6624756-4.609375l0-1.359375l1.171875 0l0 1.359375l-1.171875 0zm0 8.1875l0-6.90625l1.171875 0l0 6.90625l-1.171875 0zm4.86734 0l-2.625-6.90625l1.234375 0l1.484375 4.140625q0.234375.65625.4375 1.390625q0.15625-.546875.4375-1.3125l1.5312347-4.21875l1.21875 0l-2.625 6.90625l-1.0937347 0zm9.476547-2.21875l1.203125.140625q-.28125 1.0625-1.0625 1.65625q-.765625.578125-1.96875.578125q-1.515625 0-2.40625-.9375q-.890625-.9375-.890625-2.609375q0-1.75.890625-2.703125q0.90625-.96875 2.34375-.96875q1.390625 0 2.265625.9375q0.875.9375.875 2.65625q0 .109375 0 .3125l-5.15625 0q0.0625 1.140625.640625 1.75q0.578125.59375 1.4375.59375q0.65625 0 1.109375-.328125q0.453125-.34375.71875-1.078125zm-3.84375-1.90625l3.859375 0q-.078125-.859375-.4375-1.296875q-.5625-.6875-1.453125-.6875q-.8125 0-1.359375.546875q-.546875.53125-.609375 1.4375zm6.5218506 4.125l0-6.90625l1.0625 0l0 .984375q0.75-1.140625 2.1875-1.140625q0.625 0 1.15625.21875q0.53125.21875.78125.59375q0.265625.359375.375.859375q0.0625.328125.0625 1.140625l0 4.25l-1.171875 0l0-4.203125q0-.71875-.140625-1.0625q-.140625-.359375-.484375-.5625q-.34375-.21875-.8125-.21875q-.75 0-1.296875.46875q-.546875.46875-.546875 1.796875l0 3.78125l-1.171875 0zm6.3343506 2.65625l0-.859375l7.765625 0l0 .859375l-7.765625 0zm8.490601-2.65625l0-6.90625l1.0625 0l0 .984375q0.75-1.140625 2.1875-1.140625q0.625 0 1.15625.21875q0.53125.21875.78125.59375q0.265625.359375.375.859375q0.0625.328125.0625 1.140625l0 4.25l-1.171875 0l0-4.203125q0-.71875-.140625-1.0625q-.140625-.359375-.484375-.5625q-.34375-.21875-.8125-.21875q-.75 0-1.296875.46875q-.546875.46875-.546875 1.796875l0 3.78125l-1.171875 0zm11.928101-.859375q-.65625.5625-1.265625.796875q-.59375.21875-1.28125.21875q-1.140625 0-1.75-.546875q-.609375-.5625-.609375-1.4375q0-.5.21875-.921875q0.234375-.421875.609375-.671875q0.375-.25.84375-.390625q0.34375-.078125 1.046875-.171875q1.421875-.171875 2.09375-.40625q0-.234375 0-.296875q0-.71875-.328125-1.015625q-.453125-.390625-1.34375-.390625q-.8125 0-1.21875.296875q-.390625.28125-.578125 1.015625l-1.140625-.15625q0.15625-.734375.515625-1.1875q0.359375-.453125 1.03125-.6875q0.671875-.25 1.5625-.25q0.890625 0 1.4375.203125q0.5625.203125.8125.53125q0.265625.3125.375.796875q0.046875.296875.046875 1.078125l0 1.5625q0 1.625.078125 2.0625q0.078125.4375.296875.828125l-1.21875 0q-.1875-.359375-.234375-.859375zm-.09375-2.609375q-.640625.265625-1.921875.4375q-.71875.109375-1.015625.25q-.296875.125-.46875.375q-.15625.25-.15625.546875q0 .46875.34375.78125q0.359375.3125 1.046875.3125q0.671875 0 1.203125-.296875q0.53125-.296875.78125-.8125q0.1875-.390625.1875-1.171875l0-.421875zm2.9906006 3.46875l0-6.90625l1.046875 0l0 .96875q0.328125-.515625.859375-.8125q0.546875-.3125 1.234375-.3125q0.78125 0 1.265625.3125q0.484375.3125.6875.890625q0.828125-1.203125 2.140625-1.203125q1.03125 0 1.578125.578125q0.5625.5625.5625 1.734375l0 4.75l-1.171875 0l0-4.359375q0-.703125-.125-1.0q-.109375-.3125-.40625-.5q-.296875-.1875-.703125-.1875q-.71875 0-1.203125.484375q-.484375.484375-.484375 1.546875l0 4.015625l-1.171875 0l0-4.484375q0-.78125-.296875-1.171875q-.28125-.390625-.921875-.390625q-.5 0-.921875.265625q-.421875.25-.609375.75q-.1875.5-.1875 1.453125l0 3.578125l-1.171875 0zm15.8368225-2.21875l1.203125.140625q-.28125 1.0625-1.0625 1.65625q-.765625.578125-1.96875.578125q-1.515625 0-2.40625-.9375q-.890625-.9375-.890625-2.609375q0-1.75.890625-2.703125q0.90625-.96875 2.34375-.96875q1.390625 0 2.265625.9375q0.875.9375.875 2.65625q0 .109375 0 .3125l-5.15625 0q0.0625 1.140625.640625 1.75q0.578125.59375 1.4375.59375q0.65625 0 1.109375-.328125q0.453125-.34375.71875-1.078125zm-3.84375-1.90625l3.859375 0q-.078125-.859375-.4375-1.296875q-.5625-.6875-1.453125-.6875q-.8125 0-1.359375.546875q-.546875.53125-.609375 1.4375z" fill-rule="nonzero"/><path fill="#fce5cd" d="m360 236.00008l0 0c0-2.2091827 1.7908936-4.0000763 4.0000916-4.0000763l135.99982 0c1.0609131 0 2.0783386.4214325 2.8284912 1.1716003c0.7501526.7501526 1.1716003 1.7675934 1.1716003 2.828476l0 15.999847c0 2.2091827-1.7908936 4.0000763-4.0000916 4.0000763l-135.99982 0c-2.209198 0-4.0000916-1.7908936-4.0000916-4.0000763z" fill-rule="evenodd"/><path stroke="#000" stroke-width="1" stroke-linejoin="round" stroke-linecap="butt" d="m360 236.00008l0 0c0-2.2091827 1.7908936-4.0000763 4.0000916-4.0000763l135.99982 0c1.0609131 0 2.0783386.4214325 2.8284912 1.1716003c0.7501526.7501526 1.1716003 1.7675934 1.1716003 2.828476l0 15.999847c0 2.2091827-1.7908936 4.0000763-4.0000916 4.0000763l-135.99982 0c-2.209198 0-4.0000916-1.7908936-4.0000916-4.0000763z" fill-rule="evenodd"/><path fill="#000" d="m377.59695 246.58125l1.203125.140625q-.28125 1.0625-1.0625 1.65625q-.765625.578125-1.96875.578125q-1.515625 0-2.40625-.9375q-.890625-.9375-.890625-2.609375q0-1.75.890625-2.703125q0.90625-.96875 2.34375-.96875q1.390625 0 2.265625.9375q0.875.9375.875 2.65625q0 .109375 0 .3125l-5.15625 0q0.0625 1.140625.640625 1.75q0.578125.59375 1.4375.59375q0.65625 0 1.109375-.328125q0.453125-.34375.71875-1.078125zm-3.84375-1.90625l3.859375 0q-.078125-.859375-.4375-1.296875q-.5625-.6875-1.453125-.6875q-.8125 0-1.359375.546875q-.546875.53125-.609375 1.4375zm5.7406006 4.125l2.53125-3.59375l-2.34375-3.3125l1.46875 0l1.0625 1.609375q0.296875.46875.484375.78125q0.28125-.4375.515625-.765625l1.171875-1.625l1.40625 0l-2.390625 3.25l2.5625 3.65625l-1.4375 0l-1.421875-2.140625l-.375-.59375l-1.8125 2.734375l-1.421875 0zm10.0078125-1.046875l0.171875 1.03125q-.5.109375-.890625.109375q-.640625 0-1-.203125q-.34375-.203125-.484375-.53125q-.140625-.328125-.140625-1.390625l0-3.96875l-.859375 0l0-.90625l0.859375 0l0-1.71875l1.171875-.703125l0 2.421875l1.171875 0l0 .90625l-1.171875 0l0 4.046875q0 .5.046875.640625q0.0625.140625.203125.234375q0.140625.078125.40625.078125q0.203125 0 .515625-.046875zm1.1248779 1.046875l0-6.90625l1.0625 0l0 1.046875q0.40625-.734375.734375-.96875q0.34375-.234375.765625-.234375q0.59375 0 1.203125.375l-.40625 1.078125q-.4375-.25-.859375-.25q-.390625 0-.703125.234375q-.296875.234375-.421875.640625q-.203125.625-.203125 1.359375l0 3.625l-1.171875 0zm8.9696045-.859375q-.65625.5625-1.265625.796875q-.59375.21875-1.28125.21875q-1.140625 0-1.75-.546875q-.609375-.5625-.609375-1.4375q0-.5.21875-.921875q0.234375-.421875.609375-.671875q0.375-.25.84375-.390625q0.34375-.078125 1.046875-.171875q1.421875-.171875 2.09375-.40625q0-.234375 0-.296875q0-.71875-.328125-1.015625q-.453125-.390625-1.34375-.390625q-.8125 0-1.21875.296875q-.390625.28125-.578125 1.015625l-1.140625-.15625q0.15625-.734375.515625-1.1875q0.359375-.453125 1.03125-.6875q0.671875-.25 1.5625-.25q0.890625 0 1.4375.203125q0.5625.203125.8125.53125q0.265625.3125.375.796875q0.046875.296875.046875 1.078125l0 1.5625q0 1.625.078125 2.0625q0.078125.4375.296875.828125l-1.21875 0q-.1875-.359375-.234375-.859375zm-.09375-2.609375q-.640625.265625-1.921875.4375q-.71875.109375-1.015625.25q-.296875.125-.46875.375q-.15625.25-.15625.546875q0 .46875.34375.78125q0.359375.3125 1.046875.3125q0.671875 0 1.203125-.296875q0.53125-.296875.78125-.8125q0.1875-.390625.1875-1.171875l0-.421875zm7.5062256.9375l1.15625.15625q-.1875 1.1875-.96875 1.859375q-.78125.671875-1.921875.671875q-1.40625 0-2.28125-.921875q-.859375-.9375-.859375-2.65625q0-1.125.375-1.96875q0.375-.84375 1.125-1.25q0.765625-.421875 1.65625-.421875q1.125 0 1.84375.578125q0.71875.5625.921875 1.609375l-1.140625.171875q-.171875-.703125-.59375-1.046875q-.40625-.359375-.984375-.359375q-.890625 0-1.453125.640625q-.546875.640625-.546875 2.0q0 1.40625.53125 2.03125q0.546875.625 1.40625.625q0.6875 0 1.140625-.421875q0.46875-.421875.59375-1.296875zm4.7109375 1.484375l0.171875 1.03125q-.5.109375-.890625.109375q-.640625 0-1-.203125q-.34375-.203125-.484375-.53125q-.140625-.328125-.140625-1.390625l0-3.96875l-.859375 0l0-.90625l0.859375 0l0-1.71875l1.171875-.703125l0 2.421875l1.171875 0l0 .90625l-1.171875 0l0 4.046875q0 .5.046875.640625q0.0625.140625.203125.234375q0.140625.078125.40625.078125q0.203125 0 .515625-.046875zm0.06237793 3.703125l0-.859375l7.765625 0l0 .859375l-7.765625 0zm8.271851-2.078125l1.140625.15625q0.078125.53125.40625.78125q0.4375.3125 1.1875.3125q0.8125 0 1.25-.328125q0.453125-.3125.609375-.90625q0.09375-.359375.078125-1.5q-.765625.90625-1.90625.90625q-1.4375 0-2.21875-1.03125q-.78125-1.03125-.78125-2.46875q0-.984375.359375-1.8125q0.359375-.84375 1.03125-1.296875q0.6875-.453125 1.609375-.453125q1.21875 0 2.015625.984375l0-.828125l1.078125 0l0 5.96875q0 1.609375-.328125 2.28125q-.328125.6875-1.046875 1.078125q-.703125.390625-1.75.390625q-1.234375 0-2-.5625q-.75-.5625-.734375-1.671875zm0.984375-4.15625q0 1.359375.53125 1.984375q0.546875.625 1.359375.625q0.796875 0 1.34375-.625q0.546875-.625.546875-1.953125q0-1.265625-.5625-1.90625q-.5625-.640625-1.359375-.640625q-.765625 0-1.3125.640625q-.546875.625-.546875 1.875zm6.6624756-4.609375l0-1.359375l1.171875 0l0 1.359375l-1.171875 0zm0 8.1875l0-6.90625l1.171875 0l0 6.90625l-1.171875 0zm4.86734 0l-2.625-6.90625l1.234375 0l1.484375 4.140625q0.234375.65625.4375 1.390625q0.15625-.546875.4375-1.3125l1.53125-4.21875l1.21875 0l-2.625 6.90625l-1.09375 0zm9.4765625-2.21875l1.203125.140625q-.28125 1.0625-1.0625 1.65625q-.765625.578125-1.96875.578125q-1.515625 0-2.40625-.9375q-.890625-.9375-.890625-2.609375q0-1.75.890625-2.703125q0.90625-.96875 2.34375-.96875q1.390625 0 2.265625.9375q0.875.9375.875 2.65625q0 .109375 0 .3125l-5.15625 0q0.0625 1.140625.640625 1.75q0.578125.59375 1.4375.59375q0.65625 0 1.109375-.328125q0.453125-.34375.71875-1.078125zm-3.84375-1.90625l3.859375 0q-.078125-.859375-.4375-1.296875q-.5625-.6875-1.453125-.6875q-.8125 0-1.359375.546875q-.546875.53125-.609375 1.4375zm6.5218506 4.125l0-6.90625l1.0625 0l0 .984375q0.75-1.140625 2.1875-1.140625q0.625 0 1.15625.21875q0.53125.21875.78125.59375q0.265625.359375.375.859375q0.0625.328125.0625 1.140625l0 4.25l-1.171875 0l0-4.203125q0-.71875-.140625-1.0625q-.140625-.359375-.484375-.5625q-.34375-.21875-.8125-.21875q-.75 0-1.296875.46875q-.546875.46875-.546875 1.796875l0 3.78125l-1.171875 0zm6.3343506 2.65625l0-.859375l7.765625 0l0 .859375l-7.765625 0zm8.490601-2.65625l0-6.90625l1.0625 0l0 .984375q0.75-1.140625 2.1875-1.140625q0.625 0 1.15625.21875q0.53125.21875.78125.59375q0.265625.359375.375.859375q0.0625.328125.0625 1.140625l0 4.25l-1.171875 0l0-4.203125q0-.71875-.140625-1.0625q-.140625-.359375-.484375-.5625q-.34375-.21875-.8125-.21875q-.75 0-1.296875.46875q-.546875.46875-.546875 1.796875l0 3.78125l-1.171875 0zm11.928101-.859375q-.65625.5625-1.265625.796875q-.59375.21875-1.28125.21875q-1.140625 0-1.75-.546875q-.609375-.5625-.609375-1.4375q0-.5.21875-.921875q0.234375-.421875.609375-.671875q0.375-.25.84375-.390625q0.34375-.078125 1.046875-.171875q1.421875-.171875 2.09375-.40625q0-.234375 0-.296875q0-.71875-.328125-1.015625q-.453125-.390625-1.34375-.390625q-.8125 0-1.21875.296875q-.390625.28125-.578125 1.015625l-1.140625-.15625q0.15625-.734375.515625-1.1875q0.359375-.453125 1.03125-.6875q0.671875-.25 1.5625-.25q0.890625 0 1.4375.203125q0.5625.203125.8125.53125q0.265625.3125.375.796875q0.046875.296875.046875 1.078125l0 1.5625q0 1.625.078125 2.0625q0.078125.4375.296875.828125l-1.21875 0q-.1875-.359375-.234375-.859375zm-.09375-2.609375q-.640625.265625-1.921875.4375q-.71875.109375-1.015625.25q-.296875.125-.46875.375q-.15625.25-.15625.546875q0 .46875.34375.78125q0.359375.3125 1.046875.3125q0.671875 0 1.203125-.296875q0.53125-.296875.78125-.8125q0.1875-.390625.1875-1.171875l0-.421875zm2.9906006 3.46875l0-6.90625l1.046875 0l0 .96875q0.328125-.515625.859375-.8125q0.546875-.3125 1.234375-.3125q0.78125 0 1.265625.3125q0.484375.3125.6875.890625q0.828125-1.203125 2.140625-1.203125q1.03125 0 1.578125.578125q0.5625.5625.5625 1.734375l0 4.75l-1.171875 0l0-4.359375q0-.703125-.125-1.0q-.109375-.3125-.40625-.5q-.296875-.1875-.703125-.1875q-.71875 0-1.203125.484375q-.484375.484375-.484375 1.546875l0 4.015625l-1.171875 0l0-4.484375q0-.78125-.296875-1.171875q-.28125-.390625-.921875-.390625q-.5 0-.921875.265625q-.421875.25-.609375.75q-.1875.5-.1875 1.453125l0 3.578125l-1.171875 0zm15.836792-2.21875l1.203125.140625q-.28125 1.0625-1.0625 1.65625q-.765625.578125-1.96875.578125q-1.515625 0-2.40625-.9375q-.890625-.9375-.890625-2.609375q0-1.75.890625-2.703125q0.90625-.96875 2.34375-.96875q1.390625 0 2.265625.9375q0.875.9375.875 2.65625q0 .109375 0 .3125l-5.15625 0q0.0625 1.140625.640625 1.75q0.578125.59375 1.4375.59375q0.65625 0 1.109375-.328125q0.453125-.34375.71875-1.078125zm-3.84375-1.90625l3.859375 0q-.078125-.859375-.4375-1.296875q-.5625-.6875-1.453125-.6875q-.8125 0-1.359375.546875q-.546875.53125-.609375 1.4375z" fill-rule="nonzero"/><path fill="#000" fill-opacity="0" d="m112 60.0c64 0 128 86 128 172" fill-rule="evenodd"/><path stroke="#000" stroke-width="1" stroke-linejoin="round" stroke-linecap="butt" d="m112 60.0c32 0 64 21.5 88 53.75c12 16.125 22 34.9375 29 55.09375c3.5 10.078125 6.25 20.492188 8.125 31.074234c0.9375 5.2910004 1.65625 10.624008 2.140625 15.978012c0.2421875 2.677002.425766 5.359253.5488281 8.044128c0.03074646.6712189.057739258 1.3426056.0809021 2.0141144l0.0014801025.04664612" fill-rule="evenodd"/><path fill="#000" stroke="#000" stroke-width="1" stroke-linecap="butt" d="m238.24535 226.02928l1.7295227 4.509033l1.5734558-4.5658264z" fill-rule="evenodd"/><path fill="#000" fill-opacity="0" d="m328 236.0c8.000214 0 8.000366-6.899994 16.000397-14.5c8.0000305-7.600006 23.999908-15.899994 43.999817-14.5c19.999878 1.3999939 43.999786 12.5 43.999786 25" fill-rule="evenodd"/><path stroke="#000" stroke-width="1" stroke-linejoin="round" stroke-linecap="butt" d="m328 236.0c8.000214 0 8.000366-6.899994 16.000397-14.5c8-7.600006 23.999878-15.899994 43.999817-14.5c9.999939.7000122 20.999878 3.8250122 29.499817 8.337494c4.25 2.256256 7.875 4.859375 10.4374695 7.6796875c0.640625.7050781 1.2148438 1.4237366 1.7158508 2.1539307c0.12524414.18255615.24588013.3658142.36187744.5497894c0.0579834.09199524.11480713.18414307.17044067.27645874l0.14160156.24052429" fill-rule="evenodd"/><path fill="#000" stroke="#000" stroke-width="1" stroke-linecap="butt" d="m428.74103 226.69838l2.85141 3.8976746l0.32107544-4.8186493z" fill-rule="evenodd"/><path fill="#000" fill-opacity="0" d="m432 256.0c0 12.5-23.999908 23.600006-43.999786 25.0c-19.999908 1.3999939-35.999786-6.899994-43.999817-14.5c-8.0000305-7.600006-8.000183-14.5-16.000397-14.5" fill-rule="evenodd"/><path stroke="#000" stroke-width="1" stroke-linejoin="round" stroke-linecap="butt" stroke-dasharray="4,3" d="m432 256.0c0 12.5-23.999908 23.600006-43.999786 25.0c-19.999939 1.3999939-35.999817-6.899994-43.999817-14.5c-4-3.7999878-6.000061-7.424988-8.000122-10.100006c-.5000305-.6687317-1.000061-1.2781067-1.531311-1.8160095c-.1328125-.13447571-.26760864-.26446533-.40481567-.38981628c-.068603516-.062683105-.13781738-.124191284-.20770264-.18450928l-.15774536-.13215637" fill-rule="evenodd"/><path fill="#000" stroke="#000" stroke-width="1" stroke-linecap="butt" d="m334.21555 252.3087l-4.827057.14875793l3.793335 2.9888153z" fill-rule="evenodd"/><path fill="#000" fill-opacity="0" d="m176 0l120 0l0 35.559055l-120 0z" fill-rule="evenodd"/><path fill="#000" d="m188.125 21.8l0-7.921875l-2.84375 0l0-1.625l7.59375 0l0 1.625l-2.828125 0l0 7.921875l-1.921875 0zm8.979904-2.203125l1.828125.3125q-.34375 1-1.109375 1.53125q-.765625.515625-1.890625.515625q-1.8125 0-2.671875-1.171875q-.6875-.953125-.6875-2.390625q0-1.71875.890625-2.6875q0.90625-.96875 2.28125-.96875q1.546875 0 2.4375 1.015625q0.890625 1.015625.84375 3.125l-4.578125 0q0.015625.8125.4375 1.265625q0.421875.453125 1.0625.453125q0.421875 0 .71875-.234375q0.296875-.234375.4375-.765625zm0.109375-1.84375q-.015625-.796875-.40625-1.203125q-.390625-.421875-.953125-.421875q-.59375 0-.984375.4375q-.390625.4375-.390625 1.1875l2.734375 0zm2.6624756 2.078125l1.828125-.28125q0.125.53125.484375.8125q0.359375.265625 1 .265625q0.703125 0 1.0625-.25q0.25-.1875.25-.484375q0-.21875-.140625-.359375q-.125-.125-.609375-.234375q-2.203125-.484375-2.796875-.890625q-.828125-.5625-.828125-1.5625q0-.890625.703125-1.5q0.71875-.609375 2.203125-.609375q1.421875 0 2.109375.46875q0.703125.453125.953125 1.359375l-1.71875.3125q-.109375-.40625-.421875-.609375q-.3125-.21875-.890625-.21875q-.71875 0-1.03125.203125q-.203125.140625-.203125.359375q0 .203125.1875.34375q0.234375.171875 1.6875.515625q1.46875.328125 2.0625.8125q0.5625.484375.5625 1.359375q0 .953125-.796875 1.640625q-.78125.671875-2.34375.671875q-1.40625 0-2.234375-.5625q-.828125-.578125-1.078125-1.5625zm11.224976-4.9375l0 1.453125l-1.25 0l0 2.78125q0 .84375.03125.984375q0.046875.140625.171875.234375q0.125.09375.3125.09375q0.25 0 .734375-.171875l0.15625 1.421875q-.640625.265625-1.453125.265625q-.484375 0-.890625-.15625q-.390625-.171875-.578125-.4375q-.1875-.265625-.265625-.71875q-.046875-.3125-.046875-1.28125l0-3.015625l-.84375 0l0-1.453125l0.84375 0l0-1.375l1.828125-1.078125l0 2.453125l1.25 0zm5.0007324 6.90625l0-9.546875l6.53125 0l0 1.625l-4.609375 0l0 2.25l3.984375 0l0 1.625l-3.984375 0l0 4.046875l-1.921875 0zm12.656982 0l0-1.03125q-.375.546875-1 .875q-.609375.3125-1.28125.3125q-.703125 0-1.265625-.296875q-.546875-.3125-.796875-.859375q-.234375-.5625-.234375-1.53125l0-4.375l1.828125 0l0 3.171875q0 1.453125.09375 1.78125q0.109375.328125.375.53125q0.265625.1875.671875.1875q0.46875 0 .84375-.25q0.375-.265625.5-.640625q0.140625-.390625.140625-1.875l0-2.90625l1.828125 0l0 6.90625l-1.703125 0zm9.891357 0l-1.828125 0l0-3.53125q0-1.109375-.125-1.4375q-.109375-.328125-.375-.515625q-.265625-.1875-.640625-.1875q-.46875 0-.859375.265625q-.375.265625-.515625.703125q-.140625.421875-.140625 1.578125l0 3.125l-1.828125 0l0-6.90625l1.703125 0l0 1.015625q0.90625-1.171875 2.28125-1.171875q0.609375 0 1.109375.21875q0.5.21875.75.5625q0.265625.328125.359375.765625q0.109375.421875.109375 1.21875l0 4.296875zm7.8757324-4.875l-1.796875.328125q-.09375-.53125-.421875-.796875q-.328125-.28125-.828125-.28125q-.6875 0-1.09375.46875q-.40625.46875-.40625 1.578125q0 1.234375.40625 1.75q0.421875.5 1.109375.5q0.53125 0 .859375-.296875q0.328125-.296875.46875-1.03125l1.796875.3125q-.28125 1.234375-1.078125 1.875q-.796875.625-2.125.625q-1.515625 0-2.421875-.953125q-.90625-.953125-.90625-2.65625q0-1.703125.90625-2.65625q0.90625-.953125 2.453125-.953125q1.265625 0 2 .546875q0.75.53125 1.078125 1.640625zm4.5531006-2.03125l0 1.453125l-1.25 0l0 2.78125q0 .84375.03125.984375q0.046875.140625.171875.234375q0.125.09375.3125.09375q0.25 0 .734375-.171875l0.15625 1.421875q-.640625.265625-1.453125.265625q-.484375 0-.890625-.15625q-.390625-.171875-.578125-.4375q-.1875-.265625-.265625-.71875q-.046875-.3125-.046875-1.28125l0-3.015625l-.84375 0l0-1.453125l0.84375 0l0-1.375l1.828125-1.078125l0 2.453125l1.25 0zm1.2664948-.9375l0-1.703125l1.828125 0l0 1.703125l-1.828125 0zm0 7.84375l0-6.90625l1.828125 0l0 6.90625l-1.828125 0zm3.2811127-3.546875q0-.921875.45314026-1.765625q0.453125-.859375 1.265625-1.296875q0.828125-.453125 1.84375-.453125q1.5625 0 2.5625 1.015625q1.015625 1.015625 1.015625 2.578125q0 1.5625-1.015625 2.59375q-1.015625 1.03125-2.546875 1.03125q-.953125 0-1.8125-.421875q-.859375-.4375-1.3125-1.265625q-.45314026-.828125-.45314026-2.015625zm1.8750153.09375q0 1.03125.484375 1.578125q0.5.546875 1.203125.546875q0.71875 0 1.203125-.546875q0.484375-.546875.484375-1.59375q0-1.015625-.484375-1.5625q-.484375-.546875-1.203125-.546875q-.703125 0-1.203125.546875q-.484375.546875-.484375 1.578125zm12.985107 3.453125l-1.828125 0l0-3.53125q0-1.109375-.125-1.4375q-.109375-.328125-.375-.515625q-.265625-.1875-.640625-.1875q-.46875 0-.859375.265625q-.375.265625-.515625.703125q-.140625.421875-.140625 1.578125l0 3.125l-1.828125 0l0-6.90625l1.703125 0l0 1.015625q0.90625-1.171875 2.28125-1.171875q0.609375 0 1.109375.21875q0.5.21875.75.5625q0.265625.328125.359375.765625q0.109375.421875.109375 1.21875l0 4.296875zm1.2038574-1.96875l1.828125-.28125q0.125.53125.484375.8125q0.359375.265625 1 .265625q0.703125 0 1.0625-.25q0.25-.1875.25-.484375q0-.21875-.140625-.359375q-.125-.125-.609375-.234375q-2.203125-.484375-2.796875-.890625q-.828125-.5625-.828125-1.5625q0-.890625.703125-1.5q0.71875-.609375 2.203125-.609375q1.421875 0 2.109375.46875q0.703125.453125.953125 1.359375l-1.71875.3125q-.109375-.40625-.421875-.609375q-.3125-.21875-.890625-.21875q-.71875 0-1.03125.203125q-.203125.140625-.203125.359375q0 .203125.1875.34375q0.234375.171875 1.6875.515625q1.46875.328125 2.0625.8125q0.5625.484375.5625 1.359375q0 .953125-.796875 1.640625q-.78125.671875-2.34375.671875q-1.40625 0-2.234375-.5625q-.828125-.578125-1.078125-1.5625z" fill-rule="nonzero"/><path fill="#000" fill-opacity="0" d="m360 0l144 0l0 35.559055l-144 0z" fill-rule="evenodd"/><path fill="#000" d="m369.96875 21.8l0-9.546875l3.09375 0q1.75 0 2.296875.15625q0.8125.203125 1.359375.921875q0.5625.71875.5625 1.859375q0 .875-.328125 1.484375q-.3125.59375-.8125.9375q-.484375.34375-.984375.453125q-.703125.140625-2 .140625l-1.265625 0l0 3.59375l-1.921875 0zm1.921875-7.921875l0 2.703125l1.0625 0q1.140625 0 1.515625-.140625q0.390625-.15625.609375-.46875q0.21875-.328125.21875-.75q0-.515625-.3125-.859375q-.296875-.34375-.765625-.421875q-.34375-.0625-1.390625-.0625l-.9375 0zm8.7022705 7.921875l-1.828125 0l0-6.90625l1.703125 0l0 .984375q0.4375-.703125.78125-.921875q0.34375-.21875.796875-.21875q0.625 0 1.203125.34375l-.5625 1.59375q-.46875-.296875-.859375-.296875q-.390625 0-.65625.21875q-.265625.203125-.421875.765625q-.15625.546875-.15625 2.296875l0 2.140625zm3.0148926-3.546875q0-.921875.453125-1.765625q0.453125-.859375 1.265625-1.296875q0.828125-.453125 1.84375-.453125q1.5625 0 2.5625 1.015625q1.015625 1.015625 1.015625 2.578125q0 1.5625-1.015625 2.59375q-1.015625 1.03125-2.546875 1.03125q-.953125 0-1.8125-.421875q-.859375-.4375-1.3125-1.265625q-.453125-.828125-.453125-2.015625zm1.875.09375q0 1.03125.484375 1.578125q0.5.546875 1.203125.546875q0.71875 0 1.203125-.546875q0.484375-.546875.484375-1.59375q0-1.015625-.484375-1.5625q-.484375-.546875-1.203125-.546875q-.703125 0-1.203125.546875q-.484375.546875-.484375 1.578125zm6.5163574 3.90625l2.09375.25q0.046875.375.25.5q0.25.203125.8125.203125q0.71875 0 1.078125-.21875q0.234375-.140625.359375-.453125q0.078125-.234375.078125-.84375l0-1.015625q-.8125 1.125-2.0625 1.125q-1.390625 0-2.203125-1.171875q-.640625-.9375-.640625-2.328125q0-1.734375.828125-2.640625q0.84375-.921875 2.09375-.921875q1.28125 0 2.109375 1.125l0-.96875l1.703125 0l0 6.203125q0 1.21875-.203125 1.8125q-.1875.609375-.5625.953125q-.359375.359375-.96875.546875q-.609375.203125-1.53125.203125q-1.765625 0-2.5-.609375q-.734375-.609375-.734375-1.53125q0-.09375 0-.21875zm1.640625-4.046875q0 1.09375.421875 1.609375q0.4375.5 1.046875.5q0.671875 0 1.140625-.515625q0.46875-.53125.46875-1.546875q0-1.078125-.453125-1.59375q-.4375-.53125-1.109375-.53125q-.65625 0-1.09375.515625q-.421875.515625-.421875 1.5625zm8.422607 3.59375l-1.828125 0l0-6.90625l1.703125 0l0 .984375q0.4375-.703125.78125-.921875q0.34375-.21875.796875-.21875q0.625 0 1.203125.34375l-.5625 1.59375q-.46875-.296875-.859375-.296875q-.390625 0-.65625.21875q-.265625.203125-.421875.765625q-.15625.546875-.15625 2.296875l0 2.140625zm4.8117676-4.796875l-1.671875-.3125q0.28125-1 .96875-1.46875q0.6875-.484375 2.03125-.484375q1.21875 0 1.8125.296875q0.609375.28125.84375.734375q0.25.4375.25 1.625l-.015625 2.140625q0 .90625.078125 1.34375q0.09375.421875.34375.921875l-1.8125 0q-.078125-.1875-.171875-.546875q-.046875-.15625-.078125-.203125q-.46875.453125-1 .6875q-.53125.21875-1.140625.21875q-1.0625 0-1.6875-.578125q-.609375-.578125-.609375-1.46875q0-.578125.28125-1.03125q0.28125-.46875.78125-.703125q0.515625-.25 1.46875-.4375q1.28125-.234375 1.765625-.453125l0-.171875q0-.53125-.265625-.75q-.25-.234375-.96875-.234375q-.484375 0-.765625.203125q-.265625.1875-.4375.671875zm2.4375 1.484375q-.34375.109375-1.109375.28125q-.765625.15625-1 .3125q-.359375.25-.359375.640625q0 .390625.28125.671875q0.296875.28125.734375.28125q0.5 0 .953125-.328125q0.328125-.25.4375-.609375q0.0625-.234375.0625-.890625l0-.359375zm3.4593506-3.59375l1.6875 0l0 .9375q0.90625-1.09375 2.15625-1.09375q0.671875 0 1.15625.28125q0.484375.265625.796875.8125q0.453125-.546875.984375-.8125q0.53125-.28125 1.125-.28125q0.765625 0 1.28125.3125q0.53125.296875.796875.90625q0.1875.4375.1875 1.421875l0 4.421875l-1.828125 0l0-3.953125q0-1.03125-.1875-1.328125q-.25-.390625-.78125-.390625q-.390625 0-.734375.234375q-.328125.234375-.484375.6875q-.140625.453125-.140625 1.4375l0 3.3125l-1.828125 0l0-3.78125q0-1.015625-.109375-1.296875q-.09375-.296875-.296875-.4375q-.203125-.15625-.546875-.15625q-.421875 0-.765625.234375q-.34375.21875-.484375.65625q-.140625.421875-.140625 1.421875l0 3.359375l-1.84375 0l0-6.90625zm15.725708 6.90625l0-9.546875l6.53125 0l0 1.625l-4.609375 0l0 2.25l3.984375 0l0 1.625l-3.984375 0l0 4.046875l-1.921875 0zm12.656982 0l0-1.03125q-.375.546875-1 .875q-.609375.3125-1.28125.3125q-.703125 0-1.265625-.296875q-.546875-.3125-.796875-.859375q-.234375-.5625-.234375-1.53125l0-4.375l1.828125 0l0 3.171875q0 1.453125.09375 1.78125q0.109375.328125.375.53125q0.265625.1875.671875.1875q0.46875 0 .84375-.25q0.375-.265625.5-.640625q0.140625-.390625.140625-1.875l0-2.90625l1.828125 0l0 6.90625l-1.703125 0zm9.891357 0l-1.828125 0l0-3.53125q0-1.109375-.125-1.4375q-.109375-.328125-.375-.515625q-.265625-.1875-.640625-.1875q-.46875 0-.859375.265625q-.375.265625-.515625.703125q-.140625.421875-.140625 1.578125l0 3.125l-1.828125 0l0-6.90625l1.703125 0l0 1.015625q0.90625-1.171875 2.28125-1.171875q0.609375 0 1.109375.21875q0.5.21875.75.5625q0.265625.328125.359375.765625q0.109375.421875.109375 1.21875l0 4.296875zm7.8757324-4.875l-1.796875.328125q-.09375-.53125-.421875-.796875q-.328125-.28125-.828125-.28125q-.6875 0-1.09375.46875q-.40625.46875-.40625 1.578125q0 1.234375.40625 1.75q0.421875.5 1.109375.5q0.53125 0 .859375-.296875q0.328125-.296875.46875-1.03125l1.796875.3125q-.28125 1.234375-1.078125 1.875q-.796875.625-2.125.625q-1.515625 0-2.421875-.953125q-.90625-.953125-.90625-2.65625q0-1.703125.90625-2.65625q0.90625-.953125 2.453125-.953125q1.265625 0 2 .546875q0.75.53125 1.078125 1.640625zm4.5531006-2.03125l0 1.453125l-1.25 0l0 2.78125q0 .84375.03125.984375q0.046875.140625.171875.234375q0.125.09375.3125.09375q0.25 0 .734375-.171875l0.15625 1.421875q-.640625.265625-1.453125.265625q-.484375 0-.890625-.15625q-.390625-.171875-.578125-.4375q-.1875-.265625-.265625-.71875q-.046875-.3125-.046875-1.28125l0-3.015625l-.84375 0l0-1.453125l0.84375 0l0-1.375l1.828125-1.078125l0 2.453125l1.25 0zm1.26651-.9375l0-1.703125l1.828125 0l0 1.703125l-1.828125 0zm0 7.84375l0-6.90625l1.828125 0l0 6.90625l-1.828125 0zm3.2810974-3.546875q0-.921875.453125-1.765625q0.453125-.859375 1.265625-1.296875q0.828125-.453125 1.84375-.453125q1.5625 0 2.5625 1.015625q1.015625 1.015625 1.015625 2.578125q0 1.5625-1.015625 2.59375q-1.015625 1.03125-2.546875 1.03125q-.953125 0-1.8125-.421875q-.859375-.4375-1.3125-1.265625q-.453125-.828125-.453125-2.015625zm1.875.09375q0 1.03125.484375 1.578125q0.5.546875 1.203125.546875q0.71875 0 1.203125-.546875q0.484375-.546875.484375-1.59375q0-1.015625-.484375-1.5625q-.484375-.546875-1.203125-.546875q-.703125 0-1.203125.546875q-.484375.546875-.484375 1.578125zm12.985107 3.453125l-1.828125 0l0-3.53125q0-1.109375-.125-1.4375q-.109375-.328125-.375-.515625q-.265625-.1875-.640625-.1875q-.46875 0-.859375.265625q-.375.265625-.515625.703125q-.140625.421875-.140625 1.578125l0 3.125l-1.828125 0l0-6.90625l1.703125 0l0 1.015625q0.90625-1.171875 2.28125-1.171875q0.609375 0 1.109375.21875q0.5.21875.75.5625q0.265625.328125.359375.765625q0.109375.421875.109375 1.21875l0 4.296875zm1.2038574-1.96875l1.828125-.28125q0.125.53125.484375.8125q0.359375.265625 1 .265625q0.703125 0 1.0625-.25q0.25-.1875.25-.484375q0-.21875-.140625-.359375q-.125-.125-.609375-.234375q-2.203125-.484375-2.796875-.890625q-.828125-.5625-.828125-1.5625q0-.890625.703125-1.5q0.71875-.609375 2.203125-.609375q1.421875 0 2.109375.46875q0.703125.453125.953125 1.359375l-1.71875.3125q-.109375-.40625-.421875-.609375q-.3125-.21875-.890625-.21875q-.71875 0-1.03125.203125q-.203125.140625-.203125.359375q0 .203125.1875.34375q0.234375.171875 1.6875.515625q1.46875.328125 2.0625.8125q0.5625.484375.5625 1.359375q0 .953125-.796875 1.640625q-.78125.671875-2.34375.671875q-1.40625 0-2.234375-.5625q-.828125-.578125-1.078125-1.5625z" fill-rule="nonzero"/></g></svg>
