<svg version="1.1" viewBox="0.0 0.0 426.3910761154856 202.16535433070865" fill="none" stroke="none" stroke-linecap="square" stroke-miterlimit="10" xmlns:xlink="http://www.w3.org/1999/xlink" xmlns="http://www.w3.org/2000/svg"><clipPath id="p.0"><path d="m0 0l426.39108 0l0 202.16536l-426.39108 0l0 -202.16536z" clip-rule="nonzero"/></clipPath><g clip-path="url(#p.0)"><path fill="#ffffff" d="m0 0l426.39108 0l0 202.16536l-426.39108 0z" fill-rule="evenodd"/><path fill="#000000" fill-opacity="0.0" d="m16.0 52.00008l0 0c0 -2.2091827 1.7908974 -4.00008 4.00008 -4.00008l87.99985 0c1.0608826 0 2.0783157 0.4214363 2.8284836 1.1715965c0.7501602 0.7501602 1.1715927 1.7675972 1.1715927 2.8284836l0 15.999844c0 2.2091827 -1.7908936 4.0000763 -4.0000763 4.0000763l-87.99985 0c-2.2091827 0 -4.00008 -1.7908936 -4.00008 -4.0000763z" fill-rule="evenodd"/><path fill="#000000" fill-opacity="0.0" d="m16.0 68.00008l0 0c0 -2.2091827 1.7908974 -4.0000763 4.00008 -4.0000763l87.99985 0c1.0608826 0 2.0783157 0.4214325 2.8284836 1.1715927c0.7501602 0.75016785 1.1715927 1.767601 1.1715927 2.8284836l0 15.999847c0 2.2091827 -1.7908936 4.0000763 -4.0000763 4.0000763l-87.99985 0c-2.2091827 0 -4.00008 -1.7908936 -4.00008 -4.0000763z" fill-rule="evenodd"/><path fill="#cfe2f3" d="m16.0 60.00008l0 0c0 -2.2091827 1.7908974 -4.00008 4.00008 -4.00008l87.99985 0c1.0608826 0 2.0783157 0.4214363 2.8284836 1.1715965c0.7501602 0.7501602 1.1715927 1.7675972 1.1715927 2.8284836l0 15.999844c0 2.2091827 -1.7908936 4.0000763 -4.0000763 4.0000763l-87.99985 0c-2.2091827 0 -4.00008 -1.7908936 -4.00008 -4.0000763z" fill-rule="evenodd"/><path stroke="#000000" stroke-width="1.0" stroke-linejoin="round" stroke-linecap="butt" d="m16.0 60.00008l0 0c0 -2.2091827 1.7908974 -4.00008 4.00008 -4.00008l87.99985 0c1.0608826 0 2.0783157 0.4214363 2.8284836 1.1715965c0.7501602 0.7501602 1.1715927 1.7675972 1.1715927 2.8284836l0 15.999844c0 2.2091827 -1.7908936 4.0000763 -4.0000763 4.0000763l-87.99985 0c-2.2091827 0 -4.00008 -1.7908936 -4.00008 -4.0000763z" fill-rule="evenodd"/><path fill="#000000" d="m30.799742 75.45625l0 -9.5625l1.078125 0l0 0.890625q0.3750019 -0.53125 0.8437519 -0.78125q0.484375 -0.265625 1.15625 -0.265625q0.875 0 1.546875 0.453125q0.6875 0.453125 1.03125 1.28125q0.34375 0.828125 0.34375 1.828125q0 1.046875 -0.375 1.90625q-0.375 0.84375 -1.109375 1.296875q-0.71875 0.453125 -1.53125 0.453125q-0.578125 0 -1.046875 -0.25q-0.46875 -0.25 -0.7656269 -0.625l0 3.375l-1.171875 0zm1.0625 -6.078125q0 1.34375 0.5312519 1.984375q0.546875 0.625 1.3125 0.625q0.78125 0 1.34375 -0.65625q0.5625 -0.65625 0.5625 -2.046875q0 -1.3125 -0.546875 -1.96875q-0.546875 -0.671875 -1.296875 -0.671875q-0.75 0 -1.328125 0.703125q-0.5781269 0.703125 -0.5781269 2.03125zm6.3031025 6.078125l-0.125 -1.09375q0.375 0.109375 0.65625 0.109375q0.390625 0 0.625 -0.140625q0.234375 -0.125 0.390625 -0.359375q0.109375 -0.171875 0.359375 -0.875q0.03125 -0.09375 0.109375 -0.28125l-2.625 -6.921875l1.265625 0l1.4375 4.0q0.28125 0.765625 0.5 1.59375q0.203125 -0.796875 0.46875 -1.578125l1.484375 -4.015625l1.171875 0l-2.625 7.015625q-0.421875 1.140625 -0.65625 1.578125q-0.3125 0.578125 -0.71875 0.84375q-0.40625 0.28125 -0.96875 0.28125q-0.328125 0 -0.75 -0.15625zm9.2734375 -3.703125l0.171875 1.03125q-0.5 0.109375 -0.890625 0.109375q-0.640625 0 -1.0 -0.203125q-0.34375 -0.203125 -0.484375 -0.53125q-0.140625 -0.328125 -0.140625 -1.390625l0 -3.96875l-0.859375 0l0 -0.90625l0.859375 0l0 -1.71875l1.171875 -0.7031288l0 2.4218788l1.171875 0l0 0.90625l-1.171875 0l0 4.046875q0 0.5 0.046875 0.640625q0.0625 0.140625 0.203125 0.234375q0.140625 0.078125 0.40625 0.078125q0.203125 0 0.515625 -0.046875zm5.8748627 -1.171875l1.203125 0.140625q-0.28125 1.0625 -1.0625 1.65625q-0.765625 0.578125 -1.96875 0.578125q-1.515625 0 -2.40625 -0.9375q-0.890625 -0.9375 -0.890625 -2.609375q0 -1.75 0.890625 -2.703125q0.90625 -0.96875 2.34375 -0.96875q1.390625 0 2.265625 0.9375q0.875 0.9375 0.875 2.65625q0 0.109375 0 0.3125l-5.15625 0q0.0625 1.140625 0.640625 1.75q0.578125 0.59375 1.4375 0.59375q0.65625 0 1.109375 -0.328125q0.453125 -0.34375 0.71875 -1.078125zm-3.84375 -1.90625l3.859375 0q-0.078125 -0.859375 -0.4375 -1.296875q-0.5625 -0.6875 -1.453125 -0.6875q-0.8125 0 -1.359375 0.546875q-0.546875 0.53125 -0.609375 1.4375zm6.0531006 2.0625l1.15625 -0.1875q0.109375 0.703125 0.546875 1.078125q0.453125 0.359375 1.25 0.359375q0.8125 0 1.203125 -0.328125q0.390625 -0.328125 0.390625 -0.765625q0 -0.390625 -0.359375 -0.625q-0.234375 -0.15625 -1.1875 -0.390625q-1.296875 -0.328125 -1.796875 -0.5625q-0.484375 -0.25 -0.75 -0.65625q-0.25 -0.421875 -0.25 -0.9375q0 -0.453125 0.203125 -0.84375q0.21875 -0.40625 0.578125 -0.671875q0.28125 -0.1875 0.75 -0.328125q0.46875 -0.140625 1.015625 -0.140625q0.8125 0 1.421875 0.234375q0.609375 0.234375 0.90625 0.640625q0.296875 0.390625 0.40625 1.0625l-1.140625 0.15625q-0.078125 -0.53125 -0.453125 -0.828125q-0.375 -0.3125 -1.0625 -0.3125q-0.8125 0 -1.15625 0.265625q-0.34375 0.265625 -0.34375 0.625q0 0.234375 0.140625 0.421875q0.15625 0.1875 0.453125 0.3125q0.171875 0.0625 1.03125 0.296875q1.25 0.328125 1.734375 0.546875q0.5 0.203125 0.78125 0.609375q0.28125 0.40625 0.28125 1.0q0 0.59375 -0.34375 1.109375q-0.34375 0.515625 -1.0 0.796875q-0.640625 0.28125 -1.453125 0.28125q-1.34375 0 -2.046875 -0.5625q-0.703125 -0.5625 -0.90625 -1.65625zm9.6953125 1.015625l0.171875 1.03125q-0.5 0.109375 -0.890625 0.109375q-0.640625 0 -1.0 -0.203125q-0.34375 -0.203125 -0.484375 -0.53125q-0.140625 -0.328125 -0.140625 -1.390625l0 -3.96875l-0.859375 0l0 -0.90625l0.859375 0l0 -1.71875l1.171875 -0.7031288l0 2.4218788l1.171875 0l0 0.90625l-1.171875 0l0 4.046875q0 0.5 0.046875 0.640625q0.0625 0.140625 0.203125 0.234375q0.140625 0.078125 0.40625 0.078125q0.203125 0 0.515625 -0.046875zm1.4686127 1.046875l0 -1.328125l1.34375 0l0 1.328125l-1.34375 0zm3.3748627 0l0 -6.90625l1.046875 0l0 0.96875q0.328125 -0.515625 0.859375 -0.8125q0.546875 -0.3125 1.234375 -0.3125q0.78125 0 1.265625 0.3125q0.484375 0.3125 0.6875 0.890625q0.828125 -1.203125 2.140625 -1.203125q1.03125 0 1.578125 0.578125q0.5625 0.5625 0.5625 1.734375l0 4.75l-1.171875 0l0 -4.359375q0 -0.703125 -0.125 -1.0q-0.109375 -0.3125 -0.40625 -0.5q-0.296875 -0.1875 -0.703125 -0.1875q-0.71875 0 -1.203125 0.484375q-0.484375 0.484375 -0.484375 1.546875l0 4.015625l-1.171875 0l0 -4.484375q0 -0.78125 -0.296875 -1.171875q-0.28125 -0.390625 -0.921875 -0.390625q-0.5 0 -0.921875 0.265625q-0.421875 0.25 -0.609375 0.75q-0.1875 0.5 -0.1875 1.453125l0 3.578125l-1.171875 0zm15.618057 -0.859375q-0.65625 0.5625 -1.265625 0.796875q-0.59375 0.21875 -1.28125 0.21875q-1.140625 0 -1.75 -0.546875q-0.609375 -0.5625 -0.609375 -1.4375q0 -0.5 0.21875 -0.921875q0.234375 -0.421875 0.609375 -0.671875q0.375 -0.25 0.84375 -0.390625q0.34375 -0.078125 1.046875 -0.171875q1.421875 -0.171875 2.09375 -0.40625q0 -0.234375 0 -0.296875q0 -0.71875 -0.328125 -1.015625q-0.453125 -0.390625 -1.34375 -0.390625q-0.8125 0 -1.21875 0.296875q-0.390625 0.28125 -0.578125 1.015625l-1.140625 -0.15625q0.15625 -0.734375 0.515625 -1.1875q0.359375 -0.453125 1.03125 -0.6875q0.671875 -0.25 1.5625 -0.25q0.890625 0 1.4375 0.203125q0.5625 0.203125 0.8125 0.53125q0.265625 0.3125 0.375 0.796875q0.046875 0.296875 0.046875 1.078125l0 1.5625q0 1.625 0.078125 2.0625q0.078125 0.4375 0.296875 0.828125l-1.21875 0q-0.1875 -0.359375 -0.234375 -0.859375zm-0.09375 -2.609375q-0.640625 0.265625 -1.921875 0.4375q-0.71875 0.109375 -1.015625 0.25q-0.296875 0.125 -0.46875 0.375q-0.15625 0.25 -0.15625 0.546875q0 0.46875 0.34375 0.78125q0.359375 0.3125 1.046875 0.3125q0.671875 0 1.203125 -0.296875q0.53125 -0.296875 0.78125 -0.8125q0.1875 -0.390625 0.1875 -1.171875l0 -0.421875zm3.0062256 -4.71875l0 -1.3593788l1.171875 0l0 1.3593788l-1.171875 0zm0 8.1875l0 -6.90625l1.171875 0l0 6.90625l-1.171875 0zm2.945465 0l0 -6.90625l1.0625 0l0 0.984375q0.75 -1.140625 2.1875 -1.140625q0.625 0 1.15625 0.21875q0.53125 0.21875 0.78125 0.59375q0.265625 0.359375 0.375 0.859375q0.0625 0.328125 0.0625 1.140625l0 4.25l-1.171875 0l0 -4.203125q0 -0.71875 -0.140625 -1.0625q-0.140625 -0.359375 -0.484375 -0.5625q-0.34375 -0.21875 -0.8125 -0.21875q-0.75 0 -1.296875 0.46875q-0.546875 0.46875 -0.546875 1.796875l0 3.78125l-1.171875 0z" fill-rule="nonzero"/><path fill="#fce5cd" d="m152.0 60.00008l0 0c0 -2.2091827 1.7908936 -4.00008 4.0000763 -4.00008l79.99985 0c1.0608826 0 2.0783234 0.4214363 2.828476 1.1715965c0.75016785 0.7501602 1.1716003 1.7675972 1.1716003 2.8284836l0 15.999844c0 2.2091827 -1.7908936 4.0000763 -4.0000763 4.0000763l-79.99985 0c-2.2091827 0 -4.0000763 -1.7908936 -4.0000763 -4.0000763z" fill-rule="evenodd"/><path stroke="#000000" stroke-width="1.0" stroke-linejoin="round" stroke-linecap="butt" d="m152.0 60.00008l0 0c0 -2.2091827 1.7908936 -4.00008 4.0000763 -4.00008l79.99985 0c1.0608826 0 2.0783234 0.4214363 2.828476 1.1715965c0.75016785 0.7501602 1.1716003 1.7675972 1.1716003 2.8284836l0 15.999844c0 2.2091827 -1.7908936 4.0000763 -4.0000763 4.0000763l-79.99985 0c-2.2091827 0 -4.0000763 -1.7908936 -4.0000763 -4.0000763z" fill-rule="evenodd"/><path fill="#000000" d="m168.69427 71.75313l0.171875 1.03125q-0.5 0.109375 -0.890625 0.109375q-0.640625 0 -1.0 -0.203125q-0.34375 -0.203125 -0.484375 -0.53125q-0.140625 -0.328125 -0.140625 -1.390625l0 -3.96875l-0.859375 0l0 -0.90625l0.859375 0l0 -1.71875l1.171875 -0.7031288l0 2.4218788l1.171875 0l0 0.90625l-1.171875 0l0 4.046875q0 0.5 0.046875 0.640625q0.0625 0.140625 0.203125 0.234375q0.140625 0.078125 0.40625 0.078125q0.203125 0 0.515625 -0.046875zm5.8748627 -1.171875l1.203125 0.140625q-0.28125 1.0625 -1.0625 1.65625q-0.765625 0.578125 -1.96875 0.578125q-1.515625 0 -2.40625 -0.9375q-0.890625 -0.9375 -0.890625 -2.609375q0 -1.75 0.890625 -2.703125q0.90625 -0.96875 2.34375 -0.96875q1.390625 0 2.265625 0.9375q0.875 0.9375 0.875 2.65625q0 0.109375 0 0.3125l-5.15625 0q0.0625 1.140625 0.640625 1.75q0.578125 0.59375 1.4375 0.59375q0.65625 0 1.109375 -0.328125q0.453125 -0.34375 0.71875 -1.078125zm-3.84375 -1.90625l3.859375 0q-0.078125 -0.859375 -0.4375 -1.296875q-0.5625 -0.6875 -1.453125 -0.6875q-0.8125 0 -1.359375 0.546875q-0.546875 0.53125 -0.609375 1.4375zm6.0531006 2.0625l1.15625 -0.1875q0.109375 0.703125 0.546875 1.078125q0.453125 0.359375 1.25 0.359375q0.8125 0 1.203125 -0.328125q0.390625 -0.328125 0.390625 -0.765625q0 -0.390625 -0.359375 -0.625q-0.234375 -0.15625 -1.1875 -0.390625q-1.296875 -0.328125 -1.796875 -0.5625q-0.484375 -0.25 -0.75 -0.65625q-0.25 -0.421875 -0.25 -0.9375q0 -0.453125 0.203125 -0.84375q0.21875 -0.40625 0.578125 -0.671875q0.28125 -0.1875 0.75 -0.328125q0.46875 -0.140625 1.015625 -0.140625q0.8125 0 1.421875 0.234375q0.609375 0.234375 0.90625 0.640625q0.296875 0.390625 0.40625 1.0625l-1.140625 0.15625q-0.078125 -0.53125 -0.453125 -0.828125q-0.375 -0.3125 -1.0625 -0.3125q-0.8125 0 -1.15625 0.265625q-0.34375 0.265625 -0.34375 0.625q0 0.234375 0.140625 0.421875q0.15625 0.1875 0.453125 0.3125q0.171875 0.0625 1.03125 0.296875q1.25 0.328125 1.734375 0.546875q0.5 0.203125 0.78125 0.609375q0.28125 0.40625 0.28125 1.0q0 0.59375 -0.34375 1.109375q-0.34375 0.515625 -1.0 0.796875q-0.640625 0.28125 -1.453125 0.28125q-1.34375 0 -2.046875 -0.5625q-0.703125 -0.5625 -0.90625 -1.65625zm9.6953125 1.015625l0.171875 1.03125q-0.5 0.109375 -0.890625 0.109375q-0.640625 0 -1.0 -0.203125q-0.34375 -0.203125 -0.484375 -0.53125q-0.140625 -0.328125 -0.140625 -1.390625l0 -3.96875l-0.859375 0l0 -0.90625l0.859375 0l0 -1.71875l1.171875 -0.7031288l0 2.4218788l1.171875 0l0 0.90625l-1.171875 0l0 4.046875q0 0.5 0.046875 0.640625q0.0625 0.140625 0.203125 0.234375q0.140625 0.078125 0.40625 0.078125q0.203125 0 0.515625 -0.046875zm0.06236267 3.703125l0 -0.859375l7.765625 0l0 0.859375l-7.765625 0zm8.490601 0l0 -9.5625l1.078125 0l0 0.890625q0.375 -0.53125 0.84375 -0.78125q0.484375 -0.265625 1.15625 -0.265625q0.875 0 1.546875 0.453125q0.6875 0.453125 1.03125 1.28125q0.34375 0.828125 0.34375 1.828125q0 1.046875 -0.375 1.90625q-0.375 0.84375 -1.109375 1.296875q-0.71875 0.453125 -1.53125 0.453125q-0.578125 0 -1.046875 -0.25q-0.46875 -0.25 -0.765625 -0.625l0 3.375l-1.171875 0zm1.0625 -6.078125q0 1.34375 0.53125 1.984375q0.546875 0.625 1.3125 0.625q0.78125 0 1.34375 -0.65625q0.5625 -0.65625 0.5625 -2.046875q0 -1.3125 -0.546875 -1.96875q-0.546875 -0.671875 -1.296875 -0.671875q-0.75 0 -1.328125 0.703125q-0.578125 0.703125 -0.578125 2.03125zm6.3343506 3.421875l0 -6.90625l1.0625 0l0 1.046875q0.40625 -0.734375 0.734375 -0.96875q0.34375 -0.234375 0.765625 -0.234375q0.59375 0 1.203125 0.375l-0.40625 1.078125q-0.4375 -0.25 -0.859375 -0.25q-0.390625 0 -0.703125 0.234375q-0.296875 0.234375 -0.421875 0.640625q-0.203125 0.625 -0.203125 1.359375l0 3.625l-1.171875 0zm9.18837 -2.21875l1.203125 0.140625q-0.28125 1.0625 -1.0625 1.65625q-0.765625 0.578125 -1.96875 0.578125q-1.515625 0 -2.40625 -0.9375q-0.890625 -0.9375 -0.890625 -2.609375q0 -1.75 0.890625 -2.703125q0.90625 -0.96875 2.34375 -0.96875q1.390625 0 2.265625 0.9375q0.875 0.9375 0.875 2.65625q0 0.109375 0 0.3125l-5.15625 0q0.0625 1.140625 0.640625 1.75q0.578125 0.59375 1.4375 0.59375q0.65625 0 1.109375 -0.328125q0.453125 -0.34375 0.71875 -1.078125zm-3.84375 -1.90625l3.859375 0q-0.078125 -0.859375 -0.4375 -1.296875q-0.5625 -0.6875 -1.453125 -0.6875q-0.8125 0 -1.359375 0.546875q-0.546875 0.53125 -0.609375 1.4375zm6.8031006 4.125l0 -6.0l-1.03125 0l0 -0.90625l1.03125 0l0 -0.734375q0 -0.703125 0.125 -1.046875q0.171875 -0.4531288 0.59375 -0.7343788q0.421875 -0.28125 1.203125 -0.28125q0.484375 0 1.09375 0.109375l-0.1875 1.0312538q-0.359375 -0.0625 -0.6875 -0.0625q-0.53125 0 -0.75 0.234375q-0.21875 0.21875 -0.21875 0.84375l0 0.640625l1.34375 0l0 0.90625l-1.34375 0l0 6.0l-1.171875 0zm3.4373627 -8.1875l0 -1.3593788l1.171875 0l0 1.3593788l-1.171875 0zm0 8.1875l0 -6.90625l1.171875 0l0 6.90625l-1.171875 0zm2.164215 0l2.53125 -3.59375l-2.34375 -3.3125l1.46875 0l1.0625 1.609375q0.296875 0.46875 0.484375 0.78125q0.28125 -0.4375 0.515625 -0.765625l1.171875 -1.625l1.40625 0l-2.390625 3.25l2.5625 3.65625l-1.4375 0l-1.421875 -2.140625l-0.375 -0.59375l-1.8125 2.734375l-1.421875 0z" fill-rule="nonzero"/><path fill="#fce5cd" d="m152.0 148.00008l0 0c0 -2.2091827 1.7908936 -4.0000763 4.0000763 -4.0000763l79.99985 0c1.0608826 0 2.0783234 0.4214325 2.828476 1.1716003c0.75016785 0.7501526 1.1716003 1.7675934 1.1716003 2.828476l0 15.999847c0 2.2091827 -1.7908936 4.0000763 -4.0000763 4.0000763l-79.99985 0c-2.2091827 0 -4.0000763 -1.7908936 -4.0000763 -4.0000763z" fill-rule="evenodd"/><path stroke="#000000" stroke-width="1.0" stroke-linejoin="round" stroke-linecap="butt" d="m152.0 148.00008l0 0c0 -2.2091827 1.7908936 -4.0000763 4.0000763 -4.0000763l79.99985 0c1.0608826 0 2.0783234 0.4214325 2.828476 1.1716003c0.75016785 0.7501526 1.1716003 1.7675934 1.1716003 2.828476l0 15.999847c0 2.2091827 -1.7908936 4.0000763 -4.0000763 4.0000763l-79.99985 0c-2.2091827 0 -4.0000763 -1.7908936 -4.0000763 -4.0000763z" fill-rule="evenodd"/><path fill="#000000" d="m169.55661 159.75313l0.171875 1.03125q-0.5 0.109375 -0.890625 0.109375q-0.640625 0 -1.0 -0.203125q-0.34375 -0.203125 -0.484375 -0.53125q-0.140625 -0.328125 -0.140625 -1.390625l0 -3.96875l-0.859375 0l0 -0.90625l0.859375 0l0 -1.71875l1.171875 -0.703125l0 2.421875l1.171875 0l0 0.90625l-1.171875 0l0 4.046875q0 0.5 0.046875 0.640625q0.0625 0.140625 0.203125 0.234375q0.140625 0.078125 0.40625 0.078125q0.203125 0 0.515625 -0.046875zm5.8748627 -1.171875l1.203125 0.140625q-0.28125 1.0625 -1.0625 1.65625q-0.765625 0.578125 -1.96875 0.578125q-1.515625 0 -2.40625 -0.9375q-0.890625 -0.9375 -0.890625 -2.609375q0 -1.75 0.890625 -2.703125q0.90625 -0.96875 2.34375 -0.96875q1.390625 0 2.265625 0.9375q0.875 0.9375 0.875 2.65625q0 0.109375 0 0.3125l-5.15625 0q0.0625 1.140625 0.640625 1.75q0.578125 0.59375 1.4375 0.59375q0.65625 0 1.109375 -0.328125q0.453125 -0.34375 0.71875 -1.078125zm-3.84375 -1.90625l3.859375 0q-0.078125 -0.859375 -0.4375 -1.296875q-0.5625 -0.6875 -1.453125 -0.6875q-0.8125 0 -1.359375 0.546875q-0.546875 0.53125 -0.609375 1.4375zm6.0531006 2.0625l1.15625 -0.1875q0.109375 0.703125 0.546875 1.078125q0.453125 0.359375 1.25 0.359375q0.8125 0 1.203125 -0.328125q0.390625 -0.328125 0.390625 -0.765625q0 -0.390625 -0.359375 -0.625q-0.234375 -0.15625 -1.1875 -0.390625q-1.296875 -0.328125 -1.796875 -0.5625q-0.484375 -0.25 -0.75 -0.65625q-0.25 -0.421875 -0.25 -0.9375q0 -0.453125 0.203125 -0.84375q0.21875 -0.40625 0.578125 -0.671875q0.28125 -0.1875 0.75 -0.328125q0.46875 -0.140625 1.015625 -0.140625q0.8125 0 1.421875 0.234375q0.609375 0.234375 0.90625 0.640625q0.296875 0.390625 0.40625 1.0625l-1.140625 0.15625q-0.078125 -0.53125 -0.453125 -0.828125q-0.375 -0.3125 -1.0625 -0.3125q-0.8125 0 -1.15625 0.265625q-0.34375 0.265625 -0.34375 0.625q0 0.234375 0.140625 0.421875q0.15625 0.1875 0.453125 0.3125q0.171875 0.0625 1.03125 0.296875q1.25 0.328125 1.734375 0.546875q0.5 0.203125 0.78125 0.609375q0.28125 0.40625 0.28125 1.0q0 0.59375 -0.34375 1.109375q-0.34375 0.515625 -1.0 0.796875q-0.640625 0.28125 -1.453125 0.28125q-1.34375 0 -2.046875 -0.5625q-0.703125 -0.5625 -0.90625 -1.65625zm9.6953125 1.015625l0.171875 1.03125q-0.5 0.109375 -0.890625 0.109375q-0.640625 0 -1.0 -0.203125q-0.34375 -0.203125 -0.484375 -0.53125q-0.140625 -0.328125 -0.140625 -1.390625l0 -3.96875l-0.859375 0l0 -0.90625l0.859375 0l0 -1.71875l1.171875 -0.703125l0 2.421875l1.171875 0l0 0.90625l-1.171875 0l0 4.046875q0 0.5 0.046875 0.640625q0.0625 0.140625 0.203125 0.234375q0.140625 0.078125 0.40625 0.078125q0.203125 0 0.515625 -0.046875zm0.06236267 3.703125l0 -0.859375l7.765625 0l0 0.859375l-7.765625 0zm8.021851 -4.71875l1.15625 -0.1875q0.109375 0.703125 0.546875 1.078125q0.453125 0.359375 1.25 0.359375q0.8125 0 1.203125 -0.328125q0.390625 -0.328125 0.390625 -0.765625q0 -0.390625 -0.359375 -0.625q-0.234375 -0.15625 -1.1875 -0.390625q-1.296875 -0.328125 -1.796875 -0.5625q-0.484375 -0.25 -0.75 -0.65625q-0.25 -0.421875 -0.25 -0.9375q0 -0.453125 0.203125 -0.84375q0.21875 -0.40625 0.578125 -0.671875q0.28125 -0.1875 0.75 -0.328125q0.46875 -0.140625 1.015625 -0.140625q0.8125 0 1.421875 0.234375q0.609375 0.234375 0.90625 0.640625q0.296875 0.390625 0.40625 1.0625l-1.140625 0.15625q-0.078125 -0.53125 -0.453125 -0.828125q-0.375 -0.3125 -1.0625 -0.3125q-0.8125 0 -1.15625 0.265625q-0.34375 0.265625 -0.34375 0.625q0 0.234375 0.140625 0.421875q0.15625 0.1875 0.453125 0.3125q0.171875 0.0625 1.03125 0.296875q1.25 0.328125 1.734375 0.546875q0.5 0.203125 0.78125 0.609375q0.28125 0.40625 0.28125 1.0q0 0.59375 -0.34375 1.109375q-0.34375 0.515625 -1.0 0.796875q-0.640625 0.28125 -1.453125 0.28125q-1.34375 0 -2.046875 -0.5625q-0.703125 -0.5625 -0.90625 -1.65625zm11.6640625 2.0625l0 -1.015625q-0.8125 1.171875 -2.1875 1.171875q-0.609375 0 -1.140625 -0.234375q-0.53125 -0.234375 -0.796875 -0.578125q-0.25 -0.359375 -0.359375 -0.875q-0.0625 -0.34375 -0.0625 -1.09375l0 -4.28125l1.171875 0l0 3.828125q0 0.921875 0.0625 1.234375q0.109375 0.46875 0.46875 0.734375q0.359375 0.25 0.890625 0.25q0.515625 0 0.984375 -0.265625q0.46875 -0.265625 0.65625 -0.734375q0.1875 -0.46875 0.1875 -1.34375l0 -3.703125l1.171875 0l0 6.90625l-1.046875 0zm3.1624756 0l0 -6.0l-1.03125 0l0 -0.90625l1.03125 0l0 -0.734375q0 -0.703125 0.125 -1.046875q0.171875 -0.453125 0.59375 -0.734375q0.421875 -0.28125 1.203125 -0.28125q0.484375 0 1.09375 0.109375l-0.1875 1.03125q-0.359375 -0.0625 -0.6875 -0.0625q-0.53125 0 -0.75 0.234375q-0.21875 0.21875 -0.21875 0.84375l0 0.640625l1.34375 0l0 0.90625l-1.34375 0l0 6.0l-1.171875 0zm3.4620972 0l0 -6.0l-1.03125 0l0 -0.90625l1.03125 0l0 -0.734375q0 -0.703125 0.125 -1.046875q0.171875 -0.453125 0.59375 -0.734375q0.421875 -0.28125 1.203125 -0.28125q0.484375 0 1.09375 0.109375l-0.1875 1.03125q-0.359375 -0.0625 -0.6875 -0.0625q-0.53125 0 -0.75 0.234375q-0.21875 0.21875 -0.21875 0.84375l0 0.640625l1.34375 0l0 0.90625l-1.34375 0l0 6.0l-1.171875 0zm3.4373627 -8.1875l0 -1.359375l1.171875 0l0 1.359375l-1.171875 0zm0 8.1875l0 -6.90625l1.171875 0l0 6.90625l-1.171875 0zm2.164215 0l2.53125 -3.59375l-2.34375 -3.3125l1.46875 0l1.0625 1.609375q0.296875 0.46875 0.484375 0.78125q0.28125 -0.4375 0.515625 -0.765625l1.171875 -1.625l1.40625 0l-2.390625 3.25l2.5625 3.65625l-1.4375 0l-1.421875 -2.140625l-0.375 -0.59375l-1.8125 2.734375l-1.421875 0z" fill-rule="nonzero"/><path fill="#fce5cd" d="m328.0 148.00008l0 0c0 -2.2091827 1.7908936 -4.0000763 4.0000916 -4.0000763l47.999817 0c1.0609131 0 2.0783386 0.4214325 2.8284912 1.1716003c0.7501526 0.7501526 1.1716003 1.7675934 1.1716003 2.828476l0 15.999847c0 2.2091827 -1.7908936 4.0000763 -4.0000916 4.0000763l-47.999817 0c-2.209198 0 -4.0000916 -1.7908936 -4.0000916 -4.0000763z" fill-rule="evenodd"/><path stroke="#000000" stroke-width="1.0" stroke-linejoin="round" stroke-linecap="butt" d="m328.0 148.00008l0 0c0 -2.2091827 1.7908936 -4.0000763 4.0000916 -4.0000763l47.999817 0c1.0609131 0 2.0783386 0.4214325 2.8284912 1.1716003c0.7501526 0.7501526 1.1716003 1.7675934 1.1716003 2.828476l0 15.999847c0 2.2091827 -1.7908936 4.0000763 -4.0000916 4.0000763l-47.999817 0c-2.209198 0 -4.0000916 -1.7908936 -4.0000916 -4.0000763z" fill-rule="evenodd"/><path fill="#000000" d="m340.97287 158.7375l1.15625 -0.1875q0.109375 0.703125 0.546875 1.078125q0.453125 0.359375 1.25 0.359375q0.8125 0 1.203125 -0.328125q0.390625 -0.328125 0.390625 -0.765625q0 -0.390625 -0.359375 -0.625q-0.234375 -0.15625 -1.1875 -0.390625q-1.296875 -0.328125 -1.796875 -0.5625q-0.484375 -0.25 -0.75 -0.65625q-0.25 -0.421875 -0.25 -0.9375q0 -0.453125 0.203125 -0.84375q0.21875 -0.40625 0.578125 -0.671875q0.28125 -0.1875 0.75 -0.328125q0.46875 -0.140625 1.015625 -0.140625q0.8125 0 1.421875 0.234375q0.609375 0.234375 0.90625 0.640625q0.296875 0.390625 0.40625 1.0625l-1.140625 0.15625q-0.078125 -0.53125 -0.453125 -0.828125q-0.375 -0.3125 -1.0625 -0.3125q-0.8125 0 -1.15625 0.265625q-0.34375 0.265625 -0.34375 0.625q0 0.234375 0.140625 0.421875q0.15625 0.1875 0.453125 0.3125q0.171875 0.0625 1.03125 0.296875q1.25 0.328125 1.734375 0.546875q0.5 0.203125 0.78125 0.609375q0.28125 0.40625 0.28125 1.0q0 0.59375 -0.34375 1.109375q-0.34375 0.515625 -1.0 0.796875q-0.640625 0.28125 -1.453125 0.28125q-1.34375 0 -2.046875 -0.5625q-0.703125 -0.5625 -0.90625 -1.65625zm11.6640625 2.0625l0 -1.015625q-0.8125 1.171875 -2.1875 1.171875q-0.609375 0 -1.140625 -0.234375q-0.53125 -0.234375 -0.796875 -0.578125q-0.25 -0.359375 -0.359375 -0.875q-0.0625 -0.34375 -0.0625 -1.09375l0 -4.28125l1.171875 0l0 3.828125q0 0.921875 0.0625 1.234375q0.109375 0.46875 0.46875 0.734375q0.359375 0.25 0.890625 0.25q0.515625 0 0.984375 -0.265625q0.46875 -0.265625 0.65625 -0.734375q0.1875 -0.46875 0.1875 -1.34375l0 -3.703125l1.171875 0l0 6.90625l-1.046875 0zm3.1624756 0l0 -6.0l-1.03125 0l0 -0.90625l1.03125 0l0 -0.734375q0 -0.703125 0.125 -1.046875q0.171875 -0.453125 0.59375 -0.734375q0.421875 -0.28125 1.203125 -0.28125q0.484375 0 1.09375 0.109375l-0.1875 1.03125q-0.359375 -0.0625 -0.6875 -0.0625q-0.53125 0 -0.75 0.234375q-0.21875 0.21875 -0.21875 0.84375l0 0.640625l1.34375 0l0 0.90625l-1.34375 0l0 6.0l-1.171875 0zm3.4620972 0l0 -6.0l-1.03125 0l0 -0.90625l1.03125 0l0 -0.734375q0 -0.703125 0.125 -1.046875q0.171875 -0.453125 0.59375 -0.734375q0.421875 -0.28125 1.203125 -0.28125q0.484375 0 1.09375 0.109375l-0.1875 1.03125q-0.359375 -0.0625 -0.6875 -0.0625q-0.53125 0 -0.75 0.234375q-0.21875 0.21875 -0.21875 0.84375l0 0.640625l1.34375 0l0 0.90625l-1.34375 0l0 6.0l-1.171875 0zm3.4373474 -8.1875l0 -1.359375l1.171875 0l0 1.359375l-1.171875 0zm0 8.1875l0 -6.90625l1.171875 0l0 6.90625l-1.171875 0zm2.164215 0l2.53125 -3.59375l-2.34375 -3.3125l1.46875 0l1.0625 1.609375q0.296875 0.46875 0.484375 0.78125q0.28125 -0.4375 0.515625 -0.765625l1.171875 -1.625l1.40625 0l-2.390625 3.25l2.5625 3.65625l-1.4375 0l-1.421875 -2.140625l-0.375 -0.59375l-1.8125 2.734375l-1.421875 0z" fill-rule="nonzero"/><path fill="#fce5cd" d="m328.0 60.00008l0 0c0 -2.2091827 1.7908936 -4.00008 4.0000916 -4.00008l47.999817 0c1.0609131 0 2.0783386 0.4214363 2.8284912 1.1715965c0.7501526 0.7501602 1.1716003 1.7675972 1.1716003 2.8284836l0 15.999844c0 2.2091827 -1.7908936 4.0000763 -4.0000916 4.0000763l-47.999817 0c-2.209198 0 -4.0000916 -1.7908936 -4.0000916 -4.0000763z" fill-rule="evenodd"/><path stroke="#000000" stroke-width="1.0" stroke-linejoin="round" stroke-linecap="butt" d="m328.0 60.00008l0 0c0 -2.2091827 1.7908936 -4.00008 4.0000916 -4.00008l47.999817 0c1.0609131 0 2.0783386 0.4214363 2.8284912 1.1715965c0.7501526 0.7501602 1.1716003 1.7675972 1.1716003 2.8284836l0 15.999844c0 2.2091827 -1.7908936 4.0000763 -4.0000916 4.0000763l-47.999817 0c-2.209198 0 -4.0000916 -1.7908936 -4.0000916 -4.0000763z" fill-rule="evenodd"/><path fill="#000000" d="m340.57928 75.45625l0 -9.5625l1.078125 0l0 0.890625q0.375 -0.53125 0.84375 -0.78125q0.484375 -0.265625 1.15625 -0.265625q0.875 0 1.546875 0.453125q0.6875 0.453125 1.03125 1.28125q0.34375 0.828125 0.34375 1.828125q0 1.046875 -0.375 1.90625q-0.375 0.84375 -1.109375 1.296875q-0.71875 0.453125 -1.53125 0.453125q-0.578125 0 -1.046875 -0.25q-0.46875 -0.25 -0.765625 -0.625l0 3.375l-1.171875 0zm1.0625 -6.078125q0 1.34375 0.53125 1.984375q0.546875 0.625 1.3125 0.625q0.78125 0 1.34375 -0.65625q0.5625 -0.65625 0.5625 -2.046875q0 -1.3125 -0.546875 -1.96875q-0.546875 -0.671875 -1.296875 -0.671875q-0.75 0 -1.328125 0.703125q-0.578125 0.703125 -0.578125 2.03125zm6.3343506 3.421875l0 -6.90625l1.0625 0l0 1.046875q0.40625 -0.734375 0.734375 -0.96875q0.34375 -0.234375 0.765625 -0.234375q0.59375 0 1.203125 0.375l-0.40625 1.078125q-0.4375 -0.25 -0.859375 -0.25q-0.390625 0 -0.703125 0.234375q-0.296875 0.234375 -0.421875 0.640625q-0.203125 0.625 -0.203125 1.359375l0 3.625l-1.171875 0zm9.1883545 -2.21875l1.203125 0.140625q-0.28125 1.0625 -1.0625 1.65625q-0.765625 0.578125 -1.96875 0.578125q-1.515625 0 -2.40625 -0.9375q-0.890625 -0.9375 -0.890625 -2.609375q0 -1.75 0.890625 -2.703125q0.90625 -0.96875 2.34375 -0.96875q1.390625 0 2.265625 0.9375q0.875 0.9375 0.875 2.65625q0 0.109375 0 0.3125l-5.15625 0q0.0625 1.140625 0.640625 1.75q0.578125 0.59375 1.4375 0.59375q0.65625 0 1.109375 -0.328125q0.453125 -0.34375 0.71875 -1.078125zm-3.84375 -1.90625l3.859375 0q-0.078125 -0.859375 -0.4375 -1.296875q-0.5625 -0.6875 -1.453125 -0.6875q-0.8125 0 -1.359375 0.546875q-0.546875 0.53125 -0.609375 1.4375zm6.8031006 4.125l0 -6.0l-1.03125 0l0 -0.90625l1.03125 0l0 -0.734375q0 -0.703125 0.125 -1.046875q0.171875 -0.4531288 0.59375 -0.7343788q0.421875 -0.28125 1.203125 -0.28125q0.484375 0 1.09375 0.109375l-0.1875 1.0312538q-0.359375 -0.0625 -0.6875 -0.0625q-0.53125 0 -0.75 0.234375q-0.21875 0.21875 -0.21875 0.84375l0 0.640625l1.34375 0l0 0.90625l-1.34375 0l0 6.0l-1.171875 0zm3.4373474 -8.1875l0 -1.3593788l1.171875 0l0 1.3593788l-1.171875 0zm0 8.1875l0 -6.90625l1.171875 0l0 6.90625l-1.171875 0zm2.164215 0l2.53125 -3.59375l-2.34375 -3.3125l1.46875 0l1.0625 1.609375q0.296875 0.46875 0.484375 0.78125q0.28125 -0.4375 0.515625 -0.765625l1.171875 -1.625l1.40625 0l-2.390625 3.25l2.5625 3.65625l-1.4375 0l-1.421875 -2.140625l-0.375 -0.59375l-1.8125 2.734375l-1.421875 0z" fill-rule="nonzero"/><path fill="#000000" fill-opacity="0.0" d="m112.0 60.0c10.000198 0 13.0670395 -6.9000015 20.000397 -14.5c6.933365 -7.5999985 17.733246 -15.9 31.999802 -14.5c14.266556 1.4000015 31.999802 12.5 31.999802 25.0" fill-rule="evenodd"/><path stroke="#000000" stroke-width="1.0" stroke-linejoin="round" stroke-linecap="butt" d="m112.0 60.0c10.000206 0 13.0670395 -6.9000015 20.000397 -14.5c6.933365 -7.5999985 17.733246 -15.900002 31.999802 -14.5c7.1332855 0.70000076 15.1332245 3.8250008 21.349869 8.337502c3.108307 2.2562485 5.7707977 4.859375 7.656204 7.6796875c0.471344 0.7050781 0.8941345 1.423729 1.2631683 2.1539268c0.0922699 0.18255234 0.1811676 0.36582565 0.26663208 0.5497856c0.04272461 0.091983795 0.08459473 0.18413544 0.1255951 0.27645874l0.060836792 0.14022064" fill-rule="evenodd"/><path fill="#000000" stroke="#000000" stroke-width="1.0" stroke-linecap="butt" d="m193.10864 50.489258l2.5800934 4.0823593l0.6476288 -4.785721z" fill-rule="evenodd"/><path fill="#000000" fill-opacity="0.0" d="m112.0 60.0c42.0 0 84.0 42.0 84.0 84.0" fill-rule="evenodd"/><path stroke="#000000" stroke-width="1.0" stroke-linejoin="round" stroke-linecap="butt" d="m112.0 60.0c21.0 0 42.0 10.5 57.75 26.25c7.875 7.875 14.4375 17.0625 19.03125 26.90625c2.296875 4.921875 4.1015625 10.0078125 5.332016 15.175781c0.61524963 2.5839844 1.0869293 5.1884766 1.4048004 7.8032227c0.039733887 0.32684326 0.077056885 0.65385437 0.11198425 0.98098755l0.08834839 0.8903656" fill-rule="evenodd"/><path fill="#000000" stroke="#000000" stroke-width="1.0" stroke-linecap="butt" d="m194.06848 138.08414l1.8628998 4.4555664l1.4369202 -4.610611z" fill-rule="evenodd"/><path fill="#000000" fill-opacity="0.0" d="m240.0 148.0c21.99997 0 33.333282 -6.899994 43.99997 -14.5c10.6666565 -7.5999985 20.666656 -15.900002 36.0 -14.5c15.3333435 1.4000015 36.00003 12.5 36.00003 25.0" fill-rule="evenodd"/><path stroke="#000000" stroke-width="1.0" stroke-linejoin="round" stroke-linecap="butt" d="m240.0 148.0c21.99997 0 33.333282 -6.899994 43.99997 -14.5c10.6666565 -7.600006 20.666687 -15.899994 36.0 -14.5c7.666687 0.69999695 16.666687 3.824997 23.75003 8.337494c3.5416565 2.256256 6.6041565 4.859375 8.78125 7.6796875c0.5442505 0.7050781 1.0332336 1.4237366 1.4604797 2.1539307c0.106781006 0.18255615 0.20974731 0.36582947 0.30874634 0.5497894c0.04949951 0.09197998 0.09802246 0.18414307 0.14550781 0.27645874l0.09222412 0.1834259" fill-rule="evenodd"/><path fill="#000000" stroke="#000000" stroke-width="1.0" stroke-linecap="butt" d="m352.93625 138.5832l2.7075806 3.9989471l0.4963684 -4.803772z" fill-rule="evenodd"/><path fill="#000000" fill-opacity="0.0" d="m240.0 60.0c21.99997 0 33.333282 -6.9000015 43.99997 -14.5c10.6666565 -7.5999985 20.666656 -15.9 36.0 -14.5c15.3333435 1.4000015 36.00003 12.5 36.00003 25.0" fill-rule="evenodd"/><path stroke="#000000" stroke-width="1.0" stroke-linejoin="round" stroke-linecap="butt" d="m240.0 60.0c21.99997 0 33.333282 -6.9000015 43.99997 -14.5c10.6666565 -7.5999985 20.666687 -15.900002 36.0 -14.5c7.666687 0.70000076 16.666687 3.8250008 23.75003 8.337502c3.5416565 2.2562485 6.6041565 4.859375 8.78125 7.6796875c0.5442505 0.7050781 1.0332336 1.423729 1.4604797 2.1539268c0.106781006 0.18255234 0.20974731 0.36582565 0.30874634 0.5497856c0.04949951 0.091983795 0.09802246 0.18413544 0.14550781 0.27645874l0.09222412 0.18342972" fill-rule="evenodd"/><path fill="#000000" stroke="#000000" stroke-width="1.0" stroke-linecap="butt" d="m352.93625 50.5832l2.7075806 3.9989471l0.4963684 -4.803768z" fill-rule="evenodd"/><path fill="#000000" fill-opacity="0.0" d="m356.0 168.0c0 12.5 -20.666687 23.600006 -36.00003 25.0c-15.3333435 1.3999939 -25.333344 -6.899994 -36.0 -14.5c-10.666687 -7.600006 -22.0 -14.5 -43.99997 -14.5" fill-rule="evenodd"/><path stroke="#000000" stroke-width="1.0" stroke-linejoin="round" stroke-linecap="butt" stroke-dasharray="4.0,3.0" d="m356.0 168.0c0 12.5 -20.666656 23.600006 -36.00003 25.0c-15.333313 1.3999939 -25.333344 -6.899994 -36.0 -14.5c-5.3333435 -3.7999878 -10.8333435 -7.425003 -17.75 -10.100006c-3.458313 -1.3374939 -7.270813 -2.4375 -11.593735 -3.203125c-2.1614685 -0.3828125 -4.4505005 -0.6820221 -6.8867188 -0.8855438c-0.30451965 -0.025436401 -0.6113434 -0.04937744 -0.9205017 -0.07180786l-0.8517761 -0.057144165" fill-rule="evenodd"/><path fill="#000000" stroke="#000000" stroke-width="1.0" stroke-linecap="butt" d="m246.04744 162.5314l-4.586212 1.513031l4.485794 1.7889099z" fill-rule="evenodd"/><path fill="#ffffff" d="m8.0 24.0l0 0c0 -4.4182777 3.5817223 -8.0 8.0 -8.0l0 0c2.1217327 0 4.156563 0.84285545 5.6568546 2.3431454c1.5002899 1.5002918 2.3431454 3.535122 2.3431454 5.6568546l0 0c0 4.4182777 -3.5817223 8.0 -8.0 8.0l0 0c-4.4182777 0 -8.0 -3.5817223 -8.0 -8.0z" fill-rule="evenodd"/><path stroke="#000000" stroke-width="2.0" stroke-linejoin="round" stroke-linecap="butt" d="m8.0 24.0l0 0c0 -4.4182777 3.5817223 -8.0 8.0 -8.0l0 0c2.1217327 0 4.156563 0.84285545 5.6568546 2.3431454c1.5002899 1.5002918 2.3431454 3.535122 2.3431454 5.6568546l0 0c0 4.4182777 -3.5817223 8.0 -8.0 8.0l0 0c-4.4182777 0 -8.0 -3.5817223 -8.0 -8.0z" fill-rule="evenodd"/><path fill="#000000" fill-opacity="0.0" d="m24.0 24.0c20.0 0 40.0 16.0 40.0 32.0" fill-rule="evenodd"/><path stroke="#000000" stroke-width="1.0" stroke-linejoin="round" stroke-linecap="butt" d="m24.0 24.0c10.0 0 20.0 4.0 27.5 10.0c3.75 3.0 6.875 6.5 9.0625 10.25c1.09375 1.875 1.953125 3.8125 2.5390625 5.78125l0.010066986 0.034877777" fill-rule="evenodd"/><path fill="#000000" stroke="#000000" stroke-width="1.0" stroke-linecap="butt" d="m61.478104 50.310688l2.3054466 4.2435226l0.9616051 -4.7326393z" fill-rule="evenodd"/><path fill="#000000" fill-opacity="0.0" d="m356.0 80.0c0 12.5 -20.666687 23.599998 -36.00003 25.0c-15.3333435 1.4000015 -25.333344 -6.9000015 -36.0 -14.5c-10.666687 -7.5999985 -22.0 -14.5 -43.99997 -14.5" fill-rule="evenodd"/><path stroke="#000000" stroke-width="1.0" stroke-linejoin="round" stroke-linecap="butt" stroke-dasharray="4.0,3.0" d="m356.0 80.0c0 12.5 -20.666656 23.600006 -36.00003 25.0c-15.333313 1.3999939 -25.333344 -6.899994 -36.0 -14.5c-5.3333435 -3.800003 -10.8333435 -7.425003 -17.75 -10.099998c-3.458313 -1.3375015 -7.270813 -2.4375 -11.593735 -3.203125c-2.1614685 -0.3828125 -4.4505005 -0.6820297 -6.8867188 -0.88555145c-0.30451965 -0.025436401 -0.6113434 -0.04937744 -0.9205017 -0.07180023l-0.8517761 -0.057151794" fill-rule="evenodd"/><path fill="#000000" stroke="#000000" stroke-width="1.0" stroke-linecap="butt" d="m246.04744 74.53141l-4.586212 1.5130234l4.485794 1.7889099z" fill-rule="evenodd"/><path fill="#000000" fill-opacity="0.0" d="m152.0 52.00008l0 0c0 -2.2091827 1.7908936 -4.00008 4.0000763 -4.00008l79.99985 0c1.0608826 0 2.0783234 0.4214363 2.828476 1.1715965c0.75016785 0.7501602 1.1716003 1.7675972 1.1716003 2.8284836l0 15.999844c0 2.2091827 -1.7908936 4.0000763 -4.0000763 4.0000763l-79.99985 0c-2.2091827 0 -4.0000763 -1.7908936 -4.0000763 -4.0000763z" fill-rule="evenodd"/><path fill="#000000" fill-opacity="0.0" d="m152.0 68.00008l0 0c0 -2.2091827 1.7908936 -4.0000763 4.0000763 -4.0000763l79.99985 0c1.0608826 0 2.0783234 0.4214325 2.828476 1.1715927c0.75016785 0.75016785 1.1716003 1.767601 1.1716003 2.8284836l0 15.999847c0 2.2091827 -1.7908936 4.0000763 -4.0000763 4.0000763l-79.99985 0c-2.2091827 0 -4.0000763 -1.7908936 -4.0000763 -4.0000763z" fill-rule="evenodd"/><path fill="#000000" fill-opacity="0.0" d="m152.0 140.00008l0 0c0 -2.2091827 1.7908936 -4.0000763 4.0000763 -4.0000763l79.99985 0c1.0608826 0 2.0783234 0.4214325 2.828476 1.1716003c0.75016785 0.7501526 1.1716003 1.7675934 1.1716003 2.828476l0 15.999847c0 2.2091827 -1.7908936 4.0000763 -4.0000763 4.0000763l-79.99985 0c-2.2091827 0 -4.0000763 -1.7908936 -4.0000763 -4.0000763z" fill-rule="evenodd"/><path fill="#000000" fill-opacity="0.0" d="m152.0 156.00008l0 0c0 -2.2091827 1.7908936 -4.0000763 4.0000763 -4.0000763l79.99985 0c1.0608826 0 2.0783234 0.4214325 2.828476 1.1716003c0.75016785 0.7501526 1.1716003 1.7675934 1.1716003 2.828476l0 15.999847c0 2.2091827 -1.7908936 4.0000763 -4.0000763 4.0000763l-79.99985 0c-2.2091827 0 -4.0000763 -1.7908936 -4.0000763 -4.0000763z" fill-rule="evenodd"/><path fill="#000000" fill-opacity="0.0" d="m144.0 0l120.0 0l0 35.559055l-120.0 0z" fill-rule="evenodd"/><path fill="#000000" d="m156.125 21.8l0 -7.921875l-2.84375 0l0 -1.625l7.59375 0l0 1.625l-2.828125 0l0 7.921875l-1.921875 0zm8.979904 -2.203125l1.828125 0.3125q-0.34375 1.0 -1.109375 1.53125q-0.765625 0.515625 -1.890625 0.515625q-1.8125 0 -2.671875 -1.171875q-0.6875 -0.953125 -0.6875 -2.390625q0 -1.71875 0.890625 -2.6875q0.90625 -0.96875 2.28125 -0.96875q1.546875 0 2.4375 1.015625q0.890625 1.015625 0.84375 3.125l-4.578125 0q0.015625 0.8125 0.4375 1.265625q0.421875 0.453125 1.0625 0.453125q0.421875 0 0.71875 -0.234375q0.296875 -0.234375 0.4375 -0.765625zm0.109375 -1.84375q-0.015625 -0.796875 -0.40625 -1.203125q-0.390625 -0.421875 -0.953125 -0.421875q-0.59375 0 -0.984375 0.4375q-0.390625 0.4375 -0.390625 1.1875l2.734375 0zm2.6624756 2.078125l1.828125 -0.28125q0.125 0.53125 0.484375 0.8125q0.359375 0.265625 1.0 0.265625q0.703125 0 1.0625 -0.25q0.25 -0.1875 0.25 -0.484375q0 -0.21875 -0.140625 -0.359375q-0.125 -0.125 -0.609375 -0.234375q-2.203125 -0.484375 -2.796875 -0.890625q-0.828125 -0.5625 -0.828125 -1.5625q0 -0.890625 0.703125 -1.5q0.71875 -0.609375 2.203125 -0.609375q1.421875 0 2.109375 0.46875q0.703125 0.453125 0.953125 1.359375l-1.71875 0.3125q-0.109375 -0.40625 -0.421875 -0.609375q-0.3125 -0.21875 -0.890625 -0.21875q-0.71875 0 -1.03125 0.203125q-0.203125 0.140625 -0.203125 0.359375q0 0.203125 0.1875 0.34375q0.234375 0.171875 1.6875 0.515625q1.46875 0.328125 2.0625 0.8125q0.5625 0.484375 0.5625 1.359375q0 0.953125 -0.796875 1.640625q-0.78125 0.671875 -2.34375 0.671875q-1.40625 0 -2.234375 -0.5625q-0.828125 -0.578125 -1.078125 -1.5625zm11.224976 -4.9375l0 1.453125l-1.25 0l0 2.78125q0 0.84375 0.03125 0.984375q0.046875 0.140625 0.171875 0.234375q0.125 0.09375 0.3125 0.09375q0.25 0 0.734375 -0.171875l0.15625 1.421875q-0.640625 0.265625 -1.453125 0.265625q-0.484375 0 -0.890625 -0.15625q-0.390625 -0.171875 -0.578125 -0.4375q-0.1875 -0.265625 -0.265625 -0.71875q-0.046875 -0.3125 -0.046875 -1.28125l0 -3.015625l-0.84375 0l0 -1.453125l0.84375 0l0 -1.375l1.828125 -1.078125l0 2.453125l1.25 0zm5.0007324 6.90625l0 -9.546875l6.53125 0l0 1.625l-4.609375 0l0 2.25l3.984375 0l0 1.625l-3.984375 0l0 4.046875l-1.921875 0zm12.656982 0l0 -1.03125q-0.375 0.546875 -1.0 0.875q-0.609375 0.3125 -1.28125 0.3125q-0.703125 0 -1.265625 -0.296875q-0.546875 -0.3125 -0.796875 -0.859375q-0.234375 -0.5625 -0.234375 -1.53125l0 -4.375l1.828125 0l0 3.171875q0 1.453125 0.09375 1.78125q0.109375 0.328125 0.375 0.53125q0.265625 0.1875 0.671875 0.1875q0.46875 0 0.84375 -0.25q0.375 -0.265625 0.5 -0.640625q0.140625 -0.390625 0.140625 -1.875l0 -2.90625l1.828125 0l0 6.90625l-1.703125 0zm9.891357 0l-1.828125 0l0 -3.53125q0 -1.109375 -0.125 -1.4375q-0.109375 -0.328125 -0.375 -0.515625q-0.265625 -0.1875 -0.640625 -0.1875q-0.46875 0 -0.859375 0.265625q-0.375 0.265625 -0.515625 0.703125q-0.140625 0.421875 -0.140625 1.578125l0 3.125l-1.828125 0l0 -6.90625l1.703125 0l0 1.015625q0.90625 -1.171875 2.28125 -1.171875q0.609375 0 1.109375 0.21875q0.5 0.21875 0.75 0.5625q0.265625 0.328125 0.359375 0.765625q0.109375 0.421875 0.109375 1.21875l0 4.296875zm7.8757324 -4.875l-1.796875 0.328125q-0.09375 -0.53125 -0.421875 -0.796875q-0.328125 -0.28125 -0.828125 -0.28125q-0.6875 0 -1.09375 0.46875q-0.40625 0.46875 -0.40625 1.578125q0 1.234375 0.40625 1.75q0.421875 0.5 1.109375 0.5q0.53125 0 0.859375 -0.296875q0.328125 -0.296875 0.46875 -1.03125l1.796875 0.3125q-0.28125 1.234375 -1.078125 1.875q-0.796875 0.625 -2.125 0.625q-1.515625 0 -2.421875 -0.953125q-0.90625 -0.953125 -0.90625 -2.65625q0 -1.703125 0.90625 -2.65625q0.90625 -0.953125 2.453125 -0.953125q1.265625 0 2.0 0.546875q0.75 0.53125 1.078125 1.640625zm4.5531006 -2.03125l0 1.453125l-1.25 0l0 2.78125q0 0.84375 0.03125 0.984375q0.046875 0.140625 0.171875 0.234375q0.125 0.09375 0.3125 0.09375q0.25 0 0.734375 -0.171875l0.15625 1.421875q-0.640625 0.265625 -1.453125 0.265625q-0.484375 0 -0.890625 -0.15625q-0.390625 -0.171875 -0.578125 -0.4375q-0.1875 -0.265625 -0.265625 -0.71875q-0.046875 -0.3125 -0.046875 -1.28125l0 -3.015625l-0.84375 0l0 -1.453125l0.84375 0l0 -1.375l1.828125 -1.078125l0 2.453125l1.25 0zm1.2664948 -0.9375l0 -1.703125l1.828125 0l0 1.703125l-1.828125 0zm0 7.84375l0 -6.90625l1.828125 0l0 6.90625l-1.828125 0zm3.2811127 -3.546875q0 -0.921875 0.453125 -1.765625q0.453125 -0.859375 1.265625 -1.296875q0.828125 -0.453125 1.84375 -0.453125q1.5625 0 2.5625 1.015625q1.015625 1.015625 1.015625 2.578125q0 1.5625 -1.015625 2.59375q-1.015625 1.03125 -2.546875 1.03125q-0.953125 0 -1.8125 -0.421875q-0.859375 -0.4375 -1.3125 -1.265625q-0.453125 -0.828125 -0.453125 -2.015625zm1.875 0.09375q0 1.03125 0.484375 1.578125q0.5 0.546875 1.203125 0.546875q0.71875 0 1.203125 -0.546875q0.484375 -0.546875 0.484375 -1.59375q0 -1.015625 -0.484375 -1.5625q-0.484375 -0.546875 -1.203125 -0.546875q-0.703125 0 -1.203125 0.546875q-0.484375 0.546875 -0.484375 1.578125zm12.985107 3.453125l-1.828125 0l0 -3.53125q0 -1.109375 -0.125 -1.4375q-0.109375 -0.328125 -0.375 -0.515625q-0.265625 -0.1875 -0.640625 -0.1875q-0.46875 0 -0.859375 0.265625q-0.375 0.265625 -0.515625 0.703125q-0.140625 0.421875 -0.140625 1.578125l0 3.125l-1.828125 0l0 -6.90625l1.703125 0l0 1.015625q0.90625 -1.171875 2.28125 -1.171875q0.609375 0 1.109375 0.21875q0.5 0.21875 0.75 0.5625q0.265625 0.328125 0.359375 0.765625q0.109375 0.421875 0.109375 1.21875l0 4.296875zm1.2038574 -1.96875l1.828125 -0.28125q0.125 0.53125 0.484375 0.8125q0.359375 0.265625 1.0 0.265625q0.703125 0 1.0625 -0.25q0.25 -0.1875 0.25 -0.484375q0 -0.21875 -0.140625 -0.359375q-0.125 -0.125 -0.609375 -0.234375q-2.203125 -0.484375 -2.796875 -0.890625q-0.828125 -0.5625 -0.828125 -1.5625q0 -0.890625 0.703125 -1.5q0.71875 -0.609375 2.203125 -0.609375q1.421875 0 2.109375 0.46875q0.703125 0.453125 0.953125 1.359375l-1.71875 0.3125q-0.109375 -0.40625 -0.421875 -0.609375q-0.3125 -0.21875 -0.890625 -0.21875q-0.71875 0 -1.03125 0.203125q-0.203125 0.140625 -0.203125 0.359375q0 0.203125 0.1875 0.34375q0.234375 0.171875 1.6875 0.515625q1.46875 0.328125 2.0625 0.8125q0.5625 0.484375 0.5625 1.359375q0 0.953125 -0.796875 1.640625q-0.78125 0.671875 -2.34375 0.671875q-1.40625 0 -2.234375 -0.5625q-0.828125 -0.578125 -1.078125 -1.5625z" fill-rule="nonzero"/><path fill="#000000" fill-opacity="0.0" d="m288.0 0l144.0 0l0 35.559055l-144.0 0z" fill-rule="evenodd"/><path fill="#000000" d="m297.96875 21.8l0 -9.546875l3.09375 0q1.75 0 2.296875 0.15625q0.8125 0.203125 1.359375 0.921875q0.5625 0.71875 0.5625 1.859375q0 0.875 -0.328125 1.484375q-0.3125 0.59375 -0.8125 0.9375q-0.484375 0.34375 -0.984375 0.453125q-0.703125 0.140625 -2.0 0.140625l-1.265625 0l0 3.59375l-1.921875 0zm1.921875 -7.921875l0 2.703125l1.0625 0q1.140625 0 1.515625 -0.140625q0.390625 -0.15625 0.609375 -0.46875q0.21875 -0.328125 0.21875 -0.75q0 -0.515625 -0.3125 -0.859375q-0.296875 -0.34375 -0.765625 -0.421875q-0.34375 -0.0625 -1.390625 -0.0625l-0.9375 0zm8.7022705 7.921875l-1.828125 0l0 -6.90625l1.703125 0l0 0.984375q0.4375 -0.703125 0.78125 -0.921875q0.34375 -0.21875 0.796875 -0.21875q0.625 0 1.203125 0.34375l-0.5625 1.59375q-0.46875 -0.296875 -0.859375 -0.296875q-0.390625 0 -0.65625 0.21875q-0.265625 0.203125 -0.421875 0.765625q-0.15625 0.546875 -0.15625 2.296875l0 2.140625zm3.0148926 -3.546875q0 -0.921875 0.453125 -1.765625q0.453125 -0.859375 1.265625 -1.296875q0.828125 -0.453125 1.84375 -0.453125q1.5625 0 2.5625 1.015625q1.015625 1.015625 1.015625 2.578125q0 1.5625 -1.015625 2.59375q-1.015625 1.03125 -2.546875 1.03125q-0.953125 0 -1.8125 -0.421875q-0.859375 -0.4375 -1.3125 -1.265625q-0.453125 -0.828125 -0.453125 -2.015625zm1.875 0.09375q0 1.03125 0.484375 1.578125q0.5 0.546875 1.203125 0.546875q0.71875 0 1.203125 -0.546875q0.484375 -0.546875 0.484375 -1.59375q0 -1.015625 -0.484375 -1.5625q-0.484375 -0.546875 -1.203125 -0.546875q-0.703125 0 -1.203125 0.546875q-0.484375 0.546875 -0.484375 1.578125zm6.5163574 3.90625l2.09375 0.25q0.046875 0.375 0.25 0.5q0.25 0.203125 0.8125 0.203125q0.71875 0 1.078125 -0.21875q0.234375 -0.140625 0.359375 -0.453125q0.078125 -0.234375 0.078125 -0.84375l0 -1.015625q-0.8125 1.125 -2.0625 1.125q-1.390625 0 -2.203125 -1.171875q-0.640625 -0.9375 -0.640625 -2.328125q0 -1.734375 0.828125 -2.640625q0.84375 -0.921875 2.09375 -0.921875q1.28125 0 2.109375 1.125l0 -0.96875l1.703125 0l0 6.203125q0 1.21875 -0.203125 1.8125q-0.1875 0.609375 -0.5625 0.953125q-0.359375 0.359375 -0.96875 0.546875q-0.609375 0.203125 -1.53125 0.203125q-1.765625 0 -2.5 -0.609375q-0.734375 -0.609375 -0.734375 -1.53125q0 -0.09375 0 -0.21875zm1.640625 -4.046875q0 1.09375 0.421875 1.609375q0.4375 0.5 1.046875 0.5q0.671875 0 1.140625 -0.515625q0.46875 -0.53125 0.46875 -1.546875q0 -1.078125 -0.453125 -1.59375q-0.4375 -0.53125 -1.109375 -0.53125q-0.65625 0 -1.09375 0.515625q-0.421875 0.515625 -0.421875 1.5625zm8.422607 3.59375l-1.828125 0l0 -6.90625l1.703125 0l0 0.984375q0.4375 -0.703125 0.78125 -0.921875q0.34375 -0.21875 0.796875 -0.21875q0.625 0 1.203125 0.34375l-0.5625 1.59375q-0.46875 -0.296875 -0.859375 -0.296875q-0.390625 0 -0.65625 0.21875q-0.265625 0.203125 -0.421875 0.765625q-0.15625 0.546875 -0.15625 2.296875l0 2.140625zm4.8117676 -4.796875l-1.671875 -0.3125q0.28125 -1.0 0.96875 -1.46875q0.6875 -0.484375 2.03125 -0.484375q1.21875 0 1.8125 0.296875q0.609375 0.28125 0.84375 0.734375q0.25 0.4375 0.25 1.625l-0.015625 2.140625q0 0.90625 0.078125 1.34375q0.09375 0.421875 0.34375 0.921875l-1.8125 0q-0.078125 -0.1875 -0.171875 -0.546875q-0.046875 -0.15625 -0.078125 -0.203125q-0.46875 0.453125 -1.0 0.6875q-0.53125 0.21875 -1.140625 0.21875q-1.0625 0 -1.6875 -0.578125q-0.609375 -0.578125 -0.609375 -1.46875q0 -0.578125 0.28125 -1.03125q0.28125 -0.46875 0.78125 -0.703125q0.515625 -0.25 1.46875 -0.4375q1.28125 -0.234375 1.765625 -0.453125l0 -0.171875q0 -0.53125 -0.265625 -0.75q-0.25 -0.234375 -0.96875 -0.234375q-0.484375 0 -0.765625 0.203125q-0.265625 0.1875 -0.4375 0.671875zm2.4375 1.484375q-0.34375 0.109375 -1.109375 0.28125q-0.765625 0.15625 -1.0 0.3125q-0.359375 0.25 -0.359375 0.640625q0 0.390625 0.28125 0.671875q0.296875 0.28125 0.734375 0.28125q0.5 0 0.953125 -0.328125q0.328125 -0.25 0.4375 -0.609375q0.0625 -0.234375 0.0625 -0.890625l0 -0.359375zm3.4593506 -3.59375l1.6875 0l0 0.9375q0.90625 -1.09375 2.15625 -1.09375q0.671875 0 1.15625 0.28125q0.484375 0.265625 0.796875 0.8125q0.453125 -0.546875 0.984375 -0.8125q0.53125 -0.28125 1.125 -0.28125q0.765625 0 1.28125 0.3125q0.53125 0.296875 0.796875 0.90625q0.1875 0.4375 0.1875 1.421875l0 4.421875l-1.828125 0l0 -3.953125q0 -1.03125 -0.1875 -1.328125q-0.25 -0.390625 -0.78125 -0.390625q-0.390625 0 -0.734375 0.234375q-0.328125 0.234375 -0.484375 0.6875q-0.140625 0.453125 -0.140625 1.4375l0 3.3125l-1.828125 0l0 -3.78125q0 -1.015625 -0.109375 -1.296875q-0.09375 -0.296875 -0.296875 -0.4375q-0.203125 -0.15625 -0.546875 -0.15625q-0.421875 0 -0.765625 0.234375q-0.34375 0.21875 -0.484375 0.65625q-0.140625 0.421875 -0.140625 1.421875l0 3.359375l-1.84375 0l0 -6.90625zm15.725708 6.90625l0 -9.546875l6.53125 0l0 1.625l-4.609375 0l0 2.25l3.984375 0l0 1.625l-3.984375 0l0 4.046875l-1.921875 0zm12.656982 0l0 -1.03125q-0.375 0.546875 -1.0 0.875q-0.609375 0.3125 -1.28125 0.3125q-0.703125 0 -1.265625 -0.296875q-0.546875 -0.3125 -0.796875 -0.859375q-0.234375 -0.5625 -0.234375 -1.53125l0 -4.375l1.828125 0l0 3.171875q0 1.453125 0.09375 1.78125q0.109375 0.328125 0.375 0.53125q0.265625 0.1875 0.671875 0.1875q0.46875 0 0.84375 -0.25q0.375 -0.265625 0.5 -0.640625q0.140625 -0.390625 0.140625 -1.875l0 -2.90625l1.828125 0l0 6.90625l-1.703125 0zm9.891357 0l-1.828125 0l0 -3.53125q0 -1.109375 -0.125 -1.4375q-0.109375 -0.328125 -0.375 -0.515625q-0.265625 -0.1875 -0.640625 -0.1875q-0.46875 0 -0.859375 0.265625q-0.375 0.265625 -0.515625 0.703125q-0.140625 0.421875 -0.140625 1.578125l0 3.125l-1.828125 0l0 -6.90625l1.703125 0l0 1.015625q0.90625 -1.171875 2.28125 -1.171875q0.609375 0 1.109375 0.21875q0.5 0.21875 0.75 0.5625q0.265625 0.328125 0.359375 0.765625q0.109375 0.421875 0.109375 1.21875l0 4.296875zm7.8757324 -4.875l-1.796875 0.328125q-0.09375 -0.53125 -0.421875 -0.796875q-0.328125 -0.28125 -0.828125 -0.28125q-0.6875 0 -1.09375 0.46875q-0.40625 0.46875 -0.40625 1.578125q0 1.234375 0.40625 1.75q0.421875 0.5 1.109375 0.5q0.53125 0 0.859375 -0.296875q0.328125 -0.296875 0.46875 -1.03125l1.796875 0.3125q-0.28125 1.234375 -1.078125 1.875q-0.796875 0.625 -2.125 0.625q-1.515625 0 -2.421875 -0.953125q-0.90625 -0.953125 -0.90625 -2.65625q0 -1.703125 0.90625 -2.65625q0.90625 -0.953125 2.453125 -0.953125q1.265625 0 2.0 0.546875q0.75 0.53125 1.078125 1.640625zm4.5531006 -2.03125l0 1.453125l-1.25 0l0 2.78125q0 0.84375 0.03125 0.984375q0.046875 0.140625 0.171875 0.234375q0.125 0.09375 0.3125 0.09375q0.25 0 0.734375 -0.171875l0.15625 1.421875q-0.640625 0.265625 -1.453125 0.265625q-0.484375 0 -0.890625 -0.15625q-0.390625 -0.171875 -0.578125 -0.4375q-0.1875 -0.265625 -0.265625 -0.71875q-0.046875 -0.3125 -0.046875 -1.28125l0 -3.015625l-0.84375 0l0 -1.453125l0.84375 0l0 -1.375l1.828125 -1.078125l0 2.453125l1.25 0zm1.26651 -0.9375l0 -1.703125l1.828125 0l0 1.703125l-1.828125 0zm0 7.84375l0 -6.90625l1.828125 0l0 6.90625l-1.828125 0zm3.2810974 -3.546875q0 -0.921875 0.453125 -1.765625q0.453125 -0.859375 1.265625 -1.296875q0.828125 -0.453125 1.84375 -0.453125q1.5625 0 2.5625 1.015625q1.015625 1.015625 1.015625 2.578125q0 1.5625 -1.015625 2.59375q-1.015625 1.03125 -2.546875 1.03125q-0.953125 0 -1.8125 -0.421875q-0.859375 -0.4375 -1.3125 -1.265625q-0.453125 -0.828125 -0.453125 -2.015625zm1.875 0.09375q0 1.03125 0.484375 1.578125q0.5 0.546875 1.203125 0.546875q0.71875 0 1.203125 -0.546875q0.484375 -0.546875 0.484375 -1.59375q0 -1.015625 -0.484375 -1.5625q-0.484375 -0.546875 -1.203125 -0.546875q-0.703125 0 -1.203125 0.546875q-0.484375 0.546875 -0.484375 1.578125zm12.985107 3.453125l-1.828125 0l0 -3.53125q0 -1.109375 -0.125 -1.4375q-0.109375 -0.328125 -0.375 -0.515625q-0.265625 -0.1875 -0.640625 -0.1875q-0.46875 0 -0.859375 0.265625q-0.375 0.265625 -0.515625 0.703125q-0.140625 0.421875 -0.140625 1.578125l0 3.125l-1.828125 0l0 -6.90625l1.703125 0l0 1.015625q0.90625 -1.171875 2.28125 -1.171875q0.609375 0 1.109375 0.21875q0.5 0.21875 0.75 0.5625q0.265625 0.328125 0.359375 0.765625q0.109375 0.421875 0.109375 1.21875l0 4.296875zm1.2038574 -1.96875l1.828125 -0.28125q0.125 0.53125 0.484375 0.8125q0.359375 0.265625 1.0 0.265625q0.703125 0 1.0625 -0.25q0.25 -0.1875 0.25 -0.484375q0 -0.21875 -0.140625 -0.359375q-0.125 -0.125 -0.609375 -0.234375q-2.203125 -0.484375 -2.796875 -0.890625q-0.828125 -0.5625 -0.828125 -1.5625q0 -0.890625 0.703125 -1.5q0.71875 -0.609375 2.203125 -0.609375q1.421875 0 2.109375 0.46875q0.703125 0.453125 0.953125 1.359375l-1.71875 0.3125q-0.109375 -0.40625 -0.421875 -0.609375q-0.3125 -0.21875 -0.890625 -0.21875q-0.71875 0 -1.03125 0.203125q-0.203125 0.140625 -0.203125 0.359375q0 0.203125 0.1875 0.34375q0.234375 0.171875 1.6875 0.515625q1.46875 0.328125 2.0625 0.8125q0.5625 0.484375 0.5625 1.359375q0 0.953125 -0.796875 1.640625q-0.78125 0.671875 -2.34375 0.671875q-1.40625 0 -2.234375 -0.5625q-0.828125 -0.578125 -1.078125 -1.5625z" fill-rule="nonzero"/></g></svg>