<svg version="1.1" viewBox="0 0 284.40944881889766 195.1548556430446" fill="none" stroke="none" stroke-linecap="square" stroke-miterlimit="10" xmlns="http://www.w3.org/2000/svg"><clipPath id="p"><path d="m0 0l284.40945 0l0 195.15486l-284.40945 0l0-195.15486z" clip-rule="nonzero"/></clipPath><g clip-path="url(#p)"><path fill="#fff" d="m0 0l284.40945 0l0 195.15486l-284.40945 0z" fill-rule="evenodd"/><path fill="#000" fill-opacity="0" d="m80 27.496063l216 0l0 164.8189l-216 0z" fill-rule="evenodd"/><path fill="#000" d="m92.453125 49.296062l0-8.421875l-3.140625 0l0-1.125l7.5625 0l0 1.125l-3.15625 0l0 8.421875l-1.265625 0zm5.5632324 0l0-9.546875l1.171875 0l0 3.421875q0.828125-.9375 2.078125-.9375q0.765625 0 1.328125.296875q0.5625.296875.8125.84375q0.25.53125.25 1.546875l0 4.375l-1.171875 0l0-4.375q0-.890625-.390625-1.28125q-.375-.40625-1.078125-.40625q-.515625 0-.984375.28125q-.453125.265625-.65625.734375q-.1875.453125-.1875 1.265625l0 3.78125l-1.171875 0zm12.146851-2.21875l1.203125.140625q-.28125 1.0625-1.0625 1.65625q-.765625.578125-1.96875.578125q-1.515625 0-2.40625-.9375q-.890625-.9375-.890625-2.609375q0-1.75.890625-2.703125q0.90625-.96875 2.34375-.96875q1.390625 0 2.265625.9375q0.875.9375.875 2.65625q0 .109375 0 .3125l-5.15625 0q0.0625 1.140625.640625 1.75q0.578125.59375 1.4375.59375q0.65625 0 1.109375-.328125q0.453125-.34375.71875-1.078125zm-3.84375-1.90625l3.859375 0q-.078125-.859375-.4375-1.296875q-.5625-.6875-1.453125-.6875q-.8125 0-1.359375.546875q-.546875.53125-.609375 1.4375zm10.224838 6.78125l0-9.5625l1.078125 0l0 .890625q0.375-.53125.84375-.78125q0.484375-.265625 1.15625-.265625q0.875 0 1.546875.453125q0.6875.453125 1.03125 1.28125q0.34375.828125.34375 1.828125q0 1.046875-.375 1.90625q-.375.84375-1.109375 1.296875q-.71875.453125-1.53125.453125q-.578125 0-1.046875-.25q-.46875-.25-.765625-.625l0 3.375l-1.171875 0zm1.0625-6.078125q0 1.34375.53125 1.984375q0.546875.625 1.3125.625q0.78125 0 1.34375-.65625q0.5625-.65625.5625-2.046875q0-1.3125-.546875-1.96875q-.546875-.671875-1.296875-.671875q-.75 0-1.328125.703125q-.578125.703125-.578125 2.03125zm6.3343506 3.421875l0-6.90625l1.0625 0l0 1.046875q0.40625-.734375.734375-.96875q0.34375-.234375.765625-.234375q0.59375 0 1.203125.375l-.40625 1.078125q-.4375-.25-.859375-.25q-.390625 0-.703125.234375q-.296875.234375-.421875.640625q-.203125.625-.203125 1.359375l0 3.625l-1.171875 0zm4.0164948-3.453125q0-1.921875 1.078125-2.84375q0.890625-.765625 2.171875-.765625q1.421875 0 2.328125.9375q0.90625.921875.90625 2.578125q0 1.328125-.40625 2.09375q-.390625.765625-1.15625 1.1875q-.765625.421875-1.671875.421875q-1.453125 0-2.359375-.921875q-.890625-.9375-.890625-2.6875zm1.203125 0q0 1.328125.578125 1.984375q0.59375.65625 1.46875.65625q0.875 0 1.453125-.65625q0.578125-.671875.578125-2.03125q0-1.28125-.59375-1.9375q-.578125-.65625-1.4375-.65625q-.875 0-1.46875.65625q-.578125.65625-.578125 1.984375zm6.4281006 4.03125l1.140625.15625q0.078125.53125.40625.78125q0.4375.3125 1.1875.3125q0.8125 0 1.25-.328125q0.453125-.3125.609375-.90625q0.09375-.359375.078125-1.5q-.765625.90625-1.90625.90625q-1.4375 0-2.21875-1.03125q-.78125-1.03125-.78125-2.46875q0-.984375.359375-1.8125q0.359375-.84375 1.03125-1.296875q0.6875-.453125 1.609375-.453125q1.21875 0 2.015625.984375l0-.828125l1.078125 0l0 5.96875q0 1.609375-.328125 2.28125q-.328125.6875-1.046875 1.078125q-.703125.390625-1.75.390625q-1.234375 0-2-.5625q-.75-.5625-.734375-1.671875zm0.984375-4.15625q0 1.359375.53125 1.984375q0.546875.625 1.359375.625q0.796875 0 1.34375-.625q0.546875-.625.546875-1.953125q0-1.265625-.5625-1.90625q-.5625-.640625-1.359375-.640625q-.765625 0-1.3125.640625q-.546875.625-.546875 1.875zm6.6312256 3.578125l0-6.90625l1.0625 0l0 1.046875q0.40625-.734375.734375-.96875q0.34375-.234375.765625-.234375q0.59375 0 1.203125.375l-.40625 1.078125q-.4375-.25-.859375-.25q-.390625 0-.703125.234375q-.296875.234375-.421875.640625q-.203125.625-.203125 1.359375l0 3.625l-1.171875 0zm8.96962-.859375q-.65625.5625-1.265625.796875q-.59375.21875-1.28125.21875q-1.140625 0-1.75-.546875q-.609375-.5625-.609375-1.4375q0-.5.21875-.921875q0.234375-.421875.609375-.671875q0.375-.25.84375-.390625q0.34375-.078125 1.046875-.171875q1.421875-.171875 2.09375-.40625q0-.234375 0-.296875q0-.71875-.328125-1.015625q-.453125-.390625-1.34375-.390625q-.8125 0-1.21875.296875q-.390625.28125-.578125 1.015625l-1.140625-.15625q0.15625-.734375.515625-1.1875q0.359375-.453125 1.03125-.6875q0.671875-.25 1.5625-.25q0.890625 0 1.4375.203125q0.5625.203125.8125.53125q0.265625.3125.375.796875q0.046875.296875.046875 1.078125l0 1.5625q0 1.625.078125 2.0625q0.078125.4375.296875.828125l-1.21875 0q-.1875-.359375-.234375-.859375zm-.09375-2.609375q-.640625.265625-1.921875.4375q-.71875.109375-1.015625.25q-.296875.125-.46875.375q-.15625.25-.15625.546875q0 .46875.34375.78125q0.359375.3125 1.046875.3125q0.671875 0 1.203125-.296875q0.53125-.296875.78125-.8125q0.1875-.390625.1875-1.171875l0-.421875zm2.9906006 3.46875l0-6.90625l1.046875 0l0 .96875q0.328125-.515625.859375-.8125q0.546875-.3125 1.234375-.3125q0.78125 0 1.265625.3125q0.484375.3125.6875.890625q0.828125-1.203125 2.140625-1.203125q1.03125 0 1.578125.578125q0.5625.5625.5625 1.734375l0 4.75l-1.171875 0l0-4.359375q0-.703125-.125-1.0q-.109375-.3125-.40625-.5q-.296875-.1875-.703125-.1875q-.71875 0-1.203125.484375q-.484375.484375-.484375 1.546875l0 4.015625l-1.171875 0l0-4.484375q0-.78125-.296875-1.171875q-.28125-.390625-.921875-.390625q-.5 0-.921875.265625q-.421875.25-.609375.75q-.1875.5-.1875 1.453125l0 3.578125l-1.171875 0zm14.33667-2.0625l1.15625-.1875q0.109375.703125.546875 1.078125q0.453125.359375 1.25.359375q0.8125 0 1.203125-.328125q0.390625-.328125.390625-.765625q0-.390625-.359375-.625q-.234375-.15625-1.1875-.390625q-1.296875-.328125-1.796875-.5625q-.484375-.25-.75-.65625q-.25-.421875-.25-.9375q0-.453125.203125-.84375q0.21875-.40625.578125-.671875q0.28125-.1875.75-.328125q0.46875-.140625 1.015625-.140625q0.8125 0 1.421875.234375q0.609375.234375.90625.640625q0.296875.390625.40625 1.0625l-1.140625.15625q-.078125-.53125-.453125-.828125q-.375-.3125-1.0625-.3125q-.8125 0-1.15625.265625q-.34375.265625-.34375.625q0 .234375.140625.421875q0.15625.1875.453125.3125q0.171875.0625 1.03125.296875q1.25.328125 1.734375.546875q0.5.203125.78125.609375q0.28125.40625.28125 1.0q0 .59375-.34375 1.109375q-.34375.515625-1 .796875q-.640625.28125-1.453125.28125q-1.34375 0-2.046875-.5625q-.703125-.5625-.90625-1.65625zm9.6953125 1.015625l0.171875 1.03125q-.5.109375-.890625.109375q-.640625 0-1-.203125q-.34375-.203125-.484375-.53125q-.140625-.328125-.140625-1.390625l0-3.96875l-.859375 0l0-.90625l0.859375 0l0-1.71875l1.171875-.703125l0 2.421875l1.171875 0l0 .90625l-1.171875 0l0 4.046875q0 .5.046875.640625q0.0625.140625.203125.234375q0.140625.078125.40625.078125q0.203125 0 .515625-.046875zm5.6561127.1875q-.65625.5625-1.265625.796875q-.59375.21875-1.28125.21875q-1.140625 0-1.75-.546875q-.609375-.5625-.609375-1.4375q0-.5.21875-.921875q0.234375-.421875.609375-.671875q0.375-.25.84375-.390625q0.34375-.078125 1.046875-.171875q1.421875-.171875 2.09375-.40625q0-.234375 0-.296875q0-.71875-.328125-1.015625q-.453125-.390625-1.34375-.390625q-.8125 0-1.21875.296875q-.390625.28125-.578125 1.015625l-1.140625-.15625q0.15625-.734375.515625-1.1875q0.359375-.453125 1.03125-.6875q0.671875-.25 1.5625-.25q0.890625 0 1.4375.203125q0.5625.203125.8125.53125q0.265625.3125.375.796875q0.046875.296875.046875 1.078125l0 1.5625q0 1.625.078125 2.0625q0.078125.4375.296875.828125l-1.21875 0q-.1875-.359375-.234375-.859375zm-.09375-2.609375q-.640625.265625-1.921875.4375q-.71875.109375-1.015625.25q-.296875.125-.46875.375q-.15625.25-.15625.546875q0 .46875.34375.78125q0.359375.3125 1.046875.3125q0.671875 0 1.203125-.296875q0.53125-.296875.78125-.8125q0.1875-.390625.1875-1.171875l0-.421875zm2.9749756 3.46875l0-6.90625l1.0625 0l0 1.046875q0.40625-.734375.734375-.96875q0.34375-.234375.765625-.234375q0.59375 0 1.203125.375l-.40625 1.078125q-.4375-.25-.859375-.25q-.390625 0-.703125.234375q-.296875.234375-.421875.640625q-.203125.625-.203125 1.359375l0 3.625l-1.171875 0zm7.0164948-1.046875l0.171875 1.03125q-.5.109375-.890625.109375q-.640625 0-1-.203125q-.34375-.203125-.484375-.53125q-.140625-.328125-.140625-1.390625l0-3.96875l-.859375 0l0-.90625l0.859375 0l0-1.71875l1.171875-.703125l0 2.421875l1.171875 0l0 .90625l-1.171875 0l0 4.046875q0 .5.046875.640625q0.0625.140625.203125.234375q0.140625.078125.40625.078125q0.203125 0 .515625-.046875zm4.8434753 3.703125l0-9.5625l1.078125 0l0 .890625q0.375-.53125.84375-.78125q0.484375-.265625 1.15625-.265625q0.875 0 1.546875.453125q0.6875.453125 1.03125 1.28125q0.34375.828125.34375 1.828125q0 1.046875-.375 1.90625q-.375.84375-1.109375 1.296875q-.71875.453125-1.53125.453125q-.578125 0-1.046875-.25q-.46875-.25-.765625-.625l0 3.375l-1.171875 0zm1.0625-6.078125q0 1.34375.53125 1.984375q0.546875.625 1.3125.625q0.78125 0 1.34375-.65625q0.5625-.65625.5625-2.046875q0-1.3125-.546875-1.96875q-.546875-.671875-1.296875-.671875q-.75 0-1.328125.703125q-.578125.703125-.578125 2.03125zm5.9124756-.03125q0-1.921875 1.078125-2.84375q0.890625-.765625 2.171875-.765625q1.421875 0 2.328125.9375q0.90625.921875.90625 2.578125q0 1.328125-.40625 2.09375q-.390625.765625-1.15625 1.1875q-.765625.421875-1.671875.421875q-1.453125 0-2.359375-.921875q-.890625-.9375-.890625-2.6875zm1.203125 0q0 1.328125.578125 1.984375q0.59375.65625 1.46875.65625q0.875 0 1.453125-.65625q0.578125-.671875.578125-2.03125q0-1.28125-.59375-1.9375q-.578125-.65625-1.4375-.65625q-.875 0-1.46875.65625q-.578125.65625-.578125 1.984375zm6.6624756-4.734375l0-1.359375l1.171875 0l0 1.359375l-1.171875 0zm0 8.1875l0-6.90625l1.171875 0l0 6.90625l-1.171875 0zm2.945465 0l0-6.90625l1.0625 0l0 .984375q0.75-1.140625 2.1875-1.140625q0.625 0 1.15625.21875q0.53125.21875.78125.59375q0.265625.359375.375.859375q0.0625.328125.0625 1.140625l0 4.25l-1.171875 0l0-4.203125q0-.71875-.140625-1.0625q-.140625-.359375-.484375-.5625q-.34375-.21875-.8125-.21875q-.75 0-1.296875.46875q-.546875.46875-.546875 1.796875l0 3.78125l-1.171875 0zm9.974976-1.046875l0.171875 1.03125q-.5.109375-.890625.109375q-.640625 0-1-.203125q-.34375-.203125-.484375-.53125q-.140625-.328125-.140625-1.390625l0-3.96875l-.859375 0l0-.90625l0.859375 0l0-1.71875l1.171875-.703125l0 2.421875l1.171875 0l0 .90625l-1.171875 0l0 4.046875q0 .5.046875.640625q0.0625.140625.203125.234375q0.140625.078125.40625.078125q0.203125 0 .515625-.046875z" fill-rule="nonzero"/><path fill="#000" d="m88.984375 81.29606l3.65625-9.546875l1.359375 0l3.90625 9.546875l-1.4375 0l-1.109375-2.890625l-3.984375 0l-1.046875 2.890625l-1.34375 0zm2.75-3.921875l3.234375 0l-1-2.640625q-.453125-1.203125-.671875-1.96875q-.1875.90625-.515625 1.8125l-1.046875 2.796875zm14.528946 3.921875l0-1.015625q-.8125 1.171875-2.1875 1.171875q-.609375 0-1.140625-.234375q-.53125-.234375-.796875-.578125q-.25-.359375-.359375-.875q-.0625-.34375-.0625-1.09375l0-4.28125l1.171875 0l0 3.828125q0 .921875.0625 1.234375q0.109375.46875.46875.734375q0.359375.25.890625.25q0.515625 0 .984375-.265625q0.46875-.265625.65625-.734375q0.1875-.46875.1875-1.34375l0-3.703125l1.171875 0l0 6.90625l-1.046875 0zm2.4124756-2.0625l1.15625-.1875q0.109375.703125.546875 1.078125q0.453125.359375 1.25.359375q0.8125 0 1.203125-.328125q0.390625-.328125.390625-.765625q0-.390625-.359375-.625q-.234375-.15625-1.1875-.390625q-1.296875-.328125-1.796875-.5625q-.484375-.25-.75-.65625q-.25-.421875-.25-.9375q0-.453125.203125-.84375q0.21875-.40625.578125-.671875q0.28125-.1875.75-.328125q0.46875-.140625 1.015625-.140625q0.8125 0 1.421875.234375q0.609375.234375.90625.640625q0.296875.390625.40625 1.0625l-1.140625.15625q-.078125-.53125-.453125-.828125q-.375-.3125-1.0625-.3125q-.8125 0-1.15625.265625q-.34375.265625-.34375.625q0 .234375.140625.421875q0.15625.1875.453125.3125q0.171875.0625 1.03125.296875q1.25.328125 1.734375.546875q0.5.203125.78125.609375q0.28125.40625.28125 1.0q0 .59375-.34375 1.109375q-.34375.515625-1 .796875q-.640625.28125-1.453125.28125q-1.34375 0-2.046875-.5625q-.703125-.5625-.90625-1.65625zm11.8671875-.15625l1.203125.140625q-.28125 1.0625-1.0625 1.65625q-.765625.578125-1.96875.578125q-1.515625 0-2.40625-.9375q-.890625-.9375-.890625-2.609375q0-1.75.890625-2.703125q0.90625-.96875 2.34375-.96875q1.390625 0 2.265625.9375q0.875.9375.875 2.65625q0 .109375 0 .3125l-5.15625 0q0.0625 1.140625.640625 1.75q0.578125.59375 1.4375.59375q0.65625 0 1.109375-.328125q0.453125-.34375.71875-1.078125zm-3.84375-1.90625l3.859375 0q-.078125-.859375-.4375-1.296875q-.5625-.6875-1.453125-.6875q-.8125 0-1.359375.546875q-.546875.53125-.609375 1.4375zm6.5062256 4.125l0-6.90625l1.0625 0l0 1.046875q0.40625-.734375.734375-.96875q0.34375-.234375.765625-.234375q0.59375 0 1.203125.375l-.40625 1.078125q-.4375-.25-.859375-.25q-.390625 0-.703125.234375q-.296875.234375-.421875.640625q-.203125.625-.203125 1.359375l0 3.625l-1.171875 0zm4.0008698-2.859375l0-1.1875l3.59375 0l0 1.1875l-3.59375 0zm9.37587 2.859375l0-.875q-.65625 1.03125-1.9375 1.03125q-.8125 0-1.515625-.453125q-.6875-.453125-1.078125-1.265625q-.375-.828125-.375-1.890625q0-1.03125.34375-1.875q0.34375-.84375 1.03125-1.28125q0.703125-.453125 1.546875-.453125q0.625 0 1.109375.265625q0.5.25.796875.671875l0-3.421875l1.171875 0l0 9.546875l-1.09375 0zm-3.703125-3.453125q0 1.328125.5625 1.984375q0.5625.65625 1.328125.65625q0.765625 0 1.296875-.625q0.53125-.625.53125-1.90625q0-1.421875-.546875-2.078125q-.546875-.671875-1.34375-.671875q-.78125 0-1.3125.640625q-.515625.625-.515625 2.0zm11.365601 1.234375l1.203125.140625q-.28125 1.0625-1.0625 1.65625q-.765625.578125-1.96875.578125q-1.515625 0-2.40625-.9375q-.890625-.9375-.890625-2.609375q0-1.75.890625-2.703125q0.90625-.96875 2.34375-.96875q1.390625 0 2.265625.9375q0.875.9375.875 2.65625q0 .109375 0 .3125l-5.15625 0q0.0625 1.140625.640625 1.75q0.578125.59375 1.4375.59375q0.65625 0 1.109375-.328125q0.453125-.34375.71875-1.078125zm-3.84375-1.90625l3.859375 0q-.078125-.859375-.4375-1.296875q-.5625-.6875-1.453125-.6875q-.8125 0-1.359375.546875q-.546875.53125-.609375 1.4375zm6.8031006 4.125l0-6.0l-1.03125 0l0-.90625l1.03125 0l0-.734375q0-.703125.125-1.046875q0.171875-.453125.59375-.734375q0.421875-.28125 1.203125-.28125q0.484375 0 1.09375.109375l-.1875 1.03125q-.359375-.0625-.6875-.0625q-.53125 0-.75.234375q-.21875.21875-.21875.84375l0 .640625l1.34375 0l0 .90625l-1.34375 0l0 6.0l-1.171875 0zm3.4373627-8.1875l0-1.359375l1.171875 0l0 1.359375l-1.171875 0zm0 8.1875l0-6.90625l1.171875 0l0 6.90625l-1.171875 0zm2.945465 0l0-6.90625l1.0625 0l0 .984375q0.75-1.140625 2.1875-1.140625q0.625 0 1.15625.21875q0.53125.21875.78125.59375q0.265625.359375.375.859375q0.0625.328125.0625 1.140625l0 4.25l-1.171875 0l0-4.203125q0-.71875-.140625-1.0625q-.140625-.359375-.484375-.5625q-.34375-.21875-.8125-.21875q-.75 0-1.296875.46875q-.546875.46875-.546875 1.796875l0 3.78125l-1.171875 0zm12.146851-2.21875l1.203125.140625q-.28125 1.0625-1.0625 1.65625q-.765625.578125-1.96875.578125q-1.515625 0-2.40625-.9375q-.890625-.9375-.890625-2.609375q0-1.75.890625-2.703125q0.90625-.96875 2.34375-.96875q1.390625 0 2.265625.9375q0.875.9375.875 2.65625q0 .109375 0 .3125l-5.15625 0q0.0625 1.140625.640625 1.75q0.578125.59375 1.4375.59375q0.65625 0 1.109375-.328125q0.453125-.34375.71875-1.078125zm-3.84375-1.90625l3.859375 0q-.078125-.859375-.4375-1.296875q-.5625-.6875-1.453125-.6875q-.8125 0-1.359375.546875q-.546875.53125-.609375 1.4375zm11.006226 4.125l0-.875q-.65625 1.03125-1.9375 1.03125q-.8125 0-1.515625-.453125q-.6875-.453125-1.078125-1.265625q-.375-.828125-.375-1.890625q0-1.03125.34375-1.875q0.34375-.84375 1.03125-1.28125q0.703125-.453125 1.546875-.453125q0.625 0 1.109375.265625q0.5.25.796875.671875l0-3.421875l1.171875 0l0 9.546875l-1.09375 0zm-3.703125-3.453125q0 1.328125.5625 1.984375q0.5625.65625 1.328125.65625q0.765625 0 1.296875-.625q0.53125-.625.53125-1.90625q0-1.421875-.546875-2.078125q-.546875-.671875-1.34375-.671875q-.78125 0-1.3125.640625q-.515625.625-.515625 2.0zm10.615463 3.453125l0-6.0l-1.03125 0l0-.90625l1.03125 0l0-.734375q0-.703125.125-1.046875q0.171875-.453125.59375-.734375q0.421875-.28125 1.203125-.28125q0.484375 0 1.09375.109375l-.1875 1.03125q-.359375-.0625-.6875-.0625q-.53125 0-.75.234375q-.21875.21875-.21875.84375l0 .640625l1.34375 0l0 .90625l-1.34375 0l0 6.0l-1.171875 0zm7.9529877 0l0-1.015625q-.8125 1.171875-2.1875 1.171875q-.609375 0-1.140625-.234375q-.53125-.234375-.796875-.578125q-.25-.359375-.359375-.875q-.0625-.34375-.0625-1.09375l0-4.28125l1.171875 0l0 3.828125q0 .921875.0625 1.234375q0.109375.46875.46875.734375q0.359375.25.890625.25q0.515625 0 .984375-.265625q0.46875-.265625.65625-.734375q0.1875-.46875.1875-1.34375l0-3.703125l1.171875 0l0 6.90625l-1.046875 0zm2.8812256 0l0-6.90625l1.0625 0l0 .984375q0.75-1.140625 2.1875-1.140625q0.625 0 1.15625.21875q0.53125.21875.78125.59375q0.265625.359375.375.859375q0.0625.328125.0625 1.140625l0 4.25l-1.171875 0l0-4.203125q0-.71875-.140625-1.0625q-.140625-.359375-.484375-.5625q-.34375-.21875-.8125-.21875q-.75 0-1.296875.46875q-.546875.46875-.546875 1.796875l0 3.78125l-1.171875 0zm11.928101-2.53125l1.15625.15625q-.1875 1.1875-.96875 1.859375q-.78125.671875-1.921875.671875q-1.40625 0-2.28125-.921875q-.859375-.9375-.859375-2.65625q0-1.125.375-1.96875q0.375-.84375 1.125-1.25q0.765625-.421875 1.65625-.421875q1.125 0 1.84375.578125q0.71875.5625.921875 1.609375l-1.140625.171875q-.171875-.703125-.59375-1.046875q-.40625-.359375-.984375-.359375q-.890625 0-1.453125.640625q-.546875.640625-.546875 2.0q0 1.40625.53125 2.03125q0.546875.625 1.40625.625q0.6875 0 1.140625-.421875q0.46875-.421875.59375-1.296875zm4.7109375 1.484375l0.171875 1.03125q-.5.109375-.890625.109375q-.640625 0-1-.203125q-.34375-.203125-.484375-.53125q-.140625-.328125-.140625-1.390625l0-3.96875l-.859375 0l0-.90625l0.859375 0l0-1.71875l1.171875-.703125l0 2.421875l1.171875 0l0 .90625l-1.171875 0l0 4.046875q0 .5.046875.640625q0.0625.140625.203125.234375q0.140625.078125.40625.078125q0.203125 0 .515625-.046875zm1.1561127-7.140625l0-1.359375l1.171875 0l0 1.359375l-1.171875 0zm0 8.1875l0-6.90625l1.171875 0l0 6.90625l-1.171875 0zm2.507965-3.453125q0-1.921875 1.078125-2.84375q0.890625-.765625 2.171875-.765625q1.421875 0 2.328125.9375q0.90625.921875.90625 2.578125q0 1.328125-.40625 2.09375q-.390625.765625-1.15625 1.1875q-.765625.421875-1.671875.421875q-1.453125 0-2.359375-.921875q-.890625-.9375-.890625-2.6875zm1.203125 0q0 1.328125.578125 1.984375q0.59375.65625 1.46875.65625q0.875 0 1.453125-.65625q0.578125-.671875.578125-2.03125q0-1.28125-.59375-1.9375q-.578125-.65625-1.4375-.65625q-.875 0-1.46875.65625q-.578125.65625-.578125 1.984375zm6.6468506 3.453125l0-6.90625l1.0625 0l0 .984375q0.75-1.140625 2.1875-1.140625q0.625 0 1.15625.21875q0.53125.21875.78125.59375q0.265625.359375.375.859375q0.0625.328125.0625 1.140625l0 4.25l-1.171875 0l0-4.203125q0-.71875-.140625-1.0625q-.140625-.359375-.484375-.5625q-.34375-.21875-.8125-.21875q-.75 0-1.296875.46875q-.546875.46875-.546875 1.796875l0 3.78125l-1.171875 0z" fill-rule="nonzero"/><path fill="#000" d="m88.984375 113.29607l3.65625-9.546875l1.359375 0l3.90625 9.546875l-1.4375 0l-1.109375-2.890625l-3.984375 0l-1.046875 2.890625l-1.34375 0zm2.75-3.921875l3.234375 0l-1-2.640625q-.453125-1.203125-.671875-1.96875q-.1875.90625-.515625 1.8125l-1.046875 2.796875zm9.528946 1.859375l1.15625-.1875q0.109375.703125.546875 1.078125q0.453125.359375 1.25.359375q0.8125 0 1.203125-.328125q0.390625-.328125.390625-.765625q0-.390625-.359375-.625q-.234375-.15625-1.1875-.390625q-1.296875-.328125-1.796875-.5625q-.484375-.25-.75-.65625q-.25-.421875-.25-.9375q0-.453125.203125-.84375q0.21875-.40625.578125-.671875q0.28125-.1875.75-.328125q0.46875-.140625 1.015625-.140625q0.8125 0 1.421875.234375q0.609375.234375.90625.640625q0.296875.390625.40625 1.0625l-1.140625.15625q-.078125-.53125-.453125-.828125q-.375-.3125-1.0625-.3125q-.8125 0-1.15625.265625q-.34375.265625-.34375.625q0 .234375.140625.421875q0.15625.1875.453125.3125q0.171875.0625 1.03125.296875q1.25.328125 1.734375.546875q0.5.203125.78125.609375q0.28125.40625.28125 1.0q0 .59375-.34375 1.109375q-.34375.515625-1 .796875q-.640625.28125-1.453125.28125q-1.34375 0-2.046875-.5625q-.703125-.5625-.90625-1.65625zm9.6953125 1.015625l0.171875 1.03125q-.5.109375-.890625.109375q-.640625 0-1-.203125q-.34375-.203125-.484375-.53125q-.140625-.328125-.140625-1.390625l0-3.96875l-.859375 0l0-.90625l0.859375 0l0-1.71875l1.171875-.703125l0 2.421875l1.171875 0l0 .90625l-1.171875 0l0 4.046875q0 .5.046875.640625q0.0625.140625.203125.234375q0.140625.078125.40625.078125q0.203125 0 .515625-.046875zm5.6561127.1875q-.65625.5625-1.265625.796875q-.59375.21875-1.28125.21875q-1.140625 0-1.75-.546875q-.609375-.5625-.609375-1.4375q0-.5.21875-.921875q0.234375-.421875.609375-.671875q0.375-.25.84375-.390625q0.34375-.078125 1.046875-.171875q1.421875-.171875 2.09375-.40625q0-.234375 0-.296875q0-.71875-.328125-1.015625q-.453125-.390625-1.34375-.390625q-.8125 0-1.21875.296875q-.390625.28125-.578125 1.015625l-1.140625-.15625q0.15625-.734375.515625-1.1875q0.359375-.453125 1.03125-.6875q0.671875-.25 1.5625-.25q0.890625 0 1.4375.203125q0.5625.203125.8125.53125q0.265625.3125.375.796875q0.046875.296875.046875 1.078125l0 1.5625q0 1.625.078125 2.0625q0.078125.4375.296875.828125l-1.21875 0q-.1875-.359375-.234375-.859375zm-.09375-2.609375q-.640625.265625-1.921875.4375q-.71875.109375-1.015625.25q-.296875.125-.46875.375q-.15625.25-.15625.546875q0 .46875.34375.78125q0.359375.3125 1.046875.3125q0.671875 0 1.203125-.296875q0.53125-.296875.78125-.8125q0.1875-.390625.1875-1.171875l0-.421875zm2.9906006 3.46875l0-6.90625l1.0625 0l0 .984375q0.75-1.140625 2.1875-1.140625q0.625 0 1.15625.21875q0.53125.21875.78125.59375q0.265625.359375.375.859375q0.0625.328125.0625 1.140625l0 4.25l-1.171875 0l0-4.203125q0-.71875-.140625-1.0625q-.140625-.359375-.484375-.5625q-.34375-.21875-.8125-.21875q-.75 0-1.296875.46875q-.546875.46875-.546875 1.796875l0 3.78125l-1.171875 0zm11.896851 0l0-.875q-.65625 1.03125-1.9375 1.03125q-.8125 0-1.515625-.453125q-.6875-.453125-1.078125-1.265625q-.375-.828125-.375-1.890625q0-1.03125.34375-1.875q0.34375-.84375 1.03125-1.28125q0.703125-.453125 1.546875-.453125q0.625 0 1.109375.265625q0.5.25.796875.671875l0-3.421875l1.171875 0l0 9.546875l-1.09375 0zm-3.703125-3.453125q0 1.328125.5625 1.984375q0.5625.65625 1.328125.65625q0.765625 0 1.296875-.625q0.53125-.625.53125-1.90625q0-1.421875-.546875-2.078125q-.546875-.671875-1.34375-.671875q-.78125 0-1.3125.640625q-.515625.625-.515625 2.0zm11.146851 2.59375q-.65625.5625-1.265625.796875q-.59375.21875-1.28125.21875q-1.140625 0-1.75-.546875q-.609375-.5625-.609375-1.4375q0-.5.21875-.921875q0.234375-.421875.609375-.671875q0.375-.25.84375-.390625q0.34375-.078125 1.046875-.171875q1.421875-.171875 2.09375-.40625q0-.234375 0-.296875q0-.71875-.328125-1.015625q-.453125-.390625-1.34375-.390625q-.8125 0-1.21875.296875q-.390625.28125-.578125 1.015625l-1.140625-.15625q0.15625-.734375.515625-1.1875q0.359375-.453125 1.03125-.6875q0.671875-.25 1.5625-.25q0.890625 0 1.4375.203125q0.5625.203125.8125.53125q0.265625.3125.375.796875q0.046875.296875.046875 1.078125l0 1.5625q0 1.625.078125 2.0625q0.078125.4375.296875.828125l-1.21875 0q-.1875-.359375-.234375-.859375zm-.09375-2.609375q-.640625.265625-1.921875.4375q-.71875.109375-1.015625.25q-.296875.125-.46875.375q-.15625.25-.15625.546875q0 .46875.34375.78125q0.359375.3125 1.046875.3125q0.671875 0 1.203125-.296875q0.53125-.296875.78125-.8125q0.1875-.390625.1875-1.171875l0-.421875zm2.9749756 3.46875l0-6.90625l1.0625 0l0 1.046875q0.40625-.734375.734375-.96875q0.34375-.234375.765625-.234375q0.59375 0 1.203125.375l-.40625 1.078125q-.4375-.25-.859375-.25q-.390625 0-.703125.234375q-.296875.234375-.421875.640625q-.203125.625-.203125 1.359375l0 3.625l-1.171875 0zm8.93837 0l0-.875q-.65625 1.03125-1.9375 1.03125q-.8125 0-1.515625-.453125q-.6875-.453125-1.078125-1.265625q-.375-.828125-.375-1.890625q0-1.03125.34375-1.875q0.34375-.84375 1.03125-1.28125q0.703125-.453125 1.546875-.453125q0.625 0 1.109375.265625q0.5.25.796875.671875l0-3.421875l1.171875 0l0 9.546875l-1.09375 0zm-3.703125-3.453125q0 1.328125.5625 1.984375q0.5625.65625 1.328125.65625q0.765625 0 1.296875-.625q0.53125-.625.53125-1.90625q0-1.421875-.546875-2.078125q-.546875-.671875-1.34375-.671875q-.78125 0-1.3125.640625q-.515625.625-.515625 2.0zm10.490463 3.453125l0-9.546875l3.59375 0q0.953125 0 1.453125.09375q0.703125.125 1.171875.453125q0.484375.328125.765625.921875q0.296875.59375.296875 1.296875q0 1.21875-.78125 2.0625q-.765625.84375-2.796875.84375l-2.4375 0l0 3.875l-1.265625 0zm1.265625-5.0l2.453125 0q1.234375 0 1.75-.453125q0.515625-.46875.515625-1.28125q0-.609375-.3125-1.03125q-.296875-.421875-.796875-.5625q-.3125-.09375-1.171875-.09375l-2.4375 0l0 3.421875zm7.4210052 7.65625l-.125-1.09375q0.375.109375.65625.109375q0.390625 0 .625-.140625q0.234375-.125.390625-.359375q0.109375-.171875.359375-.875q0.03125-.09375.109375-.28125l-2.625-6.921875l1.265625 0l1.4375 4.0q0.28125.765625.5 1.59375q0.203125-.796875.46875-1.578125l1.484375-4.015625l1.171875 0l-2.625 7.015625q-.421875 1.140625-.65625 1.578125q-.3125.578125-.71875.84375q-.40625.28125-.96875.28125q-.328125 0-.75-.15625zm9.2734375-3.703125l0.171875 1.03125q-.5.109375-.890625.109375q-.640625 0-1-.203125q-.34375-.203125-.484375-.53125q-.140625-.328125-.140625-1.390625l0-3.96875l-.859375 0l0-.90625l0.859375 0l0-1.71875l1.171875-.703125l0 2.421875l1.171875 0l0 .90625l-1.171875 0l0 4.046875q0 .5.046875.640625q0.0625.140625.203125.234375q0.140625.078125.40625.078125q0.203125 0 .515625-.046875zm1.1404877 1.046875l0-9.546875l1.171875 0l0 3.421875q0.828125-.9375 2.078125-.9375q0.765625 0 1.328125.296875q0.5625.296875.8125.84375q0.25.53125.25 1.546875l0 4.375l-1.171875 0l0-4.375q0-.890625-.390625-1.28125q-.375-.40625-1.078125-.40625q-.515625 0-.984375.28125q-.453125.265625-.65625.734375q-.1875.453125-.1875 1.265625l0 3.78125l-1.171875 0zm6.9749756-3.453125q0-1.921875 1.078125-2.84375q0.890625-.765625 2.171875-.765625q1.421875 0 2.328125.9375q0.90625.921875.90625 2.578125q0 1.328125-.40625 2.09375q-.390625.765625-1.15625 1.1875q-.765625.421875-1.671875.421875q-1.453125 0-2.359375-.921875q-.890625-.9375-.890625-2.6875zm1.203125 0q0 1.328125.578125 1.984375q0.59375.65625 1.46875.65625q0.875 0 1.453125-.65625q0.578125-.671875.578125-2.03125q0-1.28125-.59375-1.9375q-.578125-.65625-1.4375-.65625q-.875 0-1.46875.65625q-.578125.65625-.578125 1.984375zm6.6468506 3.453125l0-6.90625l1.0625 0l0 .984375q0.75-1.140625 2.1875-1.140625q0.625 0 1.15625.21875q0.53125.21875.78125.59375q0.265625.359375.375.859375q0.0625.328125.0625 1.140625l0 4.25l-1.171875 0l0-4.203125q0-.71875-.140625-1.0625q-.140625-.359375-.484375-.5625q-.34375-.21875-.8125-.21875q-.75 0-1.296875.46875q-.546875.46875-.546875 1.796875l0 3.78125l-1.171875 0zm11.396713 0l0-6.0l-1.03125 0l0-.90625l1.03125 0l0-.734375q0-.703125.125-1.046875q0.171875-.453125.59375-.734375q0.421875-.28125 1.203125-.28125q0.484375 0 1.09375.109375l-.1875 1.03125q-.359375-.0625-.6875-.0625q-.53125 0-.75.234375q-.21875.21875-.21875.84375l0 .640625l1.34375 0l0 .90625l-1.34375 0l0 6.0l-1.171875 0zm7.9529877 0l0-1.015625q-.8125 1.171875-2.1875 1.171875q-.609375 0-1.140625-.234375q-.53125-.234375-.796875-.578125q-.25-.359375-.359375-.875q-.0625-.34375-.0625-1.09375l0-4.28125l1.171875 0l0 3.828125q0 .921875.0625 1.234375q0.109375.46875.46875.734375q0.359375.25.890625.25q0.515625 0 .984375-.265625q0.46875-.265625.65625-.734375q0.1875-.46875.1875-1.34375l0-3.703125l1.171875 0l0 6.90625l-1.046875 0zm2.8812256 0l0-6.90625l1.0625 0l0 .984375q0.75-1.140625 2.1875-1.140625q0.625 0 1.15625.21875q0.53125.21875.78125.59375q0.265625.359375.375.859375q0.0625.328125.0625 1.140625l0 4.25l-1.171875 0l0-4.203125q0-.71875-.140625-1.0625q-.140625-.359375-.484375-.5625q-.34375-.21875-.8125-.21875q-.75 0-1.296875.46875q-.546875.46875-.546875 1.796875l0 3.78125l-1.171875 0zm11.928101-2.53125l1.15625.15625q-.1875 1.1875-.96875 1.859375q-.78125.671875-1.921875.671875q-1.40625 0-2.28125-.921875q-.859375-.9375-.859375-2.65625q0-1.125.375-1.96875q0.375-.84375 1.125-1.25q0.765625-.421875 1.65625-.421875q1.125 0 1.84375.578125q0.71875.5625.921875 1.609375l-1.140625.171875q-.171875-.703125-.59375-1.046875q-.40625-.359375-.984375-.359375q-.890625 0-1.453125.640625q-.546875.640625-.546875 2.0q0 1.40625.53125 2.03125q0.546875.625 1.40625.625q0.6875 0 1.140625-.421875q0.46875-.421875.59375-1.296875zm4.7109375 1.484375l0.171875 1.03125q-.5.109375-.890625.109375q-.640625 0-1-.203125q-.34375-.203125-.484375-.53125q-.140625-.328125-.140625-1.390625l0-3.96875l-.859375 0l0-.90625l0.859375 0l0-1.71875l1.171875-.703125l0 2.421875l1.171875 0l0 .90625l-1.171875 0l0 4.046875q0 .5.046875.640625q0.0625.140625.203125.234375q0.140625.078125.40625.078125q0.203125 0 .515625-.046875zm1.1561127-7.140625l0-1.359375l1.171875 0l0 1.359375l-1.171875 0zm0 8.1875l0-6.90625l1.171875 0l0 6.90625l-1.171875 0zm2.507965-3.453125q0-1.921875 1.078125-2.84375q0.890625-.765625 2.171875-.765625q1.421875 0 2.328125.9375q0.90625.921875.90625 2.578125q0 1.328125-.40625 2.09375q-.390625.765625-1.15625 1.1875q-.765625.421875-1.671875.421875q-1.453125 0-2.359375-.921875q-.890625-.9375-.890625-2.6875zm1.203125 0q0 1.328125.578125 1.984375q0.59375.65625 1.46875.65625q0.875 0 1.453125-.65625q0.578125-.671875.578125-2.03125q0-1.28125-.59375-1.9375q-.578125-.65625-1.4375-.65625q-.875 0-1.46875.65625q-.578125.65625-.578125 1.984375zm6.6468506 3.453125l0-6.90625l1.0625 0l0 .984375q0.75-1.140625 2.1875-1.140625q0.625 0 1.15625.21875q0.53125.21875.78125.59375q0.265625.359375.375.859375q0.0625.328125.0625 1.140625l0 4.25l-1.171875 0l0-4.203125q0-.71875-.140625-1.0625q-.140625-.359375-.484375-.5625q-.34375-.21875-.8125-.21875q-.75 0-1.296875.46875q-.546875.46875-.546875 1.796875l0 3.78125l-1.171875 0z" fill-rule="nonzero"/><path fill="#000" d="m88.984375 145.29607l3.65625-9.546875l1.359375 0l3.90625 9.546875l-1.4375 0l-1.109375-2.890625l-3.984375 0l-1.046875 2.890625l-1.34375 0zm2.75-3.921875l3.234375 0l-1-2.640625q-.453125-1.203125-.671875-1.96875q-.1875.90625-.515625 1.8125l-1.046875 2.796875zm10.278946 3.921875l0-6.0l-1.03125 0l0-.90625l1.03125 0l0-.734375q0-.703125.125-1.046875q0.171875-.453125.59375-.734375q0.421875-.28125 1.203125-.28125q0.484375 0 1.09375.109375l-.1875 1.03125q-.359375-.0625-.6875-.0625q-.53125 0-.75.234375q-.21875.21875-.21875.84375l0 .640625l1.34375 0l0 .90625l-1.34375 0l0 6.0l-1.171875 0zm7.9529877 0l0-1.015625q-.8125 1.171875-2.1875 1.171875q-.609375 0-1.140625-.234375q-.53125-.234375-.796875-.578125q-.25-.359375-.359375-.875q-.0625-.34375-.0625-1.09375l0-4.28125l1.171875 0l0 3.828125q0 .921875.0625 1.234375q0.109375.46875.46875.734375q0.359375.25.890625.25q0.515625 0 .984375-.265625q0.46875-.265625.65625-.734375q0.1875-.46875.1875-1.34375l0-3.703125l1.171875 0l0 6.90625l-1.046875 0zm2.8812256 0l0-6.90625l1.0625 0l0 .984375q0.75-1.140625 2.1875-1.140625q0.625 0 1.15625.21875q0.53125.21875.78125.59375q0.265625.359375.375.859375q0.0625.328125.0625 1.140625l0 4.25l-1.171875 0l0-4.203125q0-.71875-.140625-1.0625q-.140625-.359375-.484375-.5625q-.34375-.21875-.8125-.21875q-.75 0-1.296875.46875q-.546875.46875-.546875 1.796875l0 3.78125l-1.171875 0zm11.928101-2.53125l1.15625.15625q-.1875 1.1875-.96875 1.859375q-.78125.671875-1.921875.671875q-1.40625 0-2.28125-.921875q-.859375-.9375-.859375-2.65625q0-1.125.375-1.96875q0.375-.84375 1.125-1.25q0.765625-.421875 1.65625-.421875q1.125 0 1.84375.578125q0.71875.5625.921875 1.609375l-1.140625.171875q-.171875-.703125-.59375-1.046875q-.40625-.359375-.984375-.359375q-.890625 0-1.453125.640625q-.546875.640625-.546875 2.0q0 1.40625.53125 2.03125q0.546875.625 1.40625.625q0.6875 0 1.140625-.421875q0.46875-.421875.59375-1.296875zm4.7109375 1.484375l0.171875 1.03125q-.5.109375-.890625.109375q-.640625 0-1-.203125q-.34375-.203125-.484375-.53125q-.140625-.328125-.140625-1.390625l0-3.96875l-.859375 0l0-.90625l0.859375 0l0-1.71875l1.171875-.703125l0 2.421875l1.171875 0l0 .90625l-1.171875 0l0 4.046875q0 .5.046875.640625q0.0625.140625.203125.234375q0.140625.078125.40625.078125q0.203125 0 .515625-.046875zm1.1561127-7.140625l0-1.359375l1.171875 0l0 1.359375l-1.171875 0zm0 8.1875l0-6.90625l1.171875 0l0 6.90625l-1.171875 0zm2.507965-3.453125q0-1.921875 1.078125-2.84375q0.890625-.765625 2.171875-.765625q1.421875 0 2.328125.9375q0.90625.921875.90625 2.578125q0 1.328125-.40625 2.09375q-.390625.765625-1.15625 1.1875q-.765625.421875-1.671875.421875q-1.453125 0-2.359375-.921875q-.890625-.9375-.890625-2.6875zm1.203125 0q0 1.328125.578125 1.984375q0.59375.65625 1.46875.65625q0.875 0 1.453125-.65625q0.578125-.671875.578125-2.03125q0-1.28125-.59375-1.9375q-.578125-.65625-1.4375-.65625q-.875 0-1.46875.65625q-.578125.65625-.578125 1.984375zm6.6468506 3.453125l0-6.90625l1.0625 0l0 .984375q0.75-1.140625 2.1875-1.140625q0.625 0 1.15625.21875q0.53125.21875.78125.59375q0.265625.359375.375.859375q0.0625.328125.0625 1.140625l0 4.25l-1.171875 0l0-4.203125q0-.71875-.140625-1.0625q-.140625-.359375-.484375-.5625q-.34375-.21875-.8125-.21875q-.75 0-1.296875.46875q-.546875.46875-.546875 1.796875l0 3.78125l-1.171875 0zm15.631088-2.53125l1.15625.15625q-.1875 1.1875-.96875 1.859375q-.78125.671875-1.921875.671875q-1.40625 0-2.28125-.921875q-.859375-.9375-.859375-2.65625q0-1.125.375-1.96875q0.375-.84375 1.125-1.25q0.765625-.421875 1.65625-.421875q1.125 0 1.84375.578125q0.71875.5625.921875 1.609375l-1.140625.171875q-.171875-.703125-.59375-1.046875q-.40625-.359375-.984375-.359375q-.890625 0-1.453125.640625q-.546875.640625-.546875 2.0q0 1.40625.53125 2.03125q0.546875.625 1.40625.625q0.6875 0 1.140625-.421875q0.46875-.421875.59375-1.296875zm6.6640625 1.671875q-.65625.5625-1.265625.796875q-.59375.21875-1.28125.21875q-1.140625 0-1.75-.546875q-.609375-.5625-.609375-1.4375q0-.5.21875-.921875q0.234375-.421875.609375-.671875q0.375-.25.84375-.390625q0.34375-.078125 1.046875-.171875q1.421875-.171875 2.09375-.40625q0-.234375 0-.296875q0-.71875-.328125-1.015625q-.453125-.390625-1.34375-.390625q-.8125 0-1.21875.296875q-.390625.28125-.578125 1.015625l-1.140625-.15625q0.15625-.734375.515625-1.1875q0.359375-.453125 1.03125-.6875q0.671875-.25 1.5625-.25q0.890625 0 1.4375.203125q0.5625.203125.8125.53125q0.265625.3125.375.796875q0.046875.296875.046875 1.078125l0 1.5625q0 1.625.078125 2.0625q0.078125.4375.296875.828125l-1.21875 0q-.1875-.359375-.234375-.859375zm-.09375-2.609375q-.640625.265625-1.921875.4375q-.71875.109375-1.015625.25q-.296875.125-.46875.375q-.15625.25-.15625.546875q0 .46875.34375.78125q0.359375.3125 1.046875.3125q0.671875 0 1.203125-.296875q0.53125-.296875.78125-.8125q0.1875-.390625.1875-1.171875l0-.421875zm2.9749756 3.46875l0-9.546875l1.171875 0l0 9.546875l-1.171875 0zm2.96109 0l0-9.546875l1.171875 0l0 9.546875l-1.171875 0z" fill-rule="nonzero"/><path fill="#000" d="m88.984375 177.29607l3.65625-9.546875l1.359375 0l3.90625 9.546875l-1.4375 0l-1.109375-2.890625l-3.984375 0l-1.046875 2.890625l-1.34375 0zm2.75-3.921875l3.234375 0l-1-2.640625q-.453125-1.203125-.671875-1.96875q-.1875.90625-.515625 1.8125l-1.046875 2.796875zm11.919571 3.921875l-2.625-6.90625l1.234375 0l1.484375 4.140625q0.234375.65625.4375 1.390625q0.15625-.546875.4375-1.3125l1.53125-4.21875l1.21875 0l-2.625 6.90625l-1.09375 0zm9.2578125-.859375q-.65625.5625-1.265625.796875q-.59375.21875-1.28125.21875q-1.140625 0-1.75-.546875q-.609375-.5625-.609375-1.4375q0-.5.21875-.921875q0.234375-.421875.609375-.671875q0.375-.25.84375-.390625q0.34375-.078125 1.046875-.171875q1.421875-.171875 2.09375-.40625q0-.234375 0-.296875q0-.71875-.328125-1.015625q-.453125-.390625-1.34375-.390625q-.8125 0-1.21875.296875q-.390625.28125-.578125 1.015625l-1.140625-.15625q0.15625-.734375.515625-1.1875q0.359375-.453125 1.03125-.6875q0.671875-.25 1.5625-.25q0.890625 0 1.4375.203125q0.5625.203125.8125.53125q0.265625.3125.375.796875q0.046875.296875.046875 1.078125l0 1.5625q0 1.625.078125 2.0625q0.078125.4375.296875.828125l-1.21875 0q-.1875-.359375-.234375-.859375zm-.09375-2.609375q-.640625.265625-1.921875.4375q-.71875.109375-1.015625.25q-.296875.125-.46875.375q-.15625.25-.15625.546875q0 .46875.34375.78125q0.359375.3125 1.046875.3125q0.671875 0 1.203125-.296875q0.53125-.296875.78125-.8125q0.1875-.390625.1875-1.171875l0-.421875zm2.9749756 3.46875l0-9.546875l1.171875 0l0 9.546875l-1.171875 0zm7.507965 0l0-1.015625q-.8125 1.171875-2.1875 1.171875q-.609375 0-1.140625-.234375q-.53125-.234375-.796875-.578125q-.25-.359375-.359375-.875q-.0625-.34375-.0625-1.09375l0-4.28125l1.171875 0l0 3.828125q0 .921875.0625 1.234375q0.109375.46875.46875.734375q0.359375.25.890625.25q0.515625 0 .984375-.265625q0.46875-.265625.65625-.734375q0.1875-.46875.1875-1.34375l0-3.703125l1.171875 0l0 6.90625l-1.046875 0zm7.6156006-2.21875l1.203125.140625q-.28125 1.0625-1.0625 1.65625q-.765625.578125-1.96875.578125q-1.515625 0-2.40625-.9375q-.890625-.9375-.890625-2.609375q0-1.75.890625-2.703125q0.90625-.96875 2.34375-.96875q1.390625 0 2.265625.9375q0.875.9375.875 2.65625q0 .109375 0 .3125l-5.15625 0q0.0625 1.140625.640625 1.75q0.578125.59375 1.4375.59375q0.65625 0 1.109375-.328125q0.453125-.34375.71875-1.078125zm-3.84375-1.90625l3.859375 0q-.078125-.859375-.4375-1.296875q-.5625-.6875-1.453125-.6875q-.8125 0-1.359375.546875q-.546875.53125-.609375 1.4375zm10.209213 4.125l0-6.90625l1.0625 0l0 1.046875q0.40625-.734375.734375-.96875q0.34375-.234375.765625-.234375q0.59375 0 1.203125.375l-.40625 1.078125q-.4375-.25-.859375-.25q-.390625 0-.703125.234375q-.296875.234375-.421875.640625q-.203125.625-.203125 1.359375l0 3.625l-1.171875 0zm9.18837-2.21875l1.203125.140625q-.28125 1.0625-1.0625 1.65625q-.765625.578125-1.96875.578125q-1.515625 0-2.40625-.9375q-.890625-.9375-.890625-2.609375q0-1.75.890625-2.703125q0.90625-.96875 2.34375-.96875q1.390625 0 2.265625.9375q0.875.9375.875 2.65625q0 .109375 0 .3125l-5.15625 0q0.0625 1.140625.640625 1.75q0.578125.59375 1.4375.59375q0.65625 0 1.109375-.328125q0.453125-.34375.71875-1.078125zm-3.84375-1.90625l3.859375 0q-.078125-.859375-.4375-1.296875q-.5625-.6875-1.453125-.6875q-.8125 0-1.359375.546875q-.546875.53125-.609375 1.4375zm9.084351 3.078125l0.171875 1.03125q-.5.109375-.890625.109375q-.640625 0-1-.203125q-.34375-.203125-.484375-.53125q-.140625-.328125-.140625-1.390625l0-3.96875l-.859375 0l0-.90625l0.859375 0l0-1.71875l1.171875-.703125l0 2.421875l1.171875 0l0 .90625l-1.171875 0l0 4.046875q0 .5.046875.640625q0.0625.140625.203125.234375q0.140625.078125.40625.078125q0.203125 0 .515625-.046875zm5.6717377 1.046875l0-1.015625q-.8125 1.171875-2.1875 1.171875q-.609375 0-1.140625-.234375q-.53125-.234375-.796875-.578125q-.25-.359375-.359375-.875q-.0625-.34375-.0625-1.09375l0-4.28125l1.171875 0l0 3.828125q0 .921875.0625 1.234375q0.109375.46875.46875.734375q0.359375.25.890625.25q0.515625 0 .984375-.265625q0.46875-.265625.65625-.734375q0.1875-.46875.1875-1.34375l0-3.703125l1.171875 0l0 6.90625l-1.046875 0zm2.8656006 0l0-6.90625l1.0625 0l0 1.046875q0.40625-.734375.734375-.96875q0.34375-.234375.765625-.234375q0.59375 0 1.203125.375l-.40625 1.078125q-.4375-.25-.859375-.25q-.390625 0-.703125.234375q-.296875.234375-.421875.640625q-.203125.625-.203125 1.359375l0 3.625l-1.171875 0zm4.4539948 0l0-6.90625l1.0625 0l0 .984375q0.75-1.140625 2.1875-1.140625q0.625 0 1.15625.21875q0.53125.21875.78125.59375q0.265625.359375.375.859375q0.0625.328125.0625 1.140625l0 4.25l-1.171875 0l0-4.203125q0-.71875-.140625-1.0625q-.140625-.359375-.484375-.5625q-.34375-.21875-.8125-.21875q-.75 0-1.296875.46875q-.546875.46875-.546875 1.796875l0 3.78125l-1.171875 0zm12.146851-2.21875l1.203125.140625q-.28125 1.0625-1.0625 1.65625q-.765625.578125-1.96875.578125q-1.515625 0-2.40625-.9375q-.890625-.9375-.890625-2.609375q0-1.75.890625-2.703125q0.90625-.96875 2.34375-.96875q1.390625 0 2.265625.9375q0.875.9375.875 2.65625q0 .109375 0 .3125l-5.15625 0q0.0625 1.140625.640625 1.75q0.578125.59375 1.4375.59375q0.65625 0 1.109375-.328125q0.453125-.34375.71875-1.078125zm-3.84375-1.90625l3.859375 0q-.078125-.859375-.4375-1.296875q-.5625-.6875-1.453125-.6875q-.8125 0-1.359375.546875q-.546875.53125-.609375 1.4375zm11.006226 4.125l0-.875q-.65625 1.03125-1.9375 1.03125q-.8125 0-1.515625-.453125q-.6875-.453125-1.078125-1.265625q-.375-.828125-.375-1.890625q0-1.03125.34375-1.875q0.34375-.84375 1.03125-1.28125q0.703125-.453125 1.546875-.453125q0.625 0 1.109375.265625q0.5.25.796875.671875l0-3.421875l1.171875 0l0 9.546875l-1.09375 0zm-3.703125-3.453125q0 1.328125.5625 1.984375q0.5625.65625 1.328125.65625q0.765625 0 1.296875-.625q0.53125-.625.53125-1.90625q0-1.421875-.546875-2.078125q-.546875-.671875-1.34375-.671875q-.78125 0-1.3125.640625q-.515625.625-.515625 2.0zm10.615463 3.453125l0-6.0l-1.03125 0l0-.90625l1.03125 0l0-.734375q0-.703125.125-1.046875q0.171875-.453125.59375-.734375q0.421875-.28125 1.203125-.28125q0.484375 0 1.09375.109375l-.1875 1.03125q-.359375-.0625-.6875-.0625q-.53125 0-.75.234375q-.21875.21875-.21875.84375l0 .640625l1.34375 0l0 .90625l-1.34375 0l0 6.0l-1.171875 0zm3.4061127 0l0-6.90625l1.0625 0l0 1.046875q0.40625-.734375.734375-.96875q0.34375-.234375.765625-.234375q0.59375 0 1.203125.375l-.40625 1.078125q-.4375-.25-.859375-.25q-.390625 0-.703125.234375q-.296875.234375-.421875.640625q-.203125.625-.203125 1.359375l0 3.625l-1.171875 0zm4.0164948-3.453125q0-1.921875 1.078125-2.84375q0.890625-.765625 2.171875-.765625q1.421875 0 2.328125.9375q0.90625.921875.90625 2.578125q0 1.328125-.40625 2.09375q-.390625.765625-1.15625 1.1875q-.765625.421875-1.671875.421875q-1.453125 0-2.359375-.921875q-.890625-.9375-.890625-2.6875zm1.203125 0q0 1.328125.578125 1.984375q0.59375.65625 1.46875.65625q0.875 0 1.453125-.65625q0.578125-.671875.578125-2.03125q0-1.28125-.59375-1.9375q-.578125-.65625-1.4375-.65625q-.875 0-1.46875.65625q-.578125.65625-.578125 1.984375zm6.6468506 3.453125l0-6.90625l1.046875 0l0 .96875q0.328125-.515625.859375-.8125q0.546875-.3125 1.234375-.3125q0.78125 0 1.265625.3125q0.484375.3125.6875.890625q0.828125-1.203125 2.140625-1.203125q1.03125 0 1.578125.578125q0.5625.5625.5625 1.734375l0 4.75l-1.171875 0l0-4.359375q0-.703125-.125-1.0q-.109375-.3125-.40625-.5q-.296875-.1875-.703125-.1875q-.71875 0-1.203125.484375q-.484375.484375-.484375 1.546875l0 4.015625l-1.171875 0l0-4.484375q0-.78125-.296875-1.171875q-.28125-.390625-.921875-.390625q-.5 0-.921875.265625q-.421875.25-.609375.75q-.1875.5-.1875 1.453125l0 3.578125l-1.171875 0zm19.321045-.859375q-.65625.5625-1.265625.796875q-.59375.21875-1.28125.21875q-1.140625 0-1.75-.546875q-.609375-.5625-.609375-1.4375q0-.5.21875-.921875q0.234375-.421875.609375-.671875q0.375-.25.84375-.390625q0.34375-.078125 1.046875-.171875q1.421875-.171875 2.09375-.40625q0-.234375 0-.296875q0-.71875-.328125-1.015625q-.453125-.390625-1.34375-.390625q-.8125 0-1.21875.296875q-.390625.28125-.578125 1.015625l-1.140625-.15625q0.15625-.734375.515625-1.1875q0.359375-.453125 1.03125-.6875q0.671875-.25 1.5625-.25q0.890625 0 1.4375.203125q0.5625.203125.8125.53125q0.265625.3125.375.796875q0.046875.296875.046875 1.078125l0 1.5625q0 1.625.078125 2.0625q0.078125.4375.296875.828125l-1.21875 0q-.1875-.359375-.234375-.859375zm-.09375-2.609375q-.640625.265625-1.921875.4375q-.71875.109375-1.015625.25q-.296875.125-.46875.375q-.15625.25-.15625.546875q0 .46875.34375.78125q0.359375.3125 1.046875.3125q0.671875 0 1.203125-.296875q0.53125-.296875.78125-.8125q0.1875-.390625.1875-1.171875l0-.421875zm6.9748383 3.46875l0-6.0l-1.03125 0l0-.90625l1.03125 0l0-.734375q0-.703125.125-1.046875q0.171875-.453125.59375-.734375q0.421875-.28125 1.203125-.28125q0.484375 0 1.09375.109375l-.1875 1.03125q-.359375-.0625-.6875-.0625q-.53125 0-.75.234375q-.21875.21875-.21875.84375l0 .640625l1.34375 0l0 .90625l-1.34375 0l0 6.0l-1.171875 0zm7.9529877 0l0-1.015625q-.8125 1.171875-2.1875 1.171875q-.609375 0-1.140625-.234375q-.53125-.234375-.796875-.578125q-.25-.359375-.359375-.875q-.0625-.34375-.0625-1.09375l0-4.28125l1.171875 0l0 3.828125q0 .921875.0625 1.234375q0.109375.46875.46875.734375q0.359375.25.890625.25q0.515625 0 .984375-.265625q0.46875-.265625.65625-.734375q0.1875-.46875.1875-1.34375l0-3.703125l1.171875 0l0 6.90625l-1.046875 0zm2.8812256 0l0-6.90625l1.0625 0l0 .984375q0.75-1.140625 2.1875-1.140625q0.625 0 1.15625.21875q0.53125.21875.78125.59375q0.265625.359375.375.859375q0.0625.328125.0625 1.140625l0 4.25l-1.171875 0l0-4.203125q0-.71875-.140625-1.0625q-.140625-.359375-.484375-.5625q-.34375-.21875-.8125-.21875q-.75 0-1.296875.46875q-.546875.46875-.546875 1.796875l0 3.78125l-1.171875 0zm11.928101-2.53125l1.15625.15625q-.1875 1.1875-.96875 1.859375q-.78125.671875-1.921875.671875q-1.40625 0-2.28125-.921875q-.859375-.9375-.859375-2.65625q0-1.125.375-1.96875q0.375-.84375 1.125-1.25q0.765625-.421875 1.65625-.421875q1.125 0 1.84375.578125q0.71875.5625.921875 1.609375l-1.140625.171875q-.171875-.703125-.59375-1.046875q-.40625-.359375-.984375-.359375q-.890625 0-1.453125.640625q-.546875.640625-.546875 2.0q0 1.40625.53125 2.03125q0.546875.625 1.40625.625q0.6875 0 1.140625-.421875q0.46875-.421875.59375-1.296875zm4.7109375 1.484375l0.171875 1.03125q-.5.109375-.890625.109375q-.640625 0-1-.203125q-.34375-.203125-.484375-.53125q-.140625-.328125-.140625-1.390625l0-3.96875l-.859375 0l0-.90625l0.859375 0l0-1.71875l1.171875-.703125l0 2.421875l1.171875 0l0 .90625l-1.171875 0l0 4.046875q0 .5.046875.640625q0.0625.140625.203125.234375q0.140625.078125.40625.078125q0.203125 0 .515625-.046875zm1.1561279-7.140625l0-1.359375l1.171875 0l0 1.359375l-1.171875 0zm0 8.1875l0-6.90625l1.171875 0l0 6.90625l-1.171875 0zm2.5079346-3.453125q0-1.921875 1.078125-2.84375q0.890625-.765625 2.171875-.765625q1.421875 0 2.328125.9375q0.90625.921875.90625 2.578125q0 1.328125-.40625 2.09375q-.390625.765625-1.15625 1.1875q-.765625.421875-1.671875.421875q-1.453125 0-2.359375-.921875q-.890625-.9375-.890625-2.6875zm1.203125 0q0 1.328125.578125 1.984375q0.59375.65625 1.46875.65625q0.875 0 1.453125-.65625q0.578125-.671875.578125-2.03125q0-1.28125-.59375-1.9375q-.578125-.65625-1.4375-.65625q-.875 0-1.46875.65625q-.578125.65625-.578125 1.984375zm6.6468506 3.453125l0-6.90625l1.0625 0l0 .984375q0.75-1.140625 2.1875-1.140625q0.625 0 1.15625.21875q0.53125.21875.78125.59375q0.265625.359375.375.859375q0.0625.328125.0625 1.140625l0 4.25l-1.171875 0l0-4.203125q0-.71875-.140625-1.0625q-.140625-.359375-.484375-.5625q-.34375-.21875-.8125-.21875q-.75 0-1.296875.46875q-.546875.46875-.546875 1.796875l0 3.78125l-1.171875 0z" fill-rule="nonzero"/><path fill="#fff" d="m64 45.46798l0 0c0-4.4182777 3.5817184-8 8-8.0l0 0c2.1217346 0 4.156563.84285355 5.6568527 2.3431435c1.5002899 1.5002937 2.3431473 3.5351257 2.3431473 5.6568565l0 0c0 4.4182777-3.5817184 8-8 8.0l0 0c-4.4182816 0-8-3.5817223-8-8.0z" fill-rule="evenodd"/><path stroke="#000" stroke-width="2" stroke-linejoin="round" stroke-linecap="butt" d="m64 45.46798l0 0c0-4.4182777 3.5817184-8 8-8.0l0 0c2.1217346 0 4.156563.84285355 5.6568527 2.3431435c1.5002899 1.5002937 2.3431473 3.5351257 2.3431473 5.6568565l0 0c0 4.4182777-3.5817184 8-8 8.0l0 0c-4.4182816 0-8-3.5817223-8-8.0z" fill-rule="evenodd"/><path fill="#fce5cd" d="m8 69.412155l0 0c0-2.2091827 1.7908964-4.000084 4.00008-4.000084l63.999844 0c1.0608826 0 2.0783157.42144012 2.8284836 1.1716003c0.7501602.7501602 1.1715927 1.7675934 1.1715927 2.8284836l0 15.99984c0 2.2091827-1.7908936 4.0000763-4.0000763 4.0000763l-63.999844 0c-2.2091837 0-4.00008-1.7908936-4.00008-4.0000763z" fill-rule="evenodd"/><path stroke="#000" stroke-width="1" stroke-linejoin="round" stroke-linecap="butt" d="m8 69.412155l0 0c0-2.2091827 1.7908964-4.000084 4.00008-4.000084l63.999844 0c1.0608826 0 2.0783157.42144012 2.8284836 1.1716003c0.7501602.7501602 1.1715927 1.7675934 1.1715927 2.8284836l0 15.99984c0 2.2091827-1.7908936 4.0000763-4.0000763 4.0000763l-63.999844 0c-2.2091837 0-4.00008-1.7908936-4.00008-4.0000763z" fill-rule="evenodd"/><path fill="#000" d="m30.430763 82.212074l0-6.90625l1.046875 0l0 .96875q0.328125-.515625.859375-.8125q0.546875-.3125 1.234375-.3125q0.78125 0 1.265625.3125q0.484375.3125.6875.890625q0.828125-1.203125 2.140625-1.203125q1.03125 0 1.578125.578125q0.5625.5625.5625 1.734375l0 4.75l-1.171875 0l0-4.359375q0-.703125-.125-1.0q-.109375-.3125-.40625-.5q-.296875-.1875-.703125-.1875q-.71875 0-1.203125.484375q-.484375.484375-.484375 1.546875l0 4.015625l-1.171875 0l0-4.484375q0-.78125-.296875-1.171875q-.28125-.390625-.921875-.390625q-.5 0-.921875.265625q-.421875.25-.609375.75q-.1875.5-.1875 1.453125l0 3.578125l-1.171875 0zm15.618057-.859375q-.65625.5625-1.265625.796875q-.59375.21875-1.28125.21875q-1.140625 0-1.75-.546875q-.609375-.5625-.609375-1.4375q0-.5.21875-.921875q0.234375-.421875.609375-.671875q0.375-.25.84375-.390625q0.34375-.078125 1.046875-.171875q1.421875-.171875 2.09375-.40625q0-.234375 0-.296875q0-.71875-.328125-1.015625q-.453125-.390625-1.34375-.390625q-.8125 0-1.21875.296875q-.390625.28125-.578125 1.015625l-1.140625-.15625q0.15625-.734375.515625-1.1875q0.359375-.453125 1.03125-.6875q0.671875-.25 1.5625-.25q0.890625 0 1.4375.203125q0.5625.203125.8125.53125q0.265625.3125.375.796875q0.046875.296875.046875 1.078125l0 1.5625q0 1.625.078125 2.0625q0.078125.4375.296875.828125l-1.21875 0q-.1875-.359375-.234375-.859375zm-.09375-2.609375q-.640625.265625-1.921875.4375q-.71875.109375-1.015625.25q-.296875.125-.46875.375q-.15625.25-.15625.546875q0 .46875.34375.78125q0.359375.3125 1.046875.3125q0.671875 0 1.203125-.296875q0.53125-.296875.78125-.8125q0.1875-.390625.1875-1.171875l0-.421875zm3.0062256-4.71875l0-1.359375l1.171875 0l0 1.359375l-1.171875 0zm0 8.1875l0-6.90625l1.171875 0l0 6.90625l-1.171875 0zm2.945465 0l0-6.90625l1.0625 0l0 .984375q0.75-1.140625 2.1875-1.140625q0.625 0 1.15625.21875q0.53125.21875.78125.59375q0.265625.359375.375.859375q0.0625.328125.0625 1.140625l0 4.25l-1.171875 0l0-4.203125q0-.71875-.140625-1.0625q-.140625-.359375-.484375-.5625q-.34375-.21875-.8125-.21875q-.75 0-1.296875.46875q-.546875.46875-.546875 1.796875l0 3.78125l-1.171875 0z" fill-rule="nonzero"/><path fill="#000" fill-opacity="0" d="m8 141.0736c18 0 27 .01574707 36 .03149414c9 .01574707 18 .03149414 36 .03149414" fill-rule="evenodd"/><path stroke="#000" stroke-width="1" stroke-linejoin="round" stroke-linecap="butt" d="m8 141.0736c18 0 27 .01574707 36 .03149414c4.5.007873535 9 .01574707 14.625.021652222c2.8125.002960205 5.90625.00541687 9.421875.0071411133l5.953125.0013427734" fill-rule="evenodd"/><path fill="#000" stroke="#000" stroke-width="1" stroke-linecap="butt" d="m73.999626 142.78696l4.538475-1.6506958l-4.5377274-1.652771z" fill-rule="evenodd"/><path fill="#000" fill-opacity="0" d="m80 172.67921c-18 0-27 .01574707-36 .03149414c-9 .01574707-18 .03149414-36 .03149414" fill-rule="evenodd"/><path stroke="#000" stroke-width="1" stroke-linejoin="round" stroke-linecap="butt" stroke-dasharray="4,3" d="m80 172.67921c-18 0-27 .01574707-36 .03149414c-4.5.007873535-9 .01574707-14.625.021652222c-2.8125.002960205-5.90625.00541687-9.421875.0071411133l-5.953125.0013580322" fill-rule="evenodd"/><path fill="#000" stroke="#000" stroke-width="1" stroke-linecap="butt" d="m13.999625 171.08911l-4.5377226 1.652771l4.538471 1.6506958z" fill-rule="evenodd"/><path fill="#000" fill-opacity="0" d="m0 0l248 0l0 35.559055l-248 0z" fill-rule="evenodd"/><path fill="#000" d="m83.30377 18.3l1.859375.578125q-.421875 1.5625-1.421875 2.328125q-1 .75-2.53125.75q-1.90625 0-3.140625-1.296875q-1.21875-1.296875-1.21875-3.546875q0-2.375 1.234375-3.6875q1.234375-1.328125 3.234375-1.328125q1.75 0 2.84375 1.03125q0.65625.609375.984375 1.765625l-1.90625.453125q-.171875-.75-.71875-1.171875q-.53125-.4375-1.296875-.4375q-1.0625 0-1.734375.765625q-.65625.765625-.65625 2.46875q0 1.8125.65625 2.578125q0.65625.765625 1.6875.765625q0.78125 0 1.328125-.484375q0.546875-.484375.796875-1.53125zm4.8751526-1.296875l-1.671875-.3125q0.28125-1 .96875-1.46875q0.6875-.484375 2.03125-.484375q1.21875 0 1.8125.296875q0.609375.28125.84375.734375q0.25.4375.25 1.625l-.015625 2.140625q0 .90625.078125 1.34375q0.09375.421875.34375.921875l-1.8125 0q-.078125-.1875-.171875-.546875q-.046875-.15625-.078125-.203125q-.46875.453125-1 .6875q-.53125.21875-1.140625.21875q-1.0625 0-1.6875-.578125q-.609375-.578125-.609375-1.46875q0-.578125.28125-1.03125q0.28125-.46875.78125-.703125q0.515625-.25 1.46875-.4375q1.28125-.234375 1.765625-.453125l0-.171875q0-.53125-.265625-.75q-.25-.234375-.96875-.234375q-.484375 0-.765625.203125q-.265625.1875-.4375.671875zm2.4375 1.484375q-.34375.109375-1.109375.28125q-.765625.15625-1 .3125q-.359375.25-.359375.640625q0 .390625.28125.671875q0.296875.28125.734375.28125q0.5 0 .953125-.328125q0.328125-.25.4375-.609375q0.0625-.234375.0625-.890625l0-.359375zm3.5999756 3.3125l0-9.546875l1.828125 0l0 9.546875l-1.828125 0zm3.7029877 0l0-9.546875l1.828125 0l0 9.546875l-1.828125 0zm11.8591-3.5l0-1.609375l4.15625 0l0 3.796875q-.609375.578125-1.765625 1.03125q-1.140625.4375-2.3125.4375q-1.5 0-2.625-.625q-1.109375-.625-1.671875-1.78125q-.546875-1.171875-.546875-2.546875q0-1.5.625-2.65625q0.625-1.15625 1.828125-1.78125q0.921875-.46875 2.28125-.46875q1.78125 0 2.78125.75q1 .734375 1.28125 2.0625l-1.921875.34375q-.1875-.703125-.75-1.109375q-.5625-.40625-1.390625-.40625q-1.265625 0-2.015625.8125q-.734375.796875-.734375 2.375q0 1.6875.75 2.546875q0.75.84375 1.984375.84375q0.609375 0 1.203125-.234375q0.609375-.234375 1.046875-.578125l0-1.203125l-2.203125 0zm7.663925 3.5l-1.828125 0l0-6.90625l1.703125 0l0 .984375q0.4375-.703125.78125-.921875q0.34375-.21875.796875-.21875q0.625 0 1.203125.34375l-.5625 1.59375q-.46875-.296875-.859375-.296875q-.390625 0-.65625.21875q-.265625.203125-.421875.765625q-.15625.546875-.15625 2.296875l0 2.140625zm4.811783-4.796875l-1.671875-.3125q0.28125-1 .96875-1.46875q0.6875-.484375 2.03125-.484375q1.21875 0 1.8125.296875q0.609375.28125.84375.734375q0.25.4375.25 1.625l-.015625 2.140625q0 .90625.078125 1.34375q0.09375.421875.34375.921875l-1.8125 0q-.078125-.1875-.171875-.546875q-.046875-.15625-.078125-.203125q-.46875.453125-1 .6875q-.53125.21875-1.140625.21875q-1.0625 0-1.6875-.578125q-.609375-.578125-.609375-1.46875q0-.578125.28125-1.03125q0.28125-.46875.78125-.703125q0.515625-.25 1.46875-.4375q1.28125-.234375 1.765625-.453125l0-.171875q0-.53125-.265625-.75q-.25-.234375-.96875-.234375q-.484375 0-.765625.203125q-.265625.1875-.4375.671875zm2.4375 1.484375q-.34375.109375-1.109375.28125q-.765625.15625-1 .3125q-.359375.25-.359375.640625q0 .390625.28125.671875q0.296875.28125.734375.28125q0.5 0 .953125-.328125q0.328125-.25.4375-.609375q0.0625-.234375.0625-.890625l0-.359375zm3.5531006-3.59375l1.703125 0l0 1.015625q0.328125-.53125.890625-.84375q0.578125-.328125 1.265625-.328125q1.203125 0 2.03125.9375q0.84375.9375.84375 2.625q0 1.734375-.84375 2.703125q-.84375.953125-2.046875.953125q-.578125 0-1.046875-.21875q-.453125-.234375-.96875-.796875l0 3.484375l-1.828125 0l0-9.53125zm1.8125 3.328125q0 1.171875.453125 1.734375q0.46875.546875 1.125.546875q0.640625 0 1.0625-.5q0.421875-.515625.421875-1.6875q0-1.078125-.4375-1.609375q-.4375-.53125-1.078125-.53125q-.671875 0-1.109375.515625q-.4375.515625-.4375 1.53125zm8.203857-5.96875l0 3.515625q0.875-1.03125 2.109375-1.03125q0.640625 0 1.140625.234375q0.515625.234375.765625.59375q0.25.359375.34375.8125q0.109375.4375.109375 1.375l0 4.046875l-1.828125 0l0-3.65625q0-1.078125-.109375-1.375q-.109375-.296875-.375-.46875q-.265625-.171875-.65625-.171875q-.453125 0-.8125.234375q-.359375.21875-.53125.671875q-.15625.4375-.15625 1.296875l0 3.46875l-1.828125 0l0-9.546875l1.828125 0zm10.063095 9.546875l0-9.546875l1.921875 0l0 4.25l3.890625-4.25l2.59375 0l-3.59375 3.71875l3.78125 5.828125l-2.484375 0l-2.625-4.484375l-1.5625 1.59375l0 2.890625l-1.921875 0zm13.578278-2.203125l1.828125.3125q-.34375 1-1.109375 1.53125q-.765625.515625-1.890625.515625q-1.8125 0-2.671875-1.171875q-.6875-.953125-.6875-2.390625q0-1.71875.890625-2.6875q0.90625-.96875 2.28125-.96875q1.546875 0 2.4375 1.015625q0.890625 1.015625.84375 3.125l-4.578125 0q0.015625.8125.4375 1.265625q0.421875.453125 1.0625.453125q0.421875 0 .71875-.234375q0.296875-.234375.4375-.765625zm0.109375-1.84375q-.015625-.796875-.40625-1.203125q-.390625-.421875-.953125-.421875q-.59375 0-.984375.4375q-.390625.4375-.390625 1.1875l2.734375 0zm2.4437256-2.859375l1.9375 0l1.65625 4.90625l1.609375-4.90625l1.90625 0l-2.453125 6.640625l-.421875 1.203125q-.25.609375-.46875.921875q-.21875.328125-.5.515625q-.28125.203125-.703125.3125q-.40625.125-.921875.125q-.53125 0-1.03125-.125l-.171875-1.421875q0.4375.078125.78125.078125q0.640625 0 .9375-.375q0.3125-.375.46875-.953125l-2.625-6.921875z" fill-rule="nonzero"/><path fill="#cfe2f3" d="m8 101.905594l0 0c0-2.2091827 1.7908964-4.000084 4.00008-4.000084l63.999844 0c1.0608826 0 2.0783157.42144012 2.8284836 1.1716003c0.7501602.7501602 1.1715927 1.7675934 1.1715927 2.8284836l0 15.99984c0 2.2091827-1.7908936 4.0000763-4.0000763 4.0000763l-63.999844 0c-2.2091837 0-4.00008-1.7908936-4.00008-4.0000763z" fill-rule="evenodd"/><path stroke="#000" stroke-width="1" stroke-linejoin="round" stroke-linecap="butt" d="m8 101.905594l0 0c0-2.2091827 1.7908964-4.000084 4.00008-4.000084l63.999844 0c1.0608826 0 2.0783157.42144012 2.8284836 1.1716003c0.7501602.7501602 1.1715927 1.7675934 1.1715927 2.8284836l0 15.99984c0 2.2091827-1.7908936 4.0000763-4.0000763 4.0000763l-63.999844 0c-2.2091837 0-4.00008-1.7908936-4.00008-4.0000763z" fill-rule="evenodd"/><path fill="#000" d="m31.9113 117.36176l0-9.5625l1.078125 0l0 .890625q0.375-.53125.84375-.78125q0.484375-.265625 1.15625-.265625q0.875 0 1.546875.453125q0.6875.453125 1.03125 1.28125q0.34375.828125.34375 1.828125q0 1.046875-.375 1.90625q-.375.84375-1.109375 1.296875q-.71875.453125-1.53125.453125q-.578125 0-1.046875-.25q-.46875-.25-.765625-.625l0 3.375l-1.171875 0zm1.0625-6.078125q0 1.34375.53125 1.984375q0.546875.625 1.3125.625q0.78125 0 1.34375-.65625q0.5625-.65625.5625-2.046875q0-1.3125-.546875-1.96875q-.546875-.671875-1.296875-.671875q-.75 0-1.328125.703125q-.578125.703125-.578125 2.03125zm6.3343506 3.421875l0-6.90625l1.0625 0l0 1.046875q0.40625-.734375.734375-.96875q0.34375-.234375.765625-.234375q0.59375 0 1.203125.375l-.40625 1.078125q-.4375-.25-.859375-.25q-.390625 0-.703125.234375q-.296875.234375-.421875.640625q-.203125.625-.203125 1.359375l0 3.625l-1.171875 0zm4.4696198-8.1875l0-1.359375l1.171875 0l0 1.359375l-1.171875 0zm0 8.1875l0-6.90625l1.171875 0l0 6.90625l-1.171875 0zm2.945465 0l0-6.90625l1.0625 0l0 .984375q0.75-1.140625 2.1875-1.140625q0.625 0 1.15625.21875q0.53125.21875.78125.59375q0.265625.359375.375.859375q0.0625.328125.0625 1.140625l0 4.25l-1.171875 0l0-4.203125q0-.71875-.140625-1.0625q-.140625-.359375-.484375-.5625q-.34375-.21875-.8125-.21875q-.75 0-1.296875.46875q-.546875.46875-.546875 1.796875l0 3.78125l-1.171875 0zm9.974976-1.046875l0.171875 1.03125q-.5.109375-.890625.109375q-.640625 0-1-.203125q-.34375-.203125-.484375-.53125q-.140625-.328125-.140625-1.390625l0-3.96875l-.859375 0l0-.90625l0.859375 0l0-1.71875l1.171875-.703125l0 2.421875l1.171875 0l0 .90625l-1.171875 0l0 4.046875q0 .5.046875.640625q0.0625.140625.203125.234375q0.140625.078125.40625.078125q0.203125 0 .515625-.046875z" fill-rule="nonzero"/></g></svg>
