<svg xmlns="http://www.w3.org/2000/svg" viewBox="0 0 296 335">
<style>
.bk{fill:#fff}
.start{stroke-width:2;stroke:#000;fill:none}

.std>rect,.user>rect{stroke-width:1;stroke:#000;rx:4}
.std>rect{fill:#cfe2fe}
.user>rect{fill:#fce5cd}
text{font:13.5px Arial,sans-serif;text-anchor:middle;fill:#000}

.call,.return{stroke-width:1;stroke:#444}
.shaft{fill:none}
.return>.shaft{stroke-dasharray:4 3}
.tip{fill:#444}
</style>

<rect class="bk" x="0" y="0" width="296" height="335"/>
<circle class="start" cx="16" cy="16" r="8"/>

<g class="user">
<rect x="16" y="48" width="56" height="24"/>
<text x="44" y="65">main</text>
</g>
<g class="call">
<path class="shaft" d="m24 16c5 0 10 4 13.75 10c1.88 3 3.44 6.5 4.53 10.25c.27.94.52 1.89.73 2.86c.11.48.2.97.29 1.46c.05.24.09.49.13.73l.11.72"/>
<path class="tip" d="m41.9 42.14l1.99 4.4l1.31-4.65z"/>
</g>

<g class="std">
<rect x="152" y="48" width="56" height="24"/>
<text x="180" y="65">input</text>
</g>
<g class="call">
<path class="shaft" d="m72 52c20 0 30.13-6.9 40-14.5c9.87-7.6 19.47-15.9 34-14.5c7.27.7 15.77 3.83 22.45 8.34c3.34 2.26 6.23 4.86 8.28 7.68c.51.71.97 1.42 1.38 2.15c.1.18.2.37.29.55c.05.09.09.18.14.28l.08.16"/>
<path class="tip" d="m177.01 42.54l2.66 4.03l.56-4.8z"/>
</g>
<g class="return">
<path class="shaft" d="m180 72c0 12.5-19.47 23.6-34 25c-14.53 1.4-24.13-6.9-34-14.5c-4.93-3.8-9.93-7.43-16.2-10.1c-3.13-1.34-6.58-2.44-10.5-3.2c-1.96-.38-4.03-.68-6.24-.89c-.28-.03-.55-.05-.84-.07l-.23-.02"/>
<path class="tip" d="m78.06 66.57l-4.6 1.48l4.47 1.82z"/>
</g>

<g class="std">
<rect x="152" y="112" width="56" height="24"/>
<text x="180" y="129">float</text>
</g>
<g class="call">
<path class="shaft" d="m72 52c27 0 54 7.5 74.25 18.75c10.13 5.63 18.56 12.19 24.47 19.22c2.95 3.52 5.27 7.15 6.86 10.84c.4.92.74 1.85 1.05 2.78c.15.46.29.93.42 1.4c.06.23.12.47.18.7c.03.12.06.23.08.35l.01"/>
<path class="tip" d="m177.66 106.23l2.17 4.32l1.11-4.7z"/>
</g>
<g class="return">
<path class="shaft" d="m180 136c0 12.5-19.47 27.87-34 25c-14.53-2.87-24.13-23.97-34-46.5c-4.93-11.27-9.93-22.89-16.2-31.7c-3.13-4.4-6.58-8.1-10.5-10.7c-1.96-1.3-4.03-2.32-6.24-3.02c-.28-.09-.55-.17-.84-.25l-.27-.07"/>
<path class="tip" d="m78.16 67.12l-4.71 1.07l4.29 2.21z"/>
</g>

<g class="user">
<rect x="152" y="176" width="128" height="24"/>
<text x="216" y="193">miles_per_gallon</text>
</g>
<g class="call">
<path class="shaft" d="m72 52c36 0 72 15.5 99 38.75c13.5 11.63 24.75 25.19 32.63 39.72c3.94 7.27 7.03 14.77 9.14 22.4c1.05 3.81 1.86 7.66 2.41 11.52c.14.96.26 1.93.36 2.9c.05.48.1.97.14 1.45c.02.24.04.48.06.73l.04.54"/>
<path class="tip" d="m214.13 170.07l1.82 4.47l1.48-4.6z"/>
</g>
<g class="return">
<path class="shaft" d="m216 200c0 12.5-29.07 32.13-52 25c-22.93-7.13-39.73-41.03-52-78.5c-6.13-18.73-11.13-38.36-17.1-53.3c-2.98-7.47-6.21-13.77-9.94-18.2c-1.86-2.22-3.86-3.97-6-5.16c-.27-.15-.54-.29-.81-.42l-.28-.13"/>
<path class="tip" d="m78.21 67.67l-4.79.64l4.08 2.58z"/>
</g>

<g class="user">
<rect x="152" y="240" width="136" height="24"/>
<text x="220" y="257">lp100k_from_mpg</text>
</g>
<g class="call">
<path class="shaft" d="m72 52c37 0 74 23.5 101.75 58.75c13.88 17.63 25.44 38.19 33.53 60.22c4.05 11.02 7.23 22.4 9.39 33.96c1.08 5.78 1.92 11.61 2.48 17.46c.28 2.93.49 5.86.63 8.79c.04.73.07 1.47.09 2.2l.02.61"/>
<path class="tip" d="m218.25 234.03l1.73 4.51l1.58-4.57z"/>
</g>
<g class="return">
<path class="shaft" d="m220 264c0 12.5-30.13 36.4-54 25c-23.87-11.4-41.47-58.1-54-110.5c-6.27-26.2-11.27-53.82-17.2-74.9c-2.97-10.54-6.17-19.44-9.87-25.7c-1.85-3.13-3.84-5.61-5.98-7.3c-.27-.21-.54-.41-.81-.6c-.07-.05-.14-.09-.21-.14l-.19-.12"/>
<path class="tip" d="m78.22 68.16l-4.82.26l3.86 2.9z"/>
</g>

<g class="std">
<rect x="152" y="304" width="56" height="24"/>
<text x="180" y="321">print</text>
</g>
<g class="call">
<path class="shaft" d="m72 52c27 0 54 31.5 74.25 78.75c10.13 23.63 18.56 51.19 24.47 80.72c2.95 14.77 5.27 30.02 6.86 45.53c.79 7.75 1.4 15.57 1.81 23.41c.2 3.92.36 7.85.46 11.79c.03.98.05 1.97.07 2.95c.01.49.02.98.03 1.48l.02 1.38"/>
<path class="tip" d="m178.31 298.01l1.68 4.53l1.62-4.55z"/>
</g>
</svg>
