<svg version="1.1" viewBox="0 0 279.91076115485566 342.26509186351706" fill="none" stroke="none" stroke-linecap="square" stroke-miterlimit="10" xmlns="http://www.w3.org/2000/svg"><clipPath id="p"><path d="m0 0l279.91077 0l0 342.2651l-279.91077 0l0-342.2651z" clip-rule="nonzero"/></clipPath><g clip-path="url(#p)"><path fill="#fff" d="m0 0l279.91077 0l0 342.2651l-279.91077 0z" fill-rule="evenodd"/><path fill="#000" fill-opacity="0" d="m16 50.771732l0 0c0-2.2091827 1.7908974-4.00008 4.00008-4.00008l47.999844 0c1.0608826 0 2.0783157.4214363 2.8284836 1.1715965c0.7501602.7501602 1.1715927 1.7675972 1.1715927 2.8284836l0 15.999844c0 2.2091827-1.7908936 4.0000763-4.0000763 4.0000763l-47.999844 0c-2.2091827 0-4.00008-1.7908936-4.00008-4.0000763z" fill-rule="evenodd"/><path fill="#000" fill-opacity="0" d="m16 66.771736l0 0c0-2.2091827 1.7908974-4.000084 4.00008-4.000084l47.999844 0c1.0608826 0 2.0783157.4214363 2.8284836 1.1715965c0.7501602.75016403 1.1715927 1.7675972 1.1715927 2.8284874l0 15.99984c0 2.2091827-1.7908936 4.0000763-4.0000763 4.0000763l-47.999844 0c-2.2091827 0-4.00008-1.7908936-4.00008-4.0000763z" fill-rule="evenodd"/><path fill="#fce5cd" d="m16 58.771732l0 0c0-2.2091827 1.7908974-4.00008 4.00008-4.00008l47.999844 0c1.0608826 0 2.0783157.4214363 2.8284836 1.1715965c0.7501602.7501602 1.1715927 1.7675972 1.1715927 2.8284836l0 15.999844c0 2.2091827-1.7908936 4.0000763-4.0000763 4.0000763l-47.999844 0c-2.2091827 0-4.00008-1.7908936-4.00008-4.0000763z" fill-rule="evenodd"/><path stroke="#000" stroke-width="1" stroke-linejoin="round" stroke-linecap="butt" d="m16 58.771732l0 0c0-2.2091827 1.7908974-4.00008 4.00008-4.00008l47.999844 0c1.0608826 0 2.0783157.4214363 2.8284836 1.1715965c0.7501602.7501602 1.1715927 1.7675972 1.1715927 2.8284836l0 15.999844c0 2.2091827-1.7908936 4.0000763-4.0000763 4.0000763l-47.999844 0c-2.2091827 0-4.00008-1.7908936-4.00008-4.0000763z" fill-rule="evenodd"/><path fill="#000" d="m30.430763 71.571655l0-6.90625l1.046875 0l0 .96875q0.328125-.515625.859375-.8125q0.546875-.3125 1.234375-.3125q0.78125 0 1.265625.3125q0.484375.3125.6875.890625q0.828125-1.203125 2.140625-1.203125q1.03125 0 1.578125.578125q0.5625.5625.5625 1.734375l0 4.75l-1.171875 0l0-4.359375q0-.703125-.125-1.0q-.109375-.3125-.40625-.5q-.296875-.1875-.703125-.1875q-.71875 0-1.203125.484375q-.484375.484375-.484375 1.546875l0 4.015625l-1.171875 0l0-4.484375q0-.78125-.296875-1.171875q-.28125-.390625-.921875-.390625q-.5 0-.921875.265625q-.421875.25-.609375.75q-.1875.5-.1875 1.453125l0 3.578125l-1.171875 0zm15.618057-.859375q-.65625.5625-1.265625.796875q-.59375.21875-1.28125.21875q-1.140625 0-1.75-.546875q-.609375-.5625-.609375-1.4375q0-.5.21875-.921875q0.234375-.421875.609375-.671875q0.375-.25.84375-.390625q0.34375-.078125 1.046875-.171875q1.421875-.171875 2.09375-.40625q0-.234375 0-.296875q0-.71875-.328125-1.015625q-.453125-.390625-1.34375-.390625q-.8125 0-1.21875.296875q-.390625.28125-.578125 1.015625l-1.140625-.15625q0.15625-.734375.515625-1.1875q0.359375-.453125 1.03125-.6875q0.671875-.25 1.5625-.25q0.890625 0 1.4375.203125q0.5625.203125.8125.53125q0.265625.3125.375.796875q0.046875.296875.046875 1.078125l0 1.5625q0 1.625.078125 2.0625q0.078125.4375.296875.828125l-1.21875 0q-.1875-.359375-.234375-.859375zm-.09375-2.609375q-.640625.265625-1.921875.4375q-.71875.109375-1.015625.25q-.296875.125-.46875.375q-.15625.25-.15625.546875q0 .46875.34375.78125q0.359375.3125 1.046875.3125q0.671875 0 1.203125-.296875q0.53125-.296875.78125-.8125q0.1875-.390625.1875-1.171875l0-.421875zm3.0062256-4.718754l0-1.359375l1.171875 0l0 1.359375l-1.171875 0zm0 8.187504l0-6.90625l1.171875 0l0 6.90625l-1.171875 0zm2.945465 0l0-6.90625l1.0625 0l0 .984375q0.75-1.140625 2.1875-1.140625q0.625 0 1.15625.21875q0.53125.21875.78125.59375q0.265625.359375.375.859375q0.0625.328125.0625 1.140625l0 4.25l-1.171875 0l0-4.203125q0-.71875-.140625-1.0625q-.140625-.359375-.484375-.5625q-.34375-.21875-.8125-.21875q-.75 0-1.296875.46875q-.546875.46875-.546875 1.796875l0 3.78125l-1.171875 0z" fill-rule="nonzero"/><path fill="#fce5cd" d="m156 122.771736l0 0c0-2.2091827 1.7908936-4.000084 4.0000763-4.000084l79.99985 0c1.0608826 0 2.0783234.42144012 2.828476 1.1716003c0.75016785.7501602 1.1716003 1.7675934 1.1716003 2.8284836l0 15.99984c0 2.2091827-1.7908936 4.0000763-4.0000763 4.0000763l-79.99985 0c-2.2091827 0-4.0000763-1.7908936-4.0000763-4.0000763z" fill-rule="evenodd"/><path stroke="#000" stroke-width="1" stroke-linejoin="round" stroke-linecap="butt" d="m156 122.771736l0 0c0-2.2091827 1.7908936-4.000084 4.0000763-4.000084l79.99985 0c1.0608826 0 2.0783234.42144012 2.828476 1.1716003c0.75016785.7501602 1.1716003 1.7675934 1.1716003 2.8284836l0 15.99984c0 2.2091827-1.7908936 4.0000763-4.0000763 4.0000763l-79.99985 0c-2.2091827 0-4.0000763-1.7908936-4.0000763-4.0000763z" fill-rule="evenodd"/><path fill="#000" d="m176.83533 135.57166l0-.875q-.65625 1.03125-1.9375 1.03125q-.8125 0-1.515625-.453125q-.6875-.453125-1.078125-1.265625q-.375-.828125-.375-1.890625q0-1.03125.34375-1.875q0.34375-.84375 1.03125-1.28125q0.703125-.453125 1.546875-.453125q0.625 0 1.109375.265625q0.5.25.796875.671875l0-3.421875l1.171875 0l0 9.546875l-1.09375 0zm-3.703125-3.453125q0 1.328125.5625 1.984375q0.5625.65625 1.328125.65625q0.765625 0 1.296875-.625q0.53125-.625.53125-1.90625q0-1.421875-.546875-2.078125q-.546875-.671875-1.34375-.671875q-.78125 0-1.3125.640625q-.515625.625-.515625 2.0zm6.6156006 3.453125l0-6.90625l1.0625 0l0 1.046875q0.40625-.734375.734375-.96875q0.34375-.234375.765625-.234375q0.59375 0 1.203125.375l-.40625 1.078125q-.4375-.25-.859375-.25q-.390625 0-.703125.234375q-.296875.234375-.421875.640625q-.203125.625-.203125 1.359375l0 3.625l-1.171875 0zm8.96962-.859375q-.65625.5625-1.265625.796875q-.59375.21875-1.28125.21875q-1.140625 0-1.75-.546875q-.609375-.5625-.609375-1.4375q0-.5.21875-.921875q0.234375-.421875.609375-.671875q0.375-.25.84375-.390625q0.34375-.078125 1.046875-.171875q1.421875-.171875 2.09375-.40625q0-.234375 0-.296875q0-.71875-.328125-1.015625q-.453125-.390625-1.34375-.390625q-.8125 0-1.21875.296875q-.390625.28125-.578125 1.015625l-1.140625-.15625q0.15625-.734375.515625-1.1875q0.359375-.453125 1.03125-.6875q0.671875-.25 1.5625-.25q0.890625 0 1.4375.203125q0.5625.203125.8125.53125q0.265625.3125.375.796875q0.046875.296875.046875 1.078125l0 1.5625q0 1.625.078125 2.0625q0.078125.4375.296875.828125l-1.21875 0q-.1875-.359375-.234375-.859375zm-.09375-2.609375q-.640625.265625-1.921875.4375q-.71875.109375-1.015625.25q-.296875.125-.46875.375q-.15625.25-.15625.546875q0 .46875.34375.78125q0.359375.3125 1.046875.3125q0.671875 0 1.203125-.296875q0.53125-.296875.78125-.8125q0.1875-.390625.1875-1.171875l0-.421875zm4.2718506 3.46875l-2.125-6.90625l1.21875 0l1.09375 3.984375l0.421875 1.484375q0.015625-.109375.359375-1.421875l1.09375-4.046875l1.203125 0l1.03125 4.0l0.34375 1.328125l0.40625-1.34375l1.171875-3.984375l1.140625 0l-2.15625 6.90625l-1.21875 0l-1.09375-4.140625l-.265625-1.171875l-1.40625 5.3125l-1.21875 0zm7.2657776 2.65625l0-.859375l7.765625 0l0 .859375l-7.765625 0zm8.474976-2.65625l0-9.546875l1.171875 0l0 9.546875l-1.171875 0zm2.99234-8.1875l0-1.359375l1.171875 0l0 1.359375l-1.171875 0zm0 8.1875l0-6.90625l1.171875 0l0 6.90625l-1.171875 0zm2.945465 0l0-6.90625l1.0625 0l0 .984375q0.75-1.140625 2.1875-1.140625q0.625 0 1.15625.21875q0.53125.21875.78125.59375q0.265625.359375.375.859375q0.0625.328125.0625 1.140625l0 4.25l-1.171875 0l0-4.203125q0-.71875-.140625-1.0625q-.140625-.359375-.484375-.5625q-.34375-.21875-.8125-.21875q-.75 0-1.296875.46875q-.546875.46875-.546875 1.796875l0 3.78125l-1.171875 0zm12.146851-2.21875l1.203125.140625q-.28125 1.0625-1.0625 1.65625q-.765625.578125-1.96875.578125q-1.515625 0-2.40625-.9375q-.890625-.9375-.890625-2.609375q0-1.75.890625-2.703125q0.90625-.96875 2.34375-.96875q1.390625 0 2.265625.9375q0.875.9375.875 2.65625q0 .109375 0 .3125l-5.15625 0q0.0625 1.140625.640625 1.75q0.578125.59375 1.4375.59375q0.65625 0 1.109375-.328125q0.453125-.34375.71875-1.078125zm-3.84375-1.90625l3.859375 0q-.078125-.859375-.4375-1.296875q-.5625-.6875-1.453125-.6875q-.8125 0-1.359375.546875q-.546875.53125-.609375 1.4375z" fill-rule="nonzero"/><path fill="#fce5cd" d="m156 186.77173l0 0c0-2.2091827 1.7908936-4.0000763 4.0000763-4.0000763l79.99985 0c1.0608826 0 2.0783234.4214325 2.828476 1.1716003c0.75016785.7501526 1.1716003 1.7675934 1.1716003 2.828476l0 15.999847c0 2.2091827-1.7908936 4.0000763-4.0000763 4.0000763l-79.99985 0c-2.2091827 0-4.0000763-1.7908936-4.0000763-4.0000763z" fill-rule="evenodd"/><path stroke="#000" stroke-width="1" stroke-linejoin="round" stroke-linecap="butt" d="m156 186.77173l0 0c0-2.2091827 1.7908936-4.0000763 4.0000763-4.0000763l79.99985 0c1.0608826 0 2.0783234.4214325 2.828476 1.1716003c0.75016785.7501526 1.1716003 1.7675934 1.1716003 2.828476l0 15.999847c0 2.2091827-1.7908936 4.0000763-4.0000763 4.0000763l-79.99985 0c-2.2091827 0-4.0000763-1.7908936-4.0000763-4.0000763z" fill-rule="evenodd"/><path fill="#000" d="m174.98384 199.57166l0-.875q-.65625 1.03125-1.9375 1.03125q-.8125 0-1.515625-.453125q-.6875-.453125-1.078125-1.265625q-.375-.828125-.375-1.890625q0-1.03125.34375-1.875q0.34375-.84375 1.03125-1.28125q0.703125-.453125 1.546875-.453125q0.625 0 1.109375.265625q0.5.25.796875.671875l0-3.421875l1.171875 0l0 9.546875l-1.09375 0zm-3.703125-3.453125q0 1.328125.5625 1.984375q0.5625.65625 1.328125.65625q0.765625 0 1.296875-.625q0.53125-.625.53125-1.90625q0-1.421875-.546875-2.078125q-.546875-.671875-1.34375-.671875q-.78125 0-1.3125.640625q-.515625.625-.515625 2.0zm6.6156006 3.453125l0-6.90625l1.0625 0l0 1.046875q0.40625-.734375.734375-.96875q0.34375-.234375.765625-.234375q0.59375 0 1.203125.375l-.40625 1.078125q-.4375-.25-.859375-.25q-.390625 0-.703125.234375q-.296875.234375-.421875.640625q-.203125.625-.203125 1.359375l0 3.625l-1.171875 0zm8.96962-.859375q-.65625.5625-1.265625.796875q-.59375.21875-1.28125.21875q-1.140625 0-1.75-.546875q-.609375-.5625-.609375-1.4375q0-.5.21875-.921875q0.234375-.421875.609375-.671875q0.375-.25.84375-.390625q0.34375-.078125 1.046875-.171875q1.421875-.171875 2.09375-.40625q0-.234375 0-.296875q0-.71875-.328125-1.015625q-.453125-.390625-1.34375-.390625q-.8125 0-1.21875.296875q-.390625.28125-.578125 1.015625l-1.140625-.15625q0.15625-.734375.515625-1.1875q0.359375-.453125 1.03125-.6875q0.671875-.25 1.5625-.25q0.890625 0 1.4375.203125q0.5625.203125.8125.53125q0.265625.3125.375.796875q0.046875.296875.046875 1.078125l0 1.5625q0 1.625.078125 2.0625q0.078125.4375.296875.828125l-1.21875 0q-.1875-.359375-.234375-.859375zm-.09375-2.609375q-.640625.265625-1.921875.4375q-.71875.109375-1.015625.25q-.296875.125-.46875.375q-.15625.25-.15625.546875q0 .46875.34375.78125q0.359375.3125 1.046875.3125q0.671875 0 1.203125-.296875q0.53125-.296875.78125-.8125q0.1875-.390625.1875-1.171875l0-.421875zm4.2718506 3.46875l-2.125-6.90625l1.21875 0l1.09375 3.984375l0.421875 1.484375q0.015625-.109375.359375-1.421875l1.09375-4.046875l1.203125 0l1.03125 4.0l0.34375 1.328125l0.40625-1.34375l1.171875-3.984375l1.140625 0l-2.15625 6.90625l-1.21875 0l-1.09375-4.140625l-.265625-1.171875l-1.40625 5.3125l-1.21875 0zm7.2657776 2.65625l0-.859375l7.765625 0l0 .859375l-7.765625 0zm8.053101-6.109375q0-1.921875 1.078125-2.84375q0.890625-.765625 2.171875-.765625q1.421875 0 2.328125.9375q0.90625.921875.90625 2.578125q0 1.328125-.40625 2.09375q-.390625.765625-1.15625 1.1875q-.765625.421875-1.671875.421875q-1.453125 0-2.359375-.921875q-.890625-.9375-.890625-2.6875zm1.203125 0q0 1.328125.578125 1.984375q0.59375.65625 1.46875.65625q0.875 0 1.453125-.65625q0.578125-.671875.578125-2.03125q0-1.28125-.59375-1.9375q-.578125-.65625-1.4375-.65625q-.875 0-1.46875.65625q-.578125.65625-.578125 1.984375zm8.568726 3.453125l-2.625-6.90625l1.234375 0l1.484375 4.140625q0.234375.65625.4375 1.390625q0.15625-.546875.4375-1.3125l1.53125-4.21875l1.21875 0l-2.625 6.90625l-1.09375 0zm9.2578125-.859375q-.65625.5625-1.265625.796875q-.59375.21875-1.28125.21875q-1.140625 0-1.75-.546875q-.609375-.5625-.609375-1.4375q0-.5.21875-.921875q0.234375-.421875.609375-.671875q0.375-.25.84375-.390625q0.34375-.078125 1.046875-.171875q1.421875-.171875 2.09375-.40625q0-.234375 0-.296875q0-.71875-.328125-1.015625q-.453125-.390625-1.34375-.390625q-.8125 0-1.21875.296875q-.390625.28125-.578125 1.015625l-1.140625-.15625q0.15625-.734375.515625-1.1875q0.359375-.453125 1.03125-.6875q0.671875-.25 1.5625-.25q0.890625 0 1.4375.203125q0.5625.203125.8125.53125q0.265625.3125.375.796875q0.046875.296875.046875 1.078125l0 1.5625q0 1.625.078125 2.0625q0.078125.4375.296875.828125l-1.21875 0q-.1875-.359375-.234375-.859375zm-.09375-2.609375q-.640625.265625-1.921875.4375q-.71875.109375-1.015625.25q-.296875.125-.46875.375q-.15625.25-.15625.546875q0 .46875.34375.78125q0.359375.3125 1.046875.3125q0.671875 0 1.203125-.296875q0.53125-.296875.78125-.8125q0.1875-.390625.1875-1.171875l0-.421875zm2.9749756 3.46875l0-9.546875l1.171875 0l0 9.546875l-1.171875 0z" fill-rule="nonzero"/><path fill="#fce5cd" d="m136 58.771732l0 0c0-2.2091827 1.7908936-4.00008 4.0000763-4.00008l111.99985 0c1.0608826 0 2.0783234.4214363 2.828476 1.1715965c0.75016785.7501602 1.1716003 1.7675972 1.1716003 2.8284836l0 15.999844c0 2.2091827-1.7908936 4.0000763-4.0000763 4.0000763l-111.99985 0l0 0c-2.2091827 0-4.0000763-1.7908936-4.0000763-4.0000763z" fill-rule="evenodd"/><path stroke="#000" stroke-width="1" stroke-linejoin="round" stroke-linecap="butt" d="m136 58.771732l0 0c0-2.2091827 1.7908936-4.00008 4.0000763-4.00008l111.99985 0c1.0608826 0 2.0783234.4214363 2.828476 1.1715965c0.75016785.7501602 1.1716003 1.7675972 1.1716003 2.8284836l0 15.999844c0 2.2091827-1.7908936 4.0000763-4.0000763 4.0000763l-111.99985 0l0 0c-2.2091827 0-4.0000763-1.7908936-4.0000763-4.0000763z" fill-rule="evenodd"/><path fill="#000" d="m155.79445 71.571655l0-.875q-.65625 1.03125-1.9375 1.03125q-.8125 0-1.515625-.453125q-.6875-.453125-1.078125-1.265625q-.375-.828125-.375-1.890625q0-1.03125.34375-1.875q0.34375-.84375 1.03125-1.28125q0.703125-.453125 1.546875-.453125q0.625 0 1.109375.265625q0.5.25.796875.671875l0-3.4218788l1.171875 0l0 9.546879l-1.09375 0zm-3.703125-3.453125q0 1.328125.5625 1.984375q0.5625.65625 1.328125.65625q0.765625 0 1.296875-.625q0.53125-.625.53125-1.90625q0-1.421875-.546875-2.078125q-.546875-.671875-1.34375-.671875q-.78125 0-1.3125.640625q-.515625.625-.515625 2.0zm6.6156006 3.453125l0-6.90625l1.0625 0l0 1.046875q0.40625-.734375.734375-.96875q0.34375-.234375.765625-.234375q0.59375 0 1.203125.375l-.40625 1.078125q-.4375-.25-.859375-.25q-.390625 0-.703125.234375q-.296875.234375-.421875.640625q-.203125.625-.203125 1.359375l0 3.625l-1.171875 0zm8.96962-.859375q-.65625.5625-1.265625.796875q-.59375.21875-1.28125.21875q-1.140625 0-1.75-.546875q-.609375-.5625-.609375-1.4375q0-.5.21875-.921875q0.234375-.421875.609375-.671875q0.375-.25.84375-.390625q0.34375-.078125 1.046875-.171875q1.421875-.171875 2.09375-.40625q0-.234375 0-.296875q0-.71875-.328125-1.015625q-.453125-.390625-1.34375-.390625q-.8125 0-1.21875.296875q-.390625.28125-.578125 1.015625l-1.140625-.15625q0.15625-.734375.515625-1.1875q0.359375-.453125 1.03125-.6875q0.671875-.25 1.5625-.25q0.890625 0 1.4375.203125q0.5625.203125.8125.53125q0.265625.3125.375.796875q0.046875.296875.046875 1.078125l0 1.5625q0 1.625.078125 2.0625q0.078125.4375.296875.828125l-1.21875 0q-.1875-.359375-.234375-.859375zm-.09375-2.609375q-.640625.265625-1.921875.4375q-.71875.109375-1.015625.25q-.296875.125-.46875.375q-.15625.25-.15625.546875q0 .46875.34375.78125q0.359375.3125 1.046875.3125q0.671875 0 1.203125-.296875q0.53125-.296875.78125-.8125q0.1875-.390625.1875-1.171875l0-.421875zm4.2718506 3.46875l-2.125-6.90625l1.21875 0l1.09375 3.984375l0.421875 1.484375q0.015625-.109375.359375-1.421875l1.09375-4.046875l1.203125 0l1.03125 4.0l0.34375 1.328125l0.40625-1.34375l1.171875-3.984375l1.140625 0l-2.15625 6.90625l-1.21875 0l-1.09375-4.140625l-.265625-1.171875l-1.40625 5.3125l-1.21875 0zm7.2657776 2.65625l0-.859375l7.765625 0l0 .859375l-7.765625 0zm8.474976-2.65625l0-6.90625l1.0625 0l0 1.046875q0.40625-.734375.734375-.96875q0.34375-.234375.765625-.234375q0.59375 0 1.203125.375l-.40625 1.078125q-.4375-.25-.859375-.25q-.390625 0-.703125.234375q-.296875.234375-.421875.640625q-.203125.625-.203125 1.359375l0 3.625l-1.171875 0zm9.18837-2.21875l1.203125.140625q-.28125 1.0625-1.0625 1.65625q-.765625.578125-1.96875.578125q-1.515625 0-2.40625-.9375q-.890625-.9375-.890625-2.609375q0-1.75.890625-2.703125q0.90625-.96875 2.34375-.96875q1.390625 0 2.265625.9375q0.875.9375.875 2.65625q0 .109375 0 .3125l-5.15625 0q0.0625 1.140625.640625 1.75q0.578125.59375 1.4375.59375q0.65625 0 1.109375-.328125q0.453125-.34375.71875-1.078125zm-3.84375-1.90625l3.859375 0q-.078125-.859375-.4375-1.296875q-.5625-.6875-1.453125-.6875q-.8125 0-1.359375.546875q-.546875.53125-.609375 1.4375zm11.037476 1.59375l1.15625.15625q-.1875 1.1875-.96875 1.859375q-.78125.671875-1.921875.671875q-1.40625 0-2.28125-.921875q-.859375-.9375-.859375-2.65625q0-1.125.375-1.96875q0.375-.84375 1.125-1.25q0.765625-.421875 1.65625-.421875q1.125 0 1.84375.578125q0.71875.5625.921875 1.609375l-1.140625.171875q-.171875-.703125-.59375-1.046875q-.40625-.359375-.984375-.359375q-.890625 0-1.453125.640625q-.546875.640625-.546875 2.0q0 1.40625.53125 2.03125q0.546875.625 1.40625.625q0.6875 0 1.140625-.421875q0.46875-.421875.59375-1.296875zm4.7109375 1.484375l0.171875 1.03125q-.5.109375-.890625.109375q-.640625 0-1-.203125q-.34375-.203125-.484375-.53125q-.140625-.328125-.140625-1.390625l0-3.96875l-.859375 0l0-.90625l0.859375 0l0-1.7187538l1.171875-.703125l0 2.4218788l1.171875 0l0 .90625l-1.171875 0l0 4.046875q0 .5.046875.640625q0.0625.140625.203125.234375q0.140625.078125.40625.078125q0.203125 0 .515625-.046875zm5.6561127.1875q-.65625.5625-1.265625.796875q-.59375.21875-1.28125.21875q-1.140625 0-1.75-.546875q-.609375-.5625-.609375-1.4375q0-.5.21875-.921875q0.234375-.421875.609375-.671875q0.375-.25.84375-.390625q0.34375-.078125 1.046875-.171875q1.421875-.171875 2.09375-.40625q0-.234375 0-.296875q0-.71875-.328125-1.015625q-.453125-.390625-1.34375-.390625q-.8125 0-1.21875.296875q-.390625.28125-.578125 1.015625l-1.140625-.15625q0.15625-.734375.515625-1.1875q0.359375-.453125 1.03125-.6875q0.671875-.25 1.5625-.25q0.890625 0 1.4375.203125q0.5625.203125.8125.53125q0.265625.3125.375.796875q0.046875.296875.046875 1.078125l0 1.5625q0 1.625.078125 2.0625q0.078125.4375.296875.828125l-1.21875 0q-.1875-.359375-.234375-.859375zm-.09375-2.609375q-.640625.265625-1.921875.4375q-.71875.109375-1.015625.25q-.296875.125-.46875.375q-.15625.25-.15625.546875q0 .46875.34375.78125q0.359375.3125 1.046875.3125q0.671875 0 1.203125-.296875q0.53125-.296875.78125-.8125q0.1875-.390625.1875-1.171875l0-.421875zm2.9906006 3.46875l0-6.90625l1.0625 0l0 .984375q0.75-1.140625 2.1875-1.140625q0.625 0 1.15625.21875q0.53125.21875.78125.59375q0.265625.359375.375.859375q0.0625.328125.0625 1.140625l0 4.25l-1.171875 0l0-4.203125q0-.71875-.140625-1.0625q-.140625-.359375-.484375-.5625q-.34375-.21875-.8125-.21875q-.75 0-1.296875.46875q-.546875.46875-.546875 1.796875l0 3.78125l-1.171875 0zm7.1937256.578125l1.140625.15625q0.078125.53125.40625.78125q0.4375.3125 1.1875.3125q0.8125 0 1.25-.328125q0.453125-.3125.609375-.90625q0.09375-.359375.078125-1.5q-.765625.90625-1.90625.90625q-1.4375 0-2.21875-1.03125q-.78125-1.03125-.78125-2.46875q0-.984375.359375-1.8125q0.359375-.84375 1.03125-1.296875q0.6875-.453125 1.609375-.453125q1.21875 0 2.015625.984375l0-.828125l1.078125 0l0 5.96875q0 1.609375-.328125 2.28125q-.328125.6875-1.046875 1.078125q-.703125.390625-1.75.390625q-1.234375 0-2-.5625q-.75-.5625-.734375-1.671875zm0.984375-4.15625q0 1.359375.53125 1.984375q0.546875.625 1.359375.625q0.796875 0 1.34375-.625q0.546875-.625.546875-1.953125q0-1.265625-.5625-1.90625q-.5625-.640625-1.359375-.640625q-.765625 0-1.3125.640625q-.546875.625-.546875 1.875zm6.6312256 3.578125l0-9.546879l1.171875 0l0 9.546879l-1.171875 0zm7.71109-2.21875l1.203125.140625q-.28125 1.0625-1.0625 1.65625q-.765625.578125-1.96875.578125q-1.515625 0-2.40625-.9375q-.890625-.9375-.890625-2.609375q0-1.75.890625-2.703125q0.90625-.96875 2.34375-.96875q1.390625 0 2.265625.9375q0.875.9375.875 2.65625q0 .109375 0 .3125l-5.15625 0q0.0625 1.140625.640625 1.75q0.578125.59375 1.4375.59375q0.65625 0 1.109375-.328125q0.453125-.34375.71875-1.078125zm-3.84375-1.90625l3.859375 0q-.078125-.859375-.4375-1.296875q-.5625-.6875-1.453125-.6875q-.8125 0-1.359375.546875q-.546875.53125-.609375 1.4375z" fill-rule="nonzero"/><path fill="#fce5cd" d="m160 250.77173l0 0c0-2.2091827 1.7908936-4.0000763 4.0000763-4.0000763l71.99985 0c1.0608826 0 2.0783234.4214325 2.828476 1.1716003c0.75016785.7501526 1.1716003 1.7675934 1.1716003 2.828476l0 15.999847c0 2.2091675-1.7908936 4.0000916-4.0000763 4.0000916l-71.99985 0c-2.2091827 0-4.0000763-1.7909241-4.0000763-4.0000916z" fill-rule="evenodd"/><path stroke="#000" stroke-width="1" stroke-linejoin="round" stroke-linecap="butt" d="m160 250.77173l0 0c0-2.2091827 1.7908936-4.0000763 4.0000763-4.0000763l71.99985 0c1.0608826 0 2.0783234.4214325 2.828476 1.1716003c0.75016785.7501526 1.1716003 1.7675934 1.1716003 2.828476l0 15.999847c0 2.2091675-1.7908936 4.0000916-4.0000763 4.0000916l-71.99985 0c-2.2091827 0-4.0000763-1.7909241-4.0000763-4.0000916z" fill-rule="evenodd"/><path fill="#000" d="m177.95145 263.57166l0-.875q-.65625 1.03125-1.9375 1.03125q-.8125 0-1.515625-.453125q-.6875-.453125-1.078125-1.265625q-.375-.828125-.375-1.890625q0-1.03125.34375-1.875q0.34375-.84375 1.03125-1.28125q0.703125-.453125 1.546875-.453125q0.625 0 1.109375.265625q0.5.25.796875.671875l0-3.421875l1.171875 0l0 9.546875l-1.09375 0zm-3.703125-3.453125q0 1.328125.5625 1.984375q0.5625.65625 1.328125.65625q0.765625 0 1.296875-.625q0.53125-.625.53125-1.90625q0-1.421875-.546875-2.078125q-.546875-.671875-1.34375-.671875q-.78125 0-1.3125.640625q-.515625.625-.515625 2.0zm6.6156006 3.453125l0-6.90625l1.0625 0l0 1.046875q0.40625-.734375.734375-.96875q0.34375-.234375.765625-.234375q0.59375 0 1.203125.375l-.40625 1.078125q-.4375-.25-.859375-.25q-.390625 0-.703125.234375q-.296875.234375-.421875.640625q-.203125.625-.203125 1.359375l0 3.625l-1.171875 0zm8.96962-.859375q-.65625.5625-1.265625.796875q-.59375.21875-1.28125.21875q-1.140625 0-1.75-.546875q-.609375-.5625-.609375-1.4375q0-.5.21875-.921875q0.234375-.421875.609375-.671875q0.375-.25.84375-.390625q0.34375-.078125 1.046875-.171875q1.421875-.171875 2.09375-.40625q0-.234375 0-.296875q0-.71875-.328125-1.015625q-.453125-.390625-1.34375-.390625q-.8125 0-1.21875.296875q-.390625.28125-.578125 1.015625l-1.140625-.15625q0.15625-.734375.515625-1.1875q0.359375-.453125 1.03125-.6875q0.671875-.25 1.5625-.25q0.890625 0 1.4375.203125q0.5625.203125.8125.53125q0.265625.3125.375.796875q0.046875.296875.046875 1.078125l0 1.5625q0 1.625.078125 2.0625q0.078125.4375.296875.828125l-1.21875 0q-.1875-.359375-.234375-.859375zm-.09375-2.609375q-.640625.265625-1.921875.4375q-.71875.109375-1.015625.25q-.296875.125-.46875.375q-.15625.25-.15625.546875q0 .46875.34375.78125q0.359375.3125 1.046875.3125q0.671875 0 1.203125-.296875q0.53125-.296875.78125-.8125q0.1875-.390625.1875-1.171875l0-.421875zm4.2718506 3.46875l-2.125-6.90625l1.21875 0l1.09375 3.984375l0.421875 1.484375q0.015625-.109375.359375-1.421875l1.09375-4.046875l1.203125 0l1.03125 4.0l0.34375 1.328125l0.40625-1.34375l1.171875-3.984375l1.140625 0l-2.15625 6.90625l-1.21875 0l-1.09375-4.140625l-.265625-1.171875l-1.40625 5.3125l-1.21875 0zm7.2657776 2.65625l0-.859375l7.765625 0l0 .859375l-7.765625 0zm13.006226-3.515625q-.65625.5625-1.265625.796875q-.59375.21875-1.28125.21875q-1.140625 0-1.75-.546875q-.609375-.5625-.609375-1.4375q0-.5.21875-.921875q0.234375-.421875.609375-.671875q0.375-.25.84375-.390625q0.34375-.078125 1.046875-.171875q1.421875-.171875 2.09375-.40625q0-.234375 0-.296875q0-.71875-.328125-1.015625q-.453125-.390625-1.34375-.390625q-.8125 0-1.21875.296875q-.390625.28125-.578125 1.015625l-1.140625-.15625q0.15625-.734375.515625-1.1875q0.359375-.453125 1.03125-.6875q0.671875-.25 1.5625-.25q0.890625 0 1.4375.203125q0.5625.203125.8125.53125q0.265625.3125.375.796875q0.046875.296875.046875 1.078125l0 1.5625q0 1.625.078125 2.0625q0.078125.4375.296875.828125l-1.21875 0q-.1875-.359375-.234375-.859375zm-.09375-2.609375q-.640625.265625-1.921875.4375q-.71875.109375-1.015625.25q-.296875.125-.46875.375q-.15625.25-.15625.546875q0 .46875.34375.78125q0.359375.3125 1.046875.3125q0.671875 0 1.203125-.296875q0.53125-.296875.78125-.8125q0.1875-.390625.1875-1.171875l0-.421875zm2.9749756 3.46875l0-6.90625l1.0625 0l0 1.046875q0.40625-.734375.734375-.96875q0.34375-.234375.765625-.234375q0.59375 0 1.203125.375l-.40625 1.078125q-.4375-.25-.859375-.25q-.390625 0-.703125.234375q-.296875.234375-.421875.640625q-.203125.625-.203125 1.359375l0 3.625l-1.171875 0zm8.96962-2.53125l1.15625.15625q-.1875 1.1875-.96875 1.859375q-.78125.671875-1.921875.671875q-1.40625 0-2.28125-.921875q-.859375-.9375-.859375-2.65625q0-1.125.375-1.96875q0.375-.84375 1.125-1.25q0.765625-.421875 1.65625-.421875q1.125 0 1.84375.578125q0.71875.5625.921875 1.609375l-1.140625.171875q-.171875-.703125-.59375-1.046875q-.40625-.359375-.984375-.359375q-.890625 0-1.453125.640625q-.546875.640625-.546875 2.0q0 1.40625.53125 2.03125q0.546875.625 1.40625.625q0.6875 0 1.140625-.421875q0.46875-.421875.59375-1.296875z" fill-rule="nonzero"/><path fill="#fce5cd" d="m144 314.77173l0 0c0-2.2091675 1.7908936-4.000061 4.0000763-4.000061l103.99985 0c1.0608826 0 2.0783234.42141724 2.828476 1.1715698c0.75016785.7501831 1.1716003 1.7676086 1.1716003 2.8284912l0 15.999847c0 2.2091675-1.7908936 4.0000916-4.0000763 4.0000916l-103.99985 0c-2.2091827 0-4.0000763-1.7909241-4.0000763-4.0000916z" fill-rule="evenodd"/><path stroke="#000" stroke-width="1" stroke-linejoin="round" stroke-linecap="butt" d="m144 314.77173l0 0c0-2.2091675 1.7908936-4.000061 4.0000763-4.000061l103.99985 0c1.0608826 0 2.0783234.42141724 2.828476 1.1715698c0.75016785.7501831 1.1716003 1.7676086 1.1716003 2.8284912l0 15.999847c0 2.2091675-1.7908936 4.0000916-4.0000763 4.0000916l-103.99985 0c-2.2091827 0-4.0000763-1.7909241-4.0000763-4.0000916z" fill-rule="evenodd"/><path fill="#000" d="m163.86513 327.57166l0-.875q-.65625 1.03125-1.9375 1.03125q-.8125 0-1.515625-.453125q-.6875-.453125-1.078125-1.265625q-.375-.828125-.375-1.890625q0-1.03125.34375-1.875q0.34375-.84375 1.03125-1.28125q0.703125-.453125 1.546875-.453125q0.625 0 1.109375.265625q0.5.25.796875.671875l0-3.421875l1.171875 0l0 9.546875l-1.09375 0zm-3.703125-3.453125q0 1.328125.5625 1.984375q0.5625.65625 1.328125.65625q0.765625 0 1.296875-.625q0.53125-.625.53125-1.90625q0-1.421875-.546875-2.078125q-.546875-.671875-1.34375-.671875q-.78125 0-1.3125.640625q-.515625.625-.515625 2.0zm6.6156006 3.453125l0-6.90625l1.0625 0l0 1.046875q0.40625-.734375.734375-.96875q0.34375-.234375.765625-.234375q0.59375 0 1.203125.375l-.40625 1.078125q-.4375-.25-.859375-.25q-.390625 0-.703125.234375q-.296875.234375-.421875.640625q-.203125.625-.203125 1.359375l0 3.625l-1.171875 0zm8.96962-.859375q-.65625.5625-1.265625.796875q-.59375.21875-1.28125.21875q-1.140625 0-1.75-.546875q-.609375-.5625-.609375-1.4375q0-.5.21875-.921875q0.234375-.421875.609375-.671875q0.375-.25.84375-.390625q0.34375-.078125 1.046875-.171875q1.421875-.171875 2.09375-.40625q0-.234375 0-.296875q0-.71875-.328125-1.015625q-.453125-.390625-1.34375-.390625q-.8125 0-1.21875.296875q-.390625.28125-.578125 1.015625l-1.140625-.15625q0.15625-.734375.515625-1.1875q0.359375-.453125 1.03125-.6875q0.671875-.25 1.5625-.25q0.890625 0 1.4375.203125q0.5625.203125.8125.53125q0.265625.3125.375.796875q0.046875.296875.046875 1.078125l0 1.5625q0 1.625.078125 2.0625q0.078125.4375.296875.828125l-1.21875 0q-.1875-.359375-.234375-.859375zm-.09375-2.609375q-.640625.265625-1.921875.4375q-.71875.109375-1.015625.25q-.296875.125-.46875.375q-.15625.25-.15625.546875q0 .46875.34375.78125q0.359375.3125 1.046875.3125q0.671875 0 1.203125-.296875q0.53125-.296875.78125-.8125q0.1875-.390625.1875-1.171875l0-.421875zm4.2718506 3.46875l-2.125-6.90625l1.21875 0l1.09375 3.984375l0.421875 1.484375q0.015625-.109375.359375-1.421875l1.09375-4.046875l1.203125 0l1.03125 4.0l0.34375 1.328125l0.40625-1.34375l1.171875-3.984375l1.140625 0l-2.15625 6.90625l-1.21875 0l-1.09375-4.140625l-.265625-1.171875l-1.40625 5.3125l-1.21875 0zm7.2657776 2.65625l0-.859375l7.765625 0l0 .859375l-7.765625 0zm8.490601 0l0-9.5625l1.078125 0l0 .890625q0.375-.53125.84375-.78125q0.484375-.265625 1.15625-.265625q0.875 0 1.546875.453125q0.6875.453125 1.03125 1.28125q0.34375.828125.34375 1.828125q0 1.046875-.375 1.90625q-.375.84375-1.109375 1.296875q-.71875.453125-1.53125.453125q-.578125 0-1.046875-.25q-.46875-.25-.765625-.625l0 3.375l-1.171875 0zm1.0625-6.078125q0 1.34375.53125 1.984375q0.546875.625 1.3125.625q0.78125 0 1.34375-.65625q0.5625-.65625.5625-2.046875q0-1.3125-.546875-1.96875q-.546875-.671875-1.296875-.671875q-.75 0-1.328125.703125q-.578125.703125-.578125 2.03125zm5.9124756-.03125q0-1.921875 1.078125-2.84375q0.890625-.765625 2.171875-.765625q1.421875 0 2.328125.9375q0.90625.921875.90625 2.578125q0 1.328125-.40625 2.09375q-.390625.765625-1.15625 1.1875q-.765625.421875-1.671875.421875q-1.453125 0-2.359375-.921875q-.890625-.9375-.890625-2.6875zm1.203125 0q0 1.328125.578125 1.984375q0.59375.65625 1.46875.65625q0.875 0 1.453125-.65625q0.578125-.671875.578125-2.03125q0-1.28125-.59375-1.9375q-.578125-.65625-1.4375-.65625q-.875 0-1.46875.65625q-.578125.65625-.578125 1.984375zm6.6312256 3.453125l0-9.546875l1.171875 0l0 9.546875l-1.171875 0zm2.92984 2.65625l-.125-1.09375q0.375.109375.65625.109375q0.390625 0 .625-.140625q0.234375-.125.390625-.359375q0.109375-.171875.359375-.875q0.03125-.09375.109375-.28125l-2.625-6.921875l1.265625 0l1.4375 4.0q0.28125.765625.5 1.59375q0.203125-.796875.46875-1.578125l1.484375-4.015625l1.171875 0l-2.625 7.015625q-.421875 1.140625-.65625 1.578125q-.3125.578125-.71875.84375q-.40625.28125-.96875.28125q-.328125 0-.75-.15625zm6.4921875-2.078125l1.140625.15625q0.078125.53125.40625.78125q0.4375.3125 1.1875.3125q0.8125 0 1.25-.328125q0.453125-.3125.609375-.90625q0.09375-.359375.078125-1.5q-.765625.90625-1.90625.90625q-1.4375 0-2.21875-1.03125q-.78125-1.03125-.78125-2.46875q0-.984375.359375-1.8125q0.359375-.84375 1.03125-1.296875q0.6875-.453125 1.609375-.453125q1.21875 0 2.015625.984375l0-.828125l1.078125 0l0 5.96875q0 1.609375-.328125 2.28125q-.328125.6875-1.046875 1.078125q-.703125.390625-1.75.390625q-1.234375 0-2-.5625q-.75-.5625-.734375-1.671875zm0.984375-4.15625q0 1.359375.53125 1.984375q0.546875.625 1.359375.625q0.796875 0 1.34375-.625q0.546875-.625.546875-1.953125q0-1.265625-.5625-1.90625q-.5625-.640625-1.359375-.640625q-.765625 0-1.3125.640625q-.546875.625-.546875 1.875zm6.2093506.125q0-1.921875 1.078125-2.84375q0.890625-.765625 2.171875-.765625q1.421875 0 2.328125.9375q0.90625.921875.90625 2.578125q0 1.328125-.40625 2.09375q-.390625.765625-1.15625 1.1875q-.765625.421875-1.671875.421875q-1.453125 0-2.359375-.921875q-.890625-.9375-.890625-2.6875zm1.203125 0q0 1.328125.578125 1.984375q0.59375.65625 1.46875.65625q0.875 0 1.453125-.65625q0.578125-.671875.578125-2.03125q0-1.28125-.59375-1.9375q-.578125-.65625-1.4375-.65625q-.875 0-1.46875.65625q-.578125.65625-.578125 1.984375zm6.6468506 3.453125l0-6.90625l1.0625 0l0 .984375q0.75-1.140625 2.1875-1.140625q0.625 0 1.15625.21875q0.53125.21875.78125.59375q0.265625.359375.375.859375q0.0625.328125.0625 1.140625l0 4.25l-1.171875 0l0-4.203125q0-.71875-.140625-1.0625q-.140625-.359375-.484375-.5625q-.34375-.21875-.8125-.21875q-.75 0-1.296875.46875q-.546875.46875-.546875 1.796875l0 3.78125l-1.171875 0z" fill-rule="nonzero"/><path fill="#fff" d="m8 22.771654l0 0c0-4.4182777 3.5817223-8.000001 8-8.000001l0 0c2.1217327 0 4.156563.84285545 5.6568546 2.3431463c1.5002899 1.5002899 2.3431454 3.535122 2.3431454 5.6568546l0 0c0 4.4182777-3.5817223 8-8 8.0l0 0c-4.4182777 0-8-3.5817223-8-8.0z" fill-rule="evenodd"/><path stroke="#000" stroke-width="2" stroke-linejoin="round" stroke-linecap="butt" d="m8 22.771654l0 0c0-4.4182777 3.5817223-8.000001 8-8.000001l0 0c2.1217327 0 4.156563.84285545 5.6568546 2.3431463c1.5002899 1.5002899 2.3431454 3.535122 2.3431454 5.6568546l0 0c0 4.4182777-3.5817223 8-8 8.0l0 0c-4.4182777 0-8-3.5817223-8-8.0z" fill-rule="evenodd"/><path fill="#000" fill-opacity="0" d="m24 22.771654c10 0 20 15.999998 20 31.999998" fill-rule="evenodd"/><path stroke="#000" stroke-width="1" stroke-linejoin="round" stroke-linecap="butt" d="m24 22.771654c5 0 10 4 13.75 9.999998c1.875 3 3.4375 6.5 4.53125 10.25c0.2734375.9375.5175781 1.890625.72998047 2.8554688c0.10620499.48242188.20446777.96777725.2944908 1.4555664c0.045017242.2439003.08797073.48840332.12882614.7334633l0.11398697.7225113" fill-rule="evenodd"/><path fill="#000" stroke="#000" stroke-width="1" stroke-linecap="butt" d="m41.901485 48.912945l1.988514 4.4009514l1.305584-4.649517z" fill-rule="evenodd"/><path fill="#000" fill-opacity="0" d="m72 58.771652c64 0 128 30 128 60" fill-rule="evenodd"/><path stroke="#000" stroke-width="1" stroke-linejoin="round" stroke-linecap="butt" d="m72 58.771652c32 0 64 7.5 88 18.75c12 5.625 22 12.1875 29 19.21875c3.5 3.515625 6.25 7.1484375 8.125 10.839844c0.46875.92285156.8828125 1.8493729 1.2402344 2.7786255c0.17871094.46463013.34326172.9299469.4934082 1.3958359c0.07505798.2329483.14654541.46603394.21437073.69924927c0.033935547.116615295.06695557.23324585.0990448.34992218l0.0064849854.024276733" fill-rule="evenodd"/><path fill="#000" stroke="#000" stroke-width="1" stroke-linecap="butt" d="m197.54237 113.05429l2.2574768 4.269226l1.0148773-4.721504z" fill-rule="evenodd"/><path fill="#000" fill-opacity="0" d="m72 58.771652c64 0 128 62 128 124" fill-rule="evenodd"/><path stroke="#000" stroke-width="1" stroke-linejoin="round" stroke-linecap="butt" d="m72 58.771652c32 0 64 15.5 88 38.75c12 11.625 22 25.1875 29 39.71875c3.5 7.265625 6.25 14.7734375 8.125 22.402344c0.9375 3.8144531 1.65625 7.6591797 2.140625 11.519043c0.12110901.9649811.22755432 1.9308777.31907654 2.8974915c0.045791626.48332214.08784485.9667969.12615967 1.4504395c0.019119263.24182129.037353516.4836731.054626465.7255554l0.03640747.5396576" fill-rule="evenodd"/><path fill="#000" stroke="#000" stroke-width="1" stroke-linecap="butt" d="m198.15106 176.82947l1.8006744 4.481079l1.5009918-4.590164z" fill-rule="evenodd"/><path fill="#000" fill-opacity="0" d="m72 58.771652c64 0 128 62 128 124" fill-rule="evenodd"/><path stroke="#000" stroke-width="1" stroke-linejoin="round" stroke-linecap="butt" d="m72 58.771652c32 0 64 15.5 88 38.75c12 11.625 22 25.1875 29 39.71875c3.5 7.265625 6.25 14.7734375 8.125 22.402344c0.9375 3.8144531 1.65625 7.6591797 2.140625 11.519043c0.12110901.9649811.22755432 1.9308777.31907654 2.8974915c0.045791626.48332214.08784485.9667969.12615967 1.4504395c0.019119263.24182129.037353516.4836731.054626465.7255554l0.03640747.5396576" fill-rule="evenodd"/><path fill="#000" stroke="#000" stroke-width="1" stroke-linecap="butt" d="m198.15106 176.82947l1.8006744 4.481079l1.5009918-4.590164z" fill-rule="evenodd"/><path fill="#000" fill-opacity="0" d="m72 58.771652c64 0 128 94 128 188" fill-rule="evenodd"/><path stroke="#000" stroke-width="1" stroke-linejoin="round" stroke-linecap="butt" d="m72 58.771652c32 0 64 23.5 88 58.75c12 17.625 22 38.1875 29 60.21875c3.5 11.015625 6.25 22.398438 8.125 33.96486c0.9375 5.783188 1.65625 11.612289 2.140625 17.46434c0.2421875 2.9260406.425766 5.857788.5488281 8.792419c0.03074646.73365784.057739258 1.4674988.0809021 2.2014618l0.017623901.6088104" fill-rule="evenodd"/><path fill="#000" stroke="#000" stroke-width="1" stroke-linecap="butt" d="m198.26143 240.79623l1.7173767 4.513672l1.5857391-4.561569z" fill-rule="evenodd"/><path fill="#000" fill-opacity="0" d="m72 58.771652c64 0 128 126 128 252.00002" fill-rule="evenodd"/><path stroke="#000" stroke-width="1" stroke-linejoin="round" stroke-linecap="butt" d="m72 58.771652c32 0 64 31.5 88 78.75c12 23.625 22 51.1875 29 80.71875c3.5 14.765625 6.25 30.023438 8.125 45.52736c0.9375 7.751953 1.65625 15.565399 2.140625 23.409637c0.2421875 3.9221191.425766 7.851959.5488281 11.785614c0.03074646.98339844.057739258 1.967041.0809021 2.9508972c0.011566162.49191284.022216797.9838562.03187561 1.4758606l0.024475098 1.3820801" fill-rule="evenodd"/><path fill="#000" stroke="#000" stroke-width="1" stroke-linecap="butt" d="m198.30002 304.78516l1.6882172 4.5246277l1.6151428-4.551239z" fill-rule="evenodd"/><path fill="#000" fill-opacity="0" d="m72 58.771652c15.999718 0 21.59948-6.8999977 31.999443-14.5c10.399963-7.5999985 25.60012-15.9 46.000282-14.499998c20.400146 1.3999996 46.000275 12.499998 46.000275 24.999998" fill-rule="evenodd"/><path stroke="#000" stroke-width="1" stroke-linejoin="round" stroke-linecap="butt" d="m72 58.771652c15.999725 0 21.59948-6.9000015 31.999435-14.5c10.399963-7.5999985 25.600143-15.9 46.00029-14.499998c10.200073.70000076 21.700134 3.8249989 30.650192 8.3375c4.4750214 2.2562485 8.3125305 4.859375 11.031311 7.6796875c0.6796875.7050781 1.289444 1.4237328 1.8217926 2.1539268c0.1330719.18255615.26130676.36582565.38461304.5497894c0.06163025.09197998.122024536.18413162.18118286.27645493l0.1675415.26769638" fill-rule="evenodd"/><path fill="#000" stroke="#000" stroke-width="1" stroke-linecap="butt" d="m192.65761 49.522217l2.9126892 3.8521156l0.24484253-4.8231316z" fill-rule="evenodd"/><path fill="#000" fill-opacity="0" d="m72 58.771652c64 0 128 126 128 252.00002" fill-rule="evenodd"/><path stroke="#000" stroke-width="1" stroke-linejoin="round" stroke-linecap="butt" d="m72 58.771652c32 0 64 31.5 88 78.75c12 23.625 22 51.1875 29 80.71875c3.5 14.765625 6.25 30.023438 8.125 45.52736c0.9375 7.751953 1.65625 15.565399 2.140625 23.409637c0.2421875 3.9221191.425766 7.851959.5488281 11.785614c0.03074646.98339844.057739258 1.967041.0809021 2.9508972c0.011566162.49191284.022216797.9838562.03187561 1.4758606l0.024475098 1.3820801" fill-rule="evenodd"/><path fill="#000" stroke="#000" stroke-width="1" stroke-linecap="butt" d="m198.30002 304.78516l1.6882172 4.5246277l1.6151428-4.551239z" fill-rule="evenodd"/><path fill="#000" fill-opacity="0" d="m112 0l176 0l0 38.771652l-176 0z" fill-rule="evenodd"/><path fill="#000" d="m122.15625 12.906876l4.234375 0q1.421875 0 2.171875.21875q1.015625.296875 1.734375 1.0625q0.71875.75 1.09375 1.84375q0.375 1.09375.375 2.703125q0 1.421875-.359375 2.4375q-.421875 1.25-1.21875 2.03125q-.609375.578125-1.625.90625q-.765625.25-2.046875.25l-4.359375 0l0-11.453125zm2.3125 1.9375l0 7.578125l1.734375 0q0.96875 0 1.390625-.109375q0.5625-.140625.9375-.46875q0.375-.34375.609375-1.109375q0.234375-.765625.234375-2.09375q0-1.328125-.234375-2.03125q-.234375-.71875-.65625-1.109375q-.421875-.40625-1.078125-.546875q-.484375-.109375-1.890625-.109375l-1.046875 0zm11.3359375 9.515625l-2.1875 0l0-8.296875l2.03125 0l0 1.171875q0.53125-.828125.9375-1.09375q0.421875-.265625.953125-.265625q0.75 0 1.453125.40625l-.6875 1.921875q-.546875-.359375-1.03125-.359375q-.453125 0-.78125.25q-.3125.25-.5.921875q-.1875.65625-.1875 2.78125l0 2.5625zm5.7734375-5.765625l-2-.359375q0.34375-1.203125 1.15625-1.78125q0.828125-.578125 2.4375-.578125q1.46875 0 2.1875.34375q0.71875.34375 1.015625.890625q0.296875.53125.296875 1.953125l-.03125 2.5625q0 1.09375.109375 1.625q0.109375.515625.390625 1.109375l-2.171875 0q-.078125-.21875-.203125-.65625q-.0625-.1875-.078125-.25q-.5625.546875-1.203125.828125q-.640625.265625-1.375.265625q-1.28125 0-2.015625-.6875q-.734375-.703125-.734375-1.765625q0-.703125.328125-1.25q0.34375-.5625.9375-.84375q0.609375-.296875 1.75-.515625q1.546875-.296875 2.140625-.546875l0-.21875q0-.625-.3125-.890625q-.3125-.28125-1.1875-.28125q-.578125 0-.90625.234375q-.328125.234375-.53125.8125zm2.9375 1.78125q-.421875.140625-1.34375.34375q-.90625.1875-1.1875.375q-.4375.296875-.4375.765625q0 .46875.34375.8125q0.34375.328125.875.328125q0.59375 0 1.140625-.390625q0.390625-.296875.515625-.734375q0.09375-.28125.09375-1.0625l0-.4375zm5.8671875 3.984375l-2.625-8.296875l2.125 0l1.5625 5.4375l1.421875-5.4375l2.125 0l1.375 5.4375l1.59375-5.4375l2.15625 0l-2.65625 8.296875l-2.109375 0l-1.4375-5.34375l-1.40625 5.34375l-2.125 0zm22.28125-2.046875l0 2.046875l-7.6875 0q0.125-1.15625.75-2.1875q0.625-1.046875 2.46875-2.75q1.484375-1.390625 1.8125-1.875q0.453125-.6875.453125-1.34375q0-.734375-.390625-1.125q-.390625-.40625-1.09375-.40625q-.6875 0-1.09375.421875q-.40625.40625-.46875 1.375l-2.1875-.21875q0.203125-1.8125 1.234375-2.59375q1.03125-.796875 2.578125-.796875q1.6875 0 2.65625.921875q0.96875.90625.96875 2.265625q0 .765625-.28125 1.46875q-.265625.703125-.875 1.46875q-.390625.5-1.4375 1.453125q-1.03125.953125-1.3125 1.265625q-.28125.3125-.453125.609375l4.359375 0zm1.7109375-1.015625l0-2.1875l4.3125 0l0 2.1875l-4.3125 0zm5.578125-8.390625l4.234375 0q1.421875 0 2.171875.21875q1.015625.296875 1.734375 1.0625q0.71875.75 1.09375 1.84375q0.375 1.09375.375 2.703125q0 1.421875-.359375 2.4375q-.421875 1.25-1.21875 2.03125q-.609375.578125-1.625.90625q-.765625.25-2.046875.25l-4.359375 0l0-11.453125zm2.3125 1.9375l0 7.578125l1.734375 0q0.96875 0 1.390625-.109375q0.5625-.140625.9375-.46875q0.375-.34375.609375-1.109375q0.234375-.765625.234375-2.09375q0-1.328125-.234375-2.03125q-.234375-.71875-.65625-1.109375q-.421875-.40625-1.078125-.546875q-.484375-.109375-1.890625-.109375l-1.046875 0zm13.71875 9.515625l0-11.453125l7.84375 0l0 1.9375l-5.53125 0l0 2.703125l4.78125 0l0 1.9375l-4.78125 0l0 4.875l-2.3125 0zm15.1953125 0l0-1.25q-.453125.671875-1.1875 1.0625q-.734375.375-1.5625.375q-.828125 0-1.5-.359375q-.65625-.375-.953125-1.03125q-.296875-.671875-.296875-1.84375l0-5.25l2.1875 0l0 3.8125q0 1.75.125 2.140625q0.125.390625.4375.625q0.328125.234375.8125.234375q0.5625 0 1-.3125q0.453125-.3125.609375-.765625q0.171875-.453125.171875-2.234375l0-3.5l2.203125 0l0 8.296875l-2.046875 0zm11.8671875 0l-2.203125 0l0-4.234375q0-1.34375-.140625-1.734375q-.140625-.40625-.453125-.625q-.3125-.21875-.765625-.21875q-.5625 0-1.015625.3125q-.453125.3125-.625.828125q-.171875.515625-.171875 1.90625l0 3.765625l-2.1875 0l0-8.296875l2.03125 0l0 1.21875q1.09375-1.40625 2.734375-1.40625q0.734375 0 1.328125.265625q0.609375.25.90625.65625q0.3125.40625.4375.921875q0.125.515625.125 1.484375l0 5.15625zm9.4609375-5.84375l-2.171875.390625q-.109375-.65625-.5-.984375q-.375-.328125-1-.328125q-.8125 0-1.3125.578125q-.484375.5625-.484375 1.890625q0 1.46875.5 2.078125q0.5.609375 1.328125.609375q0.625 0 1.015625-.34375q0.40625-.359375.578125-1.234375l2.15625.375q-.34375 1.484375-1.296875 2.25q-.953125.75-2.546875.75q-1.828125 0-2.90625-1.140625q-1.078125-1.15625-1.078125-3.1875q0-2.0625 1.078125-3.203125q1.09375-1.140625 2.9375-1.140625q1.515625 0 2.40625.65625q0.90625.640625 1.296875 1.984375zm5.4609375-2.453125l0 1.75l-1.5 0l0 3.34375q0 1.015625.046875 1.1875q0.046875.15625.1875.265625q0.15625.109375.375.109375q0.3125 0 .890625-.203125l0.1875 1.703125q-.765625.328125-1.734375.328125q-.59375 0-1.078125-.203125q-.46875-.203125-.703125-.515625q-.21875-.3125-.296875-.859375q-.078125-.375-.078125-1.546875l0-3.609375l-1 0l0-1.75l1 0l0-1.65625l2.203125-1.28125l0 2.9375l1.5 0zm1.53125-1.125l0-2.03125l2.1875 0l0 2.03125l-2.1875 0zm0 9.421875l0-8.296875l2.1875 0l0 8.296875l-2.1875 0zm3.9296875-4.265625q0-1.09375.53125-2.109375q0.546875-1.03125 1.53125-1.5625q1-.546875 2.21875-.546875q1.875 0 3.078125 1.21875q1.203125 1.21875 1.203125 3.09375q0 1.875-1.21875 3.125q-1.203125 1.234375-3.046875 1.234375q-1.140625 0-2.1875-.515625q-1.03125-.515625-1.578125-1.515625q-.53125-1-.53125-2.421875zm2.25.109375q0 1.234375.578125 1.890625q0.59375.65625 1.453125.65625q0.859375 0 1.4375-.65625q0.59375-.65625.59375-1.90625q0-1.21875-.59375-1.875q-.578125-.65625-1.4375-.65625q-.859375 0-1.453125.65625q-.578125.65625-.578125 1.890625zm15.5859375 4.15625l-2.203125 0l0-4.234375q0-1.34375-.140625-1.734375q-.140625-.40625-.453125-.625q-.3125-.21875-.765625-.21875q-.5625 0-1.015625.3125q-.453125.3125-.625.828125q-.171875.515625-.171875 1.90625l0 3.765625l-2.1875 0l0-8.296875l2.03125 0l0 1.21875q1.09375-1.40625 2.734375-1.40625q0.734375 0 1.328125.265625q0.609375.25.90625.65625q0.3125.40625.4375.921875q0.125.515625.125 1.484375l0 5.15625zm1.4453125-2.375l2.203125-.328125q0.140625.640625.5625.96875q0.4375.328125 1.21875.328125q0.84375 0 1.28125-.3125q0.28125-.21875.28125-.578125q0-.25-.15625-.421875q-.15625-.15625-.734375-.28125q-2.65625-.59375-3.359375-1.078125q-.984375-.671875-.984375-1.859375q0-1.078125.84375-1.8125q0.859375-.734375 2.640625-.734375q1.703125 0 2.53125.5625q0.828125.546875 1.140625 1.625l-2.0625.390625q-.140625-.484375-.515625-.734375q-.359375-.265625-1.046875-.265625q-.875 0-1.25.234375q-.25.171875-.25.453125q0 .234375.21875.390625q0.296875.21875 2.046875.625q1.765625.390625 2.453125.96875q0.6875.59375.6875 1.640625q0 1.140625-.953125 1.96875q-.953125.8125-2.8125.8125q-1.703125 0-2.6875-.6875q-.984375-.6875-1.296875-1.875z" fill-rule="nonzero"/></g></svg>
