<svg xmlns="http://www.w3.org/2000/svg" viewBox="0 0 383 273">
<style>
.bk{fill:#fff}
.start{stroke-width:2;stroke:#000;fill:none}

.std>rect,.user>rect{stroke-width:1;stroke:#000;rx:4}
.std>rect{fill:#cfe2fe}
.user>rect{fill:#fce5cd}
text{font:13.5px Arial,sans-serif;text-anchor:middle;fill:#000}

.shaft{stroke-width:1;stroke:#000;fill:none}
.return>.shaft{stroke-dasharray:4 3}
.tip{stroke-width:1;stroke:#000;fill:#000}
</style>

<rect class="bk" x="0" y="0" width="383" height="273"/>
<circle class="start" cx="16" cy="16" r="8"/>

<g class="user">
<rect x="24" y="48" width="72" height="24"/>
<text x="60" y="65">main</text>
</g>
<g class="call">
<path class="shaft" d="m24 16c9 0 18 4 24.75 10c3.38 3 6.19 6.5 8.16 10.25c0.98 1.88 1.76 3.81 2.29 5.78l0.01.02"/>
<path class="tip" d="m57.56 42.27l2.24 4.28l1.03-4.72z"/>
</g>

<g class="std">
<rect x="192" y="48" width="72" height="24"/>
<text x="228" y="65">input</text>
</g>
<g class="call">
<path class="shaft" d="m96 52c24 0 36-6.9 48-14.5c12-7.6 24-15.9 42-14.5c9 .7 19.5 3.83 27.75 8.34c4.12 2.26 7.69 4.86 10.22 7.68c0.63.71 1.2 1.42 1.7 2.15c0.12.18.24.37.36.55c0.06.09.11.18.17.28l0.14.24"/>
<path class="tip" d="m224.75 42.69l2.85 3.9l0.33-4.82z"/>
</g>
<g class="return">
<path class="shaft" d="m228 72c0 12.5-24 23.6-42 25c-18 1.4-30-6.9-42-14.5c-6-3.8-12-7.43-19.5-10.1c-3.75-1.34-7.88-2.44-12.56-3.2c-2.34-.38-4.83-.68-7.48-.89c-.66-.05-1.33-.1-2.02-.13l-.45-.02"/>
<path class="tip" d="m102.04 66.5l-4.58 1.53l4.49 1.77z"/>
</g>

<g class="std">
<rect x="192" y="112" width="72" height="24"/>
<text x="228" y="129">float</text>
</g>
<g class="call">
<path class="shaft" d="m96 52c33 0 66 7.5 90.75 18.75c12.38 5.63 22.69 12.19 29.91 19.22c3.61 3.52 6.45 7.15 8.38 10.84c0.48.92.91 1.85 1.28 2.78c0.18.46.35.93.51 1.4c0.08.23.15.47.22.7c0.03.12.07.23.1.35l0.01.03"/>
<path class="tip" d="m225.52 106.29l2.28 4.26l1-4.73z"/>
</g>
<g class="return">
<path class="shaft" d="m228 136c0 12.5-24 27.87-42 25c-18-2.87-30-23.97-42-46.5c-6-11.27-12-22.89-19.5-31.7c-3.75-4.4-7.88-8.1-12.56-10.7c-2.34-1.3-4.83-2.32-7.48-3.02c-.66-.17-1.33-.33-2.02-.46l-.47-.09"/>
<path class="tip" d="m102.12 66.88l-4.66 1.25l4.38 2.04z"/>
</g>

<g class="user">
<rect x="192" y="176" width="184" height="24"/>
<text x="284" y="193">compute_cylinder_volume</text>
</g>
<g class="call">
<path class="shaft" d="m96 52c47 0 94 15.5 129.25 38.75c17.63 11.63 32.31 25.19 42.59 39.72c5.14 7.27 9.18 14.77 11.93 22.4c1.38 3.81 2.43 7.66 3.14 11.52c0.18.96.33 1.93.47 2.9c0.07.48.13.97.19 1.45c0.03.24.05.48.08.73l0.05.54"/>
<path class="tip" d="m282.06 170.09l1.87 4.45l1.43-4.61z"/>
</g>
<g class="return">
<path class="shaft" d="m284 200c0 12.5-38.93 32.13-70 25c-31.07-7.13-54.27-41.03-70-78.5c-7.87-18.73-13.87-38.36-20.9-53.3c-3.52-7.47-7.29-13.77-11.69-18.2c-2.2-2.22-4.55-3.97-7.1-5.16c-.64-.3-1.29-.56-1.95-.79l-.42-.14"/>
<path class="tip" d="m102.18 67.27l-4.74.95l4.24 2.32z"/>
</g>

<g class="std">
<rect x="192" y="240" width="72" height="24"/>
<text x="228" y="257">print</text>
</g>
<g class="call">
<path class="shaft" d="m96 52c33 0 66 23.5 90.75 58.75c12.38 17.63 22.69 38.19 29.91 60.22c3.61 11.02 6.45 22.4 8.38 33.96c0.97 5.78 1.71 11.61 2.21 17.46c0.25 2.93.44 5.86.57 8.79c0.03.73.06 1.47.08 2.2l0.02.61"/>
<path class="tip" d="m226.26 234.03l1.72 4.51l1.58-4.56z"/>
</g>
</svg>
