<svg xmlns="http://www.w3.org/2000/svg" viewBox="0 0 472 300">
<title>A call graph for a program that builds and prints sentences.</title>
<style>
.bk{fill:#fff}
.start{stroke-width:2;stroke:#000;fill:none}

.std>rect,.user>rect{stroke-width:1;stroke:#000;rx:4}
.std>rect{fill:#cfe2fe}
.user>rect{fill:#fce5cd}
text{font:13.5px Arial,sans-serif;text-anchor:middle;fill:#000}

.call,.return{stroke-width:1}
.black{stroke:#000}
.red{stroke:#85200c}
.green{stroke:#6aa84f}
.blue{stroke:#0076b6}
.gray{stroke:#555}
.shaft{fill:none}
.return>.shaft{stroke-dasharray:4 3}
.black>.tip{fill:#000}
.red>.tip{fill:#85200c}
.green>.tip{fill:#6aa84f}
.blue>.tip{fill:#0076b6}
.gray>.tip{fill:#555}
</style>

<rect class="bk" x="0" y="0" width="472" height="300"/>
<circle class="start" cx="16" cy="16" r="8"/>

<g class="user">
<rect x="16" y="48" width="40" height="24"/>
<text x="36" y="65">main</text>
</g>
<g class="black call">
<path class="shaft" d="m24 16c3 0 6 4 8.25 10c1.13 3 2.06 6.5 2.72 10.25c.16.94.31 1.89.44 2.86c.06.48.12.97.18 1.46c.03.24.05.49.08.73l.07.71"/>
<path class="tip" d="m34.08 42.08l1.86 4.46l1.44-4.61z"/>
</g>

<g class="user">
<rect x="88" y="48" width="104" height="24"/>
<text x="140" y="65">make_sentence</text>
</g>
<g class="red call">
<path class="shaft" d="m56 52c8 0 9.33-6.9 16-14.5c6.67-7.6 18.67-15.9 34-14.5c7.67.7 16.17 3.83 22.75 8.34c3.29 2.26 6.1 4.86 8.09 7.68c.5.71.94 1.42 1.33 2.15c.1.18.19.37.28.55c.05.09.09.18.13.28l.07.15"/>
<path class="tip" d="m137.05 42.52l2.62 4.05l.6-4.79z"/>
</g>
<g class="red return">
<path class="shaft" d="m140 72c0 12.5-18.67 23.6-34 25c-15.33 1.4-27.33-6.9-34-14.5c-3.33-3.8-5.33-7.43-7.5-10.1c-.54-.67-1.09-1.28-1.68-1.82c-.29-.27-.59-.52-.91-.75l-.16-.12"/>
<path class="tip" d="m62.22 68.13l-4.82.29l3.88 2.88z"/>
</g>

<g class="std">
<rect x="88" y="240" width="40" height="24"/>
<text x="108" y="257">print</text>
</g>
<g class="red call">
<path class="shaft" d="m56 52c13 0 26 23.5 35.75 58.75c4.88 17.63 8.94 38.19 11.78 60.22c1.42 11.02 2.54 22.4 3.3 33.96c.38 5.78.67 11.61.87 17.46c.1 2.93.17 5.86.22 8.79c.01.73.02 1.47.03 2.2l.01.61"/>
<path class="tip" d="m106.31 234.01l1.68 4.53l1.62-4.55z"/>
</g>

<g class="user">
<rect x="232" y="48" width="96" height="24"/>
<text x="280" y="65">get_determiner</text>
</g>
<g class="green call">
<path class="shaft" d="m192 52c10 0 12.8-6.9 20-14.5c7.2-7.6 18.8-15.9 34-14.5c7.6.7 16.1 3.83 22.7 8.34c3.3 2.26 6.13 4.86 8.13 7.68c.5.71.95 1.42 1.34 2.15c.1.18.19.37.28.55c.05.09.09.18.13.28l.07.16"/>
<path class="tip" d="m277.04 42.52l2.63 4.05l.59-4.79z"/>
</g>
<g class="green return">
<path class="shaft" d="m280 72c0 12.5-18.8 23.6-34 25c-15.2 1.4-26.8-6.9-34-14.5c-3.6-3.8-6.1-7.43-8.95-10.1c-1.42-1.34-2.94-2.44-4.72-3.2c-.11-.05-.22-.09-.34-.14l-.08-.03"/>
<path class="tip" d="m198.19 67.4l-4.75.85l4.19 2.4z"/>
</g>

<g class="user">
<rect x="232" y="112" width="64" height="24"/>
<text x="264" y="129">get_noun</text>
</g>
<g class="green call">
<path class="shaft" d="m192 52c18 0 36 7.5 49.5 18.75c6.75 5.63 12.38 12.19 16.31 19.22c1.97 3.52 3.52 7.15 4.57 10.84c.26.92.5 1.85.7 2.78c.1.46.19.93.28 1.4c.04.23.08.47.12.7l.05.34"/>
<path class="tip" d="m261.88 106.15l2 4.39l1.29-4.65z"/>
</g>
<g class="green return">
<path class="shaft" d="m264 136c0 12.5-14.53 27.87-26 25c-11.47-2.87-19.87-23.97-26-46.5c-3.07-11.27-5.57-22.89-8.55-31.7c-1.49-4.4-3.1-8.1-4.97-10.7c-.23-.32-.47-.63-.71-.92c-.12-.14-.24-.29-.37-.42l-.05-.05"/>
<path class="tip" d="m198.1 69.23l-4.8-.57l3.31 3.52z"/>
</g>

<g class="user">
<rect x="232" y="176" width="64" height="24"/>
<text x="264" y="193">get_verb</text>
</g>
<g class="green call">
<path class="shaft" d="m192 52c18 0 36 15.5 49.5 38.75c6.75 11.63 12.38 25.19 16.31 39.72c1.97 7.27 3.52 14.77 4.57 22.4c.53 3.81.93 7.66 1.2 11.52c.07.96.13 1.93.18 2.9c.03.48.05.97.07 1.45l.05 1.26"/>
<path class="tip" d="m262.24 170.03l1.74 4.51l1.57-4.57z"/>
</g>
<g class="green return">
<path class="shaft" d="m264 200c0 12.5-14.53 32.13-26 25c-11.47-7.13-19.87-41.03-26-78.5c-3.07-18.73-5.57-38.36-8.55-53.3c-1.49-7.47-3.1-13.77-4.97-18.2c-.47-1.11-.95-2.1-1.45-2.96c-.06-.11-.13-.21-.19-.32l-.06-.1"/>
<path class="tip" d="m197.78 70.3l-4.62-1.42l2.62 4.05z"/>
</g>

<g class="std">
<rect x="232" y="240" width="80" height="24"/>
<text x="272" y="257">str.capitalize</text>
</g>
<g class="green call">
<path class="shaft" d="m192 52c20 0 40 23.5 55 58.75c7.5 17.63 13.75 38.19 18.13 60.22c2.19 11.02 3.91 22.4 5.08 33.96c.59 5.78 1.04 11.61 1.34 17.46c.15 2.93.27 5.86.34 8.79c.02.73.04 1.47.05 2.2l.01.61"/>
<path class="tip" d="m270.29 234.02l1.69 4.52l1.61-4.55z"/>
</g>
<g class="green return">
<path class="shaft" d="m272 264c0 12.5-16.67 36.4-30 25c-13.33-11.4-23.33-58.1-30-110.5c-3.33-26.2-5.83-53.82-8.75-74.9c-1.46-10.54-3.02-19.44-4.84-25.7c-.46-1.57-.93-2.97-1.42-4.19c-.12-.31-.25-.6-.37-.88c-.06-.14-.13-.28-.19-.42l-.11-.24"/>
<path class="tip" d="m197.46 70.98l-4.41-1.97l2.11 4.34z"/>
</g>

<g class="std">
<rect x="368" y="48" width="96" height="24"/>
<text x="416" y="65">random.choice</text>
</g>
<g class="gray call">
<path class="shaft" d="m328 52c10 0 12.8-6.9 20-14.5c7.2-7.6 18.8-15.9 34-14.5c7.6.7 16.1 3.83 22.7 8.34c3.3 2.26 6.13 4.86 8.13 7.68c.5.71.95 1.42 1.34 2.15c.1.18.19.37.28.55c.05.09.09.18.13.28l.07.16"/>
<path class="tip" d="m413.04 42.52l2.63 4.05l.59-4.79z"/>
</g>
<g class="gray return">
<path class="shaft" d="m416 72c0 12.5-18.8 23.6-34 25c-15.2 1.4-26.8-6.9-34-14.5c-3.6-3.8-6.1-7.43-8.95-10.1c-1.42-1.34-2.94-2.44-4.72-3.2c-.11-.05-.22-.09-.34-.14l-.08-.03"/>
<path class="tip" d="m334.19 67.4l-4.75.85l4.19 2.4z"/>
</g>
<g class="gray call">
<path class="shaft" d="m296 116c18 0 25.6-23.97 36-46.5c10.4-22.53 23.6-43.63 42-46.5c9.2-1.43 19.7 1.69 27.9 6.74c4.1 2.52 7.63 5.53 10.13 8.68c.63.79 1.19 1.59 1.68 2.39c.24.4.47.8.68 1.21l.09.19"/>
<path class="tip" d="m412.88 42.62l2.75 3.97l.44-4.81z"/>
</g>
<g class="gray return">
<path class="shaft" d="m416 72c0 15-15 30-37.5 41.25c-11.25 5.63-24.38 10.31-38.44 13.59c-7.03 1.64-14.3 2.93-21.68 3.81c-3.69.44-7.41.78-11.15 1c-.93.06-1.87.11-2.8.15c-.47.02-.94.04-1.4.06l-1.03.04"/>
<path class="tip" d="m301.97 130.25l-4.51 1.73l4.57 1.58z"/>
</g>
<g class="gray call">
<path class="shaft" d="m296 180c18 0 25.6-41.03 36-78.5c10.4-37.47 23.6-71.37 42-78.5c9.2-3.57 19.7-.44 27.9 5.14c4.1 2.79 7.63 6.19 10.13 9.68c.63.87 1.19 1.75 1.68 2.62c.24.44.47.87.68 1.31c.05.11.1.22.15.33l.04.1"/>
<path class="tip" d="m412.97 42.56l2.68 4.02l.53-4.8z"/>
</g>
<g class="gray return">
<path class="shaft" d="m416 72c0 31-15 62-37.5 85.25c-11.25 11.63-24.38 21.31-38.44 28.09c-7.03 3.39-14.3 6.05-21.68 7.87c-3.69.91-7.41 1.6-11.15 2.07c-.93.12-1.87.22-2.8.31c-.47.04-.94.09-1.4.12c-.23.02-.47.04-.7.05l-.33.02"/>
<path class="tip" d="m301.94 194.14l-4.48 1.81l4.59 1.5z"/>
</g>
</svg>
