<svg version="1.1" viewBox="0.0 0.0 509.1679790026247 322.9475065616798" fill="none" stroke="none" stroke-linecap="square" stroke-miterlimit="10" xmlns:xlink="http://www.w3.org/1999/xlink" xmlns="http://www.w3.org/2000/svg"><clipPath id="p.0"><path d="m0 0l509.16797 0l0 322.9475l-509.16797 0l0 -322.9475z" clip-rule="nonzero"/></clipPath><g clip-path="url(#p.0)"><path fill="#ffffff" d="m0 0l509.16797 0l0 322.9475l-509.16797 0z" fill-rule="evenodd"/><path fill="#000000" fill-opacity="0.0" d="m248.0 116.00008l0 0c0 -2.2091827 1.7908936 -4.0000763 4.0000763 -4.0000763l71.99983 0c1.0609131 0 2.0783386 0.4214325 2.8284912 1.1715927c0.7501526 0.75016785 1.1716003 1.767601 1.1716003 2.8284836l0 15.999847c0 2.2091827 -1.7908936 4.0000763 -4.0000916 4.0000763l-71.99983 0c-2.2091827 0 -4.0000763 -1.7908936 -4.0000763 -4.0000763z" fill-rule="evenodd"/><path fill="#000000" fill-opacity="0.0" d="m248.0 132.00008l0 0c0 -2.2091827 1.7908936 -4.0000763 4.0000763 -4.0000763l71.99983 0c1.0609131 0 2.0783386 0.4214325 2.8284912 1.1716003c0.7501526 0.7501526 1.1716003 1.7675934 1.1716003 2.828476l0 15.999847c0 2.2091827 -1.7908936 4.0000763 -4.0000916 4.0000763l-71.99983 0c-2.2091827 0 -4.0000763 -1.7908936 -4.0000763 -4.0000763z" fill-rule="evenodd"/><path fill="#000000" fill-opacity="0.0" d="m248.0 44.00008l0 0c0 -2.2091827 1.7908936 -4.00008 4.0000763 -4.00008l103.99983 0c1.0609131 0 2.0783386 0.4214363 2.8284912 1.1715965c0.7501526 0.7501602 1.1716003 1.7675972 1.1716003 2.8284836l0 15.99984c0 2.2091827 -1.7908936 4.00008 -4.0000916 4.00008l-103.99983 0c-2.2091827 0 -4.0000763 -1.7908974 -4.0000763 -4.00008z" fill-rule="evenodd"/><path fill="#000000" fill-opacity="0.0" d="m248.0 60.00008l0 0c0 -2.2091827 1.7908936 -4.00008 4.0000763 -4.00008l103.99983 0c1.0609131 0 2.0783386 0.4214363 2.8284912 1.1715965c0.7501526 0.7501602 1.1716003 1.7675972 1.1716003 2.8284836l0 15.999844c0 2.2091827 -1.7908936 4.0000763 -4.0000916 4.0000763l-103.99983 0c-2.2091827 0 -4.0000763 -1.7908936 -4.0000763 -4.0000763z" fill-rule="evenodd"/><path fill="#fce5cd" d="m96.0 52.00008l0 0c0 -2.2091827 1.7908936 -4.00008 4.0000763 -4.00008l111.99985 0c1.0608826 0 2.0783234 0.4214363 2.828476 1.1715965c0.75016785 0.7501602 1.1716003 1.7675972 1.1716003 2.8284836l0 15.999844c0 2.2091827 -1.7908936 4.0000763 -4.0000763 4.0000763l-111.99985 0l0 0c-2.2091827 0 -4.0000763 -1.7908936 -4.0000763 -4.0000763z" fill-rule="evenodd"/><path stroke="#000000" stroke-width="1.0" stroke-linejoin="round" stroke-linecap="butt" d="m96.0 52.00008l0 0c0 -2.2091827 1.7908936 -4.00008 4.0000763 -4.00008l111.99985 0c1.0608826 0 2.0783234 0.4214363 2.828476 1.1715965c0.75016785 0.7501602 1.1716003 1.7675972 1.1716003 2.8284836l0 15.999844c0 2.2091827 -1.7908936 4.0000763 -4.0000763 4.0000763l-111.99985 0l0 0c-2.2091827 0 -4.0000763 -1.7908936 -4.0000763 -4.0000763z" fill-rule="evenodd"/><path fill="#000000" d="m109.826294 64.8l0 -6.906254l1.046875 0l0 0.96875q0.328125 -0.515625 0.859375 -0.8125q0.546875 -0.3125 1.234375 -0.3125q0.78125 0 1.265625 0.3125q0.484375 0.3125 0.6875 0.890625q0.828125 -1.203125 2.140625 -1.203125q1.03125 0 1.578125 0.578125q0.5625 0.5625 0.5625 1.734375l0 4.750004l-1.171875 0l0 -4.359379q0 -0.703125 -0.125 -1.0q-0.109375 -0.3125 -0.40625 -0.5q-0.296875 -0.1875 -0.703125 -0.1875q-0.71875 0 -1.203125 0.484375q-0.484375 0.484375 -0.484375 1.546875l0 4.015629l-1.171875 0l0 -4.484379q0 -0.78125 -0.296875 -1.171875q-0.28125 -0.390625 -0.921875 -0.390625q-0.5 0 -0.921875 0.265625q-0.421875 0.25 -0.609375 0.75q-0.1875 0.5 -0.1875 1.453125l0 3.5781288l-1.171875 0zm15.618057 -0.8593788q-0.65625 0.5625038 -1.265625 0.7968788q-0.59375 0.21875 -1.28125 0.21875q-1.140625 0 -1.75 -0.546875q-0.609375 -0.5625038 -0.609375 -1.4375038q0 -0.5 0.21875 -0.921875q0.234375 -0.421875 0.609375 -0.671875q0.375 -0.25 0.84375 -0.390625q0.34375 -0.078125 1.046875 -0.171875q1.421875 -0.171875 2.09375 -0.40625q0 -0.234375 0 -0.296875q0 -0.71875 -0.328125 -1.015625q-0.453125 -0.390625 -1.34375 -0.390625q-0.8125 0 -1.21875 0.296875q-0.390625 0.28125 -0.578125 1.015625l-1.140625 -0.15625q0.15625 -0.734375 0.515625 -1.1875q0.359375 -0.453125 1.03125 -0.6875q0.671875 -0.25 1.5625 -0.25q0.890625 0 1.4375 0.203125q0.5625 0.203125 0.8125 0.53125q0.265625 0.3125 0.375 0.796875q0.046875 0.296875 0.046875 1.078125l0 1.5625q0 1.625 0.078125 2.0625q0.078125 0.4375038 0.296875 0.8281288l-1.21875 0q-0.1875 -0.359375 -0.234375 -0.8593788zm-0.09375 -2.609375q-0.640625 0.265625 -1.921875 0.4375q-0.71875 0.109375 -1.015625 0.25q-0.296875 0.125 -0.46875 0.375q-0.15625 0.25 -0.15625 0.546875q0 0.46875 0.34375 0.78125q0.359375 0.3125038 1.046875 0.3125038q0.671875 0 1.203125 -0.2968788q0.53125 -0.296875 0.78125 -0.8125q0.1875 -0.390625 0.1875 -1.171875l0 -0.421875zm3.0062256 3.4687538l0 -9.546879l1.171875 0l0 5.453125l2.765625 -2.8125l1.515625 0l-2.640625 2.5625l2.90625 4.343754l-1.4375 0l-2.28125 -3.5312538l-0.828125 0.796875l0 2.7343788l-1.171875 0zm11.3828125 -2.2187538l1.203125 0.140625q-0.28125 1.0625 -1.0625 1.6562538q-0.765625 0.578125 -1.96875 0.578125q-1.515625 0 -2.40625 -0.9375q-0.890625 -0.9375038 -0.890625 -2.6093788q0 -1.75 0.890625 -2.703125q0.90625 -0.96875 2.34375 -0.96875q1.390625 0 2.265625 0.9375q0.875 0.9375 0.875 2.65625q0 0.109375 0 0.3125l-5.15625 0q0.0625 1.140625 0.640625 1.75q0.578125 0.59375 1.4375 0.59375q0.65625 0 1.109375 -0.328125q0.453125 -0.34375 0.71875 -1.078125zm-3.84375 -1.90625l3.859375 0q-0.078125 -0.859375 -0.4375 -1.296875q-0.5625 -0.6875 -1.453125 -0.6875q-0.8125 0 -1.359375 0.546875q-0.546875 0.53125 -0.609375 1.4375zm5.4437256 6.781254l0 -0.859375l7.765625 0l0 0.859375l-7.765625 0zm8.021851 -4.718754l1.15625 -0.1875q0.109375 0.703125 0.546875 1.078125q0.453125 0.359375 1.25 0.359375q0.8125 0 1.203125 -0.328125q0.390625 -0.328125 0.390625 -0.765625q0 -0.390625 -0.359375 -0.625q-0.234375 -0.15625 -1.1875 -0.390625q-1.296875 -0.328125 -1.796875 -0.5625q-0.484375 -0.25 -0.75 -0.65625q-0.25 -0.421875 -0.25 -0.9375q0 -0.453125 0.203125 -0.84375q0.21875 -0.40625 0.578125 -0.671875q0.28125 -0.1875 0.75 -0.328125q0.46875 -0.140625 1.015625 -0.140625q0.8125 0 1.421875 0.234375q0.609375 0.234375 0.90625 0.640625q0.296875 0.390625 0.40625 1.0625l-1.140625 0.15625q-0.078125 -0.53125 -0.453125 -0.828125q-0.375 -0.3125 -1.0625 -0.3125q-0.8125 0 -1.15625 0.265625q-0.34375 0.265625 -0.34375 0.625q0 0.234375 0.140625 0.421875q0.15625 0.1875 0.453125 0.3125q0.171875 0.0625 1.03125 0.296875q1.25 0.328125 1.734375 0.546875q0.5 0.203125 0.78125 0.609375q0.28125 0.40625 0.28125 1.0q0 0.59375 -0.34375 1.109375q-0.34375 0.5156288 -1.0 0.7968788q-0.640625 0.28125 -1.453125 0.28125q-1.34375 0 -2.046875 -0.5625q-0.703125 -0.5625038 -0.90625 -1.6562538zm11.8671875 -0.15625l1.203125 0.140625q-0.28125 1.0625 -1.0625 1.6562538q-0.765625 0.578125 -1.96875 0.578125q-1.515625 0 -2.40625 -0.9375q-0.890625 -0.9375038 -0.890625 -2.6093788q0 -1.75 0.890625 -2.703125q0.90625 -0.96875 2.34375 -0.96875q1.390625 0 2.265625 0.9375q0.875 0.9375 0.875 2.65625q0 0.109375 0 0.3125l-5.15625 0q0.0625 1.140625 0.640625 1.75q0.578125 0.59375 1.4375 0.59375q0.65625 0 1.109375 -0.328125q0.453125 -0.34375 0.71875 -1.078125zm-3.84375 -1.90625l3.859375 0q-0.078125 -0.859375 -0.4375 -1.296875q-0.5625 -0.6875 -1.453125 -0.6875q-0.8125 0 -1.359375 0.546875q-0.546875 0.53125 -0.609375 1.4375zm6.5218506 4.125004l0 -6.906254l1.0625 0l0 0.984375q0.75 -1.140625 2.1875 -1.140625q0.625 0 1.15625 0.21875q0.53125 0.21875 0.78125 0.59375q0.265625 0.359375 0.375 0.859375q0.0625 0.328125 0.0625 1.140625l0 4.250004l-1.171875 0l0 -4.203129q0 -0.71875 -0.140625 -1.0625q-0.140625 -0.359375 -0.484375 -0.5625q-0.34375 -0.21875 -0.8125 -0.21875q-0.75 0 -1.296875 0.46875q-0.546875 0.46875 -0.546875 1.796875l0 3.7812538l-1.171875 0zm9.974976 -1.0468788l0.171875 1.0312538q-0.5 0.109375 -0.890625 0.109375q-0.640625 0 -1.0 -0.203125q-0.34375 -0.203125 -0.484375 -0.53125q-0.140625 -0.3281288 -0.140625 -1.3906288l0 -3.96875l-0.859375 0l0 -0.90625l0.859375 0l0 -1.71875l1.171875 -0.703125l0 2.421875l1.171875 0l0 0.90625l-1.171875 0l0 4.046875q0 0.5 0.046875 0.640625q0.0625 0.140625 0.203125 0.234375q0.140625 0.078125 0.40625 0.078125q0.203125 0 0.515625 -0.046875zm5.8748627 -1.171875l1.203125 0.140625q-0.28125 1.0625 -1.0625 1.6562538q-0.765625 0.578125 -1.96875 0.578125q-1.515625 0 -2.40625 -0.9375q-0.890625 -0.9375038 -0.890625 -2.6093788q0 -1.75 0.890625 -2.703125q0.90625 -0.96875 2.34375 -0.96875q1.390625 0 2.265625 0.9375q0.875 0.9375 0.875 2.65625q0 0.109375 0 0.3125l-5.15625 0q0.0625 1.140625 0.640625 1.75q0.578125 0.59375 1.4375 0.59375q0.65625 0 1.109375 -0.328125q0.453125 -0.34375 0.71875 -1.078125zm-3.84375 -1.90625l3.859375 0q-0.078125 -0.859375 -0.4375 -1.296875q-0.5625 -0.6875 -1.453125 -0.6875q-0.8125 0 -1.359375 0.546875q-0.546875 0.53125 -0.609375 1.4375zm6.5218506 4.125004l0 -6.906254l1.0625 0l0 0.984375q0.75 -1.140625 2.1875 -1.140625q0.625 0 1.15625 0.21875q0.53125 0.21875 0.78125 0.59375q0.265625 0.359375 0.375 0.859375q0.0625 0.328125 0.0625 1.140625l0 4.250004l-1.171875 0l0 -4.203129q0 -0.71875 -0.140625 -1.0625q-0.140625 -0.359375 -0.484375 -0.5625q-0.34375 -0.21875 -0.8125 -0.21875q-0.75 0 -1.296875 0.46875q-0.546875 0.46875 -0.546875 1.796875l0 3.7812538l-1.171875 0zm11.928101 -2.5312538l1.15625 0.15625q-0.1875 1.1875 -0.96875 1.8593788q-0.78125 0.671875 -1.921875 0.671875q-1.40625 0 -2.28125 -0.921875q-0.859375 -0.9375038 -0.859375 -2.6562538q0 -1.125 0.375 -1.96875q0.375 -0.84375 1.125 -1.25q0.765625 -0.421875 1.65625 -0.421875q1.125 0 1.84375 0.578125q0.71875 0.5625 0.921875 1.609375l-1.140625 0.171875q-0.171875 -0.703125 -0.59375 -1.046875q-0.40625 -0.359375 -0.984375 -0.359375q-0.890625 0 -1.453125 0.640625q-0.546875 0.640625 -0.546875 2.0q0 1.40625 0.53125 2.03125q0.546875 0.625 1.40625 0.625q0.6875 0 1.140625 -0.421875q0.46875 -0.421875 0.59375 -1.296875zm6.8828125 0.3125l1.203125 0.140625q-0.28125 1.0625 -1.0625 1.6562538q-0.765625 0.578125 -1.96875 0.578125q-1.515625 0 -2.40625 -0.9375q-0.890625 -0.9375038 -0.890625 -2.6093788q0 -1.75 0.890625 -2.703125q0.90625 -0.96875 2.34375 -0.96875q1.390625 0 2.265625 0.9375q0.875 0.9375 0.875 2.65625q0 0.109375 0 0.3125l-5.15625 0q0.0625 1.140625 0.640625 1.75q0.578125 0.59375 1.4375 0.59375q0.65625 0 1.109375 -0.328125q0.453125 -0.34375 0.71875 -1.078125zm-3.84375 -1.90625l3.859375 0q-0.078125 -0.859375 -0.4375 -1.296875q-0.5625 -0.6875 -1.453125 -0.6875q-0.8125 0 -1.359375 0.546875q-0.546875 0.53125 -0.609375 1.4375z" fill-rule="nonzero"/><path fill="#fce5cd" d="m248.0 52.00008l0 0c0 -2.2091827 1.7908936 -4.00008 4.0000763 -4.00008l103.99983 0c1.0609131 0 2.0783386 0.4214363 2.8284912 1.1715965c0.7501526 0.7501602 1.1716003 1.7675972 1.1716003 2.8284836l0 15.999844c0 2.2091827 -1.7908936 4.0000763 -4.0000916 4.0000763l-103.99983 0c-2.2091827 0 -4.0000763 -1.7908936 -4.0000763 -4.0000763z" fill-rule="evenodd"/><path stroke="#000000" stroke-width="1.0" stroke-linejoin="round" stroke-linecap="butt" d="m248.0 52.00008l0 0c0 -2.2091827 1.7908936 -4.00008 4.0000763 -4.00008l103.99983 0c1.0609131 0 2.0783386 0.4214363 2.8284912 1.1715965c0.7501526 0.7501602 1.1716003 1.7675972 1.1716003 2.8284836l0 15.999844c0 2.2091827 -1.7908936 4.0000763 -4.0000916 4.0000763l-103.99983 0c-2.2091827 0 -4.0000763 -1.7908936 -4.0000763 -4.0000763z" fill-rule="evenodd"/><path fill="#000000" d="m259.83322 65.37813l1.140625 0.15625q0.078125 0.53125 0.40625 0.78125q0.4375 0.3125 1.1875 0.3125q0.8125 0 1.25 -0.328125q0.453125 -0.3125 0.609375 -0.90625q0.09375 -0.359375 0.078125 -1.5000038q-0.765625 0.9062538 -1.90625 0.9062538q-1.4375 0 -2.21875 -1.0312538q-0.78125 -1.03125 -0.78125 -2.46875q0 -0.984375 0.359375 -1.8125q0.359375 -0.84375 1.03125 -1.296875q0.6875 -0.453125 1.609375 -0.453125q1.21875 0 2.015625 0.984375l0 -0.828125l1.078125 0l0 5.96875q0 1.6093788 -0.328125 2.2812538q-0.328125 0.6875 -1.046875 1.078125q-0.703125 0.390625 -1.75 0.390625q-1.234375 0 -2.0 -0.5625q-0.75 -0.5625 -0.734375 -1.671875zm0.984375 -4.156254q0 1.359375 0.53125 1.984375q0.546875 0.625 1.359375 0.625q0.796875 0 1.34375 -0.625q0.546875 -0.625 0.546875 -1.953125q0 -1.265625 -0.5625 -1.90625q-0.5625 -0.640625 -1.359375 -0.640625q-0.765625 0 -1.3125 0.640625q-0.546875 0.625 -0.546875 1.875zm11.381226 1.359375l1.203125 0.140625q-0.28125 1.0625 -1.0625 1.6562538q-0.765625 0.578125 -1.96875 0.578125q-1.515625 0 -2.40625 -0.9375q-0.890625 -0.9375038 -0.890625 -2.6093788q0 -1.75 0.890625 -2.703125q0.90625 -0.96875 2.34375 -0.96875q1.390625 0 2.265625 0.9375q0.875 0.9375 0.875 2.65625q0 0.109375 0 0.3125l-5.15625 0q0.0625 1.140625 0.640625 1.75q0.578125 0.59375 1.4375 0.59375q0.65625 0 1.109375 -0.328125q0.453125 -0.34375 0.71875 -1.078125zm-3.84375 -1.90625l3.859375 0q-0.078125 -0.859375 -0.4375 -1.296875q-0.5625 -0.6875 -1.453125 -0.6875q-0.8125 0 -1.359375 0.546875q-0.546875 0.53125 -0.609375 1.4375zm9.084351 3.078125l0.171875 1.0312538q-0.5 0.109375 -0.890625 0.109375q-0.640625 0 -1.0 -0.203125q-0.34375 -0.203125 -0.484375 -0.53125q-0.140625 -0.3281288 -0.140625 -1.3906288l0 -3.96875l-0.859375 0l0 -0.90625l0.859375 0l0 -1.71875l1.171875 -0.703125l0 2.421875l1.171875 0l0 0.90625l-1.171875 0l0 4.046875q0 0.5 0.046875 0.640625q0.0625 0.140625 0.203125 0.234375q0.140625 0.078125 0.40625 0.078125q0.203125 0 0.515625 -0.046875zm0.06237793 3.7031288l0 -0.859375l7.765625 0l0 0.859375l-7.765625 0zm12.974976 -2.65625l0 -0.8750038q-0.65625 1.0312538 -1.9375 1.0312538q-0.8125 0 -1.515625 -0.453125q-0.6875 -0.453125 -1.078125 -1.2656288q-0.375 -0.828125 -0.375 -1.890625q0 -1.03125 0.34375 -1.875q0.34375 -0.84375 1.03125 -1.28125q0.703125 -0.453125 1.546875 -0.453125q0.625 0 1.109375 0.265625q0.5 0.25 0.796875 0.671875l0 -3.421875l1.171875 0l0 9.546879l-1.09375 0zm-3.703125 -3.4531288q0 1.328125 0.5625 1.984375q0.5625 0.65625 1.328125 0.65625q0.765625 0 1.296875 -0.625q0.53125 -0.625 0.53125 -1.90625q0 -1.421875 -0.546875 -2.078125q-0.546875 -0.671875 -1.34375 -0.671875q-0.78125 0 -1.3125 0.640625q-0.515625 0.625 -0.515625 2.0zm11.365601 1.234375l1.203125 0.140625q-0.28125 1.0625 -1.0625 1.6562538q-0.765625 0.578125 -1.96875 0.578125q-1.515625 0 -2.40625 -0.9375q-0.890625 -0.9375038 -0.890625 -2.6093788q0 -1.75 0.890625 -2.703125q0.90625 -0.96875 2.34375 -0.96875q1.390625 0 2.265625 0.9375q0.875 0.9375 0.875 2.65625q0 0.109375 0 0.3125l-5.15625 0q0.0625 1.140625 0.640625 1.75q0.578125 0.59375 1.4375 0.59375q0.65625 0 1.109375 -0.328125q0.453125 -0.34375 0.71875 -1.078125zm-3.84375 -1.90625l3.859375 0q-0.078125 -0.859375 -0.4375 -1.296875q-0.5625 -0.6875 -1.453125 -0.6875q-0.8125 0 -1.359375 0.546875q-0.546875 0.53125 -0.609375 1.4375zm9.084351 3.078125l0.171875 1.0312538q-0.5 0.109375 -0.890625 0.109375q-0.640625 0 -1.0 -0.203125q-0.34375 -0.203125 -0.484375 -0.53125q-0.140625 -0.3281288 -0.140625 -1.3906288l0 -3.96875l-0.859375 0l0 -0.90625l0.859375 0l0 -1.71875l1.171875 -0.703125l0 2.421875l1.171875 0l0 0.90625l-1.171875 0l0 4.046875q0 0.5 0.046875 0.640625q0.0625 0.140625 0.203125 0.234375q0.140625 0.078125 0.40625 0.078125q0.203125 0 0.515625 -0.046875zm5.8748474 -1.171875l1.203125 0.140625q-0.28125 1.0625 -1.0625 1.6562538q-0.765625 0.578125 -1.96875 0.578125q-1.515625 0 -2.40625 -0.9375q-0.890625 -0.9375038 -0.890625 -2.6093788q0 -1.75 0.890625 -2.703125q0.90625 -0.96875 2.34375 -0.96875q1.390625 0 2.265625 0.9375q0.875 0.9375 0.875 2.65625q0 0.109375 0 0.3125l-5.15625 0q0.0625 1.140625 0.640625 1.75q0.578125 0.59375 1.4375 0.59375q0.65625 0 1.109375 -0.328125q0.453125 -0.34375 0.71875 -1.078125zm-3.84375 -1.90625l3.859375 0q-0.078125 -0.859375 -0.4375 -1.296875q-0.5625 -0.6875 -1.453125 -0.6875q-0.8125 0 -1.359375 0.546875q-0.546875 0.53125 -0.609375 1.4375zm6.5062256 4.125004l0 -6.906254l1.0625 0l0 1.046875q0.40625 -0.734375 0.734375 -0.96875q0.34375 -0.234375 0.765625 -0.234375q0.59375 0 1.203125 0.375l-0.40625 1.078125q-0.4375 -0.25 -0.859375 -0.25q-0.390625 0 -0.703125 0.234375q-0.296875 0.234375 -0.421875 0.640625q-0.203125 0.625 -0.203125 1.359375l0 3.6250038l-1.171875 0zm4.45401 0l0 -6.906254l1.046875 0l0 0.96875q0.328125 -0.515625 0.859375 -0.8125q0.546875 -0.3125 1.234375 -0.3125q0.78125 0 1.265625 0.3125q0.484375 0.3125 0.6875 0.890625q0.828125 -1.203125 2.140625 -1.203125q1.03125 0 1.578125 0.578125q0.5625 0.5625 0.5625 1.734375l0 4.750004l-1.171875 0l0 -4.359379q0 -0.703125 -0.125 -1.0q-0.109375 -0.3125 -0.40625 -0.5q-0.296875 -0.1875 -0.703125 -0.1875q-0.71875 0 -1.203125 0.484375q-0.484375 0.484375 -0.484375 1.546875l0 4.015629l-1.171875 0l0 -4.484379q0 -0.78125 -0.296875 -1.171875q-0.28125 -0.390625 -0.921875 -0.390625q-0.5 0 -0.921875 0.265625q-0.421875 0.25 -0.609375 0.75q-0.1875 0.5 -0.1875 1.453125l0 3.5781288l-1.171875 0zm11.118042 -8.187504l0 -1.359375l1.171875 0l0 1.359375l-1.171875 0zm0 8.187504l0 -6.906254l1.171875 0l0 6.906254l-1.171875 0zm2.945465 0l0 -6.906254l1.0625 0l0 0.984375q0.75 -1.140625 2.1875 -1.140625q0.625 0 1.15625 0.21875q0.53125 0.21875 0.78125 0.59375q0.265625 0.359375 0.375 0.859375q0.0625 0.328125 0.0625 1.140625l0 4.250004l-1.171875 0l0 -4.203129q0 -0.71875 -0.140625 -1.0625q-0.140625 -0.359375 -0.484375 -0.5625q-0.34375 -0.21875 -0.8125 -0.21875q-0.75 0 -1.296875 0.46875q-0.546875 0.46875 -0.546875 1.796875l0 3.7812538l-1.171875 0zm12.146851 -2.2187538l1.203125 0.140625q-0.28125 1.0625 -1.0625 1.6562538q-0.765625 0.578125 -1.96875 0.578125q-1.515625 0 -2.40625 -0.9375q-0.890625 -0.9375038 -0.890625 -2.6093788q0 -1.75 0.890625 -2.703125q0.90625 -0.96875 2.34375 -0.96875q1.390625 0 2.265625 0.9375q0.875 0.9375 0.875 2.65625q0 0.109375 0 0.3125l-5.15625 0q0.0625 1.140625 0.640625 1.75q0.578125 0.59375 1.4375 0.59375q0.65625 0 1.109375 -0.328125q0.453125 -0.34375 0.71875 -1.078125zm-3.84375 -1.90625l3.859375 0q-0.078125 -0.859375 -0.4375 -1.296875q-0.5625 -0.6875 -1.453125 -0.6875q-0.8125 0 -1.359375 0.546875q-0.546875 0.53125 -0.609375 1.4375zm6.5062256 4.125004l0 -6.906254l1.0625 0l0 1.046875q0.40625 -0.734375 0.734375 -0.96875q0.34375 -0.234375 0.765625 -0.234375q0.59375 0 1.203125 0.375l-0.40625 1.078125q-0.4375 -0.25 -0.859375 -0.25q-0.390625 0 -0.703125 0.234375q-0.296875 0.234375 -0.421875 0.640625q-0.203125 0.625 -0.203125 1.359375l0 3.6250038l-1.171875 0z" fill-rule="nonzero"/><path fill="#fce5cd" d="m248.0 124.00008l0 0c0 -2.2091827 1.7908936 -4.0000763 4.0000763 -4.0000763l71.99983 0c1.0609131 0 2.0783386 0.4214325 2.8284912 1.1715927c0.7501526 0.75016785 1.1716003 1.767601 1.1716003 2.8284836l0 15.999847c0 2.2091827 -1.7908936 4.0000763 -4.0000916 4.0000763l-71.99983 0c-2.2091827 0 -4.0000763 -1.7908936 -4.0000763 -4.0000763z" fill-rule="evenodd"/><path stroke="#000000" stroke-width="1.0" stroke-linejoin="round" stroke-linecap="butt" d="m248.0 124.00008l0 0c0 -2.2091827 1.7908936 -4.0000763 4.0000763 -4.0000763l71.99983 0c1.0609131 0 2.0783386 0.4214325 2.8284912 1.1715927c0.7501526 0.75016785 1.1716003 1.767601 1.1716003 2.8284836l0 15.999847c0 2.2091827 -1.7908936 4.0000763 -4.0000916 4.0000763l-71.99983 0c-2.2091827 0 -4.0000763 -1.7908936 -4.0000763 -4.0000763z" fill-rule="evenodd"/><path fill="#000000" d="m260.86108 137.37813l1.140625 0.15625q0.078125 0.53125 0.40625 0.78125q0.4375 0.3125 1.1875 0.3125q0.8125 0 1.25 -0.328125q0.453125 -0.3125 0.609375 -0.90625q0.09375 -0.359375 0.078125 -1.5q-0.765625 0.90625 -1.90625 0.90625q-1.4375 0 -2.21875 -1.03125q-0.78125 -1.03125 -0.78125 -2.46875q0 -0.984375 0.359375 -1.8125q0.359375 -0.84375 1.03125 -1.296875q0.6875 -0.453125 1.609375 -0.453125q1.21875 0 2.015625 0.984375l0 -0.828125l1.078125 0l0 5.96875q0 1.609375 -0.328125 2.28125q-0.328125 0.6875 -1.046875 1.078125q-0.703125 0.390625 -1.75 0.390625q-1.234375 0 -2.0 -0.5625q-0.75 -0.5625 -0.734375 -1.671875zm0.984375 -4.15625q0 1.359375 0.53125 1.984375q0.546875 0.625 1.359375 0.625q0.796875 0 1.34375 -0.625q0.546875 -0.625 0.546875 -1.953125q0 -1.265625 -0.5625 -1.90625q-0.5625 -0.640625 -1.359375 -0.640625q-0.765625 0 -1.3125 0.640625q-0.546875 0.625 -0.546875 1.875zm11.381226 1.359375l1.203125 0.140625q-0.28125 1.0625 -1.0625 1.65625q-0.765625 0.578125 -1.96875 0.578125q-1.515625 0 -2.40625 -0.9375q-0.890625 -0.9375 -0.890625 -2.609375q0 -1.75 0.890625 -2.703125q0.90625 -0.96875 2.34375 -0.96875q1.390625 0 2.265625 0.9375q0.875 0.9375 0.875 2.65625q0 0.109375 0 0.3125l-5.15625 0q0.0625 1.140625 0.640625 1.75q0.578125 0.59375 1.4375 0.59375q0.65625 0 1.109375 -0.328125q0.453125 -0.34375 0.71875 -1.078125zm-3.84375 -1.90625l3.859375 0q-0.078125 -0.859375 -0.4375 -1.296875q-0.5625 -0.6875 -1.453125 -0.6875q-0.8125 0 -1.359375 0.546875q-0.546875 0.53125 -0.609375 1.4375zm9.084351 3.078125l0.171875 1.03125q-0.5 0.109375 -0.890625 0.109375q-0.640625 0 -1.0 -0.203125q-0.34375 -0.203125 -0.484375 -0.53125q-0.140625 -0.328125 -0.140625 -1.390625l0 -3.96875l-0.859375 0l0 -0.90625l0.859375 0l0 -1.71875l1.171875 -0.703125l0 2.421875l1.171875 0l0 0.90625l-1.171875 0l0 4.046875q0 0.5 0.046875 0.640625q0.0625 0.140625 0.203125 0.234375q0.140625 0.078125 0.40625 0.078125q0.203125 0 0.515625 -0.046875zm0.06237793 3.703125l0 -0.859375l7.765625 0l0 0.859375l-7.765625 0zm8.490601 -2.65625l0 -6.90625l1.0625 0l0 0.984375q0.75 -1.140625 2.1875 -1.140625q0.625 0 1.15625 0.21875q0.53125 0.21875 0.78125 0.59375q0.265625 0.359375 0.375 0.859375q0.0625 0.328125 0.0625 1.140625l0 4.25l-1.171875 0l0 -4.203125q0 -0.71875 -0.140625 -1.0625q-0.140625 -0.359375 -0.484375 -0.5625q-0.34375 -0.21875 -0.8125 -0.21875q-0.75 0 -1.296875 0.46875q-0.546875 0.46875 -0.546875 1.796875l0 3.78125l-1.171875 0zm6.9749756 -3.453125q0 -1.921875 1.078125 -2.84375q0.890625 -0.765625 2.171875 -0.765625q1.421875 0 2.328125 0.9375q0.90625 0.921875 0.90625 2.578125q0 1.328125 -0.40625 2.09375q-0.390625 0.765625 -1.15625 1.1875q-0.765625 0.421875 -1.671875 0.421875q-1.453125 0 -2.359375 -0.921875q-0.890625 -0.9375 -0.890625 -2.6875zm1.203125 0q0 1.328125 0.578125 1.984375q0.59375 0.65625 1.46875 0.65625q0.875 0 1.453125 -0.65625q0.578125 -0.671875 0.578125 -2.03125q0 -1.28125 -0.59375 -1.9375q-0.578125 -0.65625 -1.4375 -0.65625q-0.875 0 -1.46875 0.65625q-0.578125 0.65625 -0.578125 1.984375zm11.178101 3.453125l0 -1.015625q-0.8125 1.171875 -2.1875 1.171875q-0.609375 0 -1.140625 -0.234375q-0.53125 -0.234375 -0.796875 -0.578125q-0.25 -0.359375 -0.359375 -0.875q-0.0625 -0.34375 -0.0625 -1.09375l0 -4.28125l1.171875 0l0 3.828125q0 0.921875 0.0625 1.234375q0.109375 0.46875 0.46875 0.734375q0.359375 0.25 0.890625 0.25q0.515625 0 0.984375 -0.265625q0.46875 -0.265625 0.65625 -0.734375q0.1875 -0.46875 0.1875 -1.34375l0 -3.703125l1.171875 0l0 6.90625l-1.046875 0zm2.8812256 0l0 -6.90625l1.0625 0l0 0.984375q0.75 -1.140625 2.1875 -1.140625q0.625 0 1.15625 0.21875q0.53125 0.21875 0.78125 0.59375q0.265625 0.359375 0.375 0.859375q0.0625 0.328125 0.0625 1.140625l0 4.25l-1.171875 0l0 -4.203125q0 -0.71875 -0.140625 -1.0625q-0.140625 -0.359375 -0.484375 -0.5625q-0.34375 -0.21875 -0.8125 -0.21875q-0.75 0 -1.296875 0.46875q-0.546875 0.46875 -0.546875 1.796875l0 3.78125l-1.171875 0z" fill-rule="nonzero"/><path fill="#cfe2f3" d="m392.0 52.00008l0 0c0 -2.2091827 1.7908936 -4.00008 4.0000916 -4.00008l103.99982 0c1.0609131 0 2.0783386 0.4214363 2.8284912 1.1715965c0.7501526 0.7501602 1.1716003 1.7675972 1.1716003 2.8284836l0 15.999844c0 2.2091827 -1.7908936 4.0000763 -4.0000916 4.0000763l-103.99982 0c-2.209198 0 -4.0000916 -1.7908936 -4.0000916 -4.0000763z" fill-rule="evenodd"/><path stroke="#000000" stroke-width="1.0" stroke-linejoin="round" stroke-linecap="butt" d="m392.0 52.00008l0 0c0 -2.2091827 1.7908936 -4.00008 4.0000916 -4.00008l103.99982 0c1.0609131 0 2.0783386 0.4214363 2.8284912 1.1715965c0.7501526 0.7501602 1.1716003 1.7675972 1.1716003 2.8284836l0 15.999844c0 2.2091827 -1.7908936 4.0000763 -4.0000916 4.0000763l-103.99982 0c-2.209198 0 -4.0000916 -1.7908936 -4.0000916 -4.0000763z" fill-rule="evenodd"/><path fill="#000000" d="m405.1492 64.8l0 -6.906254l1.0625 0l0 1.046875q0.40625 -0.734375 0.734375 -0.96875q0.34375 -0.234375 0.765625 -0.234375q0.59375 0 1.203125 0.375l-0.40625 1.078125q-0.4375 -0.25 -0.859375 -0.25q-0.390625 0 -0.703125 0.234375q-0.296875 0.234375 -0.421875 0.640625q-0.203125 0.625 -0.203125 1.359375l0 3.6250038l-1.171875 0zm8.969635 -0.8593788q-0.65625 0.5625038 -1.265625 0.7968788q-0.59375 0.21875 -1.28125 0.21875q-1.140625 0 -1.75 -0.546875q-0.609375 -0.5625038 -0.609375 -1.4375038q0 -0.5 0.21875 -0.921875q0.234375 -0.421875 0.609375 -0.671875q0.375 -0.25 0.84375 -0.390625q0.34375 -0.078125 1.046875 -0.171875q1.421875 -0.171875 2.09375 -0.40625q0 -0.234375 0 -0.296875q0 -0.71875 -0.328125 -1.015625q-0.453125 -0.390625 -1.34375 -0.390625q-0.8125 0 -1.21875 0.296875q-0.390625 0.28125 -0.578125 1.015625l-1.140625 -0.15625q0.15625 -0.734375 0.515625 -1.1875q0.359375 -0.453125 1.03125 -0.6875q0.671875 -0.25 1.5625 -0.25q0.890625 0 1.4375 0.203125q0.5625 0.203125 0.8125 0.53125q0.265625 0.3125 0.375 0.796875q0.046875 0.296875 0.046875 1.078125l0 1.5625q0 1.625 0.078125 2.0625q0.078125 0.4375038 0.296875 0.8281288l-1.21875 0q-0.1875 -0.359375 -0.234375 -0.8593788zm-0.09375 -2.609375q-0.640625 0.265625 -1.921875 0.4375q-0.71875 0.109375 -1.015625 0.25q-0.296875 0.125 -0.46875 0.375q-0.15625 0.25 -0.15625 0.546875q0 0.46875 0.34375 0.78125q0.359375 0.3125038 1.046875 0.3125038q0.671875 0 1.203125 -0.2968788q0.53125 -0.296875 0.78125 -0.8125q0.1875 -0.390625 0.1875 -1.171875l0 -0.421875zm2.9906006 3.4687538l0 -6.906254l1.0625 0l0 0.984375q0.75 -1.140625 2.1875 -1.140625q0.625 0 1.15625 0.21875q0.53125 0.21875 0.78125 0.59375q0.265625 0.359375 0.375 0.859375q0.0625 0.328125 0.0625 1.140625l0 4.250004l-1.171875 0l0 -4.203129q0 -0.71875 -0.140625 -1.0625q-0.140625 -0.359375 -0.484375 -0.5625q-0.34375 -0.21875 -0.8125 -0.21875q-0.75 0 -1.296875 0.46875q-0.546875 0.46875 -0.546875 1.796875l0 3.7812538l-1.171875 0zm11.896851 0l0 -0.8750038q-0.65625 1.0312538 -1.9375 1.0312538q-0.8125 0 -1.515625 -0.453125q-0.6875 -0.453125 -1.078125 -1.2656288q-0.375 -0.828125 -0.375 -1.890625q0 -1.03125 0.34375 -1.875q0.34375 -0.84375 1.03125 -1.28125q0.703125 -0.453125 1.546875 -0.453125q0.625 0 1.109375 0.265625q0.5 0.25 0.796875 0.671875l0 -3.421875l1.171875 0l0 9.546879l-1.09375 0zm-3.703125 -3.4531288q0 1.328125 0.5625 1.984375q0.5625 0.65625 1.328125 0.65625q0.765625 0 1.296875 -0.625q0.53125 -0.625 0.53125 -1.90625q0 -1.421875 -0.546875 -2.078125q-0.546875 -0.671875 -1.34375 -0.671875q-0.78125 0 -1.3125 0.640625q-0.515625 0.625 -0.515625 2.0zm6.1937256 0q0 -1.921875 1.078125 -2.84375q0.890625 -0.765625 2.171875 -0.765625q1.421875 0 2.328125 0.9375q0.90625 0.921875 0.90625 2.578125q0 1.328125 -0.40625 2.09375q-0.390625 0.7656288 -1.15625 1.1875038q-0.765625 0.421875 -1.671875 0.421875q-1.453125 0 -2.359375 -0.921875q-0.890625 -0.9375038 -0.890625 -2.6875038zm1.203125 0q0 1.328125 0.578125 1.984375q0.59375 0.65625 1.46875 0.65625q0.875 0 1.453125 -0.65625q0.578125 -0.671875 0.578125 -2.03125q0 -1.28125 -0.59375 -1.9375q-0.578125 -0.65625 -1.4375 -0.65625q-0.875 0 -1.46875 0.65625q-0.578125 0.65625 -0.578125 1.984375zm6.6468506 3.4531288l0 -6.906254l1.046875 0l0 0.96875q0.328125 -0.515625 0.859375 -0.8125q0.546875 -0.3125 1.234375 -0.3125q0.78125 0 1.265625 0.3125q0.484375 0.3125 0.6875 0.890625q0.828125 -1.203125 2.140625 -1.203125q1.03125 0 1.578125 0.578125q0.5625 0.5625 0.5625 1.734375l0 4.750004l-1.171875 0l0 -4.359379q0 -0.703125 -0.125 -1.0q-0.109375 -0.3125 -0.40625 -0.5q-0.296875 -0.1875 -0.703125 -0.1875q-0.71875 0 -1.203125 0.484375q-0.484375 0.484375 -0.484375 1.546875l0 4.015629l-1.171875 0l0 -4.484379q0 -0.78125 -0.296875 -1.171875q-0.28125 -0.390625 -0.921875 -0.390625q-0.5 0 -0.921875 0.265625q-0.421875 0.25 -0.609375 0.75q-0.1875 0.5 -0.1875 1.453125l0 3.5781288l-1.171875 0zm11.430542 0l0 -1.3281288l1.34375 0l0 1.3281288l-1.34375 0zm7.890503 -2.5312538l1.15625 0.15625q-0.1875 1.1875 -0.96875 1.8593788q-0.78125 0.671875 -1.921875 0.671875q-1.40625 0 -2.28125 -0.921875q-0.859375 -0.9375038 -0.859375 -2.6562538q0 -1.125 0.375 -1.96875q0.375 -0.84375 1.125 -1.25q0.765625 -0.421875 1.65625 -0.421875q1.125 0 1.84375 0.578125q0.71875 0.5625 0.921875 1.609375l-1.140625 0.171875q-0.171875 -0.703125 -0.59375 -1.046875q-0.40625 -0.359375 -0.984375 -0.359375q-0.890625 0 -1.453125 0.640625q-0.546875 0.640625 -0.546875 2.0q0 1.40625 0.53125 2.03125q0.546875 0.625 1.40625 0.625q0.6875 0 1.140625 -0.421875q0.46875 -0.421875 0.59375 -1.296875zm2.1484375 2.5312538l0 -9.546879l1.171875 0l0 3.421875q0.828125 -0.9375 2.078125 -0.9375q0.765625 0 1.328125 0.296875q0.5625 0.296875 0.8125 0.84375q0.25 0.53125 0.25 1.546875l0 4.375004l-1.171875 0l0 -4.375004q0 -0.890625 -0.390625 -1.28125q-0.375 -0.40625 -1.078125 -0.40625q-0.515625 0 -0.984375 0.28125q-0.453125 0.265625 -0.65625 0.734375q-0.1875 0.453125 -0.1875 1.265625l0 3.7812538l-1.171875 0zm6.9749756 -3.4531288q0 -1.921875 1.078125 -2.84375q0.890625 -0.765625 2.171875 -0.765625q1.421875 0 2.328125 0.9375q0.90625 0.921875 0.90625 2.578125q0 1.328125 -0.40625 2.09375q-0.390625 0.7656288 -1.15625 1.1875038q-0.765625 0.421875 -1.671875 0.421875q-1.453125 0 -2.359375 -0.921875q-0.890625 -0.9375038 -0.890625 -2.6875038zm1.203125 0q0 1.328125 0.578125 1.984375q0.59375 0.65625 1.46875 0.65625q0.875 0 1.453125 -0.65625q0.578125 -0.671875 0.578125 -2.03125q0 -1.28125 -0.59375 -1.9375q-0.578125 -0.65625 -1.4375 -0.65625q-0.875 0 -1.46875 0.65625q-0.578125 0.65625 -0.578125 1.984375zm6.6624756 -4.734375l0 -1.359375l1.171875 0l0 1.359375l-1.171875 0zm0 8.187504l0 -6.906254l1.171875 0l0 6.906254l-1.171875 0zm7.46109 -2.5312538l1.15625 0.15625q-0.1875 1.1875 -0.96875 1.8593788q-0.78125 0.671875 -1.921875 0.671875q-1.40625 0 -2.28125 -0.921875q-0.859375 -0.9375038 -0.859375 -2.6562538q0 -1.125 0.375 -1.96875q0.375 -0.84375 1.125 -1.25q0.765625 -0.421875 1.65625 -0.421875q1.125 0 1.84375 0.578125q0.71875 0.5625 0.921875 1.609375l-1.140625 0.171875q-0.171875 -0.703125 -0.59375 -1.046875q-0.40625 -0.359375 -0.984375 -0.359375q-0.890625 0 -1.453125 0.640625q-0.546875 0.640625 -0.546875 2.0q0 1.40625 0.53125 2.03125q0.546875 0.625 1.40625 0.625q0.6875 0 1.140625 -0.421875q0.46875 -0.421875 0.59375 -1.296875zm6.8828125 0.3125l1.203125 0.140625q-0.28125 1.0625 -1.0625 1.6562538q-0.765625 0.578125 -1.96875 0.578125q-1.515625 0 -2.40625 -0.9375q-0.890625 -0.9375038 -0.890625 -2.6093788q0 -1.75 0.890625 -2.703125q0.90625 -0.96875 2.34375 -0.96875q1.390625 0 2.265625 0.9375q0.875 0.9375 0.875 2.65625q0 0.109375 0 0.3125l-5.15625 0q0.0625 1.140625 0.640625 1.75q0.578125 0.59375 1.4375 0.59375q0.65625 0 1.109375 -0.328125q0.453125 -0.34375 0.71875 -1.078125zm-3.84375 -1.90625l3.859375 0q-0.078125 -0.859375 -0.4375 -1.296875q-0.5625 -0.6875 -1.453125 -0.6875q-0.8125 0 -1.359375 0.546875q-0.546875 0.53125 -0.609375 1.4375z" fill-rule="nonzero"/><path fill="#000000" fill-opacity="0.0" d="m216.0 52.0c8.000076 0 9.066818 -6.9000015 16.000153 -14.5c6.9333496 -7.6000004 19.733307 -15.9 35.99994 -14.5c16.266602 1.3999996 35.99991 12.5 35.99991 25.0" fill-rule="evenodd"/><path stroke="#000000" stroke-width="1.0" stroke-linejoin="round" stroke-linecap="butt" d="m216.0 52.0c8.000076 0 9.066803 -6.9000015 16.000168 -14.5c6.9333344 -7.5999985 19.733292 -15.900002 35.999924 -14.5c8.133301 0.70000076 17.13327 3.8250008 24.099945 8.337502c3.483307 2.2562485 6.458313 4.859375 8.5624695 7.6796875c0.5260315 0.7050781 0.99765015 1.423729 1.4091797 2.1539307c0.102874756 0.18254852 0.20199585 0.36582184 0.29727173 0.5497818c0.04763794 0.09197998 0.094329834 0.18413544 0.14004517 0.27645493l0.08236694 0.17033768" fill-rule="evenodd"/><path fill="#000000" stroke="#000000" stroke-width="1.0" stroke-linecap="butt" d="m300.9858 42.555473l2.67099 4.0234833l0.54016113 -4.799038z" fill-rule="evenodd"/><path fill="#000000" fill-opacity="0.0" d="m216.0 52.0c36.0 0 72.0 34.0 72.0 68.0" fill-rule="evenodd"/><path stroke="#000000" stroke-width="1.0" stroke-linejoin="round" stroke-linecap="butt" d="m216.0 52.0c18.0 0 36.0 8.5 49.5 21.25c6.75 6.375 12.375 13.8125 16.3125 21.78125c1.96875 3.984375 3.515625 8.1015625 4.5703125 12.285156c0.52734375 2.0917892 0.9316406 4.2001953 1.2041016 6.316902l0.045684814 0.37795258" fill-rule="evenodd"/><path fill="#000000" stroke="#000000" stroke-width="1.0" stroke-linecap="butt" d="m285.98395 114.112404l1.9265442 4.4284363l1.3707275 -4.630722z" fill-rule="evenodd"/><path fill="#000000" fill-opacity="0.0" d="m328.0 124.0c16.000214 0 21.867035 -26.100044 32.000397 -50.5001c10.133362 -24.400055 24.533234 -47.100113 43.999817 -50.5001c19.466553 -3.3999863 43.999786 12.500101 43.999786 25.0002" fill-rule="evenodd"/><path stroke="#000000" stroke-width="1.0" stroke-linejoin="round" stroke-linecap="butt" d="m328.0 124.0c16.000214 0 21.867035 -26.100044 32.000397 -50.5001c10.133392 -24.400055 24.533234 -47.100113 43.999817 -50.5001c9.733246 -1.6999931 20.733215 1.4250336 29.299805 6.537569c4.2833557 2.5562668 7.9583435 5.609413 10.5625 8.804745c0.651001 0.79883575 1.2351379 1.6065559 1.7450867 2.4176216c0.25500488 0.40553284 0.49142456 0.8119011 0.70843506 1.2184143l0.11968994 0.22935486" fill-rule="evenodd"/><path fill="#000000" stroke="#000000" stroke-width="1.0" stroke-linecap="butt" d="m444.8411 42.638134l2.777771 3.9505234l0.4114685 -4.811783z" fill-rule="evenodd"/><path fill="#000000" fill-opacity="0.0" d="m360.0 52.0c8.000092 0 9.066803 -6.9000015 16.000153 -14.5c6.9333496 -7.6000004 19.733307 -15.9 35.99994 -14.5c16.266602 1.3999996 35.99991 12.5 35.99991 25.0" fill-rule="evenodd"/><path stroke="#000000" stroke-width="1.0" stroke-linejoin="round" stroke-linecap="butt" d="m360.0 52.0c8.000092 0 9.066803 -6.9000015 16.000153 -14.5c6.93338 -7.5999985 19.733307 -15.900002 35.99994 -14.5c8.13327 0.70000076 17.13327 3.8250008 24.099945 8.337502c3.483307 2.2562485 6.458313 4.859375 8.5625 7.6796875c0.526001 0.7050781 0.9976196 1.423729 1.4091492 2.1539307c0.10290527 0.18254852 0.20202637 0.36582184 0.29727173 0.5497818c0.047668457 0.09197998 0.094329834 0.18413544 0.14001465 0.27645493l0.08239746 0.17033768" fill-rule="evenodd"/><path fill="#000000" stroke="#000000" stroke-width="1.0" stroke-linecap="butt" d="m444.9858 42.555473l2.67099 4.0234833l0.54016113 -4.799038z" fill-rule="evenodd"/><path fill="#000000" fill-opacity="0.0" d="m448.0 72.0c0 34.0 -60.0 68.0 -120.0 68.0" fill-rule="evenodd"/><path stroke="#000000" stroke-width="1.0" stroke-linejoin="round" stroke-linecap="butt" stroke-dasharray="4.0,3.0" d="m448.0 72.0c0 17.0 -15.0 34.0 -37.5 46.75c-11.25 6.375 -24.375 11.6875 -38.4375 15.40625c-7.03125 1.859375 -14.296875 3.3203125 -21.679718 4.3164062c-3.6913757 0.49804688 -7.412079 0.8798828 -11.14743 1.137207c-0.9338379 0.064331055 -1.8685913 0.12088013 -2.804016 0.16952515c-0.46774292 0.024307251 -0.9356079 0.046661377 -1.403656 0.06700134l-1.0287476 0.04031372" fill-rule="evenodd"/><path fill="#000000" stroke="#000000" stroke-width="1.0" stroke-linecap="butt" d="m333.96774 138.23526l-4.5061035 1.7371368l4.5684814 1.5657501z" fill-rule="evenodd"/><path fill="#ffffff" d="m8.0 16.0l0 0c0 -4.4182777 3.5817223 -8.0 8.0 -8.0l0 0c2.1217327 0 4.156563 0.8428545 5.6568546 2.3431454c1.5002899 1.5002918 2.3431454 3.5351229 2.3431454 5.6568546l0 0c0 4.4182777 -3.5817223 8.0 -8.0 8.0l0 0c-4.4182777 0 -8.0 -3.5817223 -8.0 -8.0z" fill-rule="evenodd"/><path stroke="#000000" stroke-width="2.0" stroke-linejoin="round" stroke-linecap="butt" d="m8.0 16.0l0 0c0 -4.4182777 3.5817223 -8.0 8.0 -8.0l0 0c2.1217327 0 4.156563 0.8428545 5.6568546 2.3431454c1.5002899 1.5002918 2.3431454 3.5351229 2.3431454 5.6568546l0 0c0 4.4182777 -3.5817223 8.0 -8.0 8.0l0 0c-4.4182777 0 -8.0 -3.5817223 -8.0 -8.0z" fill-rule="evenodd"/><path fill="#000000" fill-opacity="0.0" d="m24.0 16.0c10.0 0 20.0 16.0 20.0 32.0" fill-rule="evenodd"/><path stroke="#000000" stroke-width="1.0" stroke-linejoin="round" stroke-linecap="butt" d="m24.0 16.0c5.0 0 10.0 4.0 13.75 10.0c1.875 3.0 3.4375 6.5 4.53125 10.25c0.2734375 0.9375 0.5175781 1.890625 0.72998047 2.8554688c0.10620499 0.48242188 0.20446777 0.96777344 0.2944908 1.4555664c0.045017242 0.24389648 0.08797073 0.48840332 0.12882614 0.7334595l0.11398697 0.7225151" fill-rule="evenodd"/><path fill="#000000" stroke="#000000" stroke-width="1.0" stroke-linecap="butt" d="m41.901485 42.141293l1.988514 4.4009476l1.305584 -4.6495132z" fill-rule="evenodd"/><path fill="#000000" fill-opacity="0.0" d="m448.0 72.0c0 12.5 -19.733307 23.599998 -35.99991 25.0c-16.266632 1.4000015 -29.06659 -6.9000015 -35.99994 -14.5c-6.9333496 -7.5999985 -8.000061 -14.5 -16.000153 -14.5" fill-rule="evenodd"/><path stroke="#000000" stroke-width="1.0" stroke-linejoin="round" stroke-linecap="butt" stroke-dasharray="4.0,3.0" d="m448.0 72.0c0 12.5 -19.733307 23.600006 -35.99991 25.0c-16.266632 1.3999939 -29.066559 -6.899994 -35.99994 -14.5c-3.4666748 -3.800003 -5.466675 -7.425003 -7.600067 -10.099998c-0.5333252 -0.6687546 -1.0749817 -1.2781296 -1.6499939 -1.8160172c-0.28753662 -0.2689438 -0.5833435 -0.52001953 -0.890625 -0.751709l-0.118927 -0.08693695" fill-rule="evenodd"/><path fill="#000000" stroke="#000000" stroke-width="1.0" stroke-linecap="butt" d="m366.221 68.16504l-4.8223267 0.26021576l3.8613892 2.9003906z" fill-rule="evenodd"/><path fill="#000000" fill-opacity="0.0" d="m248.0 188.00008l0 0c0 -2.2091827 1.7908936 -4.0000763 4.0000763 -4.0000763l71.99983 0c1.0609131 0 2.0783386 0.4214325 2.8284912 1.1716003c0.7501526 0.7501526 1.1716003 1.7675934 1.1716003 2.828476l0 15.999847c0 2.2091827 -1.7908936 4.0000763 -4.0000916 4.0000763l-71.99983 0c-2.2091827 0 -4.0000763 -1.7908936 -4.0000763 -4.0000763z" fill-rule="evenodd"/><path fill="#000000" fill-opacity="0.0" d="m248.0 204.00008l0 0c0 -2.2091827 1.7908936 -4.0000763 4.0000763 -4.0000763l71.99983 0c1.0609131 0 2.0783386 0.4214325 2.8284912 1.1716003c0.7501526 0.7501526 1.1716003 1.7675934 1.1716003 2.828476l0 15.999847c0 2.2091827 -1.7908936 4.0000763 -4.0000916 4.0000763l-71.99983 0c-2.2091827 0 -4.0000763 -1.7908936 -4.0000763 -4.0000763z" fill-rule="evenodd"/><path fill="#fce5cd" d="m248.0 196.00008l0 0c0 -2.2091827 1.7908936 -4.0000763 4.0000763 -4.0000763l71.99983 0c1.0609131 0 2.0783386 0.4214325 2.8284912 1.1716003c0.7501526 0.7501526 1.1716003 1.7675934 1.1716003 2.828476l0 15.999847c0 2.2091827 -1.7908936 4.0000763 -4.0000916 4.0000763l-71.99983 0c-2.2091827 0 -4.0000763 -1.7908936 -4.0000763 -4.0000763z" fill-rule="evenodd"/><path stroke="#000000" stroke-width="1.0" stroke-linejoin="round" stroke-linecap="butt" d="m248.0 196.00008l0 0c0 -2.2091827 1.7908936 -4.0000763 4.0000763 -4.0000763l71.99983 0c1.0609131 0 2.0783386 0.4214325 2.8284912 1.1716003c0.7501526 0.7501526 1.1716003 1.7675934 1.1716003 2.828476l0 15.999847c0 2.2091827 -1.7908936 4.0000763 -4.0000916 4.0000763l-71.99983 0c-2.2091827 0 -4.0000763 -1.7908936 -4.0000763 -4.0000763z" fill-rule="evenodd"/><path fill="#000000" d="m262.72235 209.37813l1.140625 0.15625q0.078125 0.53125 0.40625 0.78125q0.4375 0.3125 1.1875 0.3125q0.8125 0 1.25 -0.328125q0.453125 -0.3125 0.609375 -0.90625q0.09375 -0.359375 0.078125 -1.5q-0.765625 0.90625 -1.90625 0.90625q-1.4375 0 -2.21875 -1.03125q-0.78125 -1.03125 -0.78125 -2.46875q0 -0.984375 0.359375 -1.8125q0.359375 -0.84375 1.03125 -1.296875q0.6875 -0.453125 1.609375 -0.453125q1.21875 0 2.015625 0.984375l0 -0.828125l1.078125 0l0 5.96875q0 1.609375 -0.328125 2.28125q-0.328125 0.6875 -1.046875 1.078125q-0.703125 0.390625 -1.75 0.390625q-1.234375 0 -2.0 -0.5625q-0.75 -0.5625 -0.734375 -1.671875zm0.984375 -4.15625q0 1.359375 0.53125 1.984375q0.546875 0.625 1.359375 0.625q0.796875 0 1.34375 -0.625q0.546875 -0.625 0.546875 -1.953125q0 -1.265625 -0.5625 -1.90625q-0.5625 -0.640625 -1.359375 -0.640625q-0.765625 0 -1.3125 0.640625q-0.546875 0.625 -0.546875 1.875zm11.381226 1.359375l1.203125 0.140625q-0.28125 1.0625 -1.0625 1.65625q-0.765625 0.578125 -1.96875 0.578125q-1.515625 0 -2.40625 -0.9375q-0.890625 -0.9375 -0.890625 -2.609375q0 -1.75 0.890625 -2.703125q0.90625 -0.96875 2.34375 -0.96875q1.390625 0 2.265625 0.9375q0.875 0.9375 0.875 2.65625q0 0.109375 0 0.3125l-5.15625 0q0.0625 1.140625 0.640625 1.75q0.578125 0.59375 1.4375 0.59375q0.65625 0 1.109375 -0.328125q0.453125 -0.34375 0.71875 -1.078125zm-3.84375 -1.90625l3.859375 0q-0.078125 -0.859375 -0.4375 -1.296875q-0.5625 -0.6875 -1.453125 -0.6875q-0.8125 0 -1.359375 0.546875q-0.546875 0.53125 -0.609375 1.4375zm9.084351 3.078125l0.171875 1.03125q-0.5 0.109375 -0.890625 0.109375q-0.640625 0 -1.0 -0.203125q-0.34375 -0.203125 -0.484375 -0.53125q-0.140625 -0.328125 -0.140625 -1.390625l0 -3.96875l-0.859375 0l0 -0.90625l0.859375 0l0 -1.71875l1.171875 -0.703125l0 2.421875l1.171875 0l0 0.90625l-1.171875 0l0 4.046875q0 0.5 0.046875 0.640625q0.0625 0.140625 0.203125 0.234375q0.140625 0.078125 0.40625 0.078125q0.203125 0 0.515625 -0.046875zm0.06237793 3.703125l0 -0.859375l7.7655945 0l0 0.859375l-7.7655945 0zm10.412445 -2.65625l-2.625 -6.90625l1.234375 0l1.484375 4.140625q0.234375 0.65625 0.4375 1.390625q0.15625 -0.546875 0.4375 -1.3125l1.53125 -4.21875l1.21875 0l-2.625 6.90625l-1.09375 0zm9.4765625 -2.21875l1.203125 0.140625q-0.28125 1.0625 -1.0625 1.65625q-0.765625 0.578125 -1.96875 0.578125q-1.515625 0 -2.40625 -0.9375q-0.890625 -0.9375 -0.890625 -2.609375q0 -1.75 0.890625 -2.703125q0.90625 -0.96875 2.34375 -0.96875q1.390625 0 2.265625 0.9375q0.875 0.9375 0.875 2.65625q0 0.109375 0 0.3125l-5.15625 0q0.0625 1.140625 0.640625 1.75q0.578125 0.59375 1.4375 0.59375q0.65625 0 1.109375 -0.328125q0.453125 -0.34375 0.71875 -1.078125zm-3.84375 -1.90625l3.859375 0q-0.078125 -0.859375 -0.4375 -1.296875q-0.5625 -0.6875 -1.453125 -0.6875q-0.8125 0 -1.359375 0.546875q-0.546875 0.53125 -0.609375 1.4375zm6.5062256 4.125l0 -6.90625l1.0625 0l0 1.046875q0.40625 -0.734375 0.734375 -0.96875q0.34375 -0.234375 0.765625 -0.234375q0.59375 0 1.203125 0.375l-0.40625 1.078125q-0.4375 -0.25 -0.859375 -0.25q-0.390625 0 -0.703125 0.234375q-0.296875 0.234375 -0.421875 0.640625q-0.203125 0.625 -0.203125 1.359375l0 3.625l-1.171875 0zm5.532135 0l-1.078125 0l0 -9.546875l1.171875 0l0 3.40625q0.734375 -0.921875 1.890625 -0.921875q0.640625 0 1.203125 0.265625q0.578125 0.25 0.9375 0.71875q0.375 0.453125 0.578125 1.109375q0.203125 0.65625 0.203125 1.40625q0 1.78125 -0.875 2.75q-0.875 0.96875 -2.109375 0.96875q-1.21875 0 -1.921875 -1.015625l0 0.859375zm0 -3.5q0 1.234375 0.328125 1.78125q0.5625 0.90625 1.5 0.90625q0.765625 0 1.328125 -0.65625q0.5625 -0.671875 0.5625 -2.0q0 -1.34375 -0.546875 -1.984375q-0.53125 -0.65625 -1.296875 -0.65625q-0.765625 0 -1.328125 0.671875q-0.546875 0.671875 -0.546875 1.9375z" fill-rule="nonzero"/><path fill="#000000" fill-opacity="0.0" d="m216.0 52.0c36.0 0 72.0 70.0 72.0 140.0" fill-rule="evenodd"/><path stroke="#000000" stroke-width="1.0" stroke-linejoin="round" stroke-linecap="butt" d="m216.0 52.0c18.0 0 36.0 17.5 49.5 43.75c6.75 13.125 12.375 28.4375 16.3125 44.84375c1.96875 8.203125 3.515625 16.679688 4.5703125 25.292969c0.52734375 4.3066406 0.9316406 8.647461 1.2041016 13.005356c0.13623047 2.1789703 0.23950195 4.362198 0.30871582 6.5475616l0.015594482 0.5610199" fill-rule="evenodd"/><path fill="#000000" stroke="#000000" stroke-width="1.0" stroke-linecap="butt" d="m286.25964 186.0251l1.7187195 4.513153l1.5843811 -4.562042z" fill-rule="evenodd"/><path fill="#000000" fill-opacity="0.0" d="m328.0 196.0c16.000214 0 21.867035 -45.300034 32.000397 -86.50008c10.133362 -41.200043 24.533234 -78.300095 43.999817 -86.500084c19.466553 -8.199989 43.999786 12.50008 43.999786 25.00016" fill-rule="evenodd"/><path stroke="#000000" stroke-width="1.0" stroke-linejoin="round" stroke-linecap="butt" d="m328.0 196.0c16.000214 0 21.867035 -45.300034 32.000397 -86.500084c10.133392 -41.200035 24.533234 -78.30009 43.999817 -86.50008c9.733246 -4.0999966 20.733215 -0.9749756 29.299805 4.7375526c4.2833557 2.856264 7.9583435 6.3594074 10.5625 9.929735c0.651001 0.89258575 1.2351379 1.7893677 1.7450867 2.6812897c0.25500488 0.445961 0.49142456 0.8907089 0.70843506 1.333107c0.054229736 0.11060333 0.10726929 0.22105408 0.15911865 0.3313446l0.075653076 0.16477203" fill-rule="evenodd"/><path fill="#000000" stroke="#000000" stroke-width="1.0" stroke-linecap="butt" d="m444.94797 42.57659l2.698944 4.0047874l0.50671387 -4.802681z" fill-rule="evenodd"/><path fill="#000000" fill-opacity="0.0" d="m448.0 72.0c0 70.0 -60.0 140.0 -120.0 140.0" fill-rule="evenodd"/><path stroke="#000000" stroke-width="1.0" stroke-linejoin="round" stroke-linecap="butt" stroke-dasharray="4.0,3.0" d="m448.0 72.0c0 35.0 -15.0 70.0 -37.5 96.25c-11.25 13.125 -24.375 24.0625 -38.4375 31.71875c-7.03125 3.828125 -14.296875 6.8359375 -21.679718 8.886734c-3.6913757 1.0253754 -7.412079 1.8115082 -11.14743 2.341278c-0.9338379 0.1324768 -1.8685913 0.24888611 -2.804016 0.34902954c-0.46774292 0.050064087 -0.9356079 0.096069336 -1.403656 0.13795471c-0.23400879 0.020935059 -0.4680786 0.04084778 -0.70214844 0.059753418l-0.32998657 0.025161743" fill-rule="evenodd"/><path fill="#000000" stroke="#000000" stroke-width="1.0" stroke-linecap="butt" d="m333.93185 210.11815l-4.471039 1.8254852l4.598419 1.4755249z" fill-rule="evenodd"/><path fill="#000000" fill-opacity="0.0" d="m304.0 72.0c0 12.5 -19.733307 23.599998 -35.99991 25.0c-16.266632 1.4000015 -29.06659 -6.9000015 -35.99994 -14.5c-6.9333344 -7.5999985 -8.000076 -14.5 -16.000153 -14.5" fill-rule="evenodd"/><path stroke="#000000" stroke-width="1.0" stroke-linejoin="round" stroke-linecap="butt" stroke-dasharray="4.0,3.0" d="m304.0 72.0c0 12.5 -19.733276 23.600006 -35.99991 25.0c-16.266632 1.3999939 -29.06659 -6.899994 -35.999924 -14.5c-3.46669 -3.800003 -5.4667053 -7.425003 -7.600067 -10.099998c-0.53334045 -0.6687546 -1.0750122 -1.2781296 -1.6500244 -1.8160172c-0.28749084 -0.2689438 -0.58332825 -0.52001953 -0.89064026 -0.751709l-0.118896484 -0.08693695" fill-rule="evenodd"/><path fill="#000000" stroke="#000000" stroke-width="1.0" stroke-linecap="butt" d="m222.22101 68.16504l-4.8223267 0.26021576l3.8613892 2.9003906z" fill-rule="evenodd"/><path fill="#000000" fill-opacity="0.0" d="m288.0 144.0c0 12.500107 -15.466705 28.400192 -28.000092 25.000198c-12.533371 -3.3999786 -22.133408 -26.100052 -28.000061 -50.5001c-5.8666687 -24.400055 -7.9999237 -50.5001 -15.999847 -50.5001" fill-rule="evenodd"/><path stroke="#000000" stroke-width="1.0" stroke-linejoin="round" stroke-linecap="butt" stroke-dasharray="4.0,3.0" d="m288.0 144.0c0 12.500107 -15.466705 28.400177 -28.000092 25.000198c-12.533371 -3.399994 -22.133423 -26.100052 -28.000076 -50.5001c-2.933319 -12.200027 -4.933319 -24.825043 -7.199936 -34.40007c-1.1333313 -4.787506 -2.3332977 -8.812515 -3.749939 -11.640648c-0.08854675 -0.17675781 -0.177948 -0.3488388 -0.268219 -0.51613617l-0.10290527 -0.18709564" fill-rule="evenodd"/><path fill="#000000" stroke="#000000" stroke-width="1.0" stroke-linecap="butt" d="m221.71284 70.46812l-4.5728455 -1.5529327l2.5047913 4.12899z" fill-rule="evenodd"/><path fill="#000000" fill-opacity="0.0" d="m288.0 216.0c0 12.500076 -15.466705 33.20015 -28.000092 25.000153c-12.533371 -8.199982 -22.133408 -45.300034 -28.000061 -86.50008c-5.8666687 -41.200043 -7.9999237 -86.50008 -15.999847 -86.50008" fill-rule="evenodd"/><path stroke="#000000" stroke-width="1.0" stroke-linejoin="round" stroke-linecap="butt" stroke-dasharray="4.0,3.0" d="m288.0 216.0c0 12.500076 -15.466705 33.20015 -28.000092 25.000168c-12.533371 -8.199997 -22.133423 -45.300034 -28.000076 -86.50009c-2.933319 -20.600021 -4.933319 -42.225037 -7.199936 -58.70005c-1.1333313 -8.237503 -2.3332977 -15.187515 -3.749939 -20.07814c-0.1770935 -0.6113281 -0.3575592 -1.1904831 -0.5417175 -1.7359543c-0.09207153 -0.27272797 -0.1850586 -0.5370407 -0.27900696 -0.79273987c-0.046966553 -0.1278534 -0.094192505 -0.25354767 -0.14163208 -0.3770752l-0.122909546 -0.31263733" fill-rule="evenodd"/><path fill="#000000" stroke="#000000" stroke-width="1.0" stroke-linecap="butt" d="m221.20444 71.41204l-4.238434 -2.314766l1.7589264 4.497635z" fill-rule="evenodd"/><path fill="#cfe2f3" d="m248.0 268.0001l0 0c0 -2.209198 1.7908936 -4.0000916 4.0000763 -4.0000916l87.99983 0c1.0609131 0 2.0783386 0.42144775 2.8284912 1.1716003c0.7501526 0.7501526 1.1716003 1.7675781 1.1716003 2.8284912l0 15.999817c0 2.209198 -1.7908936 4.0000916 -4.0000916 4.0000916l-87.99983 0c-2.2091827 0 -4.0000763 -1.7908936 -4.0000763 -4.0000916z" fill-rule="evenodd"/><path stroke="#000000" stroke-width="1.0" stroke-linejoin="round" stroke-linecap="butt" d="m248.0 268.0001l0 0c0 -2.209198 1.7908936 -4.0000916 4.0000763 -4.0000916l87.99983 0c1.0609131 0 2.0783386 0.42144775 2.8284912 1.1716003c0.7501526 0.7501526 1.1716003 1.7675781 1.1716003 2.8284912l0 15.999817c0 2.209198 -1.7908936 4.0000916 -4.0000916 4.0000916l-87.99983 0c-2.2091827 0 -4.0000763 -1.7908936 -4.0000763 -4.0000916z" fill-rule="evenodd"/><path fill="#000000" d="m259.73773 278.7375l1.15625 -0.1875q0.109375 0.703125 0.546875 1.078125q0.453125 0.359375 1.25 0.359375q0.8125 0 1.203125 -0.328125q0.390625 -0.328125 0.390625 -0.765625q0 -0.390625 -0.359375 -0.625q-0.234375 -0.15625 -1.1875 -0.390625q-1.296875 -0.328125 -1.796875 -0.5625q-0.484375 -0.25 -0.75 -0.65625q-0.25 -0.421875 -0.25 -0.9375q0 -0.453125 0.203125 -0.84375q0.21875 -0.40625 0.578125 -0.671875q0.28125 -0.1875 0.75 -0.328125q0.46875 -0.140625 1.015625 -0.140625q0.8125 0 1.421875 0.234375q0.609375 0.234375 0.90625 0.640625q0.296875 0.390625 0.40625 1.0625l-1.140625 0.15625q-0.078125 -0.53125 -0.453125 -0.828125q-0.375 -0.3125 -1.0625 -0.3125q-0.8125 0 -1.15625 0.265625q-0.34375 0.265625 -0.34375 0.625q0 0.234375 0.140625 0.421875q0.15625 0.1875 0.453125 0.3125q0.171875 0.0625 1.03125 0.296875q1.25 0.328125 1.734375 0.546875q0.5 0.203125 0.78125 0.609375q0.28125 0.40625 0.28125 1.0q0 0.59375 -0.34375 1.109375q-0.34375 0.515625 -1.0 0.796875q-0.640625 0.28125 -1.453125 0.28125q-1.34375 0 -2.046875 -0.5625q-0.703125 -0.5625 -0.90625 -1.65625zm9.6953125 1.015625l0.171875 1.03125q-0.5 0.109375 -0.890625 0.109375q-0.640625 0 -1.0 -0.203125q-0.34375 -0.203125 -0.484375 -0.53125q-0.140625 -0.328125 -0.140625 -1.390625l0 -3.96875l-0.859375 0l0 -0.90625l0.859375 0l0 -1.71875l1.171875 -0.703125l0 2.421875l1.171875 0l0 0.90625l-1.171875 0l0 4.046875q0 0.5 0.046875 0.640625q0.0625 0.140625 0.203125 0.234375q0.140625 0.078125 0.40625 0.078125q0.203125 0 0.515625 -0.046875zm1.1248779 1.046875l0 -6.90625l1.0625 0l0 1.046875q0.40625 -0.734375 0.734375 -0.96875q0.34375 -0.234375 0.765625 -0.234375q0.59375 0 1.203125 0.375l-0.40625 1.078125q-0.4375 -0.25 -0.859375 -0.25q-0.390625 0 -0.703125 0.234375q-0.296875 0.234375 -0.421875 0.640625q-0.203125 0.625 -0.203125 1.359375l0 3.625l-1.171875 0zm4.0464478 0l0 -1.328125l1.34375 0l0 1.328125l-1.34375 0zm7.8904724 -2.53125l1.15625 0.15625q-0.1875 1.1875 -0.96875 1.859375q-0.78125 0.671875 -1.921875 0.671875q-1.40625 0 -2.28125 -0.921875q-0.859375 -0.9375 -0.859375 -2.65625q0 -1.125 0.375 -1.96875q0.375 -0.84375 1.125 -1.25q0.765625 -0.421875 1.65625 -0.421875q1.125 0 1.84375 0.578125q0.71875 0.5625 0.921875 1.609375l-1.140625 0.171875q-0.171875 -0.703125 -0.59375 -1.046875q-0.40625 -0.359375 -0.984375 -0.359375q-0.890625 0 -1.453125 0.640625q-0.546875 0.640625 -0.546875 2.0q0 1.40625 0.53125 2.03125q0.546875 0.625 1.40625 0.625q0.6875 0 1.140625 -0.421875q0.46875 -0.421875 0.59375 -1.296875zm6.6640625 1.671875q-0.65625 0.5625 -1.265625 0.796875q-0.59375 0.21875 -1.28125 0.21875q-1.140625 0 -1.75 -0.546875q-0.609375 -0.5625 -0.609375 -1.4375q0 -0.5 0.21875 -0.921875q0.234375 -0.421875 0.609375 -0.671875q0.375 -0.25 0.84375 -0.390625q0.34375 -0.078125 1.046875 -0.171875q1.421875 -0.171875 2.09375 -0.40625q0 -0.234375 0 -0.296875q0 -0.71875 -0.328125 -1.015625q-0.453125 -0.390625 -1.34375 -0.390625q-0.8125 0 -1.21875 0.296875q-0.390625 0.28125 -0.578125 1.015625l-1.140625 -0.15625q0.15625 -0.734375 0.515625 -1.1875q0.359375 -0.453125 1.03125 -0.6875q0.671875 -0.25 1.5625 -0.25q0.890625 0 1.4375 0.203125q0.5625 0.203125 0.8125 0.53125q0.265625 0.3125 0.375 0.796875q0.046875 0.296875 0.046875 1.078125l0 1.5625q0 1.625 0.078125 2.0625q0.078125 0.4375 0.296875 0.828125l-1.21875 0q-0.1875 -0.359375 -0.234375 -0.859375zm-0.09375 -2.609375q-0.640625 0.265625 -1.921875 0.4375q-0.71875 0.109375 -1.015625 0.25q-0.296875 0.125 -0.46875 0.375q-0.15625 0.25 -0.15625 0.546875q0 0.46875 0.34375 0.78125q0.359375 0.3125 1.046875 0.3125q0.671875 0 1.203125 -0.296875q0.53125 -0.296875 0.78125 -0.8125q0.1875 -0.390625 0.1875 -1.171875l0 -0.421875zm2.9906006 6.125l0 -9.5625l1.078125 0l0 0.890625q0.375 -0.53125 0.84375 -0.78125q0.484375 -0.265625 1.15625 -0.265625q0.875 0 1.546875 0.453125q0.6875 0.453125 1.03125 1.28125q0.34375 0.828125 0.34375 1.828125q0 1.046875 -0.375 1.90625q-0.375 0.84375 -1.109375 1.296875q-0.71875 0.453125 -1.53125 0.453125q-0.578125 0 -1.046875 -0.25q-0.46875 -0.25 -0.765625 -0.625l0 3.375l-1.171875 0zm1.0625 -6.078125q0 1.34375 0.53125 1.984375q0.546875 0.625 1.3125 0.625q0.78125 0 1.34375 -0.65625q0.5625 -0.65625 0.5625 -2.046875q0 -1.3125 -0.546875 -1.96875q-0.546875 -0.671875 -1.296875 -0.671875q-0.75 0 -1.328125 0.703125q-0.578125 0.703125 -0.578125 2.03125zm6.3656006 -4.765625l0 -1.359375l1.171875 0l0 1.359375l-1.171875 0zm0 8.1875l0 -6.90625l1.171875 0l0 6.90625l-1.171875 0zm5.507965 -1.046875l0.171875 1.03125q-0.5 0.109375 -0.890625 0.109375q-0.640625 0 -1.0 -0.203125q-0.34375 -0.203125 -0.484375 -0.53125q-0.140625 -0.328125 -0.140625 -1.390625l0 -3.96875l-0.859375 0l0 -0.90625l0.859375 0l0 -1.71875l1.171875 -0.703125l0 2.421875l1.171875 0l0 0.90625l-1.171875 0l0 4.046875q0 0.5 0.046875 0.640625q0.0625 0.140625 0.203125 0.234375q0.140625 0.078125 0.40625 0.078125q0.203125 0 0.515625 -0.046875zm5.656128 0.1875q-0.65625 0.5625 -1.265625 0.796875q-0.59375 0.21875 -1.28125 0.21875q-1.140625 0 -1.75 -0.546875q-0.609375 -0.5625 -0.609375 -1.4375q0 -0.5 0.21875 -0.921875q0.234375 -0.421875 0.609375 -0.671875q0.375 -0.25 0.84375 -0.390625q0.34375 -0.078125 1.046875 -0.171875q1.421875 -0.171875 2.09375 -0.40625q0 -0.234375 0 -0.296875q0 -0.71875 -0.328125 -1.015625q-0.453125 -0.390625 -1.34375 -0.390625q-0.8125 0 -1.21875 0.296875q-0.390625 0.28125 -0.578125 1.015625l-1.140625 -0.15625q0.15625 -0.734375 0.515625 -1.1875q0.359375 -0.453125 1.03125 -0.6875q0.671875 -0.25 1.5625 -0.25q0.890625 0 1.4375 0.203125q0.5625 0.203125 0.8125 0.53125q0.265625 0.3125 0.375 0.796875q0.046875 0.296875 0.046875 1.078125l0 1.5625q0 1.625 0.078125 2.0625q0.078125 0.4375 0.296875 0.828125l-1.21875 0q-0.1875 -0.359375 -0.234375 -0.859375zm-0.09375 -2.609375q-0.640625 0.265625 -1.921875 0.4375q-0.71875 0.109375 -1.015625 0.25q-0.296875 0.125 -0.46875 0.375q-0.15625 0.25 -0.15625 0.546875q0 0.46875 0.34375 0.78125q0.359375 0.3125 1.046875 0.3125q0.671875 0 1.203125 -0.296875q0.53125 -0.296875 0.78125 -0.8125q0.1875 -0.390625 0.1875 -1.171875l0 -0.421875zm2.9749756 3.46875l0 -9.546875l1.171875 0l0 9.546875l-1.171875 0zm2.99234 -8.1875l0 -1.359375l1.171875 0l0 1.359375l-1.171875 0zm0 8.1875l0 -6.90625l1.171875 0l0 6.90625l-1.171875 0zm2.33609 0l0 -0.953125l4.390625 -5.046875q-0.75 0.03125 -1.3125 0.03125l-2.828125 0l0 -0.9375l5.65625 0l0 0.765625l-3.75 4.390625l-0.71875 0.796875q0.796875 -0.0625 1.484375 -0.0625l3.1875 0l0 1.015625l-6.109375 0zm12.0078125 -2.21875l1.203125 0.140625q-0.28125 1.0625 -1.0625 1.65625q-0.765625 0.578125 -1.96875 0.578125q-1.515625 0 -2.40625 -0.9375q-0.890625 -0.9375 -0.890625 -2.609375q0 -1.75 0.890625 -2.703125q0.90625 -0.96875 2.34375 -0.96875q1.390625 0 2.265625 0.9375q0.875 0.9375 0.875 2.65625q0 0.109375 0 0.3125l-5.15625 0q0.0625 1.140625 0.640625 1.75q0.578125 0.59375 1.4375 0.59375q0.65625 0 1.109375 -0.328125q0.453125 -0.34375 0.71875 -1.078125zm-3.84375 -1.90625l3.859375 0q-0.078125 -0.859375 -0.4375 -1.296875q-0.5625 -0.6875 -1.453125 -0.6875q-0.8125 0 -1.359375 0.546875q-0.546875 0.53125 -0.609375 1.4375z" fill-rule="nonzero"/><path fill="#fce5cd" d="m16.0 52.00008l0 0c0 -2.2091827 1.7908974 -4.00008 4.00008 -4.00008l47.999844 0c1.0608826 0 2.0783157 0.4214363 2.8284836 1.1715965c0.7501602 0.7501602 1.1715927 1.7675972 1.1715927 2.8284836l0 15.999844c0 2.2091827 -1.7908936 4.0000763 -4.0000763 4.0000763l-47.999844 0c-2.2091827 0 -4.00008 -1.7908936 -4.00008 -4.0000763z" fill-rule="evenodd"/><path stroke="#000000" stroke-width="1.0" stroke-linejoin="round" stroke-linecap="butt" d="m16.0 52.00008l0 0c0 -2.2091827 1.7908974 -4.00008 4.00008 -4.00008l47.999844 0c1.0608826 0 2.0783157 0.4214363 2.8284836 1.1715965c0.7501602 0.7501602 1.1715927 1.7675972 1.1715927 2.8284836l0 15.999844c0 2.2091827 -1.7908936 4.0000763 -4.0000763 4.0000763l-47.999844 0c-2.2091827 0 -4.00008 -1.7908936 -4.00008 -4.0000763z" fill-rule="evenodd"/><path fill="#000000" d="m30.430763 64.8l0 -6.906254l1.046875 0l0 0.96875q0.328125 -0.515625 0.859375 -0.8125q0.546875 -0.3125 1.234375 -0.3125q0.78125 0 1.265625 0.3125q0.484375 0.3125 0.6875 0.890625q0.828125 -1.203125 2.140625 -1.203125q1.03125 0 1.578125 0.578125q0.5625 0.5625 0.5625 1.734375l0 4.750004l-1.171875 0l0 -4.359379q0 -0.703125 -0.125 -1.0q-0.109375 -0.3125 -0.40625 -0.5q-0.296875 -0.1875 -0.703125 -0.1875q-0.71875 0 -1.203125 0.484375q-0.484375 0.484375 -0.484375 1.546875l0 4.015629l-1.171875 0l0 -4.484379q0 -0.78125 -0.296875 -1.171875q-0.28125 -0.390625 -0.921875 -0.390625q-0.5 0 -0.921875 0.265625q-0.421875 0.25 -0.609375 0.75q-0.1875 0.5 -0.1875 1.453125l0 3.5781288l-1.171875 0zm15.618057 -0.8593788q-0.65625 0.5625038 -1.265625 0.7968788q-0.59375 0.21875 -1.28125 0.21875q-1.140625 0 -1.75 -0.546875q-0.609375 -0.5625038 -0.609375 -1.4375038q0 -0.5 0.21875 -0.921875q0.234375 -0.421875 0.609375 -0.671875q0.375 -0.25 0.84375 -0.390625q0.34375 -0.078125 1.046875 -0.171875q1.421875 -0.171875 2.09375 -0.40625q0 -0.234375 0 -0.296875q0 -0.71875 -0.328125 -1.015625q-0.453125 -0.390625 -1.34375 -0.390625q-0.8125 0 -1.21875 0.296875q-0.390625 0.28125 -0.578125 1.015625l-1.140625 -0.15625q0.15625 -0.734375 0.515625 -1.1875q0.359375 -0.453125 1.03125 -0.6875q0.671875 -0.25 1.5625 -0.25q0.890625 0 1.4375 0.203125q0.5625 0.203125 0.8125 0.53125q0.265625 0.3125 0.375 0.796875q0.046875 0.296875 0.046875 1.078125l0 1.5625q0 1.625 0.078125 2.0625q0.078125 0.4375038 0.296875 0.8281288l-1.21875 0q-0.1875 -0.359375 -0.234375 -0.8593788zm-0.09375 -2.609375q-0.640625 0.265625 -1.921875 0.4375q-0.71875 0.109375 -1.015625 0.25q-0.296875 0.125 -0.46875 0.375q-0.15625 0.25 -0.15625 0.546875q0 0.46875 0.34375 0.78125q0.359375 0.3125038 1.046875 0.3125038q0.671875 0 1.203125 -0.2968788q0.53125 -0.296875 0.78125 -0.8125q0.1875 -0.390625 0.1875 -1.171875l0 -0.421875zm3.0062256 -4.71875l0 -1.359375l1.171875 0l0 1.359375l-1.171875 0zm0 8.187504l0 -6.906254l1.171875 0l0 6.906254l-1.171875 0zm2.945465 0l0 -6.906254l1.0625 0l0 0.984375q0.75 -1.140625 2.1875 -1.140625q0.625 0 1.15625 0.21875q0.53125 0.21875 0.78125 0.59375q0.265625 0.359375 0.375 0.859375q0.0625 0.328125 0.0625 1.140625l0 4.250004l-1.171875 0l0 -4.203129q0 -0.71875 -0.140625 -1.0625q-0.140625 -0.359375 -0.484375 -0.5625q-0.34375 -0.21875 -0.8125 -0.21875q-0.75 0 -1.296875 0.46875q-0.546875 0.46875 -0.546875 1.796875l0 3.7812538l-1.171875 0z" fill-rule="nonzero"/><path fill="#cfe2f3" d="m96.0 268.0001l0 0c0 -2.209198 1.7908936 -4.0000916 4.0000763 -4.0000916l39.999847 0c1.0608826 0 2.0783234 0.42144775 2.828476 1.1716003c0.75016785 0.7501526 1.1716003 1.7675781 1.1716003 2.8284912l0 15.999817c0 2.209198 -1.7908936 4.0000916 -4.0000763 4.0000916l-39.999847 0c-2.2091827 0 -4.0000763 -1.7908936 -4.0000763 -4.0000916z" fill-rule="evenodd"/><path stroke="#000000" stroke-width="1.0" stroke-linejoin="round" stroke-linecap="butt" d="m96.0 268.0001l0 0c0 -2.209198 1.7908936 -4.0000916 4.0000763 -4.0000916l39.999847 0c1.0608826 0 2.0783234 0.42144775 2.828476 1.1716003c0.75016785 0.7501526 1.1716003 1.7675781 1.1716003 2.8284912l0 15.999817c0 2.209198 -1.7908936 4.0000916 -4.0000763 4.0000916l-39.999847 0c-2.2091827 0 -4.0000763 -1.7908936 -4.0000763 -4.0000916z" fill-rule="evenodd"/><path fill="#000000" d="m107.9113 283.45624l0 -9.5625l1.078125 0l0 0.890625q0.375 -0.53125 0.84375 -0.78125q0.484375 -0.265625 1.15625 -0.265625q0.875 0 1.546875 0.453125q0.6875 0.453125 1.03125 1.28125q0.34375 0.828125 0.34375 1.828125q0 1.046875 -0.375 1.90625q-0.375 0.84375 -1.109375 1.296875q-0.71875 0.453125 -1.53125 0.453125q-0.578125 0 -1.046875 -0.25q-0.46875 -0.25 -0.765625 -0.625l0 3.375l-1.171875 0zm1.0625 -6.078125q0 1.34375 0.53125 1.984375q0.546875 0.625 1.3125 0.625q0.78125 0 1.34375 -0.65625q0.5625 -0.65625 0.5625 -2.046875q0 -1.3125 -0.546875 -1.96875q-0.546875 -0.671875 -1.296875 -0.671875q-0.75 0 -1.328125 0.703125q-0.578125 0.703125 -0.578125 2.03125zm6.3343506 3.421875l0 -6.90625l1.0625 0l0 1.046875q0.40625 -0.734375 0.734375 -0.96875q0.34375 -0.234375 0.765625 -0.234375q0.59375 0 1.203125 0.375l-0.40625 1.078125q-0.4375 -0.25 -0.859375 -0.25q-0.390625 0 -0.703125 0.234375q-0.296875 0.234375 -0.421875 0.640625q-0.203125 0.625 -0.203125 1.359375l0 3.625l-1.171875 0zm4.4696198 -8.1875l0 -1.359375l1.171875 0l0 1.359375l-1.171875 0zm0 8.1875l0 -6.90625l1.171875 0l0 6.90625l-1.171875 0zm2.945465 0l0 -6.90625l1.0625 0l0 0.984375q0.75 -1.140625 2.1875 -1.140625q0.625 0 1.15625 0.21875q0.53125 0.21875 0.78125 0.59375q0.265625 0.359375 0.375 0.859375q0.0625 0.328125 0.0625 1.140625l0 4.25l-1.171875 0l0 -4.203125q0 -0.71875 -0.140625 -1.0625q-0.140625 -0.359375 -0.484375 -0.5625q-0.34375 -0.21875 -0.8125 -0.21875q-0.75 0 -1.296875 0.46875q-0.546875 0.46875 -0.546875 1.796875l0 3.78125l-1.171875 0zm9.974976 -1.046875l0.171875 1.03125q-0.5 0.109375 -0.890625 0.109375q-0.640625 0 -1.0 -0.203125q-0.34375 -0.203125 -0.484375 -0.53125q-0.140625 -0.328125 -0.140625 -1.390625l0 -3.96875l-0.859375 0l0 -0.90625l0.859375 0l0 -1.71875l1.171875 -0.703125l0 2.421875l1.171875 0l0 0.90625l-1.171875 0l0 4.046875q0 0.5 0.046875 0.640625q0.0625 0.140625 0.203125 0.234375q0.140625 0.078125 0.40625 0.078125q0.203125 0 0.515625 -0.046875z" fill-rule="nonzero"/><path fill="#000000" fill-opacity="0.0" d="m72.0 52.0c6.000122 0 5.6002274 -6.9000015 12.0002365 -14.5c6.400017 -7.6000004 19.599945 -15.9 35.999886 -14.5c16.399933 1.3999996 35.999878 12.5 35.999878 25.0" fill-rule="evenodd"/><path stroke="#000000" stroke-width="1.0" stroke-linejoin="round" stroke-linecap="butt" d="m72.0 52.0c6.0001144 0 5.6002274 -6.9000015 12.000244 -14.5c6.400009 -7.5999985 19.599945 -15.900002 35.999878 -14.5c8.199966 0.70000076 17.199936 3.8250008 24.149918 8.337502c3.4749756 2.2562485 6.4374695 4.859375 8.5312195 7.6796875c0.5234375 0.7050781 0.99256897 1.423729 1.4018555 2.1539307c0.10231018 0.18254852 0.20089722 0.36582184 0.29563904 0.5497818c0.04737854 0.09197998 0.09379578 0.18413544 0.13925171 0.27645493l0.08102417 0.168499" fill-rule="evenodd"/><path fill="#000000" stroke="#000000" stroke-width="1.0" stroke-linecap="butt" d="m152.99295 42.551525l2.6656952 4.0269814l0.546463 -4.7983246z" fill-rule="evenodd"/><path fill="#000000" fill-opacity="0.0" d="m16.0 44.00008l0 0c0 -2.2091827 1.7908974 -4.00008 4.00008 -4.00008l47.999844 0c1.0608826 0 2.0783157 0.4214363 2.8284836 1.1715965c0.7501602 0.7501602 1.1715927 1.7675972 1.1715927 2.8284836l0 15.99984c0 2.2091827 -1.7908936 4.00008 -4.0000763 4.00008l-47.999844 0c-2.2091827 0 -4.00008 -1.7908974 -4.00008 -4.00008z" fill-rule="evenodd"/><path fill="#000000" fill-opacity="0.0" d="m16.0 60.00008l0 0c0 -2.2091827 1.7908974 -4.00008 4.00008 -4.00008l47.999844 0c1.0608826 0 2.0783157 0.4214363 2.8284836 1.1715965c0.7501602 0.7501602 1.1715927 1.7675972 1.1715927 2.8284836l0 15.999844c0 2.2091827 -1.7908936 4.0000763 -4.0000763 4.0000763l-47.999844 0c-2.2091827 0 -4.00008 -1.7908936 -4.00008 -4.0000763z" fill-rule="evenodd"/><path fill="#000000" fill-opacity="0.0" d="m156.0 72.0c0 12.5 -19.599945 23.599998 -35.999878 25.0c-16.39994 1.4000015 -29.599869 -6.9000015 -35.999886 -14.5c-6.400009 -7.5999985 -6.0001144 -14.5 -12.0002365 -14.5" fill-rule="evenodd"/><path stroke="#000000" stroke-width="1.0" stroke-linejoin="round" stroke-linecap="butt" stroke-dasharray="4.0,3.0" d="m156.0 72.0c0 12.5 -19.599945 23.600006 -35.999878 25.0c-16.399933 1.3999939 -29.599869 -6.899994 -35.999878 -14.5c-3.2000122 -3.800003 -4.7000427 -7.425003 -6.1500854 -10.099998c-0.18125916 -0.33437347 -0.36173248 -0.6539078 -0.5446472 -0.95708466c-0.04572296 -0.075790405 -0.09161377 -0.1505661 -0.13768768 -0.22428131l-0.052627563 -0.082595825" fill-rule="evenodd"/><path fill="#000000" stroke="#000000" stroke-width="1.0" stroke-linecap="butt" d="m77.978516 69.72789l-4.732193 -0.9637909l3.0055542 3.780098z" fill-rule="evenodd"/><path fill="#000000" fill-opacity="0.0" d="m96.0 44.00008l0 0c0 -2.2091827 1.7908936 -4.00008 4.0000763 -4.00008l111.99985 0c1.0608826 0 2.0783234 0.4214363 2.828476 1.1715965c0.75016785 0.7501602 1.1716003 1.7675972 1.1716003 2.8284836l0 15.99984c0 2.2091827 -1.7908936 4.00008 -4.0000763 4.00008l-111.99985 0l0 0c-2.2091827 0 -4.0000763 -1.7908974 -4.0000763 -4.00008z" fill-rule="evenodd"/><path fill="#000000" fill-opacity="0.0" d="m96.0 60.00008l0 0c0 -2.2091827 1.7908936 -4.00008 4.0000763 -4.00008l111.99985 0c1.0608826 0 2.0783234 0.4214363 2.828476 1.1715965c0.75016785 0.7501602 1.1716003 1.7675972 1.1716003 2.8284836l0 15.999844c0 2.2091827 -1.7908936 4.0000763 -4.0000763 4.0000763l-111.99985 0l0 0c-2.2091827 0 -4.0000763 -1.7908936 -4.0000763 -4.0000763z" fill-rule="evenodd"/><path fill="#000000" fill-opacity="0.0" d="m216.0 52.0c40.0 0 80.0 106.0 80.0 212.0" fill-rule="evenodd"/><path stroke="#000000" stroke-width="1.0" stroke-linejoin="round" stroke-linecap="butt" d="m216.0 52.0c20.0 0 40.0 26.5 55.0 66.25c7.5 19.875 13.75 43.0625 18.125 67.90625c2.1875 12.421875 3.90625 25.257812 5.078125 38.300766c0.5859375 6.5214996 1.0351562 13.094742 1.3378906 19.693863c0.15136719 3.2995605 0.26611328 6.605606 0.34301758 9.914856c0.019226074 0.8273163 0.036071777 1.6548462 0.050567627 2.4825134l0.0211792 1.4519043" fill-rule="evenodd"/><path fill="#000000" stroke="#000000" stroke-width="1.0" stroke-linecap="butt" d="m294.3041 258.01233l1.6851196 4.525818l1.6182556 -4.5501404z" fill-rule="evenodd"/><path fill="#000000" fill-opacity="0.0" d="m72.0 52.0c24.0 0 48.0 106.0 48.0 212.0" fill-rule="evenodd"/><path stroke="#000000" stroke-width="1.0" stroke-linejoin="round" stroke-linecap="butt" d="m72.0 52.0c12.0 0 24.0 26.5 33.0 66.25c4.5 19.875 8.25 43.0625 10.875 67.90625c1.3125 12.421875 2.34375 25.257812 3.046875 38.300766c0.3515625 6.5214996 0.62109375 13.094742 0.802742 19.693863c0.09081268 3.2995605 0.15966034 6.605606 0.20579529 9.914856c0.011550903 0.8273163 0.021659851 1.6548462 0.030349731 2.4825134l0.012718201 1.4518127" fill-rule="evenodd"/><path fill="#000000" stroke="#000000" stroke-width="1.0" stroke-linecap="butt" d="m118.32176 258.00735l1.6717758 4.5307617l1.6316528 -4.545349z" fill-rule="evenodd"/><path fill="#000000" fill-opacity="0.0" d="m296.0 288.0c0 12.500397 -17.600006 38.000732 -32.0 25.000793c-14.399994 -12.999939 -25.600006 -64.50018 -32.0 -122.5004c-6.399994 -58.000214 -8.0 -122.5004 -16.0 -122.5004" fill-rule="evenodd"/><path stroke="#000000" stroke-width="1.0" stroke-linejoin="round" stroke-linecap="butt" stroke-dasharray="4.0,3.0" d="m296.0 288.0c0 12.500397 -17.600006 38.000732 -32.0 25.000793c-14.399994 -12.999939 -25.600006 -64.50018 -32.0 -122.50038c-3.2000122 -29.000122 -5.200012 -59.625214 -7.399994 -83.00029c-1.1000061 -11.687538 -2.25 -21.562569 -3.625 -28.515717c-0.34375 -1.7382889 -0.7015686 -3.293953 -1.0761719 -4.6496735c-0.09365845 -0.33892822 -0.18836975 -0.6653595 -0.28414917 -0.97901917c-0.04789734 -0.15683746 -0.096069336 -0.3104782 -0.14451599 -0.46089172l-4.5776367E-5 -1.0681152E-4" fill-rule="evenodd"/><path fill="#000000" stroke="#000000" stroke-width="1.0" stroke-linecap="butt" d="m220.81758 71.93943l-3.9720764 -2.7468338l1.2771606 4.657402z" fill-rule="evenodd"/></g></svg>