<svg version="1.1" viewBox="0 0 383.34120734908134 272.5196850393701" fill="none" stroke="none" stroke-linecap="square" stroke-miterlimit="10" xmlns="http://www.w3.org/2000/svg"><clipPath id="p"><path d="m0 0l383.34122 0l0 272.51968l-383.34122 0l0-272.51968z" clip-rule="nonzero"/></clipPath><g clip-path="url(#p)"><path fill="#fff" d="m0 0l383.34122 0l0 272.51968l-383.34122 0z" fill-rule="evenodd"/><path fill="#fce5cd" d="m24 52.00008l0 0c0-2.2091827 1.7908974-4.00008 4.00008-4.00008l63.999844 0c1.0608826 0 2.0783157.4214363 2.8284836 1.1715965c0.7501602.7501602 1.1715927 1.7675972 1.1715927 2.8284836l0 15.999844c0 2.2091827-1.7908936 4.0000763-4.0000763 4.0000763l-63.999844 0c-2.2091827 0-4.00008-1.7908936-4.00008-4.0000763z" fill-rule="evenodd"/><path stroke="#000" stroke-width="1" stroke-linejoin="round" stroke-linecap="butt" d="m24 52.00008l0 0c0-2.2091827 1.7908974-4.00008 4.00008-4.00008l63.999844 0c1.0608826 0 2.0783157.4214363 2.8284836 1.1715965c0.7501602.7501602 1.1715927 1.7675972 1.1715927 2.8284836l0 15.999844c0 2.2091827-1.7908936 4.0000763-4.0000763 4.0000763l-63.999844 0c-2.2091827 0-4.00008-1.7908936-4.00008-4.0000763z" fill-rule="evenodd"/><path fill="#000" d="m46.430763 64.8l0-6.906254l1.046875 0l0 .96875q0.328125-.515625.859375-.8125q0.546875-.3125 1.234375-.3125q0.78125 0 1.265625.3125q0.484375.3125.6875.890625q0.828125-1.203125 2.140625-1.203125q1.03125 0 1.578125.578125q0.5625.5625.5625 1.734375l0 4.750004l-1.171875 0l0-4.359379q0-.703125-.125-1.0q-.109375-.3125-.40625-.5q-.296875-.1875-.703125-.1875q-.71875 0-1.203125.484375q-.484375.484375-.484375 1.546875l0 4.015629l-1.171875 0l0-4.484379q0-.78125-.296875-1.171875q-.28125-.390625-.921875-.390625q-.5 0-.921875.265625q-.421875.25-.609375.75q-.1875.5-.1875 1.453125l0 3.5781288l-1.171875 0zm15.618057-.8593788q-.65625.5625038-1.265625.7968788q-.59375.21875-1.28125.21875q-1.140625 0-1.75-.546875q-.609375-.5625038-.609375-1.4375038q0-.5.21875-.921875q0.234375-.421875.609375-.671875q0.375-.25.84375-.390625q0.34375-.078125 1.046875-.171875q1.421875-.171875 2.09375-.40625q0-.234375 0-.296875q0-.71875-.328125-1.015625q-.453125-.390625-1.34375-.390625q-.8125 0-1.21875.296875q-.390625.28125-.578125 1.015625l-1.140625-.15625q0.15625-.734375.515625-1.1875q0.359375-.453125 1.03125-.6875q0.671875-.25 1.5625-.25q0.890625 0 1.4375.203125q0.5625.203125.8125.53125q0.265625.3125.375.796875q0.046875.296875.046875 1.078125l0 1.5625q0 1.625.078125 2.0625q0.078125.4375038.296875.8281288l-1.21875 0q-.1875-.359375-.234375-.8593788zm-.09375-2.609375q-.640625.265625-1.921875.4375q-.71875.109375-1.015625.25q-.296875.125-.46875.375q-.15625.25-.15625.546875q0 .46875.34375.78125q0.359375.3125038 1.046875.3125038q0.671875 0 1.203125-.2968788q0.53125-.296875.78125-.8125q0.1875-.390625.1875-1.171875l0-.421875zm3.0062256-4.71875l0-1.359375l1.171875 0l0 1.359375l-1.171875 0zm0 8.187504l0-6.906254l1.171875 0l0 6.906254l-1.171875 0zm2.945465 0l0-6.906254l1.0625 0l0 .984375q0.75-1.140625 2.1875-1.140625q0.625 0 1.15625.21875q0.53125.21875.78125.59375q0.265625.359375.375.859375q0.0625.328125.0625 1.140625l0 4.250004l-1.171875 0l0-4.203129q0-.71875-.140625-1.0625q-.140625-.359375-.484375-.5625q-.34375-.21875-.8125-.21875q-.75 0-1.296875.46875q-.546875.46875-.546875 1.796875l0 3.7812538l-1.171875 0z" fill-rule="nonzero"/><path fill="#cfe2f3" d="m192 52.00008l0 0c0-2.2091827 1.7908936-4.00008 4.0000763-4.00008l63.999832 0c1.0609131 0 2.0783386.4214363 2.8284912 1.1715965c0.7501526.7501602 1.1716003 1.7675972 1.1716003 2.8284836l0 15.999844c0 2.2091827-1.7908936 4.0000763-4.0000916 4.0000763l-63.999832 0c-2.2091827 0-4.0000763-1.7908936-4.0000763-4.0000763z" fill-rule="evenodd"/><path stroke="#000" stroke-width="1" stroke-linejoin="round" stroke-linecap="butt" d="m192 52.00008l0 0c0-2.2091827 1.7908936-4.00008 4.0000763-4.00008l63.999832 0c1.0609131 0 2.0783386.4214363 2.8284912 1.1715965c0.7501526.7501602 1.1716003 1.7675972 1.1716003 2.8284836l0 15.999844c0 2.2091827-1.7908936 4.0000763-4.0000916 4.0000763l-63.999832 0c-2.2091827 0-4.0000763-1.7908936-4.0000763-4.0000763z" fill-rule="evenodd"/><path fill="#000" d="m214.43988 56.6125l0-1.359375l1.171875 0l0 1.359375l-1.171875 0zm0 8.187504l0-6.906254l1.171875 0l0 6.906254l-1.171875 0zm2.945465 0l0-6.906254l1.0625 0l0 .984375q0.75-1.140625 2.1875-1.140625q0.625 0 1.15625.21875q0.53125.21875.78125.59375q0.265625.359375.375.859375q0.0625.328125.0625 1.140625l0 4.250004l-1.171875 0l0-4.203129q0-.71875-.140625-1.0625q-.140625-.359375-.484375-.5625q-.34375-.21875-.8125-.21875q-.75 0-1.296875.46875q-.546875.46875-.546875 1.796875l0 3.7812538l-1.171875 0zm7.4124756 2.65625l0-9.562504l1.0781097 0l0 .890625q0.375-.53125.84375-.78125q0.484375-.265625 1.15625-.265625q0.875 0 1.546875.453125q0.6875.453125 1.03125 1.28125q0.34375.828125.34375 1.828125q0 1.046875-.375 1.90625q-.375.8437538-1.109375 1.2968788q-.71875.453125-1.53125.453125q-.578125 0-1.046875-.25q-.46875-.25-.765625-.625l0 3.375l-1.1718597 0zm1.0624847-6.078129q0 1.34375.53125 1.984375q0.546875.625 1.3125.625q0.78125 0 1.34375-.65625q0.5625-.65625.5625-2.046875q0-1.3125-.546875-1.96875q-.546875-.671875-1.296875-.671875q-.75 0-1.328125.703125q-.578125.703125-.578125 2.03125zm10.881226 3.4218788l0-1.0156288q-.8125 1.1718788-2.1875 1.1718788q-.609375 0-1.140625-.234375q-.53125-.234375-.796875-.578125q-.25-.3593788-.359375-.8750038q-.0625-.34375-.0625-1.09375l0-4.28125l1.171875 0l0 3.828125q0 .921875.0625 1.234375q0.109375.46875.46875.734375q0.359375.25.890625.25q0.515625 0 .984375-.265625q0.46875-.265625.65625-.734375q0.1875-.46875.1875-1.34375l0-3.703125l1.171875 0l0 6.906254l-1.046875 0zm5.4437256-1.0468788l0.171875 1.0312538q-.5.109375-.890625.109375q-.640625 0-1-.203125q-.34375-.203125-.484375-.53125q-.140625-.3281288-.140625-1.3906288l0-3.96875l-.859375 0l0-.90625l0.859375 0l0-1.71875l1.171875-.703125l0 2.421875l1.171875 0l0 .90625l-1.171875 0l0 4.046875q0 .5.046875.640625q0.0625.140625.203125.234375q0.140625.078125.40625.078125q0.203125 0 .515625-.046875z" fill-rule="nonzero"/><path fill="#000" fill-opacity="0" d="m96 52.0c24.000237 0 36.000443-6.9000015 48.000473-14.5c12.000046-7.6000004 23.999893-15.9 41.99977-14.5c17.999863 1.3999996 41.999756 12.5 41.999756 25" fill-rule="evenodd"/><path stroke="#000" stroke-width="1" stroke-linejoin="round" stroke-linecap="butt" d="m96 52.0c24.000237 0 36.000458-6.9000015 48.00049-14.5c12.0000305-7.5999985 23.999878-15.900002 41.999756-14.5c8.999924.70000076 19.499878 3.8250008 27.749817 8.337502c4.1249847 2.2562485 7.687454 4.859375 10.218704 7.6796875c0.6328125.7050781 1.2011566 1.423729 1.6977539 2.1539307c0.12414551.18254852.24378967.36582184.35887146.5497818c0.057510376.09197998.11390686.18413544.1690979.27645493l0.13943481.23860168" fill-rule="evenodd"/><path fill="#000" stroke="#000" stroke-width="1" stroke-linecap="butt" d="m224.74715 42.69461l2.8469086 3.900978l0.3266449-4.818283z" fill-rule="evenodd"/><path fill="#000" fill-opacity="0" d="m228 72.0c0 12.5-23.999893 23.599998-41.999756 25.0c-17.999878 1.4000015-29.999725-6.9000015-41.99977-14.5c-12.0000305-7.5999985-24.000237-14.5-48.000473-14.5" fill-rule="evenodd"/><path stroke="#000" stroke-width="1" stroke-linejoin="round" stroke-linecap="butt" stroke-dasharray="4,3" d="m228 72.0c0 12.5-23.999893 23.600006-41.999756 25.0c-17.999878 1.3999939-29.999725-6.899994-41.999756-14.5c-6.0000153-3.800003-12.000076-7.425003-19.500168-10.099998c-3.7500458-1.3375015-7.8750916-2.4375-12.562645-3.203125c-2.3437805-.3828125-4.828186-.6820297-7.476654-.88555145c-.662117-.050880432-1.3344803-.09577179-2.0174713-.1344986l-.4455185-.02305603" fill-rule="evenodd"/><path fill="#000" stroke="#000" stroke-width="1" stroke-linecap="butt" d="m102.04036 66.50258l-4.5789337 1.5348892l4.4942703 1.7674866z" fill-rule="evenodd"/><path fill="#cfe2f3" d="m192 116.00008l0 0c0-2.2091827 1.7908936-4.0000763 4.0000763-4.0000763l63.999832 0c1.0609131 0 2.0783386.4214325 2.8284912 1.1715927c0.7501526.75016785 1.1716003 1.767601 1.1716003 2.8284836l0 15.999847c0 2.2091827-1.7908936 4.0000763-4.0000916 4.0000763l-63.999832 0c-2.2091827 0-4.0000763-1.7908936-4.0000763-4.0000763z" fill-rule="evenodd"/><path stroke="#000" stroke-width="1" stroke-linejoin="round" stroke-linecap="butt" d="m192 116.00008l0 0c0-2.2091827 1.7908936-4.0000763 4.0000763-4.0000763l63.999832 0c1.0609131 0 2.0783386.4214325 2.8284912 1.1715927c0.7501526.75016785 1.1716003 1.767601 1.1716003 2.8284836l0 15.999847c0 2.2091827-1.7908936 4.0000763-4.0000916 4.0000763l-63.999832 0c-2.2091827 0-4.0000763-1.7908936-4.0000763-4.0000763z" fill-rule="evenodd"/><path fill="#000" d="m216.56024 128.8l0-6.0l-1.03125 0l0-.90625l1.03125 0l0-.734375q0-.703125.125-1.046875q0.171875-.453125.59375-.734375q0.421875-.28125 1.203125-.28125q0.484375 0 1.09375.109375l-.1875 1.03125q-.359375-.0625-.6875-.0625q-.53125 0-.75.234375q-.21875.21875-.21875.84375l0 .640625l1.34375 0l0 .90625l-1.34375 0l0 6.0l-1.171875 0zm3.4061127 0l0-9.546875l1.171875 0l0 9.546875l-1.171875 0zm2.539215-3.453125q0-1.921875 1.078125-2.84375q0.890625-.765625 2.171875-.765625q1.421875 0 2.328125.9375q0.90625.921875.90625 2.578125q0 1.328125-.40625 2.09375q-.390625.765625-1.15625 1.1875q-.765625.421875-1.671875.421875q-1.453125 0-2.359375-.921875q-.890625-.9375-.890625-2.6875zm1.203125 0q0 1.328125.578125 1.984375q0.59375.65625 1.46875.65625q0.875 0 1.453125-.65625q0.578125-.671875.578125-2.03125q0-1.28125-.59375-1.9375q-.578125-.65625-1.4375-.65625q-.875 0-1.46875.65625q-.578125.65625-.578125 1.984375zm11.162476 2.59375q-.65625.5625-1.265625.796875q-.59375.21875-1.28125.21875q-1.140625 0-1.75-.546875q-.609375-.5625-.609375-1.4375q0-.5.21875-.921875q0.234375-.421875.609375-.671875q0.375-.25.84375-.390625q0.34375-.078125 1.046875-.171875q1.421875-.171875 2.09375-.40625q0-.234375 0-.296875q0-.71875-.328125-1.015625q-.453125-.390625-1.34375-.390625q-.8125 0-1.21875.296875q-.390625.28125-.578125 1.015625l-1.140625-.15625q0.15625-.734375.515625-1.1875q0.359375-.453125 1.03125-.6875q0.671875-.25 1.5625-.25q0.890625 0 1.4375.203125q0.5625.203125.8125.53125q0.265625.3125.375.796875q0.046875.296875.046875 1.078125l0 1.5625q0 1.625.078125 2.0625q0.078125.4375.296875.828125l-1.21875 0q-.1875-.359375-.234375-.859375zm-.09375-2.609375q-.640625.265625-1.921875.4375q-.71875.109375-1.015625.25q-.296875.125-.46875.375q-.15625.25-.15625.546875q0 .46875.34375.78125q0.359375.3125 1.046875.3125q0.671875 0 1.203125-.296875q0.53125-.296875.78125-.8125q0.1875-.390625.1875-1.171875l0-.421875zm5.5531006 2.421875l0.171875 1.03125q-.5.109375-.890625.109375q-.640625 0-1-.203125q-.34375-.203125-.484375-.53125q-.140625-.328125-.140625-1.390625l0-3.96875l-.859375 0l0-.90625l0.859375 0l0-1.71875l1.171875-.703125l0 2.421875l1.171875 0l0 .90625l-1.171875 0l0 4.046875q0 .5.046875.640625q0.0625.140625.203125.234375q0.140625.078125.40625.078125q0.203125 0 .515625-.046875z" fill-rule="nonzero"/><path fill="#cfe2f3" d="m192 244.00008l0 0c0-2.2091827 1.7908936-4.0000763 4.0000763-4.0000763l63.999832 0c1.0609131 0 2.0783386.4214325 2.8284912 1.1716003c0.7501526.7501526 1.1716003 1.7675934 1.1716003 2.828476l0 15.999832c0 2.209198-1.7908936 4.0000916-4.0000916 4.0000916l-63.999832 0c-2.2091827 0-4.0000763-1.7908936-4.0000763-4.0000916z" fill-rule="evenodd"/><path stroke="#000" stroke-width="1" stroke-linejoin="round" stroke-linecap="butt" d="m192 244.00008l0 0c0-2.2091827 1.7908936-4.0000763 4.0000763-4.0000763l63.999832 0c1.0609131 0 2.0783386.4214325 2.8284912 1.1716003c0.7501526.7501526 1.1716003 1.7675934 1.1716003 2.828476l0 15.999832c0 2.209198-1.7908936 4.0000916-4.0000916 4.0000916l-63.999832 0c-2.2091827 0-4.0000763-1.7908936-4.0000763-4.0000916z" fill-rule="evenodd"/><path fill="#000" d="m215.9113 259.45624l0-9.562485l1.078125 0l0 .890625q0.375-.53125.84375-.78125q0.484375-.265625 1.15625-.265625q0.875 0 1.546875.453125q0.6875.453125 1.03125 1.28125q0.34375.828125.34375 1.828125q0 1.046875-.375 1.90625q-.375.84373474-1.109375 1.2968597q-.71875.453125-1.53125.453125q-.578125 0-1.046875-.25q-.46875-.25-.765625-.625l0 3.375l-1.171875 0zm1.0625-6.0781097q0 1.34375.53125 1.984375q0.546875.625 1.3125.625q0.78125 0 1.34375-.65625q0.5625-.65625.5625-2.046875q0-1.3125-.546875-1.96875q-.546875-.671875-1.296875-.671875q-.75 0-1.328125.703125q-.578125.703125-.578125 2.03125zm6.3343506 3.4218597l0-6.9062347l1.0625 0l0 1.046875q0.40625-.734375.734375-.96875q0.34375-.234375.765625-.234375q0.59375 0 1.203125.375l-.40625 1.078125q-.4375-.25-.859375-.25q-.390625 0-.703125.234375q-.296875.234375-.421875.640625q-.203125.625-.203125 1.359375l0 3.6249847l-1.171875 0zm4.4696198-8.187485l0-1.359375l1.171875 0l0 1.359375l-1.171875 0zm0 8.187485l0-6.9062347l1.171875 0l0 6.9062347l-1.171875 0zm2.945465 0l0-6.9062347l1.0625 0l0 .984375q0.75-1.140625 2.1875-1.140625q0.625 0 1.15625.21875q0.53125.21875.78125.59375q0.265625.359375.375.859375q0.0625.328125.0625 1.140625l0 4.2499847l-1.171875 0l0-4.2031097q0-.71875-.140625-1.0625q-.140625-.359375-.484375-.5625q-.34375-.21875-.8125-.21875q-.75 0-1.296875.46875q-.546875.46875-.546875 1.796875l0 3.7812347l-1.171875 0zm9.974976-1.0468597l0.171875 1.0312347q-.5.109375-.890625.109375q-.640625 0-1-.203125q-.34375-.203125-.484375-.53125q-.140625-.32810974-.140625-1.3906097l0-3.96875l-.859375 0l0-.90625l0.859375 0l0-1.71875l1.171875-.703125l0 2.421875l1.171875 0l0 .90625l-1.171875 0l0 4.046875q0 .5.046875.640625q0.0625.140625.203125.234375q0.140625.078125.40625.078125q0.203125 0 .515625-.046875z" fill-rule="nonzero"/><path fill="#fce5cd" d="m192 180.00008l0 0c0-2.2091827 1.7908936-4.0000763 4.0000763-4.0000763l175.99983 0c1.0609131 0 2.0783386.4214325 2.8284912 1.1716003c0.7501526.7501526 1.1716003 1.7675934 1.1716003 2.828476l0 15.999847c0 2.2091827-1.7908936 4.0000763-4.0000916 4.0000763l-175.99983 0l0 0c-2.2091827 0-4.0000763-1.7908936-4.0000763-4.0000763z" fill-rule="evenodd"/><path stroke="#000" stroke-width="1" stroke-linejoin="round" stroke-linecap="butt" d="m192 180.00008l0 0c0-2.2091827 1.7908936-4.0000763 4.0000763-4.0000763l175.99983 0c1.0609131 0 2.0783386.4214325 2.8284912 1.1716003c0.7501526.7501526 1.1716003 1.7675934 1.1716003 2.828476l0 15.999847c0 2.2091827-1.7908936 4.0000763-4.0000916 4.0000763l-175.99983 0l0 0c-2.2091827 0-4.0000763-1.7908936-4.0000763-4.0000763z" fill-rule="evenodd"/><path fill="#000" d="m211.9729 190.26875l1.15625.15625q-.1875 1.1875-.96875 1.859375q-.78125.671875-1.921875.671875q-1.40625 0-2.28125-.921875q-.859375-.9375-.859375-2.65625q0-1.125.375-1.96875q0.375-.84375 1.125-1.25q0.765625-.421875 1.65625-.421875q1.125 0 1.84375.578125q0.71875.5625.921875 1.609375l-1.140625.171875q-.171875-.703125-.59375-1.046875q-.40625-.359375-.984375-.359375q-.890625 0-1.453125.640625q-.546875.640625-.546875 2.0q0 1.40625.53125 2.03125q0.546875.625 1.40625.625q0.6875 0 1.140625-.421875q0.46875-.421875.59375-1.296875zm1.7109375-.921875q0-1.921875 1.078125-2.84375q0.890625-.765625 2.171875-.765625q1.421875 0 2.328125.9375q0.90625.921875.90625 2.578125q0 1.328125-.40625 2.09375q-.390625.765625-1.15625 1.1875q-.765625.421875-1.671875.421875q-1.453125 0-2.359375-.921875q-.890625-.9375-.890625-2.6875zm1.203125 0q0 1.328125.578125 1.984375q0.59375.65625 1.46875.65625q0.875 0 1.453125-.65625q0.578125-.671875.578125-2.03125q0-1.28125-.59375-1.9375q-.578125-.65625-1.4375-.65625q-.875 0-1.46875.65625q-.578125.65625-.578125 1.984375zm6.6468506 3.453125l0-6.90625l1.046875 0l0 .96875q0.328125-.515625.859375-.8125q0.546875-.3125 1.234375-.3125q0.78125 0 1.265625.3125q0.484375.3125.6875.890625q0.828125-1.203125 2.140625-1.203125q1.03125 0 1.578125.578125q0.5625.5625.5625 1.734375l0 4.75l-1.171875 0l0-4.359375q0-.703125-.125-1.0q-.109375-.3125-.40625-.5q-.296875-.1875-.703125-.1875q-.71875 0-1.203125.484375q-.484375.484375-.484375 1.546875l0 4.015625l-1.171875 0l0-4.484375q0-.78125-.296875-1.171875q-.28125-.390625-.921875-.390625q-.5 0-.921875.265625q-.421875.25-.609375.75q-.1875.5-.1875 1.453125l0 3.578125l-1.171875 0zm11.102432 2.65625l0-9.5625l1.078125 0l0 .890625q0.375-.53125.84375-.78125q0.484375-.265625 1.15625-.265625q0.875 0 1.546875.453125q0.6875.453125 1.03125 1.28125q0.34375.828125.34375 1.828125q0 1.046875-.375 1.90625q-.375.84375-1.109375 1.296875q-.71875.453125-1.53125.453125q-.578125 0-1.046875-.25q-.46875-.25-.765625-.625l0 3.375l-1.171875 0zm1.0625-6.078125q0 1.34375.53125 1.984375q0.546875.625 1.3125.625q0.78125 0 1.34375-.65625q0.5625-.65625.5625-2.046875q0-1.3125-.546875-1.96875q-.546875-.671875-1.296875-.671875q-.75 0-1.328125.703125q-.578125.703125-.578125 2.03125zm10.881226 3.421875l0-1.015625q-.8125 1.171875-2.1875 1.171875q-.609375 0-1.140625-.234375q-.53125-.234375-.796875-.578125q-.25-.359375-.359375-.875q-.0625-.34375-.0625-1.09375l0-4.28125l1.171875 0l0 3.828125q0 .921875.0625 1.234375q0.109375.46875.46875.734375q0.359375.25.890625.25q0.515625 0 .984375-.265625q0.46875-.265625.65625-.734375q0.1875-.46875.1875-1.34375l0-3.703125l1.171875 0l0 6.90625l-1.046875 0zm5.4437256-1.046875l0.171875 1.03125q-.5.109375-.890625.109375q-.640625 0-1-.203125q-.34375-.203125-.484375-.53125q-.140625-.328125-.140625-1.390625l0-3.96875l-.859375 0l0-.90625l0.859375 0l0-1.71875l1.171875-.703125l0 2.421875l1.171875 0l0 .90625l-1.171875 0l0 4.046875q0 .5.046875.640625q0.0625.140625.203125.234375q0.140625.078125.40625.078125q0.203125 0 .515625-.046875zm5.8748627-1.171875l1.203125.140625q-.28125 1.0625-1.0625 1.65625q-.765625.578125-1.96875.578125q-1.515625 0-2.40625-.9375q-.890625-.9375-.890625-2.609375q0-1.75.890625-2.703125q0.90625-.96875 2.34375-.96875q1.390625 0 2.265625.9375q0.875.9375.875 2.65625q0 .109375 0 .3125l-5.15625 0q0.0625 1.140625.640625 1.75q0.578125.59375 1.4375.59375q0.65625 0 1.109375-.328125q0.453125-.34375.71875-1.078125zm-3.84375-1.90625l3.859375 0q-.078125-.859375-.4375-1.296875q-.5625-.6875-1.453125-.6875q-.8125 0-1.359375.546875q-.546875.53125-.609375 1.4375zm5.4437256 6.78125l0-.859375l7.765625 0l0 .859375l-7.765625 0zm13.006226-5.1875l1.15625.15625q-.1875 1.1875-.96875 1.859375q-.78125.671875-1.921875.671875q-1.40625 0-2.28125-.921875q-.859375-.9375-.859375-2.65625q0-1.125.375-1.96875q0.375-.84375 1.125-1.25q0.765625-.421875 1.65625-.421875q1.125 0 1.84375.578125q0.71875.5625.921875 1.609375l-1.140625.171875q-.171875-.703125-.59375-1.046875q-.40625-.359375-.984375-.359375q-.890625 0-1.453125.640625q-.546875.640625-.546875 2.0q0 1.40625.53125 2.03125q0.546875.625 1.40625.625q0.6875 0 1.140625-.421875q0.46875-.421875.59375-1.296875zm2.1015625 5.1875l-.125-1.09375q0.375.109375.65625.109375q0.390625 0 .625-.140625q0.234375-.125.390625-.359375q0.109375-.171875.359375-.875q0.03125-.09375.109375-.28125l-2.625-6.921875l1.265625 0l1.4375 4.0q0.28125.765625.5 1.59375q0.203125-.796875.46875-1.578125l1.484375-4.015625l1.171875 0l-2.625 7.015625q-.421875 1.140625-.65625 1.578125q-.3125.578125-.71875.84375q-.40625.28125-.96875.28125q-.328125 0-.75-.15625zm6.6953125-2.65625l0-9.546875l1.171875 0l0 9.546875l-1.171875 0zm2.99234-8.1875l0-1.359375l1.171875 0l0 1.359375l-1.171875 0zm0 8.1875l0-6.90625l1.171875 0l0 6.90625l-1.171875 0zm2.945465 0l0-6.90625l1.0625 0l0 .984375q0.75-1.140625 2.1875-1.140625q0.625 0 1.15625.21875q0.53125.21875.78125.59375q0.265625.359375.375.859375q0.0625.328125.0625 1.140625l0 4.25l-1.171875 0l0-4.203125q0-.71875-.140625-1.0625q-.140625-.359375-.484375-.5625q-.34375-.21875-.8125-.21875q-.75 0-1.296875.46875q-.546875.46875-.546875 1.796875l0 3.78125l-1.171875 0zm11.896851 0l0-.875q-.65625 1.03125-1.9375 1.03125q-.8125 0-1.515625-.453125q-.6875-.453125-1.078125-1.265625q-.375-.828125-.375-1.890625q0-1.03125.34375-1.875q0.34375-.84375 1.03125-1.28125q0.703125-.453125 1.546875-.453125q0.625 0 1.109375.265625q0.5.25.796875.671875l0-3.421875l1.171875 0l0 9.546875l-1.09375 0zm-3.703125-3.453125q0 1.328125.5625 1.984375q0.5625.65625 1.328125.65625q0.765625 0 1.296875-.625q0.53125-.625.53125-1.90625q0-1.421875-.546875-2.078125q-.546875-.671875-1.34375-.671875q-.78125 0-1.3125.640625q-.515625.625-.515625 2.0zm11.365601 1.234375l1.203125.140625q-.28125 1.0625-1.0625 1.65625q-.765625.578125-1.96875.578125q-1.515625 0-2.40625-.9375q-.890625-.9375-.890625-2.609375q0-1.75.890625-2.703125q0.90625-.96875 2.34375-.96875q1.390625 0 2.265625.9375q0.875.9375.875 2.65625q0 .109375 0 .3125l-5.15625 0q0.0625 1.140625.640625 1.75q0.578125.59375 1.4375.59375q0.65625 0 1.109375-.328125q0.453125-.34375.71875-1.078125zm-3.84375-1.90625l3.859375 0q-.078125-.859375-.4375-1.296875q-.5625-.6875-1.453125-.6875q-.8125 0-1.359375.546875q-.546875.53125-.609375 1.4375zm6.5062256 4.125l0-6.90625l1.0625 0l0 1.046875q0.40625-.734375.734375-.96875q0.34375-.234375.765625-.234375q0.59375 0 1.203125.375l-.40625 1.078125q-.4375-.25-.859375-.25q-.390625 0-.703125.234375q-.296875.234375-.421875.640625q-.203125.625-.203125 1.359375l0 3.625l-1.171875 0zm3.3758545 2.65625l0-.859375l7.765625 0l0 .859375l-7.765625 0zm10.412476-2.65625l-2.625-6.90625l1.234375 0l1.484375 4.140625q0.234375.65625.4375 1.390625q0.15625-.546875.4375-1.3125l1.53125-4.21875l1.21875 0l-2.625 6.90625l-1.09375 0zm4.3046875-3.453125q0-1.921875 1.078125-2.84375q0.890625-.765625 2.171875-.765625q1.421875 0 2.328125.9375q0.90625.921875.90625 2.578125q0 1.328125-.40625 2.09375q-.390625.765625-1.15625 1.1875q-.765625.421875-1.671875.421875q-1.453125 0-2.359375-.921875q-.890625-.9375-.890625-2.6875zm1.203125 0q0 1.328125.578125 1.984375q0.59375.65625 1.46875.65625q0.875 0 1.453125-.65625q0.578125-.671875.578125-2.03125q0-1.28125-.59375-1.9375q-.578125-.65625-1.4375-.65625q-.875 0-1.46875.65625q-.578125.65625-.578125 1.984375zm6.6312256 3.453125l0-9.546875l1.171875 0l0 9.546875l-1.171875 0zm7.507965 0l0-1.015625q-.8125 1.171875-2.1875 1.171875q-.609375 0-1.140625-.234375q-.53125-.234375-.796875-.578125q-.25-.359375-.359375-.875q-.0625-.34375-.0625-1.09375l0-4.28125l1.171875 0l0 3.828125q0 .921875.0625 1.234375q0.109375.46875.46875.734375q0.359375.25.890625.25q0.515625 0 .984375-.265625q0.46875-.265625.65625-.734375q0.1875-.46875.1875-1.34375l0-3.703125l1.171875 0l0 6.90625l-1.046875 0zm2.8812256 0l0-6.90625l1.046875 0l0 .96875q0.328125-.515625.859375-.8125q0.546875-.3125 1.234375-.3125q0.78125 0 1.265625.3125q0.484375.3125.6875.890625q0.828125-1.203125 2.140625-1.203125q1.03125 0 1.578125.578125q0.5625.5625.5625 1.734375l0 4.75l-1.171875 0l0-4.359375q0-.703125-.125-1.0q-.109375-.3125-.40625-.5q-.296875-.1875-.703125-.1875q-.71875 0-1.203125.484375q-.484375.484375-.484375 1.546875l0 4.015625l-1.171875 0l0-4.484375q0-.78125-.296875-1.171875q-.28125-.390625-.921875-.390625q-.5 0-.921875.265625q-.421875.25-.609375.75q-.1875.5-.1875 1.453125l0 3.578125l-1.171875 0zm15.8368225-2.21875l1.203125.140625q-.28125 1.0625-1.0625 1.65625q-.765625.578125-1.96875.578125q-1.515625 0-2.40625-.9375q-.890625-.9375-.890625-2.609375q0-1.75.890625-2.703125q0.90625-.96875 2.34375-.96875q1.390625 0 2.265625.9375q0.875.9375.875 2.65625q0 .109375 0 .3125l-5.15625 0q0.0625 1.140625.640625 1.75q0.578125.59375 1.4375.59375q0.65625 0 1.109375-.328125q0.453125-.34375.71875-1.078125zm-3.84375-1.90625l3.859375 0q-.078125-.859375-.4375-1.296875q-.5625-.6875-1.453125-.6875q-.8125 0-1.359375.546875q-.546875.53125-.609375 1.4375z" fill-rule="nonzero"/><path fill="#000" fill-opacity="0" d="m96 52.0c66 0 132 30 132 60" fill-rule="evenodd"/><path stroke="#000" stroke-width="1" stroke-linejoin="round" stroke-linecap="butt" d="m96 52.0c33 0 66 7.5 90.75 18.75c12.375 5.625 22.6875 12.1875 29.90625 19.21875c3.609375 3.515625 6.4453125 7.1484375 8.378891 10.839844c0.4834137.92285156.91041565 1.8493652 1.279007 2.7786255c0.18429565.46463013.35398865.9299469.50883484 1.3958359c0.07740784.2329483.15112305.46603394.2210846.69924927c0.034973145.116607666.0690155.23324585.10211182.34992218l0.0076446533.027740479" fill-rule="evenodd"/><path fill="#000" stroke="#000" stroke-width="1" stroke-linecap="butt" d="m225.51862 106.29291l2.2752228 4.259804l0.995224-4.725685z" fill-rule="evenodd"/><path fill="#000" fill-opacity="0" d="m96 52.0c94 0 188 62 188 124" fill-rule="evenodd"/><path stroke="#000" stroke-width="1" stroke-linejoin="round" stroke-linecap="butt" d="m96 52.0c47 0 94 15.5 129.25 38.75c17.625 11.625 32.3125 25.1875 42.59375 39.71875c5.140625 7.265625 9.1796875 14.7734375 11.933594 22.402344c1.3769531 3.8144531 2.4326172 7.6591797 3.144043 11.519043c0.17785645.9649658.334198 1.9308777.46865845 2.8975067c0.067230225.48330688.1289978.9667969.1852417 1.4504242c0.028137207.24182129.054901123.4836731.08026123.7255707l0.053863525.54341125" fill-rule="evenodd"/><path fill="#000" stroke="#000" stroke-width="1" stroke-linecap="butt" d="m282.0596 170.08704l1.8695984 4.452774l1.4299927-4.6127625z" fill-rule="evenodd"/><path fill="#000" fill-opacity="0" d="m96 52.0c66 0 132 94 132 188" fill-rule="evenodd"/><path stroke="#000" stroke-width="1" stroke-linejoin="round" stroke-linecap="butt" d="m96 52.0c33 0 66 23.5 90.75 58.75c12.375 17.625 22.6875 38.1875 29.90625 60.21875c3.609375 11.015625 6.4453125 22.398438 8.378891 33.96486c0.96681213 5.783188 1.7080383 11.612274 2.2075348 17.46434c0.24975586 2.9260406.4390869 5.857788.56596375 8.792419c0.03175354.73365784.059555054 1.4674988.08343506 2.2014618l0.018188477.60884094" fill-rule="evenodd"/><path fill="#000" stroke="#000" stroke-width="1" stroke-linecap="butt" d="m226.25871 234.02538l1.7194214 4.5128784l1.5836792-4.5622864z" fill-rule="evenodd"/><path fill="#000" fill-opacity="0" d="m284 200.0c0 12.499741-38.93329 32.132843-69.99992 24.999481c-31.06662-7.133362-54.26657-41.03322-69.99992-78.49974c-15.733337-37.46653-24.000076-78.49974-48.000153-78.49974" fill-rule="evenodd"/><path stroke="#000" stroke-width="1" stroke-linejoin="round" stroke-linecap="butt" stroke-dasharray="4,3" d="m284 200.0c0 12.499741-38.933304 32.13286-69.99992 24.999481c-31.06662-7.133362-54.26657-41.03322-69.99991-78.49974c-7.866684-18.733261-13.866699-38.3582-20.900063-53.299812c-3.5166779-7.4708176-7.2916946-13.770798-11.687553-18.20308c-2.1979218-2.216133-4.551056-3.9653473-7.104706-5.16053c-.6384201-.29878998-1.28936-.56295776-1.9535446-.7911377l-.42313385-.13892365" fill-rule="evenodd"/><path fill="#000" stroke="#000" stroke-width="1" stroke-linecap="butt" d="m102.18065 67.273476l-4.7355194.9473343l4.2365494 2.3182297z" fill-rule="evenodd"/><path fill="#000" fill-opacity="0" d="m228 136.0c0 12.500107-23.999893 27.866852-41.999756 25.000198c-17.999878-2.8666534-29.999725-23.966705-41.99977-46.5001c-12.0000305-22.533386-24.000237-46.5001-48.000473-46.5001" fill-rule="evenodd"/><path stroke="#000" stroke-width="1" stroke-linejoin="round" stroke-linecap="butt" stroke-dasharray="4,3" d="m228 136.0c0 12.500107-23.999893 27.866852-41.999756 25.000198c-17.999878-2.8666534-29.999725-23.96672-41.999756-46.5001c-6.0000153-11.2666855-12.000076-22.891716-19.500168-31.700073c-3.7500458-4.404175-7.8750916-8.104179-12.562645-10.70314c-2.3437805-1.2994843-4.828186-2.3237076-7.476654-3.023056c-.662117-.1748352-1.3344803-.3293686-2.0174713-.46282196l-.46645355-.08719635" fill-rule="evenodd"/><path fill="#000" stroke="#000" stroke-width="1" stroke-linecap="butt" d="m102.12129 66.87839l-4.6649704 1.2492371l4.3765717 2.0416107z" fill-rule="evenodd"/><path fill="#fff" d="m8 16.0l0 0c0-4.4182777 3.5817223-8 8-8.0l0 0c2.1217327 0 4.156563.8428545 5.6568546 2.3431454c1.5002899 1.5002918 2.3431454 3.5351229 2.3431454 5.6568546l0 0c0 4.4182777-3.5817223 8-8 8.0l0 0c-4.4182777 0-8-3.5817223-8-8.0z" fill-rule="evenodd"/><path stroke="#000" stroke-width="2" stroke-linejoin="round" stroke-linecap="butt" d="m8 16.0l0 0c0-4.4182777 3.5817223-8 8-8.0l0 0c2.1217327 0 4.156563.8428545 5.6568546 2.3431454c1.5002899 1.5002918 2.3431454 3.5351229 2.3431454 5.6568546l0 0c0 4.4182777-3.5817223 8-8 8.0l0 0c-4.4182777 0-8-3.5817223-8-8.0z" fill-rule="evenodd"/><path fill="#000" fill-opacity="0" d="m24 16.0c18 0 36 16 36 32" fill-rule="evenodd"/><path stroke="#000" stroke-width="1" stroke-linejoin="round" stroke-linecap="butt" d="m24 16.0c9 0 18 4 24.75 10.0c3.375 3 6.1875 6.5 8.15625 10.25c0.984375 1.875 1.7578125 3.8125 2.2851562 5.78125l0.0058937073.022686005" fill-rule="evenodd"/><path fill="#000" stroke="#000" stroke-width="1" stroke-linecap="butt" d="m57.560413 42.27491l2.244007 4.276329l1.0297623-4.718277z" fill-rule="evenodd"/><path fill="#000" fill-opacity="0" d="m24 44.00008l0 0c0-2.2091827 1.7908974-4.00008 4.00008-4.00008l63.999844 0c1.0608826 0 2.0783157.4214363 2.8284836 1.1715965c0.7501602.7501602 1.1715927 1.7675972 1.1715927 2.8284836l0 15.99984c0 2.2091827-1.7908936 4.00008-4.0000763 4.00008l-63.999844 0c-2.2091827 0-4.00008-1.7908974-4.00008-4.00008z" fill-rule="evenodd"/><path fill="#000" fill-opacity="0" d="m24 60.00008l0 0c0-2.2091827 1.7908974-4.00008 4.00008-4.00008l63.999844 0c1.0608826 0 2.0783157.4214363 2.8284836 1.1715965c0.7501602.7501602 1.1715927 1.7675972 1.1715927 2.8284836l0 15.999844c0 2.2091827-1.7908936 4.0000763-4.0000763 4.0000763l-63.999844 0c-2.2091827 0-4.00008-1.7908936-4.00008-4.0000763z" fill-rule="evenodd"/></g></svg>
