<svg version="1.1" viewBox="0 0 295.8503937007874 335.0209973753281" fill="none" stroke="none" stroke-linecap="square" stroke-miterlimit="10" xmlns="http://www.w3.org/2000/svg"><clipPath id="p"><path d="m0 0l295.8504 0l0 335.021l-295.8504 0l0-335.021z" clip-rule="nonzero"/></clipPath><g clip-path="url(#p)"><path fill="#fff" d="m0 0l295.8504 0l0 335.021l-295.8504 0z" fill-rule="evenodd"/><path fill="#000" fill-opacity="0" d="m16 44.00008l0 0c0-2.2091827 1.7908974-4.00008 4.00008-4.00008l47.999844 0c1.0608826 0 2.0783157.4214363 2.8284836 1.1715965c0.7501602.7501602 1.1715927 1.7675972 1.1715927 2.8284836l0 15.99984c0 2.2091827-1.7908936 4.00008-4.0000763 4.00008l-47.999844 0c-2.2091827 0-4.00008-1.7908974-4.00008-4.00008z" fill-rule="evenodd"/><path fill="#000" fill-opacity="0" d="m16 60.00008l0 0c0-2.2091827 1.7908974-4.00008 4.00008-4.00008l47.999844 0c1.0608826 0 2.0783157.4214363 2.8284836 1.1715965c0.7501602.7501602 1.1715927 1.7675972 1.1715927 2.8284836l0 15.999844c0 2.2091827-1.7908936 4.0000763-4.0000763 4.0000763l-47.999844 0c-2.2091827 0-4.00008-1.7908936-4.00008-4.0000763z" fill-rule="evenodd"/><path fill="#fce5cd" d="m16 52.00008l0 0c0-2.2091827 1.7908974-4.00008 4.00008-4.00008l47.999844 0c1.0608826 0 2.0783157.4214363 2.8284836 1.1715965c0.7501602.7501602 1.1715927 1.7675972 1.1715927 2.8284836l0 15.999844c0 2.2091827-1.7908936 4.0000763-4.0000763 4.0000763l-47.999844 0c-2.2091827 0-4.00008-1.7908936-4.00008-4.0000763z" fill-rule="evenodd"/><path stroke="#000" stroke-width="1" stroke-linejoin="round" stroke-linecap="butt" d="m16 52.00008l0 0c0-2.2091827 1.7908974-4.00008 4.00008-4.00008l47.999844 0c1.0608826 0 2.0783157.4214363 2.8284836 1.1715965c0.7501602.7501602 1.1715927 1.7675972 1.1715927 2.8284836l0 15.999844c0 2.2091827-1.7908936 4.0000763-4.0000763 4.0000763l-47.999844 0c-2.2091827 0-4.00008-1.7908936-4.00008-4.0000763z" fill-rule="evenodd"/><path fill="#000" d="m30.430763 64.8l0-6.906254l1.046875 0l0 .96875q0.328125-.515625.859375-.8125q0.546875-.3125 1.234375-.3125q0.78125 0 1.265625.3125q0.484375.3125.6875.890625q0.828125-1.203125 2.140625-1.203125q1.03125 0 1.578125.578125q0.5625.5625.5625 1.734375l0 4.750004l-1.171875 0l0-4.359379q0-.703125-.125-1.0q-.109375-.3125-.40625-.5q-.296875-.1875-.703125-.1875q-.71875 0-1.203125.484375q-.484375.484375-.484375 1.546875l0 4.015629l-1.171875 0l0-4.484379q0-.78125-.296875-1.171875q-.28125-.390625-.921875-.390625q-.5 0-.921875.265625q-.421875.25-.609375.75q-.1875.5-.1875 1.453125l0 3.5781288l-1.171875 0zm15.618057-.8593788q-.65625.5625038-1.265625.7968788q-.59375.21875-1.28125.21875q-1.140625 0-1.75-.546875q-.609375-.5625038-.609375-1.4375038q0-.5.21875-.921875q0.234375-.421875.609375-.671875q0.375-.25.84375-.390625q0.34375-.078125 1.046875-.171875q1.421875-.171875 2.09375-.40625q0-.234375 0-.296875q0-.71875-.328125-1.015625q-.453125-.390625-1.34375-.390625q-.8125 0-1.21875.296875q-.390625.28125-.578125 1.015625l-1.140625-.15625q0.15625-.734375.515625-1.1875q0.359375-.453125 1.03125-.6875q0.671875-.25 1.5625-.25q0.890625 0 1.4375.203125q0.5625.203125.8125.53125q0.265625.3125.375.796875q0.046875.296875.046875 1.078125l0 1.5625q0 1.625.078125 2.0625q0.078125.4375038.296875.8281288l-1.21875 0q-.1875-.359375-.234375-.8593788zm-.09375-2.609375q-.640625.265625-1.921875.4375q-.71875.109375-1.015625.25q-.296875.125-.46875.375q-.15625.25-.15625.546875q0 .46875.34375.78125q0.359375.3125038 1.046875.3125038q0.671875 0 1.203125-.2968788q0.53125-.296875.78125-.8125q0.1875-.390625.1875-1.171875l0-.421875zm3.0062256-4.71875l0-1.359375l1.171875 0l0 1.359375l-1.171875 0zm0 8.187504l0-6.906254l1.171875 0l0 6.906254l-1.171875 0zm2.945465 0l0-6.906254l1.0625 0l0 .984375q0.75-1.140625 2.1875-1.140625q0.625 0 1.15625.21875q0.53125.21875.78125.59375q0.265625.359375.375.859375q0.0625.328125.0625 1.140625l0 4.250004l-1.171875 0l0-4.203129q0-.71875-.140625-1.0625q-.140625-.359375-.484375-.5625q-.34375-.21875-.8125-.21875q-.75 0-1.296875.46875q-.546875.46875-.546875 1.796875l0 3.7812538l-1.171875 0z" fill-rule="nonzero"/><path fill="#cfe2f3" d="m152 52.00008l0 0c0-2.2091827 1.7908936-4.00008 4.0000763-4.00008l47.999847 0c1.0608826 0 2.0783234.4214363 2.828476 1.1715965c0.75016785.7501602 1.1716003 1.7675972 1.1716003 2.8284836l0 15.999844c0 2.2091827-1.7908936 4.0000763-4.0000763 4.0000763l-47.999847 0c-2.2091827 0-4.0000763-1.7908936-4.0000763-4.0000763z" fill-rule="evenodd"/><path stroke="#000" stroke-width="1" stroke-linejoin="round" stroke-linecap="butt" d="m152 52.00008l0 0c0-2.2091827 1.7908936-4.00008 4.0000763-4.00008l47.999847 0c1.0608826 0 2.0783234.4214363 2.828476 1.1715965c0.75016785.7501602 1.1716003 1.7675972 1.1716003 2.8284836l0 15.999844c0 2.2091827-1.7908936 4.0000763-4.0000763 4.0000763l-47.999847 0c-2.2091827 0-4.0000763-1.7908936-4.0000763-4.0000763z" fill-rule="evenodd"/><path fill="#000" d="m166.43988 56.6125l0-1.359375l1.171875 0l0 1.359375l-1.171875 0zm0 8.187504l0-6.906254l1.171875 0l0 6.906254l-1.171875 0zm2.945465 0l0-6.906254l1.0625 0l0 .984375q0.75-1.140625 2.1875-1.140625q0.625 0 1.15625.21875q0.53125.21875.78125.59375q0.265625.359375.375.859375q0.0625.328125.0625 1.140625l0 4.250004l-1.171875 0l0-4.203129q0-.71875-.140625-1.0625q-.140625-.359375-.484375-.5625q-.34375-.21875-.8125-.21875q-.75 0-1.296875.46875q-.546875.46875-.546875 1.796875l0 3.7812538l-1.171875 0zm7.4124756 2.65625l0-9.562504l1.078125 0l0 .890625q0.375-.53125.84375-.78125q0.484375-.265625 1.15625-.265625q0.875 0 1.546875.453125q0.6875.453125 1.03125 1.28125q0.34375.828125.34375 1.828125q0 1.046875-.375 1.90625q-.375.8437538-1.109375 1.2968788q-.71875.453125-1.53125.453125q-.578125 0-1.046875-.25q-.46875-.25-.765625-.625l0 3.375l-1.171875 0zm1.0625-6.078129q0 1.34375.53125 1.984375q0.546875.625 1.3125.625q0.78125 0 1.34375-.65625q0.5625-.65625.5625-2.046875q0-1.3125-.546875-1.96875q-.546875-.671875-1.296875-.671875q-.75 0-1.328125.703125q-.578125.703125-.578125 2.03125zm10.88121 3.4218788l0-1.0156288q-.8125 1.1718788-2.1875 1.1718788q-.609375 0-1.140625-.234375q-.53123474-.234375-.79685974-.578125q-.25-.3593788-.359375-.8750038q-.0625-.34375-.0625-1.09375l0-4.28125l1.1718597 0l0 3.828125q0 .921875.0625 1.234375q0.109375.46875.46875.734375q0.359375.25.890625.25q0.515625 0 .984375-.265625q0.46875-.265625.65625-.734375q0.1875-.46875.1875-1.34375l0-3.703125l1.171875 0l0 6.906254l-1.046875 0zm5.4437256-1.0468788l0.171875 1.0312538q-.5.109375-.890625.109375q-.640625 0-1-.203125q-.34375-.203125-.484375-.53125q-.140625-.3281288-.140625-1.3906288l0-3.96875l-.859375 0l0-.90625l0.859375 0l0-1.71875l1.171875-.703125l0 2.421875l1.171875 0l0 .90625l-1.171875 0l0 4.046875q0 .5.046875.640625q0.0625.140625.203125.234375q0.140625.078125.40625.078125q0.203125 0 .515625-.046875z" fill-rule="nonzero"/><path fill="#cfe2f3" d="m152 116.00008l0 0c0-2.2091827 1.7908936-4.0000763 4.0000763-4.0000763l47.999847 0c1.0608826 0 2.0783234.4214325 2.828476 1.1715927c0.75016785.75016785 1.1716003 1.767601 1.1716003 2.8284836l0 15.999847c0 2.2091827-1.7908936 4.0000763-4.0000763 4.0000763l-47.999847 0c-2.2091827 0-4.0000763-1.7908936-4.0000763-4.0000763z" fill-rule="evenodd"/><path stroke="#000" stroke-width="1" stroke-linejoin="round" stroke-linecap="butt" d="m152 116.00008l0 0c0-2.2091827 1.7908936-4.0000763 4.0000763-4.0000763l47.999847 0c1.0608826 0 2.0783234.4214325 2.828476 1.1715927c0.75016785.75016785 1.1716003 1.767601 1.1716003 2.8284836l0 15.999847c0 2.2091827-1.7908936 4.0000763-4.0000763 4.0000763l-47.999847 0c-2.2091827 0-4.0000763-1.7908936-4.0000763-4.0000763z" fill-rule="evenodd"/><path fill="#000" d="m168.56024 128.8l0-6.0l-1.03125 0l0-.90625l1.03125 0l0-.734375q0-.703125.125-1.046875q0.171875-.453125.59375-.734375q0.421875-.28125 1.203125-.28125q0.484375 0 1.09375.109375l-.1875 1.03125q-.359375-.0625-.6875-.0625q-.53125 0-.75.234375q-.21875.21875-.21875.84375l0 .640625l1.34375 0l0 .90625l-1.34375 0l0 6.0l-1.171875 0zm3.4061127 0l0-9.546875l1.171875 0l0 9.546875l-1.171875 0zm2.539215-3.453125q0-1.921875 1.078125-2.84375q0.890625-.765625 2.171875-.765625q1.421875 0 2.328125.9375q0.90625.921875.90625 2.578125q0 1.328125-.40625 2.09375q-.390625.765625-1.15625 1.1875q-.765625.421875-1.671875.421875q-1.453125 0-2.359375-.921875q-.890625-.9375-.890625-2.6875zm1.203125 0q0 1.328125.578125 1.984375q0.59375.65625 1.46875.65625q0.875 0 1.453125-.65625q0.578125-.671875.578125-2.03125q0-1.28125-.59375-1.9375q-.578125-.65625-1.4375-.65625q-.875 0-1.46875.65625q-.578125.65625-.578125 1.984375zm11.162476 2.59375q-.65625.5625-1.265625.796875q-.59375.21875-1.28125.21875q-1.140625 0-1.75-.546875q-.609375-.5625-.609375-1.4375q0-.5.21875-.921875q0.234375-.421875.609375-.671875q0.375-.25.84375-.390625q0.34375-.078125 1.046875-.171875q1.421875-.171875 2.09375-.40625q0-.234375 0-.296875q0-.71875-.328125-1.015625q-.453125-.390625-1.34375-.390625q-.8125 0-1.21875.296875q-.390625.28125-.578125 1.015625l-1.140625-.15625q0.15625-.734375.515625-1.1875q0.359375-.453125 1.03125-.6875q0.671875-.25 1.5625-.25q0.890625 0 1.4375.203125q0.5625.203125.8125.53125q0.265625.3125.375.796875q0.046875.296875.046875 1.078125l0 1.5625q0 1.625.078125 2.0625q0.078125.4375.296875.828125l-1.21875 0q-.1875-.359375-.234375-.859375zm-.09375-2.609375q-.640625.265625-1.921875.4375q-.71875.109375-1.015625.25q-.296875.125-.46875.375q-.15625.25-.15625.546875q0 .46875.34375.78125q0.359375.3125 1.046875.3125q0.671875 0 1.203125-.296875q0.53125-.296875.78125-.8125q0.1875-.390625.1875-1.171875l0-.421875zm5.5531006 2.421875l0.171875 1.03125q-.5.109375-.890625.109375q-.640625 0-1-.203125q-.34375-.203125-.484375-.53125q-.140625-.328125-.140625-1.390625l0-3.96875l-.859375 0l0-.90625l0.859375 0l0-1.71875l1.171875-.703125l0 2.421875l1.171875 0l0 .90625l-1.171875 0l0 4.046875q0 .5.046875.640625q0.0625.140625.203125.234375q0.140625.078125.40625.078125q0.203125 0 .515625-.046875z" fill-rule="nonzero"/><path fill="#fce5cd" d="m152 180.00008l0 0c0-2.2091827 1.7908936-4.0000763 4.0000763-4.0000763l119.99983 0c1.0609131 0 2.0783386.4214325 2.8284912 1.1716003c0.7501526.7501526 1.1716003 1.7675934 1.1716003 2.828476l0 15.999847c0 2.2091827-1.7908936 4.0000763-4.0000916 4.0000763l-119.99983 0l0 0c-2.2091827 0-4.0000763-1.7908936-4.0000763-4.0000763z" fill-rule="evenodd"/><path stroke="#000" stroke-width="1" stroke-linejoin="round" stroke-linecap="butt" d="m152 180.00008l0 0c0-2.2091827 1.7908936-4.0000763 4.0000763-4.0000763l119.99983 0c1.0609131 0 2.0783386.4214325 2.8284912 1.1716003c0.7501526.7501526 1.1716003 1.7675934 1.1716003 2.828476l0 15.999847c0 2.2091827-1.7908936 4.0000763-4.0000916 4.0000763l-119.99983 0l0 0c-2.2091827 0-4.0000763-1.7908936-4.0000763-4.0000763z" fill-rule="evenodd"/><path fill="#000" d="m166.49425 192.8l0-6.90625l1.046875 0l0 .96875q0.328125-.515625.859375-.8125q0.546875-.3125 1.234375-.3125q0.78125 0 1.265625.3125q0.484375.3125.6875.890625q0.828125-1.203125 2.140625-1.203125q1.03125 0 1.578125.578125q0.5625.5625.5625 1.734375l0 4.75l-1.171875 0l0-4.359375q0-.703125-.125-1.0q-.109375-.3125-.40625-.5q-.296875-.1875-.703125-.1875q-.71875 0-1.203125.484375q-.484375.484375-.484375 1.546875l0 4.015625l-1.171875 0l0-4.484375q0-.78125-.296875-1.171875q-.28125-.390625-.921875-.390625q-.5 0-.921875.265625q-.421875.25-.609375.75q-.1875.5-.1875 1.453125l0 3.578125l-1.171875 0zm11.118057-8.1875l0-1.359375l1.171875 0l0 1.359375l-1.171875 0zm0 8.1875l0-6.90625l1.171875 0l0 6.90625l-1.171875 0zm2.92984 0l0-9.546875l1.171875 0l0 9.546875l-1.171875 0zm7.71109-2.21875l1.203125.140625q-.28125 1.0625-1.0625 1.65625q-.765625.578125-1.96875.578125q-1.515625 0-2.40625-.9375q-.890625-.9375-.890625-2.609375q0-1.75.890625-2.703125q0.90625-.96875 2.34375-.96875q1.390625 0 2.265625.9375q0.875.9375.875 2.65625q0 .109375 0 .3125l-5.15625 0q0.0625 1.140625.640625 1.75q0.578125.59375 1.4375.59375q0.65625 0 1.109375-.328125q0.453125-.34375.71875-1.078125zm-3.84375-1.90625l3.859375 0q-.078125-.859375-.4375-1.296875q-.5625-.6875-1.453125-.6875q-.8125 0-1.359375.546875q-.546875.53125-.609375 1.4375zm6.0531006 2.0625l1.15625-.1875q0.109375.703125.546875 1.078125q0.453125.359375 1.25.359375q0.8125 0 1.203125-.328125q0.390625-.328125.390625-.765625q0-.390625-.359375-.625q-.234375-.15625-1.1875-.390625q-1.296875-.328125-1.796875-.5625q-.484375-.25-.75-.65625q-.25-.421875-.25-.9375q0-.453125.203125-.84375q0.21875-.40625.578125-.671875q0.28125-.1875.75-.328125q0.46875-.140625 1.015625-.140625q0.8125 0 1.421875.234375q0.609375.234375.90625.640625q0.296875.390625.40625 1.0625l-1.140625.15625q-.078125-.53125-.453125-.828125q-.375-.3125-1.0625-.3125q-.8125 0-1.15625.265625q-.34375.265625-.34375.625q0 .234375.140625.421875q0.15625.1875.453125.3125q0.171875.0625 1.03125.296875q1.25.328125 1.734375.546875q0.5.203125.78125.609375q0.28125.40625.28125 1.0q0 .59375-.34375 1.109375q-.34375.515625-1 .796875q-.640625.28125-1.453125.28125q-1.34375 0-2.046875-.5625q-.703125-.5625-.90625-1.65625zm6.0546875 4.71875l0-.859375l7.765625 0l0 .859375l-7.765625 0zm8.490601 0l0-9.5625l1.078125 0l0 .890625q0.375-.53125.84375-.78125q0.484375-.265625 1.15625-.265625q0.875 0 1.546875.453125q0.6875.453125 1.03125 1.28125q0.34375.828125.34375 1.828125q0 1.046875-.375 1.90625q-.375.84375-1.109375 1.296875q-.71875.453125-1.53125.453125q-.578125 0-1.046875-.25q-.46875-.25-.765625-.625l0 3.375l-1.171875 0zm1.0625-6.078125q0 1.34375.53125 1.984375q0.546875.625 1.3125.625q0.78125 0 1.34375-.65625q0.5625-.65625.5625-2.046875q0-1.3125-.546875-1.96875q-.546875-.671875-1.296875-.671875q-.75 0-1.328125.703125q-.578125.703125-.578125 2.03125zm11.084351 1.203125l1.203125.140625q-.28125 1.0625-1.0625 1.65625q-.765625.578125-1.96875.578125q-1.515625 0-2.40625-.9375q-.890625-.9375-.890625-2.609375q0-1.75.890625-2.703125q0.90625-.96875 2.34375-.96875q1.390625 0 2.265625.9375q0.875.9375.875 2.65625q0 .109375 0 .3125l-5.15625 0q0.0625 1.140625.640625 1.75q0.578125.59375 1.4375.59375q0.65625 0 1.109375-.328125q0.453125-.34375.71875-1.078125zm-3.84375-1.90625l3.859375 0q-.078125-.859375-.4375-1.296875q-.5625-.6875-1.453125-.6875q-.8125 0-1.359375.546875q-.546875.53125-.609375 1.4375zm6.5062256 4.125l0-6.90625l1.0625 0l0 1.046875q0.40625-.734375.734375-.96875q0.34375-.234375.765625-.234375q0.59375 0 1.203125.375l-.40625 1.078125q-.4375-.25-.859375-.25q-.390625 0-.703125.234375q-.296875.234375-.421875.640625q-.203125.625-.203125 1.359375l0 3.625l-1.171875 0zm3.3758698 2.65625l0-.859375l7.765625 0l0 .859375l-7.765625 0zm8.271851-2.078125l1.140625.15625q0.078125.53125.40625.78125q0.4375.3125 1.1875.3125q0.8125 0 1.25-.328125q0.453125-.3125.609375-.90625q0.09375-.359375.078125-1.5q-.765625.90625-1.90625.90625q-1.4375 0-2.21875-1.03125q-.78125-1.03125-.78125-2.46875q0-.984375.359375-1.8125q0.359375-.84375 1.03125-1.296875q0.6875-.453125 1.609375-.453125q1.21875 0 2.015625.984375l0-.828125l1.078125 0l0 5.96875q0 1.609375-.328125 2.28125q-.328125.6875-1.046875 1.078125q-.703125.390625-1.75.390625q-1.234375 0-2-.5625q-.75-.5625-.734375-1.671875zm0.984375-4.15625q0 1.359375.53125 1.984375q0.546875.625 1.359375.625q0.796875 0 1.34375-.625q0.546875-.625.546875-1.953125q0-1.265625-.5625-1.90625q-.5625-.640625-1.359375-.640625q-.765625 0-1.3125.640625q-.546875.625-.546875 1.875zm11.162476 2.71875q-.65625.5625-1.265625.796875q-.59375.21875-1.28125.21875q-1.140625 0-1.75-.546875q-.609375-.5625-.609375-1.4375q0-.5.21875-.921875q0.234375-.421875.609375-.671875q0.375-.25.84375-.390625q0.34375-.078125 1.046875-.171875q1.421875-.171875 2.09375-.40625q0-.234375 0-.296875q0-.71875-.328125-1.015625q-.453125-.390625-1.34375-.390625q-.8125 0-1.21875.296875q-.390625.28125-.578125 1.015625l-1.140625-.15625q0.15625-.734375.515625-1.1875q0.359375-.453125 1.03125-.6875q0.671875-.25 1.5625-.25q0.890625 0 1.4375.203125q0.5625.203125.8125.53125q0.265625.3125.375.796875q0.046875.296875.046875 1.078125l0 1.5625q0 1.625.078125 2.0625q0.078125.4375.296875.828125l-1.21875 0q-.1875-.359375-.234375-.859375zm-.09375-2.609375q-.640625.265625-1.921875.4375q-.71875.109375-1.015625.25q-.296875.125-.46875.375q-.15625.25-.15625.546875q0 .46875.34375.78125q0.359375.3125 1.046875.3125q0.671875 0 1.203125-.296875q0.53125-.296875.78125-.8125q0.1875-.390625.1875-1.171875l0-.421875zm2.9749756 3.46875l0-9.546875l1.171875 0l0 9.546875l-1.171875 0zm2.96109 0l0-9.546875l1.171875 0l0 9.546875l-1.171875 0zm2.539215-3.453125q0-1.921875 1.078125-2.84375q0.890625-.765625 2.171875-.765625q1.4218597 0 2.3281097.9375q0.90625.921875.90625 2.578125q0 1.328125-.40625 2.09375q-.390625.765625-1.15625 1.1875q-.765625.421875-1.6718597.421875q-1.453125 0-2.359375-.921875q-.890625-.9375-.890625-2.6875zm1.203125 0q0 1.328125.578125 1.984375q0.59375.65625 1.46875.65625q0.87498474 0 1.4531097-.65625q0.578125-.671875.578125-2.03125q0-1.28125-.59375-1.9375q-.578125-.65625-1.4374847-.65625q-.875 0-1.46875.65625q-.578125.65625-.578125 1.984375zm6.6468353 3.453125l0-6.90625l1.0625 0l0 .984375q0.75-1.140625 2.1875-1.140625q0.625 0 1.15625.21875q0.53125.21875.78125.59375q0.265625.359375.375.859375q0.0625.328125.0625 1.140625l0 4.25l-1.171875 0l0-4.203125q0-.71875-.140625-1.0625q-.140625-.359375-.484375-.5625q-.34375-.21875-.8125-.21875q-.75 0-1.296875.46875q-.546875.46875-.546875 1.796875l0 3.78125l-1.171875 0z" fill-rule="nonzero"/><path fill="#fce5cd" d="m152 244.00008l0 0c0-2.2091827 1.7908936-4.0000763 4.0000763-4.0000763l127.99983 0c1.0609131 0 2.0783386.4214325 2.8284912 1.1716003c0.7501526.7501526 1.1716003 1.7675934 1.1716003 2.828476l0 15.999832c0 2.209198-1.7908936 4.0000916-4.0000916 4.0000916l-127.99983 0c-2.2091827 0-4.0000763-1.7908936-4.0000763-4.0000916z" fill-rule="evenodd"/><path stroke="#000" stroke-width="1" stroke-linejoin="round" stroke-linecap="butt" d="m152 244.00008l0 0c0-2.2091827 1.7908936-4.0000763 4.0000763-4.0000763l127.99983 0c1.0609131 0 2.0783386.4214325 2.8284912 1.1716003c0.7501526.7501526 1.1716003 1.7675934 1.1716003 2.828476l0 15.999832c0 2.209198-1.7908936 4.0000916-4.0000916 4.0000916l-127.99983 0c-2.2091827 0-4.0000763-1.7908936-4.0000763-4.0000916z" fill-rule="evenodd"/><path fill="#000" d="m167.51755 256.8l0-9.54686l1.171875 0l0 9.54686l-1.171875 0zm2.976715 2.65625l0-9.562485l1.078125 0l0 .890625q0.375-.53125.84375-.78125q0.484375-.265625 1.15625-.265625q0.875 0 1.546875.453125q0.6875.453125 1.03125 1.28125q0.34375.828125.34375 1.828125q0 1.046875-.375 1.90625q-.375.84373474-1.109375 1.2968597q-.71875.453125-1.53125.453125q-.578125 0-1.046875-.25q-.46875-.25-.765625-.625l0 3.375l-1.171875 0zm1.0625-6.0781097q0 1.34375.53125 1.984375q0.546875.625 1.3125.625q0.78125 0 1.34375-.65625q0.5625-.65625.5625-2.046875q0-1.3125-.546875-1.96875q-.546875-.671875-1.296875-.671875q-.75 0-1.328125.703125q-.578125.703125-.578125 2.03125zm10.443726 3.4218597l-1.171875 0l0-7.4687347q-.421875.40625-1.109375.8125q-.6875.40625-1.234375.609375l0-1.140625q0.984375-.453125 1.71875-1.109375q0.734375-.671875 1.03125-1.28125l0.765625 0l0 9.57811zm2.9906006-4.7031097q0-1.6875.34375-2.71875q0.359375-1.03125 1.046875-1.59375q0.6875-.5625 1.71875-.5625q0.78125 0 1.359375.3125q0.578125.296875.953125.890625q0.375.578125.59375 1.421875q0.21875.828125.21875 2.25q0 1.671875-.359375 2.703125q-.34375 1.03125-1.03125 1.5937347q-.671875.5625-1.734375.5625q-1.375 0-2.15625-.98435974q-.953125-1.1875-.953125-3.875zm1.203125 0q0 2.34375.546875 3.125q0.5625.78123474 1.359375.78123474q0.8125 0 1.359375-.78123474q0.5625-.78125.5625-3.125q0-2.359375-.5625-3.125q-.546875-.78125-1.359375-.78125q-.8125 0-1.296875.6875q-.609375.875-.609375 3.21875zm6.2093506 0q0-1.6875.34375-2.71875q0.359375-1.03125 1.046875-1.59375q0.6875-.5625 1.71875-.5625q0.78125 0 1.359375.3125q0.578125.296875.953125.890625q0.375.578125.59375 1.421875q0.21875.828125.21875 2.25q0 1.671875-.359375 2.703125q-.34375 1.03125-1.03125 1.5937347q-.671875.5625-1.734375.5625q-1.375 0-2.15625-.98435974q-.953125-1.1875-.953125-3.875zm1.203125 0q0 2.34375.546875 3.125q0.5625.78123474 1.359375.78123474q0.8125 0 1.359375-.78123474q0.5625-.78125.5625-3.125q0-2.359375-.5625-3.125q-.546875-.78125-1.359375-.78125q-.8125 0-1.296875.6875q-.609375.875-.609375 3.21875zm6.5531006 4.7031097l0-9.54686l1.171875 0l0 5.453125l2.765625-2.8125l1.515625 0l-2.640625 2.5625l2.90625 4.3437347l-1.4375 0l-2.28125-3.5312347l-.828125.796875l0 2.7343597l-1.171875 0zm5.5703125 2.65625l0-.859375l7.765625 0l0 .859375l-7.765625 0zm8.771851-2.65625l0-5.9999847l-1.03125 0l0-.90625l1.03125 0l0-.734375q0-.703125.125-1.046875q0.171875-.453125.59375-.734375q0.421875-.28125 1.203125-.28125q0.484375 0 1.09375.109375l-.1875 1.03125q-.359375-.0625-.6875-.0625q-.53125 0-.75.234375q-.21875.21875-.21875.84375l0 .640625l1.34375 0l0 .90625l-1.34375 0l0 5.9999847l-1.171875 0zm3.4061127 0l0-6.9062347l1.0625 0l0 1.046875q0.40625-.734375.734375-.96875q0.34375-.234375.765625-.234375q0.59375 0 1.203125.375l-.40625 1.078125q-.4375-.25-.859375-.25q-.390625 0-.703125.234375q-.296875.234375-.421875.640625q-.203125.625-.203125 1.359375l0 3.6249847l-1.171875 0zm4.0164948-3.4531097q0-1.921875 1.078125-2.84375q0.890625-.765625 2.171875-.765625q1.421875 0 2.328125.9375q0.90625.921875.90625 2.578125q0 1.328125-.40625 2.09375q-.390625.76560974-1.15625 1.1874847q-.765625.421875-1.671875.421875q-1.453125 0-2.359375-.921875q-.890625-.93748474-.890625-2.6874847zm1.203125 0q0 1.328125.578125 1.984375q0.59375.65625 1.46875.65625q0.875 0 1.453125-.65625q0.578125-.671875.578125-2.03125q0-1.28125-.59375-1.9375q-.578125-.65625-1.4375-.65625q-.875 0-1.46875.65625q-.578125.65625-.578125 1.984375zm6.6468506 3.4531097l0-6.9062347l1.046875 0l0 .96875q0.328125-.515625.859375-.8125q0.546875-.3125 1.234375-.3125q0.78125 0 1.265625.3125q0.484375.3125.6875.890625q0.828125-1.203125 2.140625-1.203125q1.03125 0 1.578125.578125q0.5625.5625.5625 1.734375l0 4.7499847l-1.171875 0l0-4.3593597q0-.703125-.125-1.0q-.109375-.3125-.40625-.5q-.296875-.1875-.703125-.1875q-.71875 0-1.203125.484375q-.484375.484375-.484375 1.546875l0 4.0156097l-1.171875 0l0-4.4843597q0-.78125-.296875-1.171875q-.28125-.390625-.921875-.390625q-.5 0-.921875.265625q-.421875.25-.609375.75q-.1875.5-.1875 1.453125l0 3.5781097l-1.171875 0zm10.024307 2.65625l0-.859375l7.765625 0l0 .859375l-7.765625 0zm8.490601-2.65625l0-6.9062347l1.046875 0l0 .96875q0.328125-.515625.859375-.8125q0.546875-.3125 1.234375-.3125q0.78125 0 1.265625.3125q0.484375.3125.6875.890625q0.828125-1.203125 2.140625-1.203125q1.0312347 0 1.5781097.578125q0.5625.5625.5625 1.734375l0 4.7499847l-1.171875 0l0-4.3593597q0-.703125-.125-1.0q-.109375-.3125-.40623474-.5q-.296875-.1875-.703125-.1875q-.71875 0-1.203125.484375q-.484375.484375-.484375 1.546875l0 4.0156097l-1.171875 0l0-4.4843597q0-.78125-.296875-1.171875q-.28125-.390625-.921875-.390625q-.5 0-.921875.265625q-.421875.25-.609375.75q-.1875.5-.1875 1.453125l0 3.5781097l-1.171875 0zm11.102432 2.65625l0-9.562485l1.078125 0l0 .890625q0.375-.53125.84375-.78125q0.484375-.265625 1.15625-.265625q0.875 0 1.546875.453125q0.6875.453125 1.03125 1.28125q0.34375.828125.34375 1.828125q0 1.046875-.375 1.90625q-.375.84373474-1.109375 1.2968597q-.71875.453125-1.53125.453125q-.578125 0-1.046875-.25q-.46875-.25-.765625-.625l0 3.375l-1.171875 0zm1.0625-6.0781097q0 1.34375.53125 1.984375q0.546875.625 1.3125.625q0.78125 0 1.34375-.65625q0.5625-.65625.5625-2.046875q0-1.3125-.546875-1.96875q-.546875-.671875-1.296875-.671875q-.75 0-1.328125.703125q-.578125.703125-.578125 2.03125zm6.1312256 3.9999847l1.140625.15625q0.078125.53125.40625.78125q0.4375.3125 1.1875.3125q0.8125 0 1.25-.328125q0.453125-.3125.609375-.90625q0.09375-.359375.078125-1.4999847q-.765625.90623474-1.90625.90623474q-1.4375 0-2.21875-1.0312347q-.78125-1.03125-.78125-2.46875q0-.984375.359375-1.8125q0.359375-.84375 1.03125-1.296875q0.6875-.453125 1.609375-.453125q1.21875 0 2.015625.984375l0-.828125l1.078125 0l0 5.96875q0 1.6093597-.328125 2.2812347q-.328125.6875-1.046875 1.078125q-.703125.390625-1.75.390625q-1.234375 0-2-.5625q-.75-.5625-.734375-1.671875zm0.984375-4.1562347q0 1.359375.53125 1.984375q0.546875.625 1.359375.625q0.796875 0 1.34375-.625q0.546875-.625.546875-1.953125q0-1.265625-.5625-1.90625q-.5625-.640625-1.359375-.640625q-.765625 0-1.3125.640625q-.546875.625-.546875 1.875z" fill-rule="nonzero"/><path fill="#000" fill-opacity="0" d="m72 52.0c19.999977 0 30.133293-6.9000015 39.99996-14.5c9.866661-7.6000004 19.466667-15.9 34.000023-14.5c14.53334 1.3999996 34.000015 12.5 34.000015 25" fill-rule="evenodd"/><path stroke="#000" stroke-width="1" stroke-linejoin="round" stroke-linecap="butt" d="m72 52.0c19.999977 0 30.133293-6.9000015 39.99996-14.5c9.866661-7.5999985 19.466682-15.900002 34.000023-14.5c7.2666626.70000076 15.766663 3.8250008 22.449997 8.337502c3.34169 2.2562485 6.2291718 4.859375 8.2812805 7.6796875c0.51301575.7050781.9738159 1.423729 1.3764496 2.1539307c0.10066223.18254852.19769287.36582184.29096985.5497818c0.04664612.09197998.09237671.18413544.137146.27645493l0.07814026.16492844" fill-rule="evenodd"/><path fill="#000" stroke="#000" stroke-width="1" stroke-linecap="butt" d="m177.00691 42.543842l2.6553802 4.0337944l0.5587311-4.7969093z" fill-rule="evenodd"/><path fill="#000" fill-opacity="0" d="m180 72.0c0 12.5-19.466675 23.599998-34.000015 25.0c-14.533356 1.4000015-24.133362-6.9000015-34.000023-14.5c-9.866669-7.5999985-19.999985-14.5-39.99996-14.5" fill-rule="evenodd"/><path stroke="#000" stroke-width="1" stroke-linejoin="round" stroke-linecap="butt" stroke-dasharray="4,3" d="m180 72.0c0 12.5-19.466675 23.600006-34.000015 25.0c-14.53334 1.3999939-24.133362-6.899994-34.000023-14.5c-4.933342-3.800003-9.933327-7.425003-16.19999-10.099998c-3.1333237-1.3375015-6.5833206-2.4375-10.499985-3.203125c-1.9583359-.3828125-4.033333-.6820297-6.243744-.88555145c-.27629852-.025436401-.554718-.04937744-.835289-.07180023l-.22509766-.01663971" fill-rule="evenodd"/><path fill="#000" stroke="#000" stroke-width="1" stroke-linecap="butt" d="m78.05721 66.57229l-4.596321 1.4820175l4.47361 1.8191681z" fill-rule="evenodd"/><path fill="#000" fill-opacity="0" d="m72 52.0c54 0 108 30 108 60" fill-rule="evenodd"/><path stroke="#000" stroke-width="1" stroke-linejoin="round" stroke-linecap="butt" d="m72 52.0c27 0 54 7.5 74.25 18.75c10.125 5.625 18.5625 12.1875 24.46875 19.21875c2.953125 3.515625 5.2734375 7.1484375 6.855484 10.839844c0.3955078.92285156.7448425 1.8493652 1.0464325 2.7786255c0.15078735.46463013.28962708.9299469.41630554 1.3958359c0.06335449.2329483.12364197.46603394.18089294.69924927c0.028625488.116607666.05647278.23324585.08355713.34992218l0.0018920898.008361816" fill-rule="evenodd"/><path fill="#000" stroke="#000" stroke-width="1" stroke-linecap="butt" d="m177.66275 106.232376l2.1674957 4.315613l1.1136322-4.699196z" fill-rule="evenodd"/><path fill="#000" fill-opacity="0" d="m72 52.0c72 0 144 62 144 124" fill-rule="evenodd"/><path stroke="#000" stroke-width="1" stroke-linejoin="round" stroke-linecap="butt" d="m72 52.0c36 0 72 15.5 99 38.75c13.5 11.625 24.75 25.1875 32.625 39.71875c3.9375 7.265625 7.03125 14.7734375 9.140625 22.402344c1.0546875 3.8144531 1.863266 7.6591797 2.4082031 11.519043c0.13623047.9649658.25598145 1.9308777.35897827 2.8975067c0.051483154.48330688.09881592.9667969.14189148 1.4504242c0.021530151.24182129.042037964.4836731.061462402.7255707l0.041030884.5404968" fill-rule="evenodd"/><path fill="#000" stroke="#000" stroke-width="1" stroke-linecap="butt" d="m214.1266 170.06548l1.819107 4.473633l1.4820862-4.596298z" fill-rule="evenodd"/><path fill="#000" fill-opacity="0" d="m72 52.0c74 0 148 94 148 188" fill-rule="evenodd"/><path stroke="#000" stroke-width="1" stroke-linejoin="round" stroke-linecap="butt" d="m72 52.0c37 0 74 23.5 101.75 58.75c13.875 17.625 25.4375 38.1875 33.53125 60.21875c4.046875 11.015625 7.2265625 22.398438 9.394516 33.96486c1.0839996 5.783188 1.9150543 11.612274 2.475113 17.46434c0.28004456 2.9260406.49230957 5.857788.63456726 8.792419c0.035583496.73365784.06677246 1.4674988.093551636 2.2014618l0.020401001.6090088" fill-rule="evenodd"/><path fill="#000" stroke="#000" stroke-width="1" stroke-linecap="butt" d="m218.2479 234.02853l1.7276001 4.5097656l1.5753937-4.565155z" fill-rule="evenodd"/><path fill="#000" fill-opacity="0" d="m216 200.0c0 12.499741-29.06659 32.132843-51.999847 24.999481c-22.933243-7.133362-39.733147-41.03322-51.999832-78.49974c-12.2666855-37.46653-20.00016-78.49974-40.00032-78.49974" fill-rule="evenodd"/><path stroke="#000" stroke-width="1" stroke-linejoin="round" stroke-linecap="butt" stroke-dasharray="4,3" d="m216 200.0c0 12.499741-29.066605 32.13286-51.999832 24.999481c-22.933258-7.133362-39.733162-41.03322-51.999847-78.49974c-6.133339-18.733261-11.133377-38.3582-17.100113-53.299812c-2.9833527-7.4708176-6.2083893-13.770798-9.937592-18.20308c-1.8646011-2.216133-3.8552475-3.9653473-6.0047455-5.16053c-.2686844-.14939117-.53985596-.29013824-.8135681-.42204285l-.28308868-.13124084" fill-rule="evenodd"/><path fill="#000" stroke="#000" stroke-width="1" stroke-linecap="butt" d="m78.21442 67.66951l-4.786331.64310455l4.0799255 2.5839462z" fill-rule="evenodd"/><path fill="#000" fill-opacity="0" d="m180 136.0c0 12.500107-19.466675 27.866852-34.000015 25.000198c-14.533356-2.8666534-24.133362-23.966705-34.000023-46.5001c-9.866669-22.533386-19.999985-46.5001-39.99996-46.5001" fill-rule="evenodd"/><path stroke="#000" stroke-width="1" stroke-linejoin="round" stroke-linecap="butt" stroke-dasharray="4,3" d="m180 136.0c0 12.500107-19.466675 27.866852-34.000015 25.000198c-14.53334-2.8666534-24.133362-23.96672-34.000023-46.5001c-4.933342-11.2666855-9.933327-22.891716-16.19999-31.700073c-3.1333237-4.404175-6.5833206-8.104179-10.499985-10.70314c-1.9583359-1.2994843-4.033333-2.3237076-6.243744-3.023056c-.27629852-.0874176-.554718-.16976166-.835289-.24693298l-.26874542-.07115173" fill-rule="evenodd"/><path fill="#000" stroke="#000" stroke-width="1" stroke-linecap="butt" d="m78.16026 67.117165l-4.7100067 1.0669708l4.293907 2.2101822z" fill-rule="evenodd"/><path fill="#fff" d="m8 16.0l0 0c0-4.4182777 3.5817223-8 8-8.0l0 0c2.1217327 0 4.156563.8428545 5.6568546 2.3431454c1.5002899 1.5002918 2.3431454 3.5351229 2.3431454 5.6568546l0 0c0 4.4182777-3.5817223 8-8 8.0l0 0c-4.4182777 0-8-3.5817223-8-8.0z" fill-rule="evenodd"/><path stroke="#000" stroke-width="2" stroke-linejoin="round" stroke-linecap="butt" d="m8 16.0l0 0c0-4.4182777 3.5817223-8 8-8.0l0 0c2.1217327 0 4.156563.8428545 5.6568546 2.3431454c1.5002899 1.5002918 2.3431454 3.5351229 2.3431454 5.6568546l0 0c0 4.4182777-3.5817223 8-8 8.0l0 0c-4.4182777 0-8-3.5817223-8-8.0z" fill-rule="evenodd"/><path fill="#000" fill-opacity="0" d="m24 16.0c10 0 20 16 20 32" fill-rule="evenodd"/><path stroke="#000" stroke-width="1" stroke-linejoin="round" stroke-linecap="butt" d="m24 16.0c5 0 10 4 13.75 10.0c1.875 3 3.4375 6.5 4.53125 10.25c0.2734375.9375.5175781 1.890625.72998047 2.8554688c0.10620499.48242188.20446777.96777344.2944908 1.4555664c0.045017242.24389648.08797073.48840332.12882614.7334595l0.11398697.7225151" fill-rule="evenodd"/><path fill="#000" stroke="#000" stroke-width="1" stroke-linecap="butt" d="m41.901485 42.141293l1.988514 4.4009476l1.305584-4.6495132z" fill-rule="evenodd"/><path fill="#cfe2f3" d="m152 308.0001l0 0c0-2.209198 1.7908936-4.0000916 4.0000763-4.0000916l47.999847 0c1.0608826 0 2.0783234.42144775 2.828476 1.1716003c0.75016785.7501526 1.1716003 1.7675781 1.1716003 2.8284912l0 15.999817c0 2.209198-1.7908936 4.0000916-4.0000763 4.0000916l-47.999847 0c-2.2091827 0-4.0000763-1.7908936-4.0000763-4.0000916z" fill-rule="evenodd"/><path stroke="#000" stroke-width="1" stroke-linejoin="round" stroke-linecap="butt" d="m152 308.0001l0 0c0-2.209198 1.7908936-4.0000916 4.0000763-4.0000916l47.999847 0c1.0608826 0 2.0783234.42144775 2.828476 1.1716003c0.75016785.7501526 1.1716003 1.7675781 1.1716003 2.8284912l0 15.999817c0 2.209198-1.7908936 4.0000916-4.0000763 4.0000916l-47.999847 0c-2.2091827 0-4.0000763-1.7908936-4.0000763-4.0000916z" fill-rule="evenodd"/><path fill="#000" d="m167.9113 323.45624l0-9.5625l1.078125 0l0 .890625q0.375-.53125.84375-.78125q0.484375-.265625 1.15625-.265625q0.875 0 1.546875.453125q0.6875.453125 1.03125 1.28125q0.34375.828125.34375 1.828125q0 1.046875-.375 1.90625q-.375.84375-1.109375 1.296875q-.71875.453125-1.53125.453125q-.578125 0-1.046875-.25q-.46875-.25-.765625-.625l0 3.375l-1.171875 0zm1.0625-6.078125q0 1.34375.53125 1.984375q0.546875.625 1.3125.625q0.78125 0 1.34375-.65625q0.5625-.65625.5625-2.046875q0-1.3125-.546875-1.96875q-.546875-.671875-1.296875-.671875q-.75 0-1.328125.703125q-.578125.703125-.578125 2.03125zm6.3343506 3.421875l0-6.90625l1.0625 0l0 1.046875q0.40625-.734375.734375-.96875q0.34375-.234375.765625-.234375q0.59375 0 1.203125.375l-.40625 1.078125q-.4375-.25-.859375-.25q-.390625 0-.703125.234375q-.296875.234375-.421875.640625q-.203125.625-.203125 1.359375l0 3.625l-1.171875 0zm4.4696198-8.1875l0-1.359375l1.171875 0l0 1.359375l-1.171875 0zm0 8.1875l0-6.90625l1.171875 0l0 6.90625l-1.171875 0zm2.945465 0l0-6.90625l1.0625 0l0 .984375q0.75-1.140625 2.1875-1.140625q0.625 0 1.15625.21875q0.53125.21875.78125.59375q0.265625.359375.375.859375q0.0625.328125.0625 1.140625l0 4.25l-1.171875 0l0-4.203125q0-.71875-.140625-1.0625q-.140625-.359375-.484375-.5625q-.34375-.21875-.8125-.21875q-.75 0-1.296875.46875q-.546875.46875-.546875 1.796875l0 3.78125l-1.171875 0zm9.974976-1.046875l0.171875 1.03125q-.5.109375-.890625.109375q-.640625 0-1-.203125q-.34375-.203125-.484375-.53125q-.140625-.328125-.140625-1.390625l0-3.96875l-.859375 0l0-.90625l0.859375 0l0-1.71875l1.171875-.703125l0 2.421875l1.171875 0l0 .90625l-1.171875 0l0 4.046875q0 .5.046875.640625q0.0625.140625.203125.234375q0.140625.078125.40625.078125q0.203125 0 .515625-.046875z" fill-rule="nonzero"/><path fill="#000" fill-opacity="0" d="m72 52.0c54 0 108 126 108 252" fill-rule="evenodd"/><path stroke="#000" stroke-width="1" stroke-linejoin="round" stroke-linecap="butt" d="m72 52.0c27 0 54 31.5 74.25 78.75c10.125 23.625 18.5625 51.1875 24.46875 80.71875c2.953125 14.765625 5.2734375 30.023438 6.855484 45.527344c0.79100037 7.751953 1.3974457 15.56543 1.8061371 23.409668c0.20433044 3.9221191.35925293 7.8519287.46307373 11.7855835c0.0259552.98342896.048721313 1.9670715.06825256 2.9508972c0.009780884.49191284.018753052.9838867.026916504 1.4758911l0.020645142 1.382019" fill-rule="evenodd"/><path fill="#000" stroke="#000" stroke-width="1" stroke-linecap="butt" d="m178.30756 298.01135l1.6825104 4.526764l1.6208801-4.5491943z" fill-rule="evenodd"/><path fill="#000" fill-opacity="0" d="m220 264.0c0 12.499908-30.133347 36.39981-54.000015 24.999786c-23.866684-11.399994-41.466698-58.099945-54.000023-110.49989c-12.533333-52.39994-19.999985-110.49989-39.99996-110.49989" fill-rule="evenodd"/><path stroke="#000" stroke-width="1" stroke-linejoin="round" stroke-linecap="butt" stroke-dasharray="4,3" d="m220 264.0c0 12.499908-30.133347 36.39981-54.000015 24.999786c-23.866684-11.399994-41.466698-58.09993-54.000023-110.49989c-6.26667-26.199966-11.266663-53.824944-17.19999-74.89992c-2.9666595-10.537498-6.1666565-19.437485-9.874985-25.70311c-1.8541641-3.1328125-3.8354187-5.607025-5.978119-7.2980423c-.26783752-.21138-.5382004-.41051483-.8111496-.5971756c-.068244934-.046661377-.13663483-.092544556-.2052002-.1376419l-.18900299-.12187195" fill-rule="evenodd"/><path fill="#000" stroke="#000" stroke-width="1" stroke-linecap="butt" d="m78.2211 68.16155l-4.822174.26291656l3.862999 2.8982315z" fill-rule="evenodd"/></g></svg>
