<svg version="1.1" viewBox="0.0 0.0 295.8503937007874 335.0209973753281" fill="none" stroke="none" stroke-linecap="square" stroke-miterlimit="10" xmlns:xlink="http://www.w3.org/1999/xlink" xmlns="http://www.w3.org/2000/svg"><clipPath id="p.0"><path d="m0 0l295.8504 0l0 335.021l-295.8504 0l0 -335.021z" clip-rule="nonzero"/></clipPath><g clip-path="url(#p.0)"><path fill="#000000" fill-opacity="0.0" d="m0 0l295.8504 0l0 335.021l-295.8504 0z" fill-rule="evenodd"/><path fill="#000000" fill-opacity="0.0" d="m16.0 44.00008l0 0c0 -2.2091827 1.7908974 -4.00008 4.00008 -4.00008l47.999844 0c1.0608826 0 2.0783157 0.4214363 2.8284836 1.1715965c0.7501602 0.7501602 1.1715927 1.7675972 1.1715927 2.8284836l0 15.99984c0 2.2091827 -1.7908936 4.00008 -4.0000763 4.00008l-47.999844 0c-2.2091827 0 -4.00008 -1.7908974 -4.00008 -4.00008z" fill-rule="evenodd"/><path fill="#000000" fill-opacity="0.0" d="m16.0 60.00008l0 0c0 -2.2091827 1.7908974 -4.00008 4.00008 -4.00008l47.999844 0c1.0608826 0 2.0783157 0.4214363 2.8284836 1.1715965c0.7501602 0.7501602 1.1715927 1.7675972 1.1715927 2.8284836l0 15.999844c0 2.2091827 -1.7908936 4.0000763 -4.0000763 4.0000763l-47.999844 0c-2.2091827 0 -4.00008 -1.7908936 -4.00008 -4.0000763z" fill-rule="evenodd"/><path fill="#fce5cd" d="m16.0 52.00008l0 0c0 -2.2091827 1.7908974 -4.00008 4.00008 -4.00008l47.999844 0c1.0608826 0 2.0783157 0.4214363 2.8284836 1.1715965c0.7501602 0.7501602 1.1715927 1.7675972 1.1715927 2.8284836l0 15.999844c0 2.2091827 -1.7908936 4.0000763 -4.0000763 4.0000763l-47.999844 0c-2.2091827 0 -4.00008 -1.7908936 -4.00008 -4.0000763z" fill-rule="evenodd"/><path stroke="#000000" stroke-width="1.0" stroke-linejoin="round" stroke-linecap="butt" d="m16.0 52.00008l0 0c0 -2.2091827 1.7908974 -4.00008 4.00008 -4.00008l47.999844 0c1.0608826 0 2.0783157 0.4214363 2.8284836 1.1715965c0.7501602 0.7501602 1.1715927 1.7675972 1.1715927 2.8284836l0 15.999844c0 2.2091827 -1.7908936 4.0000763 -4.0000763 4.0000763l-47.999844 0c-2.2091827 0 -4.00008 -1.7908936 -4.00008 -4.0000763z" fill-rule="evenodd"/><path fill="#000000" d="m30.430763 64.8l0 -6.906254l1.046875 0l0 0.96875q0.328125 -0.515625 0.859375 -0.8125q0.546875 -0.3125 1.234375 -0.3125q0.78125 0 1.265625 0.3125q0.484375 0.3125 0.6875 0.890625q0.828125 -1.203125 2.140625 -1.203125q1.03125 0 1.578125 0.578125q0.5625 0.5625 0.5625 1.734375l0 4.750004l-1.171875 0l0 -4.359379q0 -0.703125 -0.125 -1.0q-0.109375 -0.3125 -0.40625 -0.5q-0.296875 -0.1875 -0.703125 -0.1875q-0.71875 0 -1.203125 0.484375q-0.484375 0.484375 -0.484375 1.546875l0 4.015629l-1.171875 0l0 -4.484379q0 -0.78125 -0.296875 -1.171875q-0.28125 -0.390625 -0.921875 -0.390625q-0.5 0 -0.921875 0.265625q-0.421875 0.25 -0.609375 0.75q-0.1875 0.5 -0.1875 1.453125l0 3.5781288l-1.171875 0zm15.618057 -0.8593788q-0.65625 0.5625038 -1.265625 0.7968788q-0.59375 0.21875 -1.28125 0.21875q-1.140625 0 -1.75 -0.546875q-0.609375 -0.5625038 -0.609375 -1.4375038q0 -0.5 0.21875 -0.921875q0.234375 -0.421875 0.609375 -0.671875q0.375 -0.25 0.84375 -0.390625q0.34375 -0.078125 1.046875 -0.171875q1.421875 -0.171875 2.09375 -0.40625q0 -0.234375 0 -0.296875q0 -0.71875 -0.328125 -1.015625q-0.453125 -0.390625 -1.34375 -0.390625q-0.8125 0 -1.21875 0.296875q-0.390625 0.28125 -0.578125 1.015625l-1.140625 -0.15625q0.15625 -0.734375 0.515625 -1.1875q0.359375 -0.453125 1.03125 -0.6875q0.671875 -0.25 1.5625 -0.25q0.890625 0 1.4375 0.203125q0.5625 0.203125 0.8125 0.53125q0.265625 0.3125 0.375 0.796875q0.046875 0.296875 0.046875 1.078125l0 1.5625q0 1.625 0.078125 2.0625q0.078125 0.4375038 0.296875 0.8281288l-1.21875 0q-0.1875 -0.359375 -0.234375 -0.8593788zm-0.09375 -2.609375q-0.640625 0.265625 -1.921875 0.4375q-0.71875 0.109375 -1.015625 0.25q-0.296875 0.125 -0.46875 0.375q-0.15625 0.25 -0.15625 0.546875q0 0.46875 0.34375 0.78125q0.359375 0.3125038 1.046875 0.3125038q0.671875 0 1.203125 -0.2968788q0.53125 -0.296875 0.78125 -0.8125q0.1875 -0.390625 0.1875 -1.171875l0 -0.421875zm3.0062256 -4.71875l0 -1.359375l1.171875 0l0 1.359375l-1.171875 0zm0 8.187504l0 -6.906254l1.171875 0l0 6.906254l-1.171875 0zm2.945465 0l0 -6.906254l1.0625 0l0 0.984375q0.75 -1.140625 2.1875 -1.140625q0.625 0 1.15625 0.21875q0.53125 0.21875 0.78125 0.59375q0.265625 0.359375 0.375 0.859375q0.0625 0.328125 0.0625 1.140625l0 4.250004l-1.171875 0l0 -4.203129q0 -0.71875 -0.140625 -1.0625q-0.140625 -0.359375 -0.484375 -0.5625q-0.34375 -0.21875 -0.8125 -0.21875q-0.75 0 -1.296875 0.46875q-0.546875 0.46875 -0.546875 1.796875l0 3.7812538l-1.171875 0z" fill-rule="nonzero"/><path fill="#fce5cd" d="m152.0 52.00008l0 0c0 -2.2091827 1.7908936 -4.00008 4.0000763 -4.00008l47.999847 0c1.0608826 0 2.0783234 0.4214363 2.828476 1.1715965c0.75016785 0.7501602 1.1716003 1.7675972 1.1716003 2.8284836l0 15.999844c0 2.2091827 -1.7908936 4.0000763 -4.0000763 4.0000763l-47.999847 0c-2.2091827 0 -4.0000763 -1.7908936 -4.0000763 -4.0000763z" fill-rule="evenodd"/><path stroke="#000000" stroke-width="1.0" stroke-linejoin="round" stroke-linecap="butt" d="m152.0 52.00008l0 0c0 -2.2091827 1.7908936 -4.00008 4.0000763 -4.00008l47.999847 0c1.0608826 0 2.0783234 0.4214363 2.828476 1.1715965c0.75016785 0.7501602 1.1716003 1.7675972 1.1716003 2.8284836l0 15.999844c0 2.2091827 -1.7908936 4.0000763 -4.0000763 4.0000763l-47.999847 0c-2.2091827 0 -4.0000763 -1.7908936 -4.0000763 -4.0000763z" fill-rule="evenodd"/><path fill="#000000" d="m166.43988 56.6125l0 -1.359375l1.171875 0l0 1.359375l-1.171875 0zm0 8.187504l0 -6.906254l1.171875 0l0 6.906254l-1.171875 0zm2.945465 0l0 -6.906254l1.0625 0l0 0.984375q0.75 -1.140625 2.1875 -1.140625q0.625 0 1.15625 0.21875q0.53125 0.21875 0.78125 0.59375q0.265625 0.359375 0.375 0.859375q0.0625 0.328125 0.0625 1.140625l0 4.250004l-1.171875 0l0 -4.203129q0 -0.71875 -0.140625 -1.0625q-0.140625 -0.359375 -0.484375 -0.5625q-0.34375 -0.21875 -0.8125 -0.21875q-0.75 0 -1.296875 0.46875q-0.546875 0.46875 -0.546875 1.796875l0 3.7812538l-1.171875 0zm7.4124756 2.65625l0 -9.562504l1.078125 0l0 0.890625q0.375 -0.53125 0.84375 -0.78125q0.484375 -0.265625 1.15625 -0.265625q0.875 0 1.546875 0.453125q0.6875 0.453125 1.03125 1.28125q0.34375 0.828125 0.34375 1.828125q0 1.046875 -0.375 1.90625q-0.375 0.8437538 -1.109375 1.2968788q-0.71875 0.453125 -1.53125 0.453125q-0.578125 0 -1.046875 -0.25q-0.46875 -0.25 -0.765625 -0.625l0 3.375l-1.171875 0zm1.0625 -6.078129q0 1.34375 0.53125 1.984375q0.546875 0.625 1.3125 0.625q0.78125 0 1.34375 -0.65625q0.5625 -0.65625 0.5625 -2.046875q0 -1.3125 -0.546875 -1.96875q-0.546875 -0.671875 -1.296875 -0.671875q-0.75 0 -1.328125 0.703125q-0.578125 0.703125 -0.578125 2.03125zm10.88121 3.4218788l0 -1.0156288q-0.8125 1.1718788 -2.1875 1.1718788q-0.609375 0 -1.140625 -0.234375q-0.53123474 -0.234375 -0.79685974 -0.578125q-0.25 -0.3593788 -0.359375 -0.8750038q-0.0625 -0.34375 -0.0625 -1.09375l0 -4.28125l1.1718597 0l0 3.828125q0 0.921875 0.0625 1.234375q0.109375 0.46875 0.46875 0.734375q0.359375 0.25 0.890625 0.25q0.515625 0 0.984375 -0.265625q0.46875 -0.265625 0.65625 -0.734375q0.1875 -0.46875 0.1875 -1.34375l0 -3.703125l1.171875 0l0 6.906254l-1.046875 0zm5.4437256 -1.0468788l0.171875 1.0312538q-0.5 0.109375 -0.890625 0.109375q-0.640625 0 -1.0 -0.203125q-0.34375 -0.203125 -0.484375 -0.53125q-0.140625 -0.3281288 -0.140625 -1.3906288l0 -3.96875l-0.859375 0l0 -0.90625l0.859375 0l0 -1.71875l1.171875 -0.703125l0 2.421875l1.171875 0l0 0.90625l-1.171875 0l0 4.046875q0 0.5 0.046875 0.640625q0.0625 0.140625 0.203125 0.234375q0.140625 0.078125 0.40625 0.078125q0.203125 0 0.515625 -0.046875z" fill-rule="nonzero"/><path fill="#fce5cd" d="m152.0 116.00008l0 0c0 -2.2091827 1.7908936 -4.0000763 4.0000763 -4.0000763l47.999847 0c1.0608826 0 2.0783234 0.4214325 2.828476 1.1715927c0.75016785 0.75016785 1.1716003 1.767601 1.1716003 2.8284836l0 15.999847c0 2.2091827 -1.7908936 4.0000763 -4.0000763 4.0000763l-47.999847 0c-2.2091827 0 -4.0000763 -1.7908936 -4.0000763 -4.0000763z" fill-rule="evenodd"/><path stroke="#000000" stroke-width="1.0" stroke-linejoin="round" stroke-linecap="butt" d="m152.0 116.00008l0 0c0 -2.2091827 1.7908936 -4.0000763 4.0000763 -4.0000763l47.999847 0c1.0608826 0 2.0783234 0.4214325 2.828476 1.1715927c0.75016785 0.75016785 1.1716003 1.767601 1.1716003 2.8284836l0 15.999847c0 2.2091827 -1.7908936 4.0000763 -4.0000763 4.0000763l-47.999847 0c-2.2091827 0 -4.0000763 -1.7908936 -4.0000763 -4.0000763z" fill-rule="evenodd"/><path fill="#000000" d="m168.56024 128.8l0 -6.0l-1.03125 0l0 -0.90625l1.03125 0l0 -0.734375q0 -0.703125 0.125 -1.046875q0.171875 -0.453125 0.59375 -0.734375q0.421875 -0.28125 1.203125 -0.28125q0.484375 0 1.09375 0.109375l-0.1875 1.03125q-0.359375 -0.0625 -0.6875 -0.0625q-0.53125 0 -0.75 0.234375q-0.21875 0.21875 -0.21875 0.84375l0 0.640625l1.34375 0l0 0.90625l-1.34375 0l0 6.0l-1.171875 0zm3.4061127 0l0 -9.546875l1.171875 0l0 9.546875l-1.171875 0zm2.539215 -3.453125q0 -1.921875 1.078125 -2.84375q0.890625 -0.765625 2.171875 -0.765625q1.421875 0 2.328125 0.9375q0.90625 0.921875 0.90625 2.578125q0 1.328125 -0.40625 2.09375q-0.390625 0.765625 -1.15625 1.1875q-0.765625 0.421875 -1.671875 0.421875q-1.453125 0 -2.359375 -0.921875q-0.890625 -0.9375 -0.890625 -2.6875zm1.203125 0q0 1.328125 0.578125 1.984375q0.59375 0.65625 1.46875 0.65625q0.875 0 1.453125 -0.65625q0.578125 -0.671875 0.578125 -2.03125q0 -1.28125 -0.59375 -1.9375q-0.578125 -0.65625 -1.4375 -0.65625q-0.875 0 -1.46875 0.65625q-0.578125 0.65625 -0.578125 1.984375zm11.162476 2.59375q-0.65625 0.5625 -1.265625 0.796875q-0.59375 0.21875 -1.28125 0.21875q-1.140625 0 -1.75 -0.546875q-0.609375 -0.5625 -0.609375 -1.4375q0 -0.5 0.21875 -0.921875q0.234375 -0.421875 0.609375 -0.671875q0.375 -0.25 0.84375 -0.390625q0.34375 -0.078125 1.046875 -0.171875q1.421875 -0.171875 2.09375 -0.40625q0 -0.234375 0 -0.296875q0 -0.71875 -0.328125 -1.015625q-0.453125 -0.390625 -1.34375 -0.390625q-0.8125 0 -1.21875 0.296875q-0.390625 0.28125 -0.578125 1.015625l-1.140625 -0.15625q0.15625 -0.734375 0.515625 -1.1875q0.359375 -0.453125 1.03125 -0.6875q0.671875 -0.25 1.5625 -0.25q0.890625 0 1.4375 0.203125q0.5625 0.203125 0.8125 0.53125q0.265625 0.3125 0.375 0.796875q0.046875 0.296875 0.046875 1.078125l0 1.5625q0 1.625 0.078125 2.0625q0.078125 0.4375 0.296875 0.828125l-1.21875 0q-0.1875 -0.359375 -0.234375 -0.859375zm-0.09375 -2.609375q-0.640625 0.265625 -1.921875 0.4375q-0.71875 0.109375 -1.015625 0.25q-0.296875 0.125 -0.46875 0.375q-0.15625 0.25 -0.15625 0.546875q0 0.46875 0.34375 0.78125q0.359375 0.3125 1.046875 0.3125q0.671875 0 1.203125 -0.296875q0.53125 -0.296875 0.78125 -0.8125q0.1875 -0.390625 0.1875 -1.171875l0 -0.421875zm5.5531006 2.421875l0.171875 1.03125q-0.5 0.109375 -0.890625 0.109375q-0.640625 0 -1.0 -0.203125q-0.34375 -0.203125 -0.484375 -0.53125q-0.140625 -0.328125 -0.140625 -1.390625l0 -3.96875l-0.859375 0l0 -0.90625l0.859375 0l0 -1.71875l1.171875 -0.703125l0 2.421875l1.171875 0l0 0.90625l-1.171875 0l0 4.046875q0 0.5 0.046875 0.640625q0.0625 0.140625 0.203125 0.234375q0.140625 0.078125 0.40625 0.078125q0.203125 0 0.515625 -0.046875z" fill-rule="nonzero"/><path fill="#fce5cd" d="m152.0 180.00008l0 0c0 -2.2091827 1.7908936 -4.0000763 4.0000763 -4.0000763l119.99983 0c1.0609131 0 2.0783386 0.4214325 2.8284912 1.1716003c0.7501526 0.7501526 1.1716003 1.7675934 1.1716003 2.828476l0 15.999847c0 2.2091827 -1.7908936 4.0000763 -4.0000916 4.0000763l-119.99983 0l0 0c-2.2091827 0 -4.0000763 -1.7908936 -4.0000763 -4.0000763z" fill-rule="evenodd"/><path stroke="#000000" stroke-width="1.0" stroke-linejoin="round" stroke-linecap="butt" d="m152.0 180.00008l0 0c0 -2.2091827 1.7908936 -4.0000763 4.0000763 -4.0000763l119.99983 0c1.0609131 0 2.0783386 0.4214325 2.8284912 1.1716003c0.7501526 0.7501526 1.1716003 1.7675934 1.1716003 2.828476l0 15.999847c0 2.2091827 -1.7908936 4.0000763 -4.0000916 4.0000763l-119.99983 0l0 0c-2.2091827 0 -4.0000763 -1.7908936 -4.0000763 -4.0000763z" fill-rule="evenodd"/><path fill="#000000" d="m166.49425 192.8l0 -6.90625l1.046875 0l0 0.96875q0.328125 -0.515625 0.859375 -0.8125q0.546875 -0.3125 1.234375 -0.3125q0.78125 0 1.265625 0.3125q0.484375 0.3125 0.6875 0.890625q0.828125 -1.203125 2.140625 -1.203125q1.03125 0 1.578125 0.578125q0.5625 0.5625 0.5625 1.734375l0 4.75l-1.171875 0l0 -4.359375q0 -0.703125 -0.125 -1.0q-0.109375 -0.3125 -0.40625 -0.5q-0.296875 -0.1875 -0.703125 -0.1875q-0.71875 0 -1.203125 0.484375q-0.484375 0.484375 -0.484375 1.546875l0 4.015625l-1.171875 0l0 -4.484375q0 -0.78125 -0.296875 -1.171875q-0.28125 -0.390625 -0.921875 -0.390625q-0.5 0 -0.921875 0.265625q-0.421875 0.25 -0.609375 0.75q-0.1875 0.5 -0.1875 1.453125l0 3.578125l-1.171875 0zm11.118057 -8.1875l0 -1.359375l1.171875 0l0 1.359375l-1.171875 0zm0 8.1875l0 -6.90625l1.171875 0l0 6.90625l-1.171875 0zm2.92984 0l0 -9.546875l1.171875 0l0 9.546875l-1.171875 0zm7.71109 -2.21875l1.203125 0.140625q-0.28125 1.0625 -1.0625 1.65625q-0.765625 0.578125 -1.96875 0.578125q-1.515625 0 -2.40625 -0.9375q-0.890625 -0.9375 -0.890625 -2.609375q0 -1.75 0.890625 -2.703125q0.90625 -0.96875 2.34375 -0.96875q1.390625 0 2.265625 0.9375q0.875 0.9375 0.875 2.65625q0 0.109375 0 0.3125l-5.15625 0q0.0625 1.140625 0.640625 1.75q0.578125 0.59375 1.4375 0.59375q0.65625 0 1.109375 -0.328125q0.453125 -0.34375 0.71875 -1.078125zm-3.84375 -1.90625l3.859375 0q-0.078125 -0.859375 -0.4375 -1.296875q-0.5625 -0.6875 -1.453125 -0.6875q-0.8125 0 -1.359375 0.546875q-0.546875 0.53125 -0.609375 1.4375zm6.0531006 2.0625l1.15625 -0.1875q0.109375 0.703125 0.546875 1.078125q0.453125 0.359375 1.25 0.359375q0.8125 0 1.203125 -0.328125q0.390625 -0.328125 0.390625 -0.765625q0 -0.390625 -0.359375 -0.625q-0.234375 -0.15625 -1.1875 -0.390625q-1.296875 -0.328125 -1.796875 -0.5625q-0.484375 -0.25 -0.75 -0.65625q-0.25 -0.421875 -0.25 -0.9375q0 -0.453125 0.203125 -0.84375q0.21875 -0.40625 0.578125 -0.671875q0.28125 -0.1875 0.75 -0.328125q0.46875 -0.140625 1.015625 -0.140625q0.8125 0 1.421875 0.234375q0.609375 0.234375 0.90625 0.640625q0.296875 0.390625 0.40625 1.0625l-1.140625 0.15625q-0.078125 -0.53125 -0.453125 -0.828125q-0.375 -0.3125 -1.0625 -0.3125q-0.8125 0 -1.15625 0.265625q-0.34375 0.265625 -0.34375 0.625q0 0.234375 0.140625 0.421875q0.15625 0.1875 0.453125 0.3125q0.171875 0.0625 1.03125 0.296875q1.25 0.328125 1.734375 0.546875q0.5 0.203125 0.78125 0.609375q0.28125 0.40625 0.28125 1.0q0 0.59375 -0.34375 1.109375q-0.34375 0.515625 -1.0 0.796875q-0.640625 0.28125 -1.453125 0.28125q-1.34375 0 -2.046875 -0.5625q-0.703125 -0.5625 -0.90625 -1.65625zm6.0546875 4.71875l0 -0.859375l7.765625 0l0 0.859375l-7.765625 0zm8.490601 0l0 -9.5625l1.078125 0l0 0.890625q0.375 -0.53125 0.84375 -0.78125q0.484375 -0.265625 1.15625 -0.265625q0.875 0 1.546875 0.453125q0.6875 0.453125 1.03125 1.28125q0.34375 0.828125 0.34375 1.828125q0 1.046875 -0.375 1.90625q-0.375 0.84375 -1.109375 1.296875q-0.71875 0.453125 -1.53125 0.453125q-0.578125 0 -1.046875 -0.25q-0.46875 -0.25 -0.765625 -0.625l0 3.375l-1.171875 0zm1.0625 -6.078125q0 1.34375 0.53125 1.984375q0.546875 0.625 1.3125 0.625q0.78125 0 1.34375 -0.65625q0.5625 -0.65625 0.5625 -2.046875q0 -1.3125 -0.546875 -1.96875q-0.546875 -0.671875 -1.296875 -0.671875q-0.75 0 -1.328125 0.703125q-0.578125 0.703125 -0.578125 2.03125zm11.084351 1.203125l1.203125 0.140625q-0.28125 1.0625 -1.0625 1.65625q-0.765625 0.578125 -1.96875 0.578125q-1.515625 0 -2.40625 -0.9375q-0.890625 -0.9375 -0.890625 -2.609375q0 -1.75 0.890625 -2.703125q0.90625 -0.96875 2.34375 -0.96875q1.390625 0 2.265625 0.9375q0.875 0.9375 0.875 2.65625q0 0.109375 0 0.3125l-5.15625 0q0.0625 1.140625 0.640625 1.75q0.578125 0.59375 1.4375 0.59375q0.65625 0 1.109375 -0.328125q0.453125 -0.34375 0.71875 -1.078125zm-3.84375 -1.90625l3.859375 0q-0.078125 -0.859375 -0.4375 -1.296875q-0.5625 -0.6875 -1.453125 -0.6875q-0.8125 0 -1.359375 0.546875q-0.546875 0.53125 -0.609375 1.4375zm6.5062256 4.125l0 -6.90625l1.0625 0l0 1.046875q0.40625 -0.734375 0.734375 -0.96875q0.34375 -0.234375 0.765625 -0.234375q0.59375 0 1.203125 0.375l-0.40625 1.078125q-0.4375 -0.25 -0.859375 -0.25q-0.390625 0 -0.703125 0.234375q-0.296875 0.234375 -0.421875 0.640625q-0.203125 0.625 -0.203125 1.359375l0 3.625l-1.171875 0zm3.3758698 2.65625l0 -0.859375l7.765625 0l0 0.859375l-7.765625 0zm8.271851 -2.078125l1.140625 0.15625q0.078125 0.53125 0.40625 0.78125q0.4375 0.3125 1.1875 0.3125q0.8125 0 1.25 -0.328125q0.453125 -0.3125 0.609375 -0.90625q0.09375 -0.359375 0.078125 -1.5q-0.765625 0.90625 -1.90625 0.90625q-1.4375 0 -2.21875 -1.03125q-0.78125 -1.03125 -0.78125 -2.46875q0 -0.984375 0.359375 -1.8125q0.359375 -0.84375 1.03125 -1.296875q0.6875 -0.453125 1.609375 -0.453125q1.21875 0 2.015625 0.984375l0 -0.828125l1.078125 0l0 5.96875q0 1.609375 -0.328125 2.28125q-0.328125 0.6875 -1.046875 1.078125q-0.703125 0.390625 -1.75 0.390625q-1.234375 0 -2.0 -0.5625q-0.75 -0.5625 -0.734375 -1.671875zm0.984375 -4.15625q0 1.359375 0.53125 1.984375q0.546875 0.625 1.359375 0.625q0.796875 0 1.34375 -0.625q0.546875 -0.625 0.546875 -1.953125q0 -1.265625 -0.5625 -1.90625q-0.5625 -0.640625 -1.359375 -0.640625q-0.765625 0 -1.3125 0.640625q-0.546875 0.625 -0.546875 1.875zm11.162476 2.71875q-0.65625 0.5625 -1.265625 0.796875q-0.59375 0.21875 -1.28125 0.21875q-1.140625 0 -1.75 -0.546875q-0.609375 -0.5625 -0.609375 -1.4375q0 -0.5 0.21875 -0.921875q0.234375 -0.421875 0.609375 -0.671875q0.375 -0.25 0.84375 -0.390625q0.34375 -0.078125 1.046875 -0.171875q1.421875 -0.171875 2.09375 -0.40625q0 -0.234375 0 -0.296875q0 -0.71875 -0.328125 -1.015625q-0.453125 -0.390625 -1.34375 -0.390625q-0.8125 0 -1.21875 0.296875q-0.390625 0.28125 -0.578125 1.015625l-1.140625 -0.15625q0.15625 -0.734375 0.515625 -1.1875q0.359375 -0.453125 1.03125 -0.6875q0.671875 -0.25 1.5625 -0.25q0.890625 0 1.4375 0.203125q0.5625 0.203125 0.8125 0.53125q0.265625 0.3125 0.375 0.796875q0.046875 0.296875 0.046875 1.078125l0 1.5625q0 1.625 0.078125 2.0625q0.078125 0.4375 0.296875 0.828125l-1.21875 0q-0.1875 -0.359375 -0.234375 -0.859375zm-0.09375 -2.609375q-0.640625 0.265625 -1.921875 0.4375q-0.71875 0.109375 -1.015625 0.25q-0.296875 0.125 -0.46875 0.375q-0.15625 0.25 -0.15625 0.546875q0 0.46875 0.34375 0.78125q0.359375 0.3125 1.046875 0.3125q0.671875 0 1.203125 -0.296875q0.53125 -0.296875 0.78125 -0.8125q0.1875 -0.390625 0.1875 -1.171875l0 -0.421875zm2.9749756 3.46875l0 -9.546875l1.171875 0l0 9.546875l-1.171875 0zm2.96109 0l0 -9.546875l1.171875 0l0 9.546875l-1.171875 0zm2.539215 -3.453125q0 -1.921875 1.078125 -2.84375q0.890625 -0.765625 2.171875 -0.765625q1.4218597 0 2.3281097 0.9375q0.90625 0.921875 0.90625 2.578125q0 1.328125 -0.40625 2.09375q-0.390625 0.765625 -1.15625 1.1875q-0.765625 0.421875 -1.6718597 0.421875q-1.453125 0 -2.359375 -0.921875q-0.890625 -0.9375 -0.890625 -2.6875zm1.203125 0q0 1.328125 0.578125 1.984375q0.59375 0.65625 1.46875 0.65625q0.87498474 0 1.4531097 -0.65625q0.578125 -0.671875 0.578125 -2.03125q0 -1.28125 -0.59375 -1.9375q-0.578125 -0.65625 -1.4374847 -0.65625q-0.875 0 -1.46875 0.65625q-0.578125 0.65625 -0.578125 1.984375zm6.6468353 3.453125l0 -6.90625l1.0625 0l0 0.984375q0.75 -1.140625 2.1875 -1.140625q0.625 0 1.15625 0.21875q0.53125 0.21875 0.78125 0.59375q0.265625 0.359375 0.375 0.859375q0.0625 0.328125 0.0625 1.140625l0 4.25l-1.171875 0l0 -4.203125q0 -0.71875 -0.140625 -1.0625q-0.140625 -0.359375 -0.484375 -0.5625q-0.34375 -0.21875 -0.8125 -0.21875q-0.75 0 -1.296875 0.46875q-0.546875 0.46875 -0.546875 1.796875l0 3.78125l-1.171875 0z" fill-rule="nonzero"/><path fill="#fce5cd" d="m152.0 244.00008l0 0c0 -2.2091827 1.7908936 -4.0000763 4.0000763 -4.0000763l127.99983 0c1.0609131 0 2.0783386 0.4214325 2.8284912 1.1716003c0.7501526 0.7501526 1.1716003 1.7675934 1.1716003 2.828476l0 15.999832c0 2.209198 -1.7908936 4.0000916 -4.0000916 4.0000916l-127.99983 0c-2.2091827 0 -4.0000763 -1.7908936 -4.0000763 -4.0000916z" fill-rule="evenodd"/><path stroke="#000000" stroke-width="1.0" stroke-linejoin="round" stroke-linecap="butt" d="m152.0 244.00008l0 0c0 -2.2091827 1.7908936 -4.0000763 4.0000763 -4.0000763l127.99983 0c1.0609131 0 2.0783386 0.4214325 2.8284912 1.1716003c0.7501526 0.7501526 1.1716003 1.7675934 1.1716003 2.828476l0 15.999832c0 2.209198 -1.7908936 4.0000916 -4.0000916 4.0000916l-127.99983 0c-2.2091827 0 -4.0000763 -1.7908936 -4.0000763 -4.0000916z" fill-rule="evenodd"/><path fill="#000000" d="m167.51755 256.8l0 -9.54686l1.171875 0l0 9.54686l-1.171875 0zm2.976715 2.65625l0 -9.562485l1.078125 0l0 0.890625q0.375 -0.53125 0.84375 -0.78125q0.484375 -0.265625 1.15625 -0.265625q0.875 0 1.546875 0.453125q0.6875 0.453125 1.03125 1.28125q0.34375 0.828125 0.34375 1.828125q0 1.046875 -0.375 1.90625q-0.375 0.84373474 -1.109375 1.2968597q-0.71875 0.453125 -1.53125 0.453125q-0.578125 0 -1.046875 -0.25q-0.46875 -0.25 -0.765625 -0.625l0 3.375l-1.171875 0zm1.0625 -6.0781097q0 1.34375 0.53125 1.984375q0.546875 0.625 1.3125 0.625q0.78125 0 1.34375 -0.65625q0.5625 -0.65625 0.5625 -2.046875q0 -1.3125 -0.546875 -1.96875q-0.546875 -0.671875 -1.296875 -0.671875q-0.75 0 -1.328125 0.703125q-0.578125 0.703125 -0.578125 2.03125zm10.443726 3.4218597l-1.171875 0l0 -7.4687347q-0.421875 0.40625 -1.109375 0.8125q-0.6875 0.40625 -1.234375 0.609375l0 -1.140625q0.984375 -0.453125 1.71875 -1.109375q0.734375 -0.671875 1.03125 -1.28125l0.765625 0l0 9.57811zm2.9906006 -4.7031097q0 -1.6875 0.34375 -2.71875q0.359375 -1.03125 1.046875 -1.59375q0.6875 -0.5625 1.71875 -0.5625q0.78125 0 1.359375 0.3125q0.578125 0.296875 0.953125 0.890625q0.375 0.578125 0.59375 1.421875q0.21875 0.828125 0.21875 2.25q0 1.671875 -0.359375 2.703125q-0.34375 1.03125 -1.03125 1.5937347q-0.671875 0.5625 -1.734375 0.5625q-1.375 0 -2.15625 -0.98435974q-0.953125 -1.1875 -0.953125 -3.875zm1.203125 0q0 2.34375 0.546875 3.125q0.5625 0.78123474 1.359375 0.78123474q0.8125 0 1.359375 -0.78123474q0.5625 -0.78125 0.5625 -3.125q0 -2.359375 -0.5625 -3.125q-0.546875 -0.78125 -1.359375 -0.78125q-0.8125 0 -1.296875 0.6875q-0.609375 0.875 -0.609375 3.21875zm6.2093506 0q0 -1.6875 0.34375 -2.71875q0.359375 -1.03125 1.046875 -1.59375q0.6875 -0.5625 1.71875 -0.5625q0.78125 0 1.359375 0.3125q0.578125 0.296875 0.953125 0.890625q0.375 0.578125 0.59375 1.421875q0.21875 0.828125 0.21875 2.25q0 1.671875 -0.359375 2.703125q-0.34375 1.03125 -1.03125 1.5937347q-0.671875 0.5625 -1.734375 0.5625q-1.375 0 -2.15625 -0.98435974q-0.953125 -1.1875 -0.953125 -3.875zm1.203125 0q0 2.34375 0.546875 3.125q0.5625 0.78123474 1.359375 0.78123474q0.8125 0 1.359375 -0.78123474q0.5625 -0.78125 0.5625 -3.125q0 -2.359375 -0.5625 -3.125q-0.546875 -0.78125 -1.359375 -0.78125q-0.8125 0 -1.296875 0.6875q-0.609375 0.875 -0.609375 3.21875zm6.5531006 4.7031097l0 -9.54686l1.171875 0l0 5.453125l2.765625 -2.8125l1.515625 0l-2.640625 2.5625l2.90625 4.3437347l-1.4375 0l-2.28125 -3.5312347l-0.828125 0.796875l0 2.7343597l-1.171875 0zm5.5703125 2.65625l0 -0.859375l7.765625 0l0 0.859375l-7.765625 0zm8.771851 -2.65625l0 -5.9999847l-1.03125 0l0 -0.90625l1.03125 0l0 -0.734375q0 -0.703125 0.125 -1.046875q0.171875 -0.453125 0.59375 -0.734375q0.421875 -0.28125 1.203125 -0.28125q0.484375 0 1.09375 0.109375l-0.1875 1.03125q-0.359375 -0.0625 -0.6875 -0.0625q-0.53125 0 -0.75 0.234375q-0.21875 0.21875 -0.21875 0.84375l0 0.640625l1.34375 0l0 0.90625l-1.34375 0l0 5.9999847l-1.171875 0zm3.4061127 0l0 -6.9062347l1.0625 0l0 1.046875q0.40625 -0.734375 0.734375 -0.96875q0.34375 -0.234375 0.765625 -0.234375q0.59375 0 1.203125 0.375l-0.40625 1.078125q-0.4375 -0.25 -0.859375 -0.25q-0.390625 0 -0.703125 0.234375q-0.296875 0.234375 -0.421875 0.640625q-0.203125 0.625 -0.203125 1.359375l0 3.6249847l-1.171875 0zm4.0164948 -3.4531097q0 -1.921875 1.078125 -2.84375q0.890625 -0.765625 2.171875 -0.765625q1.421875 0 2.328125 0.9375q0.90625 0.921875 0.90625 2.578125q0 1.328125 -0.40625 2.09375q-0.390625 0.76560974 -1.15625 1.1874847q-0.765625 0.421875 -1.671875 0.421875q-1.453125 0 -2.359375 -0.921875q-0.890625 -0.93748474 -0.890625 -2.6874847zm1.203125 0q0 1.328125 0.578125 1.984375q0.59375 0.65625 1.46875 0.65625q0.875 0 1.453125 -0.65625q0.578125 -0.671875 0.578125 -2.03125q0 -1.28125 -0.59375 -1.9375q-0.578125 -0.65625 -1.4375 -0.65625q-0.875 0 -1.46875 0.65625q-0.578125 0.65625 -0.578125 1.984375zm6.6468506 3.4531097l0 -6.9062347l1.046875 0l0 0.96875q0.328125 -0.515625 0.859375 -0.8125q0.546875 -0.3125 1.234375 -0.3125q0.78125 0 1.265625 0.3125q0.484375 0.3125 0.6875 0.890625q0.828125 -1.203125 2.140625 -1.203125q1.03125 0 1.578125 0.578125q0.5625 0.5625 0.5625 1.734375l0 4.7499847l-1.171875 0l0 -4.3593597q0 -0.703125 -0.125 -1.0q-0.109375 -0.3125 -0.40625 -0.5q-0.296875 -0.1875 -0.703125 -0.1875q-0.71875 0 -1.203125 0.484375q-0.484375 0.484375 -0.484375 1.546875l0 4.0156097l-1.171875 0l0 -4.4843597q0 -0.78125 -0.296875 -1.171875q-0.28125 -0.390625 -0.921875 -0.390625q-0.5 0 -0.921875 0.265625q-0.421875 0.25 -0.609375 0.75q-0.1875 0.5 -0.1875 1.453125l0 3.5781097l-1.171875 0zm10.024307 2.65625l0 -0.859375l7.765625 0l0 0.859375l-7.765625 0zm8.490601 -2.65625l0 -6.9062347l1.046875 0l0 0.96875q0.328125 -0.515625 0.859375 -0.8125q0.546875 -0.3125 1.234375 -0.3125q0.78125 0 1.265625 0.3125q0.484375 0.3125 0.6875 0.890625q0.828125 -1.203125 2.140625 -1.203125q1.0312347 0 1.5781097 0.578125q0.5625 0.5625 0.5625 1.734375l0 4.7499847l-1.171875 0l0 -4.3593597q0 -0.703125 -0.125 -1.0q-0.109375 -0.3125 -0.40623474 -0.5q-0.296875 -0.1875 -0.703125 -0.1875q-0.71875 0 -1.203125 0.484375q-0.484375 0.484375 -0.484375 1.546875l0 4.0156097l-1.171875 0l0 -4.4843597q0 -0.78125 -0.296875 -1.171875q-0.28125 -0.390625 -0.921875 -0.390625q-0.5 0 -0.921875 0.265625q-0.421875 0.25 -0.609375 0.75q-0.1875 0.5 -0.1875 1.453125l0 3.5781097l-1.171875 0zm11.102432 2.65625l0 -9.562485l1.078125 0l0 0.890625q0.375 -0.53125 0.84375 -0.78125q0.484375 -0.265625 1.15625 -0.265625q0.875 0 1.546875 0.453125q0.6875 0.453125 1.03125 1.28125q0.34375 0.828125 0.34375 1.828125q0 1.046875 -0.375 1.90625q-0.375 0.84373474 -1.109375 1.2968597q-0.71875 0.453125 -1.53125 0.453125q-0.578125 0 -1.046875 -0.25q-0.46875 -0.25 -0.765625 -0.625l0 3.375l-1.171875 0zm1.0625 -6.0781097q0 1.34375 0.53125 1.984375q0.546875 0.625 1.3125 0.625q0.78125 0 1.34375 -0.65625q0.5625 -0.65625 0.5625 -2.046875q0 -1.3125 -0.546875 -1.96875q-0.546875 -0.671875 -1.296875 -0.671875q-0.75 0 -1.328125 0.703125q-0.578125 0.703125 -0.578125 2.03125zm6.1312256 3.9999847l1.140625 0.15625q0.078125 0.53125 0.40625 0.78125q0.4375 0.3125 1.1875 0.3125q0.8125 0 1.25 -0.328125q0.453125 -0.3125 0.609375 -0.90625q0.09375 -0.359375 0.078125 -1.4999847q-0.765625 0.90623474 -1.90625 0.90623474q-1.4375 0 -2.21875 -1.0312347q-0.78125 -1.03125 -0.78125 -2.46875q0 -0.984375 0.359375 -1.8125q0.359375 -0.84375 1.03125 -1.296875q0.6875 -0.453125 1.609375 -0.453125q1.21875 0 2.015625 0.984375l0 -0.828125l1.078125 0l0 5.96875q0 1.6093597 -0.328125 2.2812347q-0.328125 0.6875 -1.046875 1.078125q-0.703125 0.390625 -1.75 0.390625q-1.234375 0 -2.0 -0.5625q-0.75 -0.5625 -0.734375 -1.671875zm0.984375 -4.1562347q0 1.359375 0.53125 1.984375q0.546875 0.625 1.359375 0.625q0.796875 0 1.34375 -0.625q0.546875 -0.625 0.546875 -1.953125q0 -1.265625 -0.5625 -1.90625q-0.5625 -0.640625 -1.359375 -0.640625q-0.765625 0 -1.3125 0.640625q-0.546875 0.625 -0.546875 1.875z" fill-rule="nonzero"/><path fill="#000000" fill-opacity="0.0" d="m72.0 52.0c19.999977 0 30.133293 -6.9000015 39.99996 -14.5c9.866661 -7.6000004 19.466667 -15.9 34.000023 -14.5c14.53334 1.3999996 34.000015 12.5 34.000015 25.0" fill-rule="evenodd"/><path stroke="#000000" stroke-width="1.0" stroke-linejoin="round" stroke-linecap="butt" d="m72.0 52.0c19.999977 0 30.133293 -6.9000015 39.99996 -14.5c9.866661 -7.5999985 19.466682 -15.900002 34.000023 -14.5c7.2666626 0.70000076 15.766663 3.8250008 22.449997 8.337502c3.34169 2.2562485 6.2291718 4.859375 8.2812805 7.6796875c0.51301575 0.7050781 0.9738159 1.423729 1.3764496 2.1539307c0.10066223 0.18254852 0.19769287 0.36582184 0.29096985 0.5497818c0.04664612 0.09197998 0.09237671 0.18413544 0.137146 0.27645493l0.07814026 0.16492844" fill-rule="evenodd"/><path fill="#000000" stroke="#000000" stroke-width="1.0" stroke-linecap="butt" d="m177.00691 42.543842l2.6553802 4.0337944l0.5587311 -4.7969093z" fill-rule="evenodd"/><path fill="#000000" fill-opacity="0.0" d="m180.0 72.0c0 12.5 -19.466675 23.599998 -34.000015 25.0c-14.533356 1.4000015 -24.133362 -6.9000015 -34.000023 -14.5c-9.866669 -7.5999985 -19.999985 -14.5 -39.99996 -14.5" fill-rule="evenodd"/><path stroke="#000000" stroke-width="1.0" stroke-linejoin="round" stroke-linecap="butt" stroke-dasharray="4.0,3.0" d="m180.0 72.0c0 12.5 -19.466675 23.600006 -34.000015 25.0c-14.53334 1.3999939 -24.133362 -6.899994 -34.000023 -14.5c-4.933342 -3.800003 -9.933327 -7.425003 -16.19999 -10.099998c-3.1333237 -1.3375015 -6.5833206 -2.4375 -10.499985 -3.203125c-1.9583359 -0.3828125 -4.033333 -0.6820297 -6.243744 -0.88555145c-0.27629852 -0.025436401 -0.554718 -0.04937744 -0.835289 -0.07180023l-0.22509766 -0.01663971" fill-rule="evenodd"/><path fill="#000000" stroke="#000000" stroke-width="1.0" stroke-linecap="butt" d="m78.05721 66.57229l-4.596321 1.4820175l4.47361 1.8191681z" fill-rule="evenodd"/><path fill="#000000" fill-opacity="0.0" d="m72.0 52.0c54.0 0 108.0 30.0 108.0 60.0" fill-rule="evenodd"/><path stroke="#000000" stroke-width="1.0" stroke-linejoin="round" stroke-linecap="butt" d="m72.0 52.0c27.0 0 54.0 7.5 74.25 18.75c10.125 5.625 18.5625 12.1875 24.46875 19.21875c2.953125 3.515625 5.2734375 7.1484375 6.855484 10.839844c0.3955078 0.92285156 0.7448425 1.8493652 1.0464325 2.7786255c0.15078735 0.46463013 0.28962708 0.9299469 0.41630554 1.3958359c0.06335449 0.2329483 0.12364197 0.46603394 0.18089294 0.69924927c0.028625488 0.116607666 0.05647278 0.23324585 0.08355713 0.34992218l0.0018920898 0.008361816" fill-rule="evenodd"/><path fill="#000000" stroke="#000000" stroke-width="1.0" stroke-linecap="butt" d="m177.66275 106.232376l2.1674957 4.315613l1.1136322 -4.699196z" fill-rule="evenodd"/><path fill="#000000" fill-opacity="0.0" d="m72.0 52.0c72.0 0 144.0 62.0 144.0 124.0" fill-rule="evenodd"/><path stroke="#000000" stroke-width="1.0" stroke-linejoin="round" stroke-linecap="butt" d="m72.0 52.0c36.0 0 72.0 15.5 99.0 38.75c13.5 11.625 24.75 25.1875 32.625 39.71875c3.9375 7.265625 7.03125 14.7734375 9.140625 22.402344c1.0546875 3.8144531 1.863266 7.6591797 2.4082031 11.519043c0.13623047 0.9649658 0.25598145 1.9308777 0.35897827 2.8975067c0.051483154 0.48330688 0.09881592 0.9667969 0.14189148 1.4504242c0.021530151 0.24182129 0.042037964 0.4836731 0.061462402 0.7255707l0.041030884 0.5404968" fill-rule="evenodd"/><path fill="#000000" stroke="#000000" stroke-width="1.0" stroke-linecap="butt" d="m214.1266 170.06548l1.819107 4.473633l1.4820862 -4.596298z" fill-rule="evenodd"/><path fill="#000000" fill-opacity="0.0" d="m72.0 52.0c74.0 0 148.0 94.0 148.0 188.0" fill-rule="evenodd"/><path stroke="#000000" stroke-width="1.0" stroke-linejoin="round" stroke-linecap="butt" d="m72.0 52.0c37.0 0 74.0 23.5 101.75 58.75c13.875 17.625 25.4375 38.1875 33.53125 60.21875c4.046875 11.015625 7.2265625 22.398438 9.394516 33.96486c1.0839996 5.783188 1.9150543 11.612274 2.475113 17.46434c0.28004456 2.9260406 0.49230957 5.857788 0.63456726 8.792419c0.035583496 0.73365784 0.06677246 1.4674988 0.093551636 2.2014618l0.020401001 0.6090088" fill-rule="evenodd"/><path fill="#000000" stroke="#000000" stroke-width="1.0" stroke-linecap="butt" d="m218.2479 234.02853l1.7276001 4.5097656l1.5753937 -4.565155z" fill-rule="evenodd"/><path fill="#000000" fill-opacity="0.0" d="m216.0 200.0c0 12.499741 -29.06659 32.132843 -51.999847 24.999481c-22.933243 -7.133362 -39.733147 -41.03322 -51.999832 -78.49974c-12.2666855 -37.46653 -20.00016 -78.49974 -40.00032 -78.49974" fill-rule="evenodd"/><path stroke="#000000" stroke-width="1.0" stroke-linejoin="round" stroke-linecap="butt" stroke-dasharray="4.0,3.0" d="m216.0 200.0c0 12.499741 -29.066605 32.13286 -51.999832 24.999481c-22.933258 -7.133362 -39.733162 -41.03322 -51.999847 -78.49974c-6.133339 -18.733261 -11.133377 -38.3582 -17.100113 -53.299812c-2.9833527 -7.4708176 -6.2083893 -13.770798 -9.937592 -18.20308c-1.8646011 -2.216133 -3.8552475 -3.9653473 -6.0047455 -5.16053c-0.2686844 -0.14939117 -0.53985596 -0.29013824 -0.8135681 -0.42204285l-0.28308868 -0.13124084" fill-rule="evenodd"/><path fill="#000000" stroke="#000000" stroke-width="1.0" stroke-linecap="butt" d="m78.21442 67.66951l-4.786331 0.64310455l4.0799255 2.5839462z" fill-rule="evenodd"/><path fill="#000000" fill-opacity="0.0" d="m180.0 136.0c0 12.500107 -19.466675 27.866852 -34.000015 25.000198c-14.533356 -2.8666534 -24.133362 -23.966705 -34.000023 -46.5001c-9.866669 -22.533386 -19.999985 -46.5001 -39.99996 -46.5001" fill-rule="evenodd"/><path stroke="#000000" stroke-width="1.0" stroke-linejoin="round" stroke-linecap="butt" stroke-dasharray="4.0,3.0" d="m180.0 136.0c0 12.500107 -19.466675 27.866852 -34.000015 25.000198c-14.53334 -2.8666534 -24.133362 -23.96672 -34.000023 -46.5001c-4.933342 -11.2666855 -9.933327 -22.891716 -16.19999 -31.700073c-3.1333237 -4.404175 -6.5833206 -8.104179 -10.499985 -10.70314c-1.9583359 -1.2994843 -4.033333 -2.3237076 -6.243744 -3.023056c-0.27629852 -0.0874176 -0.554718 -0.16976166 -0.835289 -0.24693298l-0.26874542 -0.07115173" fill-rule="evenodd"/><path fill="#000000" stroke="#000000" stroke-width="1.0" stroke-linecap="butt" d="m78.16026 67.117165l-4.7100067 1.0669708l4.293907 2.2101822z" fill-rule="evenodd"/><path fill="#ffffff" d="m8.0 16.0l0 0c0 -4.4182777 3.5817223 -8.0 8.0 -8.0l0 0c2.1217327 0 4.156563 0.8428545 5.6568546 2.3431454c1.5002899 1.5002918 2.3431454 3.5351229 2.3431454 5.6568546l0 0c0 4.4182777 -3.5817223 8.0 -8.0 8.0l0 0c-4.4182777 0 -8.0 -3.5817223 -8.0 -8.0z" fill-rule="evenodd"/><path stroke="#000000" stroke-width="2.0" stroke-linejoin="round" stroke-linecap="butt" d="m8.0 16.0l0 0c0 -4.4182777 3.5817223 -8.0 8.0 -8.0l0 0c2.1217327 0 4.156563 0.8428545 5.6568546 2.3431454c1.5002899 1.5002918 2.3431454 3.5351229 2.3431454 5.6568546l0 0c0 4.4182777 -3.5817223 8.0 -8.0 8.0l0 0c-4.4182777 0 -8.0 -3.5817223 -8.0 -8.0z" fill-rule="evenodd"/><path fill="#000000" fill-opacity="0.0" d="m24.0 16.0c10.0 0 20.0 16.0 20.0 32.0" fill-rule="evenodd"/><path stroke="#000000" stroke-width="1.0" stroke-linejoin="round" stroke-linecap="butt" d="m24.0 16.0c5.0 0 10.0 4.0 13.75 10.0c1.875 3.0 3.4375 6.5 4.53125 10.25c0.2734375 0.9375 0.5175781 1.890625 0.72998047 2.8554688c0.10620499 0.48242188 0.20446777 0.96777344 0.2944908 1.4555664c0.045017242 0.24389648 0.08797073 0.48840332 0.12882614 0.7334595l0.11398697 0.7225151" fill-rule="evenodd"/><path fill="#000000" stroke="#000000" stroke-width="1.0" stroke-linecap="butt" d="m41.901485 42.141293l1.988514 4.4009476l1.305584 -4.6495132z" fill-rule="evenodd"/><path fill="#fce5cd" d="m152.0 308.0001l0 0c0 -2.209198 1.7908936 -4.0000916 4.0000763 -4.0000916l47.999847 0c1.0608826 0 2.0783234 0.42144775 2.828476 1.1716003c0.75016785 0.7501526 1.1716003 1.7675781 1.1716003 2.8284912l0 15.999817c0 2.209198 -1.7908936 4.0000916 -4.0000763 4.0000916l-47.999847 0c-2.2091827 0 -4.0000763 -1.7908936 -4.0000763 -4.0000916z" fill-rule="evenodd"/><path stroke="#000000" stroke-width="1.0" stroke-linejoin="round" stroke-linecap="butt" d="m152.0 308.0001l0 0c0 -2.209198 1.7908936 -4.0000916 4.0000763 -4.0000916l47.999847 0c1.0608826 0 2.0783234 0.42144775 2.828476 1.1716003c0.75016785 0.7501526 1.1716003 1.7675781 1.1716003 2.8284912l0 15.999817c0 2.209198 -1.7908936 4.0000916 -4.0000763 4.0000916l-47.999847 0c-2.2091827 0 -4.0000763 -1.7908936 -4.0000763 -4.0000916z" fill-rule="evenodd"/><path fill="#000000" d="m167.9113 323.45624l0 -9.5625l1.078125 0l0 0.890625q0.375 -0.53125 0.84375 -0.78125q0.484375 -0.265625 1.15625 -0.265625q0.875 0 1.546875 0.453125q0.6875 0.453125 1.03125 1.28125q0.34375 0.828125 0.34375 1.828125q0 1.046875 -0.375 1.90625q-0.375 0.84375 -1.109375 1.296875q-0.71875 0.453125 -1.53125 0.453125q-0.578125 0 -1.046875 -0.25q-0.46875 -0.25 -0.765625 -0.625l0 3.375l-1.171875 0zm1.0625 -6.078125q0 1.34375 0.53125 1.984375q0.546875 0.625 1.3125 0.625q0.78125 0 1.34375 -0.65625q0.5625 -0.65625 0.5625 -2.046875q0 -1.3125 -0.546875 -1.96875q-0.546875 -0.671875 -1.296875 -0.671875q-0.75 0 -1.328125 0.703125q-0.578125 0.703125 -0.578125 2.03125zm6.3343506 3.421875l0 -6.90625l1.0625 0l0 1.046875q0.40625 -0.734375 0.734375 -0.96875q0.34375 -0.234375 0.765625 -0.234375q0.59375 0 1.203125 0.375l-0.40625 1.078125q-0.4375 -0.25 -0.859375 -0.25q-0.390625 0 -0.703125 0.234375q-0.296875 0.234375 -0.421875 0.640625q-0.203125 0.625 -0.203125 1.359375l0 3.625l-1.171875 0zm4.4696198 -8.1875l0 -1.359375l1.171875 0l0 1.359375l-1.171875 0zm0 8.1875l0 -6.90625l1.171875 0l0 6.90625l-1.171875 0zm2.945465 0l0 -6.90625l1.0625 0l0 0.984375q0.75 -1.140625 2.1875 -1.140625q0.625 0 1.15625 0.21875q0.53125 0.21875 0.78125 0.59375q0.265625 0.359375 0.375 0.859375q0.0625 0.328125 0.0625 1.140625l0 4.25l-1.171875 0l0 -4.203125q0 -0.71875 -0.140625 -1.0625q-0.140625 -0.359375 -0.484375 -0.5625q-0.34375 -0.21875 -0.8125 -0.21875q-0.75 0 -1.296875 0.46875q-0.546875 0.46875 -0.546875 1.796875l0 3.78125l-1.171875 0zm9.974976 -1.046875l0.171875 1.03125q-0.5 0.109375 -0.890625 0.109375q-0.640625 0 -1.0 -0.203125q-0.34375 -0.203125 -0.484375 -0.53125q-0.140625 -0.328125 -0.140625 -1.390625l0 -3.96875l-0.859375 0l0 -0.90625l0.859375 0l0 -1.71875l1.171875 -0.703125l0 2.421875l1.171875 0l0 0.90625l-1.171875 0l0 4.046875q0 0.5 0.046875 0.640625q0.0625 0.140625 0.203125 0.234375q0.140625 0.078125 0.40625 0.078125q0.203125 0 0.515625 -0.046875z" fill-rule="nonzero"/><path fill="#000000" fill-opacity="0.0" d="m72.0 52.0c54.0 0 108.0 126.0 108.0 252.0" fill-rule="evenodd"/><path stroke="#000000" stroke-width="1.0" stroke-linejoin="round" stroke-linecap="butt" d="m72.0 52.0c27.0 0 54.0 31.5 74.25 78.75c10.125 23.625 18.5625 51.1875 24.46875 80.71875c2.953125 14.765625 5.2734375 30.023438 6.855484 45.527344c0.79100037 7.751953 1.3974457 15.56543 1.8061371 23.409668c0.20433044 3.9221191 0.35925293 7.8519287 0.46307373 11.7855835c0.0259552 0.98342896 0.048721313 1.9670715 0.06825256 2.9508972c0.009780884 0.49191284 0.018753052 0.9838867 0.026916504 1.4758911l0.020645142 1.382019" fill-rule="evenodd"/><path fill="#000000" stroke="#000000" stroke-width="1.0" stroke-linecap="butt" d="m178.30756 298.01135l1.6825104 4.526764l1.6208801 -4.5491943z" fill-rule="evenodd"/><path fill="#000000" fill-opacity="0.0" d="m220.0 264.0c0 12.499908 -30.133347 36.39981 -54.000015 24.999786c-23.866684 -11.399994 -41.466698 -58.099945 -54.000023 -110.49989c-12.533333 -52.39994 -19.999985 -110.49989 -39.99996 -110.49989" fill-rule="evenodd"/><path stroke="#000000" stroke-width="1.0" stroke-linejoin="round" stroke-linecap="butt" stroke-dasharray="4.0,3.0" d="m220.0 264.0c0 12.499908 -30.133347 36.39981 -54.000015 24.999786c-23.866684 -11.399994 -41.466698 -58.09993 -54.000023 -110.49989c-6.26667 -26.199966 -11.266663 -53.824944 -17.19999 -74.89992c-2.9666595 -10.537498 -6.1666565 -19.437485 -9.874985 -25.70311c-1.8541641 -3.1328125 -3.8354187 -5.607025 -5.978119 -7.2980423c-0.26783752 -0.21138 -0.5382004 -0.41051483 -0.8111496 -0.5971756c-0.068244934 -0.046661377 -0.13663483 -0.092544556 -0.2052002 -0.1376419l-0.18900299 -0.12187195" fill-rule="evenodd"/><path fill="#000000" stroke="#000000" stroke-width="1.0" stroke-linecap="butt" d="m78.2211 68.16155l-4.822174 0.26291656l3.862999 2.8982315z" fill-rule="evenodd"/></g></svg>