<svg xmlns="http://www.w3.org/2000/svg" viewBox="0 0 312 528">
<style>
.bk{fill:#fff}
.start{stroke-width:2;stroke:#000;fill:none}

.std>rect,.user>rect{stroke-width:1;stroke:#000;rx:4}
.std>rect{fill:#cfe2fe}
.user>rect{fill:#fce5cd}
text{font:13.5px Arial,sans-serif;text-anchor:middle;fill:#000}
.tip{font-weight:bold}

.shaft{stroke-width:1;stroke:#000;fill:none}
.return>.shaft{stroke-dasharray:4 3}
.tip{stroke-width:1;stroke:#000;fill:#000}
</style>

<rect class="bk" x="0" y="0" width="312" height="528"/>
<circle class="start" cx="16" cy="16" r="8"/>

<g class="user">
<rect x="16" y="48" width="56" height="24"/>
<text x="43" y="65">main</text>
</g>
<g class="call">
<path class="shaft" d="m24 16c5 0 10 4 13.75 10c1.88 3 3.44 6.5 4.53 10.25c.27.94.52 1.89.73 2.86c.11.48.2.97.29 1.46c.05.24.09.49.13.73l.11.72"/>
<path class="tip" d="m41.9 42.14l1.99 4.4l1.31-4.65z"/>
</g>

<g class="std">
<rect x="152" y="48" width="56" height="24"/>
<text x="180" y="65">input</text>
</g>
<g class="call">
<path class="shaft" d="m72 52c20 0 30.13-6.9 40-14.5c9.87-7.6 19.47-15.9 34-14.5c7.27.7 15.77 3.83 22.45 8.34c3.34 2.26 6.23 4.86 8.28 7.68c.51.71.97 1.42 1.38 2.15c.1.18.2.37.29.55c.05.09.09.18.14.28l.08.16"/>
<path class="tip" d="m177.01 42.54l2.66 4.03l.56-4.8z"/>
</g>
<g class="return">
<path class="shaft" d="m180 72c0 12.5-19.47 23.6-34 25c-14.53 1.4-24.13-6.9-34-14.5c-4.93-3.8-9.93-7.43-16.2-10.1c-3.13-1.34-6.58-2.44-10.5-3.2c-1.96-.38-4.03-.68-6.24-.89c-.28-.03-.55-.05-.84-.07l-.23-.02"/>
<path class="tip" d="m78.06 66.57l-4.6 1.48l4.47 1.82z"/>
</g>

<g class="std">
<rect x="152" y="112" width="56" height="24"/>
<text x="180" y="129">float</text>
</g>
<g class="call">
<path class="shaft" d="m72 52c27 0 54 7.5 74.25 18.75c10.13 5.63 18.56 12.19 24.47 19.22c2.95 3.52 5.27 7.15 6.86 10.84c.4.92.74 1.85 1.05 2.78c.15.46.29.93.42 1.4c.06.23.12.47.18.7c.03.12.06.23.08.35l0 .01"/>
<path class="tip" d="m177.66 106.23l2.17 4.32l1.11-4.7z"/>
</g>
<g class="return">
<path class="shaft" d="m180 136c0 12.5-19.47 27.87-34 25c-14.53-2.87-24.13-23.97-34-46.5c-4.93-11.27-9.93-22.89-16.2-31.7c-3.13-4.4-6.58-8.1-10.5-10.7c-1.96-1.3-4.03-2.32-6.24-3.02c-.28-.09-.55-.17-.84-.25l-.27-.07"/>
<path class="tip" d="m78.16 67.12l-4.71 1.07l4.29 2.21z"/>
</g>

<g class="user">
<rect x="152" y="176" width="104" height="24"/>
<text x="204" y="193">compute_age</text>
</g>
<g class="call">
<path class="shaft" d="m72 52c33 0 66 15.5 90.75 38.75c12.38 11.63 22.69 25.19 29.91 39.72c3.61 7.27 6.45 14.77 8.38 22.4c.97 3.81 1.71 7.66 2.21 11.52c.12.96.23 1.93.33 2.9c.05.48.09.97.13 1.45c.02.24.04.48.06.73l.04.54"/>
<path class="tip" d="m202.14 170.06l1.81 4.48l1.5-4.59z"/>
</g>
<g class="return">
<path class="shaft" d="m204 200c0 12.5-25.87 32.13-46 25c-20.13-7.13-34.53-41.03-46-78.5c-5.73-18.73-10.73-38.36-16.8-53.3c-3.03-7.47-6.33-13.77-10.12-18.2c-1.9-2.22-3.91-3.97-6.08-5.16c-.27-.15-.54-.29-.82-.42l-.31-.14"/>
<path class="tip" d="m78.21 67.66l-4.79.65l4.08 2.58z"/>
</g>

<g class="user">
<rect x="152" y="240" width="88" height="24"/>
<text x="196" y="257">kg_from_lb</text>
</g>
<g class="call">
<path class="shaft" d="m72 52c31 0 62 23.5 85.25 58.75c11.63 17.63 21.31 38.19 28.09 60.22c3.39 11.02 6.05 22.4 7.87 33.96c.91 5.78 1.6 11.61 2.07 17.46c.23 2.93.41 5.86.53 8.79c.03.73.06 1.47.08 2.2l.02.61"/>
<path class="tip" d="m194.26 234.02l1.72 4.51l1.59-4.56z"/>
</g>
<g class="return">
<path class="shaft" d="m196 264c0 12.5-23.73 36.4-42 25c-18.27-11.4-31.07-58.1-42-110.5c-5.47-26.2-10.47-53.82-16.6-74.9c-3.07-10.54-6.42-19.44-10.25-25.7c-1.92-3.13-3.95-5.61-6.14-7.3c-.27-.21-.55-.41-.83-.6c-.14-.09-.28-.18-.42-.27l-.02-.01"/>
<path class="tip" d="m78.22 68.14l-4.82.28l3.87 2.88z"/>
</g>

<g class="user">
<rect x="152" y="304" width="96" height="24"/>
<text x="200" y="321">cm_from_in</text>
</g>
<g class="call">
<path class="shaft" d="m72 52c32 0 64 31.5 88 78.75c12 23.63 22 51.19 29 80.72c3.5 14.77 6.25 30.02 8.13 45.53c.94 7.75 1.66 15.57 2.14 23.41c.24 3.92.43 7.85.55 11.79c.03.98.06 1.97.08 2.95c.01.49.02.98.03 1.48l.02 1.38"/>
<path class="tip" d="m198.3 298.01l1.69 4.52l1.62-4.55z"/>
</g>
<g class="return">
<path class="shaft" d="m200 328c0 12.5-24.8 40.67-44 25c-19.2-15.67-32.8-75.17-44-142.5c-5.6-33.67-10.6-69.29-16.7-96.5c-3.05-13.6-6.38-25.1-10.19-33.2c-1.91-4.05-3.93-7.25-6.11-9.44c-.27-.27-.55-.53-.82-.77c-.14-.12-.28-.24-.42-.35l-.15-.12"/>
<path class="tip" d="m78.2 68.58l-4.83-.06l3.66 3.15z"/>
</g>

<g class="user">
<rect x="152" y="368" width="136" height="24"/>
<text x="220" y="384">body_mass_index</text>
</g>
<g class="call">
<path class="shaft" d="m72 52c37 0 74 39.5 101.75 98.75c13.88 29.63 25.44 64.19 33.53 101.22c4.05 18.52 7.23 37.65 9.39 57.09c1.08 9.72 1.92 19.52 2.48 29.35c.28 4.92.49 9.85.63 14.78c.07 2.47.12 4.93.16 7.4l.02 1.41"/>
<path class="tip" d="m218.31 362.01l1.68 4.53l1.62-4.55z"/>
</g>
<g class="return">
<path class="shaft" d="m220 392c0 12.5-30.13 44.93-54 25c-23.87-19.93-41.47-92.23-54-174.5c-6.27-41.13-11.27-84.76-17.2-118.1c-2.97-16.67-6.17-30.77-9.87-40.7c-1.85-4.97-3.84-8.89-5.98-11.57c-.27-.34-.54-.65-.81-.95c-.14-.15-.27-.29-.41-.43c-.07-.07-.14-.14-.21-.2l-.06-.05"/>
<path class="tip" d="m78.14 68.99l-4.81-.38l3.44 3.39z"/>
</g>

<g class="user">
<rect x="152" y="432" width="152" height="24"/>
<text x="228" y="449">basal_metabolic_rate</text>
</g>
<g class="call">
<path class="shaft" d="m72 52c39 0 78 47.5 107.25 118.75c14.63 35.63 26.81 77.19 35.34 121.72c4.27 22.27 7.62 45.27 9.9 68.65c1.14 11.69 2.02 23.47 2.61 35.3c.3 5.91.52 11.84.67 17.77c.07 2.97.13 5.93.17 8.9c.01.74.02 1.48.02 2.23l.01.68"/>
<path class="tip" d="m226.32 426.01l1.67 4.53l1.63-4.55z"/>
</g>
<g class="return">
<path class="shaft" d="m228 456c0 12.5-32.27 49.2-58 25c-25.73-24.2-44.93-109.3-58-206.5c-6.53-48.6-11.53-100.22-17.4-139.7c-2.93-19.74-6.08-36.44-9.75-48.2c-1.83-5.88-3.8-10.53-5.92-13.71c-.27-.4-.53-.77-.81-1.12c-.14-.18-.27-.35-.41-.51c-.07-.08-.14-.16-.21-.24l-.19-.22"/>
<path class="tip" d="m78.08 69.33l-4.78-.65l3.25 3.58z"/>
</g>

<g class="std">
<rect x="152" y="496" width="56" height="24"/>
<text x="180" y="513">print</text>
</g>
<g class="call">
<path class="shaft" d="m72 52c27 0 54 55.5 74.25 138.75c10.13 41.63 18.56 90.19 24.47 142.22c2.95 26.02 5.27 52.9 6.86 80.21c.79 13.66 1.4 27.42 1.81 41.25c.2 6.91.36 13.83.46 20.77c.05 3.47.09 6.93.12 10.4c.01.87.01 1.73.02 2.6l.01 1.8"/>
<path class="tip" d="m178.33 490l1.66 4.53l1.64-4.54z"/>
</g>
</svg>
