<svg xmlns="http://www.w3.org/2000/svg" viewBox="0 0 280 144">
<title>A call graph for a program that creates and prints a basic periodic table</title>
<style>
.bk{fill:#fff}
.start{stroke-width:2;stroke:#000;fill:none}

.std>rect,.user>rect{stroke-width:1;stroke:#000;rx:4}
.std>rect{fill:#cfe2fe}
.user>rect{fill:#fce5cd}
text{font:13.5px Arial,sans-serif;text-anchor:middle;fill:#000}

.call,.return{stroke-width:1;stroke:#444}
.shaft{fill:none}
.return>.shaft{stroke-dasharray:4 3}
.tip{fill:#444}
</style>

<rect class="bk" x="0" y="0" width="280" height="144"/>
<circle class="start" cx="16" cy="16" r="8"/>

<g class="user">
<rect x="16" y="48" width="56" height="24"/>
<text x="44" y="65">main</text>
</g>
<g class="call">
<path class="shaft" d="m24 16c5 0 10 4 13.75 10c1.88 3 3.44 6.5 4.53 10.25c.27.94.52 1.89.73 2.86c.11.48.2.97.29 1.46c.05.24.09.49.13.73l.11.72"/>
<path class="tip" d="m41.9 42.14l1.99 4.4l1.31-4.65z"/>
</g>

<g class="user">
<rect x="128" y="48" width="144" height="24"/>
<text x="200" y="65">make_periodic_table</text>
</g>
<g class="call">
<path class="shaft" d="m72 52c14 0 17.6-6.9 28-14.5c10.4-7.6 27.6-15.9 50-14.5c11.2.7 23.7 3.83 33.4 8.34c4.85 2.26 9 4.86 11.94 7.68c.73 .71 1.39 1.42 1.97 2.15c.29.37.55.73.8 1.1l.017.027"/>
<path class="tip" d="m196.55 42.82l2.99 3.8l.15-4.83z"/>
</g>
<g class="return">
<path class="shaft" d="m200 72c0 12.5-27.6 23.6-50 25c-22.4 1.4-39.6-6.9-50-14.5c-5.2-3.8-8.7-7.43-12.65-10.1c-1.98-1.34-4.06-2.44-6.53-3.2c-.62-.19-1.26-.36-1.93-.51c-.17-.037-.34-.073-.51-.11l-.41-.077"/>
<path class="tip" d="m78.11736 66.85715l-4.6606064 1.2654266l4.383629 2.0264053z"/>
</g>

<g class="std">
<rect x="128" y="112" width="56" height="24"/>
<text x="156" y="129">print</text>
</g>
<g class="call">
<path class="shaft" d="m72 52c21 0 42 7.5 57.75 18.75c7.88 5.63 14.44 12.19 19.03 19.22c2.3 3.52 4.1 7.15 5.33 10.84c.31.92.58 1.85.81 2.78c.12.46.23.93.32 1.4c.049.23.096.47.14.7l.062.34"/>
<path class="tip" d="m153.81 106.18l2.06 4.37l1.23-4.67z"/>
</g>
</svg>
