<svg version="1.1" viewBox="0 0 318.40944881889766 206.56430446194227" fill="none" stroke="none" stroke-linecap="square" stroke-miterlimit="10" xmlns="http://www.w3.org/2000/svg"><clipPath id="p"><path d="m0 0l318.40945 0l0 206.5643l-318.40945 0l0-206.5643z" clip-rule="nonzero"/></clipPath><g clip-path="url(#p)"><path fill="#fff" d="m0 0l318.40945 0l0 206.5643l-318.40945 0z" fill-rule="evenodd"/><path fill="#000" fill-opacity="0" d="m16 44.00008l0 0c0-2.2091827 1.7908974-4.00008 4.00008-4.00008l47.999844 0c1.0608826 0 2.0783157.4214363 2.8284836 1.1715965c0.7501602.7501602 1.1715927 1.7675972 1.1715927 2.8284836l0 15.99984c0 2.2091827-1.7908936 4.00008-4.0000763 4.00008l-47.999844 0c-2.2091827 0-4.00008-1.7908974-4.00008-4.00008z" fill-rule="evenodd"/><path fill="#000" fill-opacity="0" d="m16 60.00008l0 0c0-2.2091827 1.7908974-4.00008 4.00008-4.00008l47.999844 0c1.0608826 0 2.0783157.4214363 2.8284836 1.1715965c0.7501602.7501602 1.1715927 1.7675972 1.1715927 2.8284836l0 15.999844c0 2.2091827-1.7908936 4.0000763-4.0000763 4.0000763l-47.999844 0c-2.2091827 0-4.00008-1.7908936-4.00008-4.0000763z" fill-rule="evenodd"/><path fill="#fce5cd" d="m16 52.00008l0 0c0-2.2091827 1.7908974-4.00008 4.00008-4.00008l47.999844 0c1.0608826 0 2.0783157.4214363 2.8284836 1.1715965c0.7501602.7501602 1.1715927 1.7675972 1.1715927 2.8284836l0 15.999844c0 2.2091827-1.7908936 4.0000763-4.0000763 4.0000763l-47.999844 0c-2.2091827 0-4.00008-1.7908936-4.00008-4.0000763z" fill-rule="evenodd"/><path stroke="#000" stroke-width="1" stroke-linejoin="round" stroke-linecap="butt" d="m16 52.00008l0 0c0-2.2091827 1.7908974-4.00008 4.00008-4.00008l47.999844 0c1.0608826 0 2.0783157.4214363 2.8284836 1.1715965c0.7501602.7501602 1.1715927 1.7675972 1.1715927 2.8284836l0 15.999844c0 2.2091827-1.7908936 4.0000763-4.0000763 4.0000763l-47.999844 0c-2.2091827 0-4.00008-1.7908936-4.00008-4.0000763z" fill-rule="evenodd"/><path fill="#000" d="m30.430763 64.8l0-6.906254l1.046875 0l0 .96875q0.328125-.515625.859375-.8125q0.546875-.3125 1.234375-.3125q0.78125 0 1.265625.3125q0.484375.3125.6875.890625q0.828125-1.203125 2.140625-1.203125q1.03125 0 1.578125.578125q0.5625.5625.5625 1.734375l0 4.750004l-1.171875 0l0-4.359379q0-.703125-.125-1.0q-.109375-.3125-.40625-.5q-.296875-.1875-.703125-.1875q-.71875 0-1.203125.484375q-.484375.484375-.484375 1.546875l0 4.015629l-1.171875 0l0-4.484379q0-.78125-.296875-1.171875q-.28125-.390625-.921875-.390625q-.5 0-.921875.265625q-.421875.25-.609375.75q-.1875.5-.1875 1.453125l0 3.5781288l-1.171875 0zm15.618057-.8593788q-.65625.5625038-1.265625.7968788q-.59375.21875-1.28125.21875q-1.140625 0-1.75-.546875q-.609375-.5625038-.609375-1.4375038q0-.5.21875-.921875q0.234375-.421875.609375-.671875q0.375-.25.84375-.390625q0.34375-.078125 1.046875-.171875q1.421875-.171875 2.09375-.40625q0-.234375 0-.296875q0-.71875-.328125-1.015625q-.453125-.390625-1.34375-.390625q-.8125 0-1.21875.296875q-.390625.28125-.578125 1.015625l-1.140625-.15625q0.15625-.734375.515625-1.1875q0.359375-.453125 1.03125-.6875q0.671875-.25 1.5625-.25q0.890625 0 1.4375.203125q0.5625.203125.8125.53125q0.265625.3125.375.796875q0.046875.296875.046875 1.078125l0 1.5625q0 1.625.078125 2.0625q0.078125.4375038.296875.8281288l-1.21875 0q-.1875-.359375-.234375-.8593788zm-.09375-2.609375q-.640625.265625-1.921875.4375q-.71875.109375-1.015625.25q-.296875.125-.46875.375q-.15625.25-.15625.546875q0 .46875.34375.78125q0.359375.3125038 1.046875.3125038q0.671875 0 1.203125-.2968788q0.53125-.296875.78125-.8125q0.1875-.390625.1875-1.171875l0-.421875zm3.0062256-4.71875l0-1.359375l1.171875 0l0 1.359375l-1.171875 0zm0 8.187504l0-6.906254l1.171875 0l0 6.906254l-1.171875 0zm2.945465 0l0-6.906254l1.0625 0l0 .984375q0.75-1.140625 2.1875-1.140625q0.625 0 1.15625.21875q0.53125.21875.78125.59375q0.265625.359375.375.859375q0.0625.328125.0625 1.140625l0 4.250004l-1.171875 0l0-4.203129q0-.71875-.140625-1.0625q-.140625-.359375-.484375-.5625q-.34375-.21875-.8125-.21875q-.75 0-1.296875.46875q-.546875.46875-.546875 1.796875l0 3.7812538l-1.171875 0z" fill-rule="nonzero"/><path fill="#fce5cd" d="m152 52.00008l0 0c0-2.2091827 1.7908936-4.00008 4.0000763-4.00008l119.99983 0c1.0609131 0 2.0783386.4214363 2.8284912 1.1715965c0.7501526.7501602 1.1716003 1.7675972 1.1716003 2.8284836l0 15.999844c0 2.2091827-1.7908936 4.0000763-4.0000916 4.0000763l-119.99983 0l0 0c-2.2091827 0-4.0000763-1.7908936-4.0000763-4.0000763z" fill-rule="evenodd"/><path stroke="#000" stroke-width="1" stroke-linejoin="round" stroke-linecap="butt" d="m152 52.00008l0 0c0-2.2091827 1.7908936-4.00008 4.0000763-4.00008l119.99983 0c1.0609131 0 2.0783386.4214363 2.8284912 1.1715965c0.7501526.7501602 1.1716003 1.7675972 1.1716003 2.8284836l0 15.999844c0 2.2091827-1.7908936 4.0000763-4.0000916 4.0000763l-119.99983 0l0 0c-2.2091827 0-4.0000763-1.7908936-4.0000763-4.0000763z" fill-rule="evenodd"/><path fill="#000" d="m170.64218 62.26875l1.15625.15625q-.1875 1.1875-.96875 1.8593788q-.78125.671875-1.921875.671875q-1.40625 0-2.28125-.921875q-.859375-.9375038-.859375-2.6562538q0-1.125.375-1.96875q0.375-.84375 1.125-1.25q0.765625-.421875 1.65625-.421875q1.125 0 1.84375.578125q0.71875.5625.921875 1.609375l-1.140625.171875q-.171875-.703125-.59375-1.046875q-.40625-.359375-.984375-.359375q-.890625 0-1.453125.640625q-.546875.640625-.546875 2.0q0 1.40625.53125 2.03125q0.546875.625 1.40625.625q0.6875 0 1.140625-.421875q0.46875-.421875.59375-1.296875zm1.7109375-.921875q0-1.921875 1.078125-2.84375q0.890625-.765625 2.171875-.765625q1.421875 0 2.328125.9375q0.90625.921875.90625 2.578125q0 1.328125-.40625 2.09375q-.390625.7656288-1.15625 1.1875038q-.765625.421875-1.671875.421875q-1.453125 0-2.359375-.921875q-.890625-.9375038-.890625-2.6875038zm1.203125 0q0 1.328125.578125 1.984375q0.59375.65625 1.46875.65625q0.875 0 1.453125-.65625q0.578125-.671875.578125-2.03125q0-1.28125-.59375-1.9375q-.578125-.65625-1.4375-.65625q-.875 0-1.46875.65625q-.578125.65625-.578125 1.984375zm6.6468506 3.4531288l0-6.906254l1.046875 0l0 .96875q0.328125-.515625.859375-.8125q0.546875-.3125 1.234375-.3125q0.78125 0 1.265625.3125q0.484375.3125.6875.890625q0.828125-1.203125 2.140625-1.203125q1.03125 0 1.578125.578125q0.5625.5625.5625 1.734375l0 4.750004l-1.171875 0l0-4.359379q0-.703125-.125-1.0q-.109375-.3125-.40625-.5q-.296875-.1875-.703125-.1875q-.71875 0-1.203125.484375q-.484375.484375-.484375 1.546875l0 4.015629l-1.171875 0l0-4.484379q0-.78125-.296875-1.171875q-.28125-.390625-.921875-.390625q-.5 0-.921875.265625q-.421875.25-.609375.75q-.1875.5-.1875 1.453125l0 3.5781288l-1.171875 0zm11.102432 2.65625l0-9.562504l1.078125 0l0 .890625q0.375-.53125.84375-.78125q0.484375-.265625 1.15625-.265625q0.875 0 1.546875.453125q0.6875.453125 1.03125 1.28125q0.34375.828125.34375 1.828125q0 1.046875-.375 1.90625q-.375.8437538-1.109375 1.2968788q-.71875.453125-1.53125.453125q-.578125 0-1.046875-.25q-.46875-.25-.765625-.625l0 3.375l-1.171875 0zm1.0625-6.078129q0 1.34375.53125 1.984375q0.546875.625 1.3125.625q0.78125 0 1.34375-.65625q0.5625-.65625.5625-2.046875q0-1.3125-.546875-1.96875q-.546875-.671875-1.296875-.671875q-.75 0-1.328125.703125q-.578125.703125-.578125 2.03125zm10.881226 3.4218788l0-1.0156288q-.8125 1.1718788-2.1875 1.1718788q-.609375 0-1.140625-.234375q-.53125-.234375-.796875-.578125q-.25-.3593788-.359375-.8750038q-.0625-.34375-.0625-1.09375l0-4.28125l1.171875 0l0 3.828125q0 .921875.0625 1.234375q0.109375.46875.46875.734375q0.359375.25.890625.25q0.515625 0 .984375-.265625q0.46875-.265625.65625-.734375q0.1875-.46875.1875-1.34375l0-3.703125l1.171875 0l0 6.906254l-1.046875 0zm5.4437256-1.0468788l0.171875 1.0312538q-.5.109375-.890625.109375q-.640625 0-1-.203125q-.34375-.203125-.484375-.53125q-.140625-.3281288-.140625-1.3906288l0-3.96875l-.859375 0l0-.90625l0.859375 0l0-1.71875l1.171875-.703125l0 2.421875l1.171875 0l0 .90625l-1.171875 0l0 4.046875q0 .5.046875.640625q0.0625.140625.203125.234375q0.140625.078125.40625.078125q0.203125 0 .515625-.046875zm5.8748627-1.171875l1.203125.140625q-.28125 1.0625-1.0625 1.6562538q-.765625.578125-1.96875.578125q-1.515625 0-2.40625-.9375q-.890625-.9375038-.890625-2.6093788q0-1.75.890625-2.703125q0.90625-.96875 2.34375-.96875q1.390625 0 2.265625.9375q0.875.9375.875 2.65625q0 .109375 0 .3125l-5.15625 0q0.0625 1.140625.640625 1.75q0.578125.59375 1.4375.59375q0.65625 0 1.109375-.328125q0.453125-.34375.71875-1.078125zm-3.84375-1.90625l3.859375 0q-.078125-.859375-.4375-1.296875q-.5625-.6875-1.453125-.6875q-.8125 0-1.359375.546875q-.546875.53125-.609375 1.4375zm5.4437256 6.781254l0-.859375l7.765625 0l0 .859375l-7.765625 0zm10.412476-2.65625l-2.625-6.906254l1.234375 0l1.484375 4.140625q0.234375.65625.4375 1.390625q0.15625-.546875.4375-1.3125l1.53125-4.21875l1.21875 0l-2.625 6.906254l-1.09375 0zm4.3046875-3.4531288q0-1.921875 1.078125-2.84375q0.890625-.765625 2.171875-.765625q1.421875 0 2.328125.9375q0.90625.921875.90625 2.578125q0 1.328125-.40625 2.09375q-.390625.7656288-1.15625 1.1875038q-.765625.421875-1.671875.421875q-1.453125 0-2.359375-.921875q-.890625-.9375038-.890625-2.6875038zm1.203125 0q0 1.328125.578125 1.984375q0.59375.65625 1.46875.65625q0.875 0 1.453125-.65625q0.578125-.671875.578125-2.03125q0-1.28125-.59375-1.9375q-.578125-.65625-1.4375-.65625q-.875 0-1.46875.65625q-.578125.65625-.578125 1.984375zm6.6312256 3.4531288l0-9.546879l1.171875 0l0 9.546879l-1.171875 0zm7.507965 0l0-1.0156288q-.8125 1.1718788-2.1875 1.1718788q-.609375 0-1.140625-.234375q-.53125-.234375-.796875-.578125q-.25-.3593788-.359375-.8750038q-.0625-.34375-.0625-1.09375l0-4.28125l1.171875 0l0 3.828125q0 .921875.0625 1.234375q0.109375.46875.46875.734375q0.359375.25.890625.25q0.515625 0 .984375-.265625q0.46875-.265625.65625-.734375q0.1875-.46875.1875-1.34375l0-3.703125l1.171875 0l0 6.906254l-1.046875 0zm2.8812256 0l0-6.906254l1.046875 0l0 .96875q0.328125-.515625.859375-.8125q0.546875-.3125 1.234375-.3125q0.78125 0 1.265625.3125q0.484375.3125.6875.890625q0.828125-1.203125 2.140625-1.203125q1.03125 0 1.578125.578125q0.5625.5625.5625 1.734375l0 4.750004l-1.171875 0l0-4.359379q0-.703125-.125-1.0q-.109375-.3125-.40625-.5q-.296875-.1875-.703125-.1875q-.71875 0-1.203125.484375q-.484375.484375-.484375 1.546875l0 4.015629l-1.171875 0l0-4.484379q0-.78125-.296875-1.171875q-.28125-.390625-.921875-.390625q-.5 0-.921875.265625q-.421875.25-.609375.75q-.1875.5-.1875 1.453125l0 3.5781288l-1.171875 0zm15.8368225-2.2187538l1.203125.140625q-.28125 1.0625-1.0625 1.6562538q-.765625.578125-1.96875.578125q-1.515625 0-2.40625-.9375q-.890625-.9375038-.890625-2.6093788q0-1.75.890625-2.703125q0.90625-.96875 2.34375-.96875q1.390625 0 2.265625.9375q0.875.9375.875 2.65625q0 .109375 0 .3125l-5.15625 0q0.0625 1.140625.640625 1.75q0.578125.59375 1.4375.59375q0.65625 0 1.109375-.328125q0.453125-.34375.71875-1.078125zm-3.84375-1.90625l3.859375 0q-.078125-.859375-.4375-1.296875q-.5625-.6875-1.453125-.6875q-.8125 0-1.359375.546875q-.546875.53125-.609375 1.4375z" fill-rule="nonzero"/><path fill="#fce5cd" d="m152 116.00008l0 0c0-2.2091827 1.7908936-4.0000763 4.0000763-4.0000763l151.99983 0c1.0609131 0 2.0783386.4214325 2.8284912 1.1715927c0.7501526.75016785 1.1716003 1.767601 1.1716003 2.8284836l0 15.999847c0 2.2091827-1.7908936 4.0000763-4.0000916 4.0000763l-151.99983 0c-2.2091827 0-4.0000763-1.7908936-4.0000763-4.0000763z" fill-rule="evenodd"/><path stroke="#000" stroke-width="1" stroke-linejoin="round" stroke-linecap="butt" d="m152 116.00008l0 0c0-2.2091827 1.7908936-4.0000763 4.0000763-4.0000763l151.99983 0c1.0609131 0 2.0783386.4214325 2.8284912 1.1715927c0.7501526.75016785 1.1716003 1.767601 1.1716003 2.8284836l0 15.999847c0 2.2091827-1.7908936 4.0000763-4.0000916 4.0000763l-151.99983 0c-2.2091827 0-4.0000763-1.7908936-4.0000763-4.0000763z" fill-rule="evenodd"/><path fill="#000" d="m169.2271 126.26875l1.15625.15625q-.1875 1.1875-.96875 1.859375q-.78125.671875-1.921875.671875q-1.40625 0-2.28125-.921875q-.859375-.9375-.859375-2.65625q0-1.125.375-1.96875q0.375-.84375 1.125-1.25q0.765625-.421875 1.65625-.421875q1.125 0 1.84375.578125q0.71875.5625.921875 1.609375l-1.140625.171875q-.171875-.703125-.59375-1.046875q-.40625-.359375-.984375-.359375q-.890625 0-1.453125.640625q-.546875.640625-.546875 2.0q0 1.40625.53125 2.03125q0.546875.625 1.40625.625q0.6875 0 1.140625-.421875q0.46875-.421875.59375-1.296875zm1.7109375-.921875q0-1.921875 1.078125-2.84375q0.890625-.765625 2.171875-.765625q1.421875 0 2.328125.9375q0.90625.921875.90625 2.578125q0 1.328125-.40625 2.09375q-.390625.765625-1.15625 1.1875q-.765625.421875-1.671875.421875q-1.453125 0-2.359375-.921875q-.890625-.9375-.890625-2.6875zm1.203125 0q0 1.328125.578125 1.984375q0.59375.65625 1.46875.65625q0.875 0 1.453125-.65625q0.578125-.671875.578125-2.03125q0-1.28125-.59375-1.9375q-.578125-.65625-1.4375-.65625q-.875 0-1.46875.65625q-.578125.65625-.578125 1.984375zm6.6468506 3.453125l0-6.90625l1.046875 0l0 .96875q0.328125-.515625.859375-.8125q0.546875-.3125 1.234375-.3125q0.78125 0 1.265625.3125q0.484375.3125.6875.890625q0.828125-1.203125 2.140625-1.203125q1.03125 0 1.578125.578125q0.5625.5625.5625 1.734375l0 4.75l-1.171875 0l0-4.359375q0-.703125-.125-1.0q-.109375-.3125-.40625-.5q-.296875-.1875-.703125-.1875q-.71875 0-1.203125.484375q-.484375.484375-.484375 1.546875l0 4.015625l-1.171875 0l0-4.484375q0-.78125-.296875-1.171875q-.28125-.390625-.921875-.390625q-.5 0-.921875.265625q-.421875.25-.609375.75q-.1875.5-.1875 1.453125l0 3.578125l-1.171875 0zm11.102432 2.65625l0-9.5625l1.078125 0l0 .890625q0.375-.53125.84375-.78125q0.484375-.265625 1.15625-.265625q0.875 0 1.546875.453125q0.6875.453125 1.03125 1.28125q0.34375.828125.34375 1.828125q0 1.046875-.375 1.90625q-.375.84375-1.109375 1.296875q-.71875.453125-1.53125.453125q-.578125 0-1.046875-.25q-.46875-.25-.765625-.625l0 3.375l-1.171875 0zm1.0625-6.078125q0 1.34375.53125 1.984375q0.546875.625 1.3125.625q0.78125 0 1.34375-.65625q0.5625-.65625.5625-2.046875q0-1.3125-.546875-1.96875q-.546875-.671875-1.296875-.671875q-.75 0-1.328125.703125q-.578125.703125-.578125 2.03125zm10.881226 3.421875l0-1.015625q-.8125 1.171875-2.1875 1.171875q-.609375 0-1.140625-.234375q-.53125-.234375-.796875-.578125q-.25-.359375-.359375-.875q-.0625-.34375-.0625-1.09375l0-4.28125l1.171875 0l0 3.828125q0 .921875.0625 1.234375q0.109375.46875.46875.734375q0.359375.25.890625.25q0.515625 0 .984375-.265625q0.46875-.265625.65625-.734375q0.1875-.46875.1875-1.34375l0-3.703125l1.171875 0l0 6.90625l-1.046875 0zm5.4437256-1.046875l0.171875 1.03125q-.5.109375-.890625.109375q-.640625 0-1-.203125q-.34375-.203125-.484375-.53125q-.140625-.328125-.140625-1.390625l0-3.96875l-.859375 0l0-.90625l0.859375 0l0-1.71875l1.171875-.703125l0 2.421875l1.171875 0l0 .90625l-1.171875 0l0 4.046875q0 .5.046875.640625q0.0625.140625.203125.234375q0.140625.078125.40625.078125q0.203125 0 .515625-.046875zm5.8748627-1.171875l1.203125.140625q-.28125 1.0625-1.0625 1.65625q-.765625.578125-1.96875.578125q-1.515625 0-2.40625-.9375q-.890625-.9375-.890625-2.609375q0-1.75.890625-2.703125q0.90625-.96875 2.34375-.96875q1.390625 0 2.265625.9375q0.875.9375.875 2.65625q0 .109375 0 .3125l-5.15625 0q0.0625 1.140625.640625 1.75q0.578125.59375 1.4375.59375q0.65625 0 1.109375-.328125q0.453125-.34375.71875-1.078125zm-3.84375-1.90625l3.859375 0q-.078125-.859375-.4375-1.296875q-.5625-.6875-1.453125-.6875q-.8125 0-1.359375.546875q-.546875.53125-.609375 1.4375zm5.4437256 6.78125l0-.859375l7.765625 0l0 .859375l-7.765625 0zm8.021851-4.71875l1.15625-.1875q0.109375.703125.546875 1.078125q0.453125.359375 1.25.359375q0.8125 0 1.203125-.328125q0.390625-.328125.390625-.765625q0-.390625-.359375-.625q-.234375-.15625-1.1875-.390625q-1.296875-.328125-1.796875-.5625q-.484375-.25-.75-.65625q-.25-.421875-.25-.9375q0-.453125.203125-.84375q0.21875-.40625.578125-.671875q0.28125-.1875.75-.328125q0.46875-.140625 1.015625-.140625q0.8125 0 1.421875.234375q0.609375.234375.90625.640625q0.296875.390625.40625 1.0625l-1.140625.15625q-.078125-.53125-.453125-.828125q-.375-.3125-1.0625-.3125q-.8125 0-1.15625.265625q-.34375.265625-.34375.625q0 .234375.140625.421875q0.15625.1875.453125.3125q0.171875.0625 1.03125.296875q1.25.328125 1.734375.546875q0.5.203125.78125.609375q0.28125.40625.28125 1.0q0 .59375-.34375 1.109375q-.34375.515625-1 .796875q-.640625.28125-1.453125.28125q-1.34375 0-2.046875-.5625q-.703125-.5625-.90625-1.65625zm11.6640625 2.0625l0-1.015625q-.8125 1.171875-2.1875 1.171875q-.609375 0-1.140625-.234375q-.53125-.234375-.796875-.578125q-.25-.359375-.359375-.875q-.0625-.34375-.0625-1.09375l0-4.28125l1.171875 0l0 3.828125q0 .921875.0625 1.234375q0.109375.46875.46875.734375q0.359375.25.890625.25q0.515625 0 .984375-.265625q0.46875-.265625.65625-.734375q0.1875-.46875.1875-1.34375l0-3.703125l1.171875 0l0 6.90625l-1.046875 0zm2.8656006 0l0-6.90625l1.0625 0l0 1.046875q0.40625-.734375.734375-.96875q0.34375-.234375.765625-.234375q0.59375 0 1.203125.375l-.40625 1.078125q-.4375-.25-.859375-.25q-.390625 0-.703125.234375q-.296875.234375-.421875.640625q-.203125.625-.203125 1.359375l0 3.625l-1.171875 0zm4.7352448 0l0-6.0l-1.03125 0l0-.90625l1.03125 0l0-.734375q0-.703125.125-1.046875q0.171875-.453125.59375-.734375q0.421875-.28125 1.203125-.28125q0.484375 0 1.09375.109375l-.1875 1.03125q-.359375-.0625-.6875-.0625q-.53125 0-.75.234375q-.21875.21875-.21875.84375l0 .640625l1.34375 0l0 .90625l-1.34375 0l0 6.0l-1.171875 0zm7.9373627-.859375q-.65625.5625-1.265625.796875q-.59375.21875-1.28125.21875q-1.140625 0-1.75-.546875q-.609375-.5625-.609375-1.4375q0-.5.21875-.921875q0.234375-.421875.609375-.671875q0.375-.25.84375-.390625q0.34375-.078125 1.046875-.171875q1.421875-.171875 2.09375-.40625q0-.234375 0-.296875q0-.71875-.328125-1.015625q-.453125-.390625-1.34375-.390625q-.8125 0-1.21875.296875q-.390625.28125-.578125 1.015625l-1.140625-.15625q0.15625-.734375.515625-1.1875q0.359375-.453125 1.03125-.6875q0.671875-.25 1.5625-.25q0.890625 0 1.4375.203125q0.5625.203125.8125.53125q0.265625.3125.375.796875q0.046875.296875.046875 1.078125l0 1.5625q0 1.625.078125 2.0625q0.078125.4375.296875.828125l-1.21875 0q-.1875-.359375-.234375-.859375zm-.09375-2.609375q-.640625.265625-1.921875.4375q-.71875.109375-1.015625.25q-.296875.125-.46875.375q-.15625.25-.15625.546875q0 .46875.34375.78125q0.359375.3125 1.046875.3125q0.671875 0 1.203125-.296875q0.53125-.296875.78125-.8125q0.1875-.390625.1875-1.171875l0-.421875zm7.506241.9375l1.15625.15625q-.1875 1.1875-.96875 1.859375q-.78125.671875-1.9218903.671875q-1.40625 0-2.28125-.921875q-.859375-.9375-.859375-2.65625q0-1.125.375-1.96875q0.375-.84375 1.125-1.25q0.765625-.421875 1.65625-.421875q1.1250153 0 1.8437653.578125q0.71875.5625.921875 1.609375l-1.140625.171875q-.171875-.703125-.59375-1.046875q-.40625-.359375-.98439026-.359375q-.890625 0-1.453125.640625q-.546875.640625-.546875 2.0q0 1.40625.53125 2.03125q0.546875.625 1.40625.625q0.68751526 0 1.1406403-.421875q0.46875-.421875.59375-1.296875zm6.8828125.3125l1.203125.140625q-.28125 1.0625-1.0625 1.65625q-.765625.578125-1.96875.578125q-1.515625 0-2.40625-.9375q-.890625-.9375-.890625-2.609375q0-1.75.890625-2.703125q0.90625-.96875 2.34375-.96875q1.390625 0 2.265625.9375q0.875.9375.875 2.65625q0 .109375 0 .3125l-5.15625 0q0.0625 1.140625.640625 1.75q0.578125.59375 1.4375.59375q0.65625 0 1.109375-.328125q0.453125-.34375.71875-1.078125zm-3.84375-1.90625l3.859375 0q-.078125-.859375-.4375-1.296875q-.5625-.6875-1.453125-.6875q-.8125 0-1.359375.546875q-.546875.53125-.609375 1.4375zm5.4437256 6.78125l0-.859375l7.765625 0l0 .859375l-7.765625 0zm13.006226-3.515625q-.65625.5625-1.265625.796875q-.59375.21875-1.28125.21875q-1.140625 0-1.75-.546875q-.609375-.5625-.609375-1.4375q0-.5.21875-.921875q0.234375-.421875.609375-.671875q0.375-.25.84375-.390625q0.34375-.078125 1.046875-.171875q1.421875-.171875 2.09375-.40625q0-.234375 0-.296875q0-.71875-.328125-1.015625q-.453125-.390625-1.34375-.390625q-.8125 0-1.21875.296875q-.390625.28125-.578125 1.015625l-1.140625-.15625q0.15625-.734375.515625-1.1875q0.359375-.453125 1.03125-.6875q0.671875-.25 1.5625-.25q0.890625 0 1.4375.203125q0.5625.203125.8125.53125q0.265625.3125.375.796875q0.046875.296875.046875 1.078125l0 1.5625q0 1.625.078125 2.0625q0.078125.4375.296875.828125l-1.21875 0q-.1875-.359375-.234375-.859375zm-.09375-2.609375q-.640625.265625-1.921875.4375q-.71875.109375-1.015625.25q-.296875.125-.46875.375q-.15625.25-.15625.546875q0 .46875.34375.78125q0.359375.3125 1.046875.3125q0.671875 0 1.203125-.296875q0.53125-.296875.78125-.8125q0.1875-.390625.1875-1.171875l0-.421875zm2.974945 3.46875l0-6.90625l1.0625 0l0 1.046875q0.40625-.734375.734375-.96875q0.34375-.234375.765625-.234375q0.59375 0 1.203125.375l-.40625 1.078125q-.4375-.25-.859375-.25q-.390625 0-.703125.234375q-.296875.234375-.421875.640625q-.203125.625-.203125 1.359375l0 3.625l-1.171875 0zm9.188385-2.21875l1.203125.140625q-.28125 1.0625-1.0625 1.65625q-.765625.578125-1.96875.578125q-1.515625 0-2.40625-.9375q-.890625-.9375-.890625-2.609375q0-1.75.890625-2.703125q0.90625-.96875 2.34375-.96875q1.390625 0 2.265625.9375q0.875.9375.875 2.65625q0 .109375 0 .3125l-5.15625 0q0.0625 1.140625.640625 1.75q0.578125.59375 1.4375.59375q0.65625 0 1.109375-.328125q0.453125-.34375.71875-1.078125zm-3.84375-1.90625l3.859375 0q-.078125-.859375-.4375-1.296875q-.5625-.6875-1.453125-.6875q-.8125 0-1.359375.546875q-.546875.53125-.609375 1.4375zm11.037476 3.265625q-.65625.5625-1.265625.796875q-.59375.21875-1.28125.21875q-1.140625 0-1.75-.546875q-.609375-.5625-.609375-1.4375q0-.5.21875-.921875q0.234375-.421875.609375-.671875q0.375-.25.84375-.390625q0.34375-.078125 1.046875-.171875q1.421875-.171875 2.09375-.40625q0-.234375 0-.296875q0-.71875-.328125-1.015625q-.453125-.390625-1.34375-.390625q-.8125 0-1.21875.296875q-.390625.28125-.578125 1.015625l-1.140625-.15625q0.15625-.734375.515625-1.1875q0.359375-.453125 1.03125-.6875q0.671875-.25 1.5625-.25q0.890625 0 1.4375.203125q0.5625.203125.8125.53125q0.265625.3125.375.796875q0.046875.296875.046875 1.078125l0 1.5625q0 1.625.078125 2.0625q0.078125.4375.296875.828125l-1.21875 0q-.1875-.359375-.234375-.859375zm-.09375-2.609375q-.640625.265625-1.921875.4375q-.71875.109375-1.015625.25q-.296875.125-.46875.375q-.15625.25-.15625.546875q0 .46875.34375.78125q0.359375.3125 1.046875.3125q0.671875 0 1.203125-.296875q0.53125-.296875.78125-.8125q0.1875-.390625.1875-1.171875l0-.421875z" fill-rule="nonzero"/><path fill="#000" fill-opacity="0" d="m72 52.0c20.00016 0 27.733635-6.9000015 40.00032-14.5c12.2666855-7.6000004 29.06659-15.9 51.999832-14.5c22.933258 1.3999996 51.999847 12.5 51.999847 25" fill-rule="evenodd"/><path stroke="#000" stroke-width="1" stroke-linejoin="round" stroke-linecap="butt" d="m72 52.0c20.000168 0 27.733635-6.9000015 40.00032-14.5c12.2666855-7.5999985 29.06659-15.900002 51.999847-14.5c11.466614.70000076 24.466568 3.8250008 34.599884 8.337502c5.0666504 2.2562485 9.416641 4.859375 12.499954 7.6796875c0.77082825.7050781 1.4624939 1.423729 2.0664215 2.1539307c0.30192566.36509705.58195496.73308563.8389435 1.1037064l0.036361694.05373764" fill-rule="evenodd"/><path fill="#000" stroke="#000" stroke-width="1" stroke-linecap="butt" d="m212.48045 42.86765l3.0424194 3.7505035l0.08013916-4.828678z" fill-rule="evenodd"/><path fill="#000" fill-opacity="0" d="m72 52.0c80 0 160 30 160 60" fill-rule="evenodd"/><path stroke="#000" stroke-width="1" stroke-linejoin="round" stroke-linecap="butt" d="m72 52.0c40 0 80 7.5 110 18.75c15 5.625 27.5 12.1875 36.25 19.21875c4.375 3.515625 7.8125 7.1484375 10.15625 10.839844c0.5859375.92285156 1.1035156 1.8493652 1.550293 2.7786255c0.22338867.46463013.42907715.9299469.61676025 1.3958359c0.09384155.2329483.18318176.46603394.2679901.69924927c0.042404175.116607666.08366394.23324585.1237793.34992218l0.018234253.05454254" fill-rule="evenodd"/><path fill="#000" stroke="#000" stroke-width="1" stroke-linecap="butt" d="m229.35545 106.36665l2.39682 4.192589l0.85887146-4.7523575z" fill-rule="evenodd"/><path fill="#000" fill-opacity="0" d="m216 72.0c0 12.5-29.06659 23.599998-51.999847 25.0c-22.933243 1.4000015-39.733147-6.9000015-51.999832-14.5c-12.2666855-7.5999985-20.00016-14.5-40.00032-14.5" fill-rule="evenodd"/><path stroke="#000" stroke-width="1" stroke-linejoin="round" stroke-linecap="butt" stroke-dasharray="4,3" d="m216 72.0c0 12.5-29.066605 23.600006-51.999832 25.0c-22.933258 1.3999939-39.733162-6.899994-51.999847-14.5c-6.133339-3.800003-11.133377-7.425003-17.100113-10.099998c-2.9833527-1.3375015-6.2083893-2.4375-9.937592-3.203125c-1.8646011-.3828125-3.8552475-.6820297-6.0047455-.88555145c-.2686844-.025436401-.53985596-.04937744-.8135681-.07180023l-.1486435-.011253357" fill-rule="evenodd"/><path fill="#000" stroke="#000" stroke-width="1" stroke-linecap="butt" d="m78.058495 66.577736l-4.5976486 1.4778824l4.4719696 1.8231964z" fill-rule="evenodd"/><path fill="#fff" d="m8 16.0l0 0c0-4.4182777 3.5817223-8 8-8.0l0 0c2.1217327 0 4.156563.8428545 5.6568546 2.3431454c1.5002899 1.5002918 2.3431454 3.5351229 2.3431454 5.6568546l0 0c0 4.4182777-3.5817223 8-8 8.0l0 0c-4.4182777 0-8-3.5817223-8-8.0z" fill-rule="evenodd"/><path stroke="#000" stroke-width="2" stroke-linejoin="round" stroke-linecap="butt" d="m8 16.0l0 0c0-4.4182777 3.5817223-8 8-8.0l0 0c2.1217327 0 4.156563.8428545 5.6568546 2.3431454c1.5002899 1.5002918 2.3431454 3.5351229 2.3431454 5.6568546l0 0c0 4.4182777-3.5817223 8-8 8.0l0 0c-4.4182777 0-8-3.5817223-8-8.0z" fill-rule="evenodd"/><path fill="#000" fill-opacity="0" d="m24 16.0c10 0 20 16 20 32" fill-rule="evenodd"/><path stroke="#000" stroke-width="1" stroke-linejoin="round" stroke-linecap="butt" d="m24 16.0c5 0 10 4 13.75 10.0c1.875 3 3.4375 6.5 4.53125 10.25c0.2734375.9375.5175781 1.890625.72998047 2.8554688c0.10620499.48242188.20446777.96777344.2944908 1.4555664c0.045017242.24389648.08797073.48840332.12882614.7334595l0.11398697.7225151" fill-rule="evenodd"/><path fill="#000" stroke="#000" stroke-width="1" stroke-linecap="butt" d="m41.901485 42.141293l1.988514 4.4009476l1.305584-4.6495132z" fill-rule="evenodd"/><path fill="#cfe2f3" d="m152 180.00008l0 0c0-2.2091827 1.7908936-4.0000763 4.0000763-4.0000763l47.999847 0c1.0608826 0 2.0783234.4214325 2.828476 1.1716003c0.75016785.7501526 1.1716003 1.7675934 1.1716003 2.828476l0 15.999847c0 2.2091827-1.7908936 4.0000763-4.0000763 4.0000763l-47.999847 0c-2.2091827 0-4.0000763-1.7908936-4.0000763-4.0000763z" fill-rule="evenodd"/><path stroke="#000" stroke-width="1" stroke-linejoin="round" stroke-linecap="butt" d="m152 180.00008l0 0c0-2.2091827 1.7908936-4.0000763 4.0000763-4.0000763l47.999847 0c1.0608826 0 2.0783234.4214325 2.828476 1.1716003c0.75016785.7501526 1.1716003 1.7675934 1.1716003 2.828476l0 15.999847c0 2.2091827-1.7908936 4.0000763-4.0000763 4.0000763l-47.999847 0c-2.2091827 0-4.0000763-1.7908936-4.0000763-4.0000763z" fill-rule="evenodd"/><path fill="#000" d="m167.9113 195.45625l0-9.5625l1.078125 0l0 .890625q0.375-.53125.84375-.78125q0.484375-.265625 1.15625-.265625q0.875 0 1.546875.453125q0.6875.453125 1.03125 1.28125q0.34375.828125.34375 1.828125q0 1.046875-.375 1.90625q-.375.84375-1.109375 1.296875q-.71875.453125-1.53125.453125q-.578125 0-1.046875-.25q-.46875-.25-.765625-.625l0 3.375l-1.171875 0zm1.0625-6.078125q0 1.34375.53125 1.984375q0.546875.625 1.3125.625q0.78125 0 1.34375-.65625q0.5625-.65625.5625-2.046875q0-1.3125-.546875-1.96875q-.546875-.671875-1.296875-.671875q-.75 0-1.328125.703125q-.578125.703125-.578125 2.03125zm6.3343506 3.421875l0-6.90625l1.0625 0l0 1.046875q0.40625-.734375.734375-.96875q0.34375-.234375.765625-.234375q0.59375 0 1.203125.375l-.40625 1.078125q-.4375-.25-.859375-.25q-.390625 0-.703125.234375q-.296875.234375-.421875.640625q-.203125.625-.203125 1.359375l0 3.625l-1.171875 0zm4.4696198-8.1875l0-1.359375l1.171875 0l0 1.359375l-1.171875 0zm0 8.1875l0-6.90625l1.171875 0l0 6.90625l-1.171875 0zm2.945465 0l0-6.90625l1.0625 0l0 .984375q0.75-1.140625 2.1875-1.140625q0.625 0 1.15625.21875q0.53125.21875.78125.59375q0.265625.359375.375.859375q0.0625.328125.0625 1.140625l0 4.25l-1.171875 0l0-4.203125q0-.71875-.140625-1.0625q-.140625-.359375-.484375-.5625q-.34375-.21875-.8125-.21875q-.75 0-1.296875.46875q-.546875.46875-.546875 1.796875l0 3.78125l-1.171875 0zm9.974976-1.046875l0.171875 1.03125q-.5.109375-.890625.109375q-.640625 0-1-.203125q-.34375-.203125-.484375-.53125q-.140625-.328125-.140625-1.390625l0-3.96875l-.859375 0l0-.90625l0.859375 0l0-1.71875l1.171875-.703125l0 2.421875l1.171875 0l0 .90625l-1.171875 0l0 4.046875q0 .5.046875.640625q0.0625.140625.203125.234375q0.140625.078125.40625.078125q0.203125 0 .515625-.046875z" fill-rule="nonzero"/><path fill="#000" fill-opacity="0" d="m72 52.0c54 0 108 62 108 124" fill-rule="evenodd"/><path stroke="#000" stroke-width="1" stroke-linejoin="round" stroke-linecap="butt" d="m72 52.0c27 0 54 15.5 74.25 38.75c10.125 11.625 18.5625 25.1875 24.46875 39.71875c2.953125 7.265625 5.2734375 14.7734375 6.855484 22.402344c0.79100037 3.8144531 1.3974457 7.6591797 1.8061371 11.519043c0.10217285.9649658.19198608 1.9308777.26924133 2.8975067c0.038619995.48330688.07409668.9667969.106414795 1.4504242c0.016159058.24182129.03152466.4836731.0460968.7255707l0.030670166.5386963" fill-rule="evenodd"/><path fill="#000" stroke="#000" stroke-width="1" stroke-linecap="butt" d="m178.1817 170.04836l1.7775574 4.4903107l1.5246277-4.582367z" fill-rule="evenodd"/><path fill="#000" fill-opacity="0" d="m232 136.0c0 12.500107-33.33333 27.866852-60 25.000198c-26.666672-2.8666534-46.666664-23.966705-60-46.5001c-13.333336-22.533386-20-46.5001-40-46.5001" fill-rule="evenodd"/><path stroke="#000" stroke-width="1" stroke-linejoin="round" stroke-linecap="butt" stroke-dasharray="4,3" d="m232 136.0c0 12.500107-33.33333 27.866852-60 25.000198c-26.666672-2.8666534-46.666664-23.96672-60-46.5001c-6.666664-11.2666855-11.666664-22.891716-17.5-31.700073c-2.9166641-4.404175-6.041664-8.104179-9.6875-10.70314c-1.8229141-1.2994843-3.7760391-2.3237076-5.8984375-3.023056c-.26529694-.0874176-.5332413-.16976166-.8039093-.24693298l-.1614151-.04425049" fill-rule="evenodd"/><path fill="#000" stroke="#000" stroke-width="1" stroke-linecap="butt" d="m78.16419 67.14503l-4.7147827 1.0456619l4.2838745 2.229576z" fill-rule="evenodd"/></g></svg>
