<svg xmlns="http://www.w3.org/2000/svg" viewBox="0 0 464 208">
<style>
@import url('https://fonts.googleapis.com/css?family=Open+Sans');
.bk{fill:#fff}
.start{stroke-width:2;stroke:#000;fill:none}

.std>rect,.user>rect{stroke-width:1;stroke:#000;rx:4}
.std>rect{fill:#cfe2fe}
.user>rect{fill:#fce5cd}
text{font:13px "Open Sans",sans-serif;text-anchor:middle;fill:#000}

.call,.return{stroke-width:1;stroke:#444}
.shaft{fill:none}
.return>.shaft{stroke-dasharray:4 3}
.tip{fill:#444}
</style>

<rect class="bk" x="0" y="0" width="464" height="208"/>
<circle class="start" cx="16" cy="16" r="8"/>

<g class="user">
<rect x="16" y="48" width="48" height="24"/>
<text x="40" y="65">main</text>
</g>
<g class="call">
<path class="shaft" d="m24 16c4 0 8 4 11 10c1.5 3 2.75 6.5 3.63 10.25c.22.94.41 1.89.58 2.86c.08.48.16.97.24 1.46c.04.24.07.49.1.73l.09.72"/>
<path class="tip" d="m37.99 42.11l1.92 4.43l1.37-4.63z"/>
</g>

<g class="user">
<rect x="96" y="48" width="176" height="24"/>
<text x="184" y="65">compute_storage_efficiency</text>
</g>
<g class="call">
<path class="shaft" d="m64 52c8 0 6.93-6.9 16-14.5c9.07-7.6 28.27-15.9 52-14.5c11.87.7 24.87 3.83 34.9 8.34c5.02 2.26 9.29 4.86 12.31 7.68c.76.71 1.43 1.42 2.02 2.15c.3.37.57.73.82 1.1l.03.04"/>
<path class="tip" d="m180.52 42.84l3.02 3.77l.11-4.83z"/>
</g>
<g class="return">
<path class="shaft" d="m184 72c0 12.5-28.27 23.6-52 25c-23.73 1.4-42.93-6.9-52-14.5c-4.53-3.8-6.53-7.43-8.4-10.1c-.47-.67-.92-1.28-1.41-1.82c-.12-.13-.25-.26-.37-.39l-.17-.16"/>
<path class="tip" d="m70.2 68.48l-4.83.02l3.71 3.09z"/>
</g>

<g class="user">
<rect x="96" y="112" width="160" height="24"/>
<text x="176" y="129">compute_cost_efficiency</text>
</g>
<g class="call">
<path class="shaft" d="m64 52c28 0 56 7.5 77 18.75c10.5 5.63 19.25 12.19 25.38 19.22c3.06 3.52 5.47 7.15 7.11 10.84c.41.92.77 1.85 1.09 2.78c.16.46.3.93.43 1.4c.07.23.13.47.19.7c.03.12.06.23.09.35l0.01"/>
<path class="tip" d="m173.64 106.24l2.19 4.31l1.09-4.7z"/>
</g>
<g class="return">
<path class="shaft" d="m176 136c0 12.5-26.13 27.87-48 25c-21.87-2.87-39.47-23.97-48-46.5c-4.27-11.27-6.27-22.89-8.2-31.7c-.97-4.4-1.92-8.1-3.13-10.7l-.1-.21"/>
<path class="tip" d="m69.64 70.62l-4.53-1.68l2.39 4.2z"/>
</g>

<g class="std">
<rect x="96" y="176" width="48" height="24"/>
<text x="120" y="193">print</text>
</g>
<g class="call">
<path class="shaft" d="m64 52c14 0 28 15.5 38.5 38.75c5.25 11.63 9.63 25.19 12.69 39.72c1.53 7.27 2.73 14.77 3.55 22.4c.41 3.81.72 7.66.94 11.52c.05.96.1 1.93.14 2.9c.02.48.04.97.06 1.45l.04 1.26"/>
<path class="tip" d="m118.26 170.02l1.72 4.51l1.59-4.56z"/>
</g>

<g class="user">
<rect x="304" y="48" width="152" height="24"/>
<text x="380" y="65">compute_surface_area</text>
</g>
<g class="call">
<path class="shaft" d="m272 52c8 0 7.73-6.9 16-14.5c8.27-7.6 25.07-15.9 46-14.5c10.47.7 21.97 3.83 30.85 8.34c4.44 2.26 8.23 4.86 10.91 7.68c.67.71 1.27 1.42 1.79 2.15c.13.18.26.37.38.55c.06.09.12.18.18.28l.16.26"/>
<path class="tip" d="m376.68 42.73l2.89 3.87l.27-4.82z"/>
</g>
<g class="return">
<path class="shaft" d="m380 72c0 12.5-25.07 23.6-46 25c-20.93 1.4-37.73-6.9-46-14.5c-4.13-3.8-6.13-7.43-8.1-10.1c-.49-.67-.98-1.28-1.5-1.82c-.13-.13-.26-.26-.4-.39c-.07-.06-.14-.12-.2-.18l-.11-.1"/>
<path class="tip" d="m278.21 68.35l-4.83.12l3.77 3.01z"/>
</g>

<g class="user">
<rect x="304" y="112" width="120" height="24"/>
<text x="366" y="129">compute_volume</text>
</g>
<g class="call">
<path class="shaft" d="m272 52c23 0 46 7.5 63.25 18.75c8.63 5.63 15.81 12.19 20.84 19.22c2.52 3.52 4.49 7.15 5.84 10.84c.34.92.63 1.85.89 2.78c.13.46.25.93.35 1.4c.05.23.11.47.15.7l.07.35"/>
<path class="tip" d="m361.76 106.19l2.1 4.35l1.19-4.68z"/>
</g>
<g class="return">
<path class="shaft" d="m364 136c0 12.5-20.8 27.87-38 25c-17.2-2.87-30.8-23.97-38-46.5c-3.6-11.27-5.6-22.89-7.7-31.7c-1.05-4.4-2.12-8.1-3.44-10.7c-.04-.08-.08-.16-.12-.24l-.06-.1"/>
<path class="tip" d="m277.72 70.46l-4.57-1.55l2.51 4.13z"/>
</g>
<g class="call">
<path class="shaft" d="m256 116c12 0 15.2-6.9 24-14.5c8.8-7.6 23.2-15.9 42-14.5c9.4.7 19.9 3.82 28.05 8.34c4.08 2.26 7.56 4.86 10.03 7.68c.62.71 1.17 1.42 1.65 2.15c.12.18.24.37.35.55c.06.09.11.18.16.28l.13.23"/>
<path class="tip" d="m360.79 106.67l2.82 3.92l.36-4.82z"/>
</g>
<g class="return">
<path class="shaft" d="m364 136c0 12.5-23.2 23.6-42 25c-18.8 1.4-33.2-6.9-42-14.5c-4.4-3.8-7.4-7.43-10.8-10.1c-1.7-1.34-3.5-2.44-5.62-3.2c-.27-.1-.54-.19-.81-.27c-.14-.04-.28-.08-.42-.12l-.38-.1"/>
<path class="tip" d="m262.15 131.06l-4.7 1.11l4.32 2.17z"/>
</g>
</svg>
