<svg xmlns="http://www.w3.org/2000/svg" viewBox="0.0 0.0 296 204" fill="none" stroke="none">
<style>
.bk{fill:#fff}
.start{stroke-width:2;stroke:#000;fill:none}

.std>rect,.user>rect{stroke-width:1;stroke:#000;rx:4}
.std>rect{fill:#cfe2fe}
.user>rect{fill:#fce5cd}
text{font:13.5px Arial,sans-serif;text-anchor:middle;fill:#000}

.shaft{stroke-width:1;stroke:#000;fill:none}
.return>.shaft{stroke-dasharray:4 3}
.tip{stroke-width:1;stroke:#000;fill:#000}
</style>

<rect class="bk" x="0" y="0" width="296" height="204"/>
<circle class="start" cx="16" cy="16" r="8"/>

<g class="user">
<rect x="16" y="48" width="48" height="24"/>
<text x="40" y="65">main</text>
</g>
<g class="call">
<path class="shaft" d="m24 16c4 0 8 4 11 10c1.5 3 2.75 6.5 3.63 10.25c.22.94.41 1.89.58 2.86c.08.48.16.97.24 1.46c.04.24.07.49.1.73l.09.72"/>
<path class="tip" d="m37.99 42.11l1.92 4.43l1.37-4.63z"/>
</g>

<g class="user">
<rect x="136" y="48" width="120" height="24"/>
<text x="196" y="65">compute_volume</text>
</g>
<g class="call">
<path class="shaft" d="m64 52c18 0 24.8-6.9 36-14.5c11.2-7.6 26.8-15.9 48-14.5c10.6.7 22.6 3.83 31.95 8.34c4.68 2.26 8.69 4.86 11.53 7.68c.71.71 1.35 1.42 1.91 2.15c.28.37.54.73.77 1.1l.01.01"/>
<path class="tip" d="m192.6 42.79l2.96 3.82l.19-4.83z"/>
</g>
<g class="return">
<path class="shaft" d="m196 72c0 12.5-26.8 23.6-48 25c-21.2 1.4-36.8-6.9-48-14.5c-5.6-3.8-10.1-7.43-15.45-10.1c-2.68-1.34-5.56-2.44-8.91-3.2c-1.67-.38-3.46-.68-5.39-.89l-.26-.03"/>
<path class="tip" d="m70.07 66.64l-4.61 1.43l4.45 1.87z"/>
</g>

<g class="user">
<rect x="136" y="112" width="152" height="24"/>
<text x="212" y="129">compute_surface_area</text>
</g>
<g class="call">
<path class="shaft" d="m64 52c37 0 74 7.5 101.75 18.75c13.88 5.63 25.44 12.19 33.53 19.22c4.05 3.52 7.23 7.15 9.39 10.84c.54.92 1.02 1.85 1.43 2.78c.21.46.4.93.57 1.4c.09.23.17.47.25.7c.04.12.08.23.11.35l.01.04"/>
<path class="tip" d="m209.42 106.33l2.35 4.22l.92-4.74z"/>
</g>
<g class="return">
<path class="shaft" d="m212 136c0 12.5-31.07 27.87-56 25c-24.93-2.87-43.73-23.97-56-46.5c-6.13-11.27-10.63-22.89-15.85-31.7c-2.61-4.4-5.4-8.1-8.66-10.7c-1.63-1.3-3.38-2.32-5.28-3.02l-.29-.1"/>
<path class="tip" d="m70.19 67.34l-4.75.9l4.21 2.36z"/>
</g>

<g class="std">
<rect x="136" y="176" width="48" height="24"/>
<text x="160" y="193">print</text>
</g>
<g class="call">
<path class="shaft" d="m64 52c24 0 48 15.5 66 38.75c9 11.63 16.5 25.19 21.75 39.72c2.63 7.27 4.69 14.77 6.09 22.4c.7 3.81 1.24 7.66 1.61 11.52c.09.96.17 1.93.24 2.9c.03.48.07.97.09 1.45c.01.24.03.48.04.73l.03.54"/>
<path class="tip" d="m158.2 170.04l1.76 4.5l1.54-4.58z"/>
</g>
</svg>
