<svg xmlns="http://www.w3.org/2000/svg" viewBox="0 0 560 275">
<title>A call graph for a program that builds and prints sentences.</title>
<style>
@import url('https://fonts.googleapis.com/css?family=Open+Sans');
.bk{fill:#fff}
.start{stroke-width:2;stroke:#000;fill:none}

.std>rect,.user>rect{stroke-width:1;stroke:#000;rx:4}
.std>rect{fill:#cfe2fe}
.user>rect{fill:#fce5cd}
text{font:13px "Open Sans",sans-serif;text-anchor:middle;fill:#000}

.call,.return{stroke-width:1}
.black{stroke:#000}
.red{stroke:#85200c}
.green{stroke:#6aa84f}
.blue{stroke:#0076b6}
.gray{stroke:#555}
.shaft{fill:none}
.return>.shaft{stroke-dasharray:4 3}
.black>.tip{fill:#000}
.red>.tip{fill:#85200c}
.green>.tip{fill:#6aa84f}
.blue>.tip{fill:#0076b6}
.gray>.tip{fill:#555}
</style>

<rect class="bk" x="0" y="0" width="560" height="275"/>
<circle class="start" cx="16" cy="16" r="8"/>

<g class="user">
<rect x="16" y="48" width="40" height="24"/>
<text x="36" y="65">main</text>
</g>
<g class="black call">
<path class="shaft" d="m24 16c3 0 6 4 8.25 10c1.13 3 2.06 6.5 2.72 10.25c.16.94.31 1.89.44 2.86c.06.48.12.97.18 1.46c.03.24.05.49.08.73l.07.71"/>
<path class="tip" d="m34.08 42.08l1.86 4.46l1.44-4.61z"/>
</g>

<g class="user">
<rect x="64" y="104" width="104" height="24"/>
<text x="116" y="121">make_sentence</text>
</g>
<g class="red call">
<path class="shaft" d="m56 52c15 0 30 6.5 41.25 16.25c5.63 4.88 10.31 10.56 13.59 16.66c1.64 3.05 2.93 6.2 3.81 9.39c.22.8.41 1.6.58 2.41c.08.4.16.81.23 1.21l.02.1"/>
<path class="tip" d="m113.84 98.16l2.04 4.38l1.25-4.66z"/>
</g>
<g class="red return">
<path class="shaft" d="m116 128c0 12.5-15.07 27.33-28 25c-12.93-2.33-23.73-21.83-28-42.5c-2.13-10.33-2.63-20.96-2.85-29c-.05-2.01-.09-3.86-.13-5.5c-.01-.41-.02-.81-.03-1.19l-.03-.88"/>
<path class="tip" d="m58.59 73.66l-2.36-4.21l-.9 4.74z"/>
</g>

<g class="std">
<rect x="64" y="160" width="40" height="24"/>
<text x="84" y="177">print</text>
</g>
<g class="red call">
<path class="shaft" d="m56 52c7 0 14 13.5 19.25 33.75c2.63 10.13 4.81 21.94 6.34 34.59c.77 6.33 1.37 12.87 1.78 19.51c.21 3.32.36 6.67.47 10.03c.03.84.05 1.68.07 2.52c.01.42.02.84.03 1.26l.01.33"/>
<path class="tip" d="m82.29 154.02l1.7 4.52l1.61-4.55z"/>
</g>

<g class="user">
<rect x="152" y="160" width="160" height="24"/>
<text x="232" y="177">get_prepositional_phrase</text>
</g>
<g class="green call">
<path class="shaft" d="m168 108c16 0 32 6.5 44 16.25c6 4.88 11 10.56 14.5 16.66c1.75 3.05 3.13 6.2 4.06 9.39c.23.8.44 1.6.62 2.41c.09.4.17.81.25 1.21l.02.11"/>
<path class="tip" d="m229.8 154.18l2.06 4.37l1.23-4.67z"/>
</g>
<g class="green return">
<path class="shaft" d="m232 184c0 12.5 22.37 27.33 52.5 25c30.13-2.33 68.03-21.83 52.5-42.5c-7.77-10.33-28.89-20.96-58.64-29c-14.87-4.02-31.9-7.4-50.49-9.77c-9.3-1.18-18.98-2.12-28.99-2.76c-5-.32-10.08-.56-15.23-.73c-2.58-.08-5.17-.15-7.78-.19l-1.88-.03"/>
<path class="tip" d="m174.01 122.39l-4.55 1.62l4.53 1.68z"/>
</g>

<g class="std">
<rect x="192" y="216" width="80" height="24"/>
<text x="232" y="233">str.capitalize</text>
</g>
<g class="green call">
<path class="shaft" d="m168 108c16 0 32 13.5 44 33.75c6 10.13 11 21.94 14.5 34.59c1.75 6.33 3.13 12.87 4.06 19.51c.47 3.32.83 6.67 1.07 10.03c.06.84.11 1.68.16 2.52c.02.42.04.84.06 1.26l.01.33"/>
<path class="tip" d="m230.22 210.04l1.75 4.5l1.55-4.57z"/>
</g>
<g class="green return">
<path class="shaft" d="m232 240c0 12.5-14.27 31.07-26 25c-11.73-6.07-20.93-36.77-26-70.5c-2.53-16.87-4.03-34.49-5.65-47.9c-.81-6.7-1.65-12.35-2.66-16.33c-.06-.25-.13-.49-.19-.73l-.16-.56"/>
<path class="tip" d="m172.71 128.06l-3.9-2.85l1.16 4.69z"/>
</g>

<g class="user">
<rect x="336" y="40" width="104" height="24"/>
<text x="388" y="57">get_determiner</text>
</g>
<g class="green call">
<path class="shaft" d="m168 108c42 0 63.73-23.97 84-46.5c20.27-22.53 39.07-43.63 68-46.5c14.47-1.43 31.47 1.69 44.85 6.74c6.69 2.52 12.48 5.53 16.59 8.68c1.03.79 1.95 1.59 2.76 2.39c.4.4.78.8 1.12 1.21c.09.1.17.2.25.3l.12.15"/>
<path class="tip" d="m384.17 35.09l3.27 3.56l-.22-4.82z"/>
</g>
<g class="green return">
<path class="shaft" d="m388 64c0 15-27.5 30-68.75 41.25c-20.63 5.63-44.69 10.31-70.47 13.59c-12.89 1.64-26.21 2.93-39.75 3.81c-6.77.44-13.59.78-20.44 1c-3.42.11-6.85.2-10.29.26c-.86.01-1.72.03-2.58.04l-1.73.02"/>
<path class="tip" d="m173.99 122.32l-4.53 1.67l4.55 1.63z"/>
</g>

<g class="user">
<rect x="352" y="104" width="64" height="24"/>
<text x="384" y="121">get_noun</text>
</g>
<g class="green call">
<path class="shaft" d="m168 108c46 0 71.47-6.9 92-14.5c20.53-7.6 36.13-15.9 62-14.5c12.93.7 28.43 3.82 40.7 8.34c6.13 2.26 11.46 4.86 15.25 7.68c.95.71 1.8 1.42 2.54 2.15c.37.37.72.73 1.04 1.1l.16.19"/>
<path class="tip" d="m380.16 99.1l3.27 3.55l-.22-4.82z"/>
</g>
<g class="green return">
<path class="shaft" d="m384 128c0 12.5-36.13 23.6-62 25c-25.87 1.4-41.47-6.9-62-14.5c-10.27-3.8-21.77-7.43-36.45-10.1c-7.34-1.34-15.48-2.44-24.66-3.2c-4.59-.38-9.44-.68-14.58-.89c-2.57-.1-5.21-.18-7.93-.23c-.68-.01-1.36-.02-2.05-.03l-.34 0"/>
<path class="tip" d="m174.01 122.39l-4.55 1.62l4.53 1.68z"/>
</g>

<g class="user">
<rect x="352" y="160" width="64" height="24"/>
<text x="384" y="177">get_verb</text>
</g>
<g class="green call">
<path class="shaft" d="m168 108c54 0 108 6.5 148.5 16.25c20.25 4.88 37.13 10.56 48.94 16.66c5.91 3.05 10.55 6.2 13.71 9.39c.79.8 1.49 1.6 2.09 2.41c.3.4.58.81.83 1.21c.06.1.13.2.19.3l.02.03"/>
<path class="tip" d="m380.7 154.73l2.89 3.87l.28-4.82z"/>
</g>
<g class="green return">
<path class="shaft" d="m384 184c0 12.5-36.13 27.33-62 25c-25.87-2.33-41.47-21.83-62-42.5c-10.27-10.33-21.77-20.96-36.45-29c-7.34-4.02-15.48-7.4-24.66-9.77c-4.59-1.18-9.44-2.12-14.58-2.76c-2.57-.32-5.21-.56-7.93-.73c-.68-.04-1.36-.08-2.05-.11l-.34-.01"/>
<path class="tip" d="m174.03 122.48l-4.57 1.55l4.5 1.75z"/>
</g>

<g class="user">
<rect x="336" y="216" width="104" height="24"/>
<text x="388" y="233">get_preposition</text>
</g>
<g class="blue call">
<path class="shaft" d="m312 164c6 0 6.13-38.9 12-74.5c5.87-35.6 17.47-67.9 32-74.5c7.27-3.3 15.27-.18 21.45 5.34c3.09 2.76 5.73 6.11 7.59 9.55c.47.86.88 1.73 1.25 2.59c.18.43.35.86.51 1.29l.11.32"/>
<path class="tip" d="m385.29 34.4l2.45 4.16l.8-4.76z"/>
</g>
<g class="blue return">
<path class="shaft" d="m388 64c0 29-9.5 58-23.75 79.75c-7.13 10.88-15.44 19.94-24.34 26.28c-4.45 3.17-9.05 5.66-13.73 7.36c-2.34.85-4.69 1.5-7.06 1.94c-.3.05-.59.11-.89.15l-.25.04"/>
<path class="tip" d="m317.85 177.88l-4.39 2l4.65 1.29z"/>
</g>
<g class="blue call">
<path class="shaft" d="m312 164c10 0 13.87-21.83 20-42.5c6.13-20.67 14.53-40.17 26-42.5c5.73-1.17 12.23 1.96 17.3 6.94c2.53 2.49 4.71 5.44 6.25 8.55c.39.78.73 1.57 1.03 2.36c.15.4.29.79.42 1.19l.01.04"/>
<path class="tip" d="m381.39 98.35l2.37 4.21l.88-4.75z"/>
</g>
<g class="blue return">
<path class="shaft" d="m384 128c0 13-9 26-22.5 35.75c-6.75 4.88-14.63 8.94-23.06 11.78c-4.22 1.42-8.58 2.54-13.01 3.3c-2.21.38-4.45.67-6.69.87l-.75.06"/>
<path class="tip" d="m317.93 178.11l-4.47 1.83l4.6 1.47z"/>
</g>
<g class="blue call">
<path class="shaft" d="m312 164c19 0 38 6.5 52.25 16.25c7.13 4.88 13.06 10.56 17.22 16.66c2.08 3.05 3.71 6.2 4.82 9.39c.28.8.52 1.6.74 2.41c.11.4.2.81.29 1.21l.02.12"/>
<path class="tip" d="m385.71 210.22l2.14 4.33l1.15-4.69z"/>
</g>
<g class="blue return">
<path class="shaft" d="m388 240c0 12.5-17.47 27.33-32 25c-14.53-2.33-26.13-21.83-32-42.5c-2.93-10.33-4.43-20.96-5.95-29c-.38-2.01-.76-3.86-1.16-5.5c-.2-.82-.41-1.59-.63-2.3c-.11-.36-.22-.7-.33-1.03l-.04-.1"/>
<path class="tip" d="m317.15 183.5l-4.2-2.38l1.69 4.53z"/>
</g>

<g class="std">
<rect x="456" y="104" width="96" height="24"/>
<text x="504" y="121">random.choice</text>
</g>
<g class="gray call">
<path class="shaft" d="m440 44c16 0 32 7.5 44 18.75c6 5.63 11 12.19 14.5 19.22c1.75 3.52 3.13 7.15 4.06 10.84c.23.92.44 1.85.62 2.78c.09.46.17.93.25 1.4c.04.23.07.47.11.7l.05.33"/>
<path class="tip" d="m501.93 98.13l1.96 4.41l1.33-4.64z"/>
</g>
<g class="gray return">
<path class="shaft" d="m504 128c0 12.5-15.2 27.87-28 25c-12.8-2.87-23.2-23.97-28-46.5c-2.4-11.27-3.4-22.89-4.3-31.7c-.23-2.2-.44-4.23-.68-6.03c-.12-.9-.24-1.74-.36-2.53c-.03-.2-.06-.39-.1-.57l-.04-.23"/>
<path class="tip" d="m444.02 64.75l-3.41-3.42l.41 4.81z"/>
</g>
<g class="gray call">
<path class="shaft" d="m416 108c10 0 12.8-6.9 20-14.5c7.2-7.6 18.8-15.9 34-14.5c7.6.7 16.1 3.82 22.7 8.34c3.3 2.26 6.13 4.86 8.13 7.68c.5.71.95 1.42 1.34 2.15c.1.18.19.37.28.55c.05.09.09.18.13.28l.07.16"/>
<path class="tip" d="m501.04 98.52l2.63 4.05l.59-4.79z"/>
</g>
<g class="gray return">
<path class="shaft" d="m504 128c0 12.5-18.8 23.6-34 25c-15.2 1.4-26.8-6.9-34-14.5c-3.6-3.8-6.1-7.43-8.95-10.1c-1.42-1.34-2.94-2.44-4.72-3.2c-.11-.05-.22-.09-.34-.14l-.08-.03"/>
<path class="tip" d="m422.19 123.4l-4.75.85l4.19 2.4z"/>
</g>
<g class="gray call">
<path class="shaft" d="m416 164c10 0 12.8-21.83 20-42.5c7.2-20.67 18.8-40.17 34-42.5c7.6-1.17 16.1 1.96 22.7 6.94c3.3 2.49 6.13 5.44 8.13 8.55c.5.78.95 1.57 1.34 2.36c.2.4.38.79.54 1.19l.04.09"/>
<path class="tip" d="m501.13 98.48l2.56 4.09l.67-4.78z"/>
</g>
<g class="gray return">
<path class="shaft" d="m504 128c0 13-11 26-27.5 35.75c-8.25 4.88-17.88 8.94-28.19 11.78c-5.16 1.42-10.48 2.54-15.9 3.3c-2.71.38-5.44.67-8.17.87c-.68.05-1.37.09-2.06.13l-.19.01"/>
<path class="tip" d="m421.95 178.19l-4.49 1.77l4.58 1.53z"/>
</g>
<g class="gray call">
<path class="shaft" d="m440 220c4 0 3.2-36.77 8-70.5c4.8-33.73 15.2-64.43 28-70.5c6.4-3.03 13.4.09 18.8 5.54c2.7 2.72 5 6.03 6.63 9.43c.41.85.77 1.71 1.09 2.56c.16.43.31.86.44 1.28l.08.26"/>
<path class="tip" d="m501.41 98.34l2.36 4.21l.9-4.74z"/>
</g>
<g class="gray return">
<path class="shaft" d="m504 128c0 27-8 54-20 74.25c-6 10.13-13 18.56-20.5 24.47c-3.75 2.95-7.63 5.27-11.56 6.86c-1.97.79-3.95 1.4-5.95 1.81l-.02 0"/>
<path class="tip" d="m445.8 233.74l-4.34 2.11l4.68 1.18z"/>
</g>
</svg>
